<svg id="Layer_1" data-name="Layer 1" xmlns="http://www.w3.org/2000/svg" xmlns:xlink="http://www.w3.org/1999/xlink" width="1600" height="900" viewBox="0 0 1600 900">
  <defs>
    <style>
      .cls-1 {
        fill: none;
      }

      .cls-2 {
        clip-path: url(#clip-path);
      }

      .cls-3 {
        clip-path: url(#clip-path-2);
      }

      .cls-4 {
        fill: #191c3f;
      }

      .cls-5 {
        opacity: 0.8;
      }

      .cls-6 {
        fill: #f4edf9;
      }

      .cls-7 {
        opacity: 0.7;
      }

      .cls-8 {
        opacity: 0.76;
      }

      .cls-9 {
        opacity: 0.57;
      }

      .cls-10 {
        fill: #f9f0bd;
      }

      .cls-11 {
        opacity: 0.78;
      }

      .cls-12 {
        opacity: 1;
      }

      .cls-13 {
        fill: #f9e9aa;
      }

      .cls-14 {
        fill: #a0e6f9;
      }

      .cls-15 {
        clip-path: url(#clip-path-3);
      }

      .cls-16 {
        clip-path: url(#clip-path-4);
      }

      .cls-17 {
        clip-path: url(#clip-path-5);
      }

      .cls-18 {
        fill: url(#linear-gradient);
      }
    </style>
    <clipPath id="clip-path">
      <rect class="cls-1" width="1600" height="900"/>
    </clipPath>
    <clipPath id="clip-path-2">
      <rect class="cls-1" x="-9081.47" y="861.8" width="11168.71" height="2050"/>
    </clipPath>
    <clipPath id="clip-path-3">
      <rect class="cls-1" x="-5159.06" y="-1128.5" width="10800" height="2050"/>
    </clipPath>
    <clipPath id="clip-path-4">
      <rect class="cls-1" x="199.58" y="2172.35" width="1280" height="720"/>
    </clipPath>
    <clipPath id="clip-path-5">
      <rect class="cls-1" x="39.58" y="2082.35" width="1600" height="900"/>
    </clipPath>
    <linearGradient id="linear-gradient" x1="-4777.42" y1="4184.33" x2="-4777.42" y2="-2799.52" gradientUnits="userSpaceOnUse">
      <stop offset="0" stop-color="#a4f2ff"/>
      <stop offset="0.23" stop-color="#69e3ff"/>
      <stop offset="0.45" stop-color="#34d5ff"/>
      <stop offset="0.57" stop-color="#1fd0ff"/>
      <stop offset="0.65" stop-color="#25c3ff"/>
      <stop offset="0.81" stop-color="#36a2ff"/>
      <stop offset="1" stop-color="#4d73ff"/>
    </linearGradient>
  </defs>
  <g class="cls-2">
    <g class="cls-3">
      <rect class="cls-4" x="-3497.11" y="861.8" width="5584.35" height="2050" transform="translate(-1409.87 3773.61) rotate(-180)"/>
      <g>
        <g>
          <g class="cls-5">
            <path class="cls-6" d="M1521,840l-1.11,5.92a1.91,1.91,0,0,0,1,2.05l5.52,2.77-6.12-1.08a2,2,0,0,0-2.12,1l-2.86,5.34,1.11-5.92a1.91,1.91,0,0,0-1-2.05l-5.52-2.77,6.12,1.08a2,2,0,0,0,2.13-1Z"/>
          </g>
          <g class="cls-7">
            <ellipse class="cls-6" cx="1546.58" cy="600.02" rx="1.97" ry="1.91"/>
            <path class="cls-6" d="M1457.82,668a2,2,0,1,1-2-1.91A1.93,1.93,0,0,1,1457.82,668Z"/>
          </g>
        </g>
        <g>
          <g class="cls-5">
            <g class="cls-8">
              <path class="cls-6" d="M811.25,743.84l.61,6a2,2,0,0,0,1.59,1.71l6.13,1.21-6.23.59a2,2,0,0,0-1.76,1.54l-1.25,5.93-.61-6a2,2,0,0,0-1.6-1.71L802,751.9l6.23-.59a2,2,0,0,0,1.77-1.54Z"/>
            </g>
            <g class="cls-9">
              <path class="cls-6" d="M164,590l-.21,7.19a2.32,2.32,0,0,0,1.62,2.25l7.05,2.31-7.44-.2a2.38,2.38,0,0,0-2.32,1.56l-2.39,6.82.21-7.19a2.32,2.32,0,0,0-1.62-2.25l-7.05-2.31,7.44.2a2.38,2.38,0,0,0,2.32-1.56Z"/>
            </g>
            <path class="cls-6" d="M1242.53,788.42l-2.3,5.59a1.89,1.89,0,0,0,.6,2.21l4.85,3.77-5.78-2.22a2,2,0,0,0-2.29.58l-3.9,4.68,2.3-5.59a1.89,1.89,0,0,0-.6-2.21l-4.85-3.77,5.78,2.22a2,2,0,0,0,2.29-.58Z"/>
            <path class="cls-6" d="M1035.84,615.74l-1.08,8.77a2.82,2.82,0,0,0,1.72,2.92l8.35,3.58-9.07-1a3,3,0,0,0-3,1.66l-3.7,8.08,1.08-8.77a2.82,2.82,0,0,0-1.72-2.92l-8.34-3.58,9.06,1.05a3,3,0,0,0,3-1.66Z"/>
            <path class="cls-10" d="M1349.35,612.73l1.88,5.73a2,2,0,0,0,1.91,1.35l6.22-.06-5.92,1.83a1.91,1.91,0,0,0-1.39,1.85l.06,6-1.89-5.73a2,2,0,0,0-1.91-1.34l-6.22,0,5.92-1.82a1.93,1.93,0,0,0,1.39-1.85Z"/>
            <path class="cls-6" d="M380.82,707.92l-.48,6a1.92,1.92,0,0,0,1.25,1.94l5.79,2.21-6.2-.46a2,2,0,0,0-2,1.21l-2.28,5.59.48-6a1.92,1.92,0,0,0-1.26-1.94l-5.78-2.21,6.2.46a2,2,0,0,0,2-1.21Z"/>
            <path class="cls-6" d="M1353.65,779.51l-5,6.42a2.51,2.51,0,0,0,0,3.06l4.88,6.5-6.65-4.82a2.72,2.72,0,0,0-3.16,0l-6.72,4.72,5-6.43a2.49,2.49,0,0,0,0-3.05l-4.88-6.51,6.65,4.83a2.74,2.74,0,0,0,3.15,0Z"/>
            <g class="cls-11">
              <path class="cls-6" d="M1046.25,872.85l1.81,6.83a2.31,2.31,0,0,0,2.15,1.69l7.28.34-7.06,1.75a2.28,2.28,0,0,0-1.76,2.08l-.35,7-1.81-6.83a2.31,2.31,0,0,0-2.15-1.69l-7.28-.34,7.06-1.75a2.28,2.28,0,0,0,1.76-2.08Z"/>
            </g>
            <path class="cls-6" d="M1113.36,769l1.41,5.86a2,2,0,0,0,1.8,1.48l6.2.43-6.06,1.36a1.93,1.93,0,0,0-1.53,1.74l-.44,6-1.41-5.85a2,2,0,0,0-1.8-1.49l-6.2-.42,6.06-1.36a2,2,0,0,0,1.53-1.74Z"/>
            <path class="cls-6" d="M1402.55,566l-1.72,5.78a1.88,1.88,0,0,0,.82,2.14l5.2,3.3-6-1.67a2,2,0,0,0-2.22.79l-3.41,5,1.73-5.78a1.89,1.89,0,0,0-.82-2.14l-5.2-3.3,6,1.67a2,2,0,0,0,2.22-.79Z"/>
          </g>
          <g class="cls-7">
            <path class="cls-6" d="M55.4,757a2,2,0,1,1-2-1.91A1.93,1.93,0,0,1,55.4,757Z"/>
            <path class="cls-6" d="M110.84,901.06a2,2,0,1,1-2-1.91A1.94,1.94,0,0,1,110.84,901.06Z"/>
            <path class="cls-6" d="M270.8,878.37a2,2,0,1,1-2-1.91A1.94,1.94,0,0,1,270.8,878.37Z"/>
            <path class="cls-6" d="M383.06,792.45a2,2,0,1,1-2-1.91A1.94,1.94,0,0,1,383.06,792.45Z"/>
            <path class="cls-6" d="M344.17,687a2,2,0,1,1-2-1.91A2,2,0,0,1,344.17,687Z"/>
            <path class="cls-6" d="M528.74,840.82a2,2,0,1,1-2-1.9A1.94,1.94,0,0,1,528.74,840.82Z"/>
            <path class="cls-13" d="M506.44,696.66a2,2,0,1,1-2-1.9A1.94,1.94,0,0,1,506.44,696.66Z"/>
            <path class="cls-6" d="M698.32,631.14a2,2,0,1,1-2-1.91A1.93,1.93,0,0,1,698.32,631.14Z"/>
            <path class="cls-6" d="M909.48,738.73a2,2,0,1,1-2-1.91A1.94,1.94,0,0,1,909.48,738.73Z"/>
            <path class="cls-6" d="M723,871.06a2,2,0,1,1-2-1.91A1.94,1.94,0,0,1,723,871.06Z"/>
            <path class="cls-6" d="M962,776.56a2,2,0,1,1-2-1.91A1.94,1.94,0,0,1,962,776.56Z"/>
            <path class="cls-6" d="M1064,649.5a2,2,0,1,1-2-1.91A1.94,1.94,0,0,1,1064,649.5Z"/>
            <path class="cls-6" d="M1190.61,674.24a2,2,0,1,1-2-1.91A1.94,1.94,0,0,1,1190.61,674.24Z"/>
            <path class="cls-6" d="M1224.11,739a2,2,0,1,1-2-1.91A1.95,1.95,0,0,1,1224.11,739Z"/>
            <path class="cls-6" d="M1228.44,842.14a2,2,0,1,1-2-1.91A1.94,1.94,0,0,1,1228.44,842.14Z"/>
            <path class="cls-6" d="M1289.78,893.79a2,2,0,1,1-2-1.91A1.93,1.93,0,0,1,1289.78,893.79Z"/>
            <path class="cls-13" d="M1265.11,571.12a2,2,0,1,1-2-1.91A1.93,1.93,0,0,1,1265.11,571.12Z"/>
            <path class="cls-6" d="M284.13,603.14a2,2,0,1,1-2-1.9A1.94,1.94,0,0,1,284.13,603.14Z"/>
            <path class="cls-6" d="M1369.75,689.52a2,2,0,1,1-2-1.9A1.94,1.94,0,0,1,1369.75,689.52Z"/>
            <path class="cls-6" d="M855.21,609.59a2,2,0,1,1-2-1.9A1.94,1.94,0,0,1,855.21,609.59Z"/>
            <path class="cls-14" d="M775.12,665.7a2,2,0,1,1-2-1.9A1.94,1.94,0,0,1,775.12,665.7Z"/>
          </g>
        </g>
      </g>
    </g>
    <g class="cls-15">
      <g>
        <rect class="cls-4" x="-5159.06" y="-1128.5" width="5400" height="2050"/>
        <rect class="cls-4" x="240.94" y="-1128.5" width="5400" height="2050" transform="translate(5881.87 -207) rotate(-180)"/>
      </g>
    </g>
  </g>
  <rect class="cls-1" x="160" y="90" width="1280" height="720"/>
  <g class="cls-16">
    <g class="cls-17">
      <rect class="cls-18" x="-11373.27" y="-1620.05" width="13191.7" height="5525.81"/>
    </g>
  </g>
</svg>
