<svg xmlns="http://www.w3.org/2000/svg" xmlns:xlink="http://www.w3.org/1999/xlink" width="96.2" height="68.24" viewBox="0 0 96.2 68.24">
  <defs>
    <style>
      .cls-1 {
        fill: none;
      }

      .cls-2 {
        isolation: isolate;
      }

      .cls-3 {
        fill: #f8f6f0;
      }

      .cls-4 {
        fill: #1a406b;
      }

      .cls-5 {
        fill: #12170d;
      }

      .cls-6 {
        fill: #4da8de;
      }

      .cls-7 {
        clip-path: url(#clip-path);
      }

      .cls-8 {
        fill: #6de2fe;
      }

      .cls-9 {
        fill: #b3c661;
      }

      .cls-10 {
        opacity: 0.3;
      }

      .cls-11 {
        clip-path: url(#clip-path-2);
      }

      .cls-12 {
        mix-blend-mode: multiply;
      }

      .cls-13 {
        fill: #84e75a;
      }

      .cls-14 {
        clip-path: url(#clip-path-4);
      }

      .cls-15 {
        opacity: 0.21;
      }

      .cls-16 {
        clip-path: url(#clip-path-5);
      }

      .cls-17 {
        fill: #23490f;
      }

      .cls-18 {
        opacity: 0.56;
      }

      .cls-19 {
        clip-path: url(#clip-path-6);
      }

      .cls-20 {
        clip-path: url(#clip-path-7);
      }

      .cls-21 {
        fill: url(#radial-gradient);
      }

      .cls-22 {
        clip-path: url(#clip-path-8);
      }

      .cls-23 {
        clip-path: url(#clip-path-9);
      }

      .cls-24 {
        fill: url(#linear-gradient);
      }
    </style>
    <clipPath id="clip-path">
      <rect class="cls-1" x="2710.56" y="-475.58" width="1280" height="720"/>
    </clipPath>
    <clipPath id="clip-path-2">
      <rect class="cls-1" x="-4008.38" y="32.39" width="8468.38" height="314.12"/>
    </clipPath>
    <clipPath id="clip-path-4">
      <rect class="cls-1" x="-4069.61" y="-556.19" width="12896.26" height="900"/>
    </clipPath>
    <clipPath id="clip-path-5">
      <rect class="cls-1" x="-666.1" y="-44.9" width="1885.03" height="374.76"/>
    </clipPath>
    <clipPath id="clip-path-6">
      <rect class="cls-1" x="-590.67" y="-32.22" width="1712.33" height="374.76"/>
    </clipPath>
    <clipPath id="clip-path-7">
      <path class="cls-1" d="M437.71-21.29c24.45,11,47.5,14.05,73.49,14A544.83,544.83,0,0,1,614.42,2.27L599,13.72q24.72,5.52,49,13.39c4.05,1.31,9,3.83,8.18,9.59a8.33,8.33,0,0,1-3.91,6.09l-31,18.12c-2.15,1.26-4.57,2.88-4.24,6.34a5.87,5.87,0,0,0,4.79,5.5c63,8.09,126.41,15.92,187.59,36a9.2,9.2,0,0,1,5.9,7.6c1.52,10.77-14.91,10.28-20.45,19.24a159,159,0,0,1,49.56,8c3.35,1.1,7.15,2.74,7.23,8a10.2,10.2,0,0,1-3.12,7.51,92.43,92.43,0,0,1-35.13,21c56,3.56,111.46,18.74,163.24,44.66,6.59,3.3,14.13,8.22,12.81,18.29a17.48,17.48,0,0,1-4.78,10c-16.23,16.47-36.78,24.26-56.87,31.78,61.36,5,122,21.89,179,49.74,2.88,1.41,6,3.14,7.26,6.58a7.66,7.66,0,0,1,.54,2.69H-576.73V300.13l8.35,1.65s127.77-50.09,208.83-34.18a.41.41,0,0,0,0-.79c-40.67-6.6-110.33-37-149.76-50.72-8.49-3-18.94-9.45-16.23-20.69.87-3.63,4-7.82,6.88-9.38,46.21-25.43,155.07-17.66,109.9-29.7-25.62-6.83,75.51-23.87,103.8-28.82-6.48.17-49.9-7.66-26.86-23.16,10.4-3.91,64.18-22,70.58-23.24,47.16-9.25,80.71-7,119.07-4.83C-123,77.38-94,82.49-70,82.16c-3.21-5-57.43-24.39-40.49-30.16C-53.92,32.72-17,12.69,19.22,13.63,69.4,14.92,129.85,2.61,180.65-2c-4.94-3.48-3.84-13.26.64-17.55s10.64-4.65,16.36-4.82l178.58-5.45c4.81-.15,9.46-.26,14-.26,16.31,0,31.28,1.53,47.47,8.83"/>
    </clipPath>
    <radialGradient id="radial-gradient" cx="-7201.05" cy="344.77" r="1" gradientTransform="matrix(608.17, 0, 0, -367.21, 4379763.47, 126762.81)" gradientUnits="userSpaceOnUse">
      <stop offset="0" stop-color="#61dfff"/>
      <stop offset="0.14" stop-color="#5adaff"/>
      <stop offset="0.35" stop-color="#47caff"/>
      <stop offset="0.59" stop-color="#28b1ff"/>
      <stop offset="0.84" stop-color="#0091ff"/>
      <stop offset="1" stop-color="#0091ff"/>
    </radialGradient>
    <clipPath id="clip-path-8">
      <rect class="cls-1" x="2737.43" y="3599.09" width="1280" height="720"/>
    </clipPath>
    <clipPath id="clip-path-9">
      <rect class="cls-1" x="2577.43" y="3509.09" width="1600" height="900"/>
    </clipPath>
    <linearGradient id="linear-gradient" x1="-2239.56" y1="5611.07" x2="-2239.56" y2="-1372.78" gradientUnits="userSpaceOnUse">
      <stop offset="0" stop-color="#a4f2ff"/>
      <stop offset="0.23" stop-color="#69e3ff"/>
      <stop offset="0.45" stop-color="#34d5ff"/>
      <stop offset="0.57" stop-color="#1fd0ff"/>
      <stop offset="0.65" stop-color="#25c3ff"/>
      <stop offset="0.81" stop-color="#36a2ff"/>
      <stop offset="1" stop-color="#4d73ff"/>
    </linearGradient>
  </defs>
  <g class="cls-2">
    <g id="Layer_1" data-name="Layer 1">
      <g>
        <ellipse class="cls-3" cx="60.66" cy="39.63" rx="16.25" ry="12.01" transform="translate(5.52 86.63) rotate(-73.6)"/>
        <ellipse class="cls-4" cx="63.25" cy="41.91" rx="9.26" ry="6.84" transform="translate(5.19 90.76) rotate(-73.6)"/>
        <ellipse class="cls-5" cx="63.53" cy="41.73" rx="3.34" ry="2.47" transform="matrix(0.28, -0.96, 0.96, 0.28, 5.56, 90.89)"/>
        <ellipse class="cls-3" cx="66.57" cy="40.12" rx="2.71" ry="2.01" transform="translate(9.29 92.66) rotate(-73.6)"/>
        <ellipse class="cls-3" cx="36.57" cy="29.93" rx="17.59" ry="13" transform="translate(-2.47 56.56) rotate(-73.6)"/>
        <ellipse class="cls-4" cx="39.37" cy="32.39" rx="10.03" ry="7.41" transform="translate(-2.82 61.02) rotate(-73.6)"/>
        <ellipse class="cls-5" cx="39.67" cy="32.2" rx="3.62" ry="2.67" transform="translate(-2.42 61.16) rotate(-73.6)"/>
        <ellipse class="cls-3" cx="42.97" cy="30.46" rx="2.94" ry="2.17" transform="translate(1.62 63.08) rotate(-73.6)"/>
        <path class="cls-6" d="M23.83,38c1.21,4.34,4,7.67,7.77,8.8,4.67,1.37,9.21-.26,12.86-4.77C36.58,50.29,26,44,23.83,38Z"/>
        <path class="cls-6" d="M41.53,13.05c-6.89-2-14.69,3.89-17.44,13.21,8.4-2.92,21.93-.81,25,7.34C51.78,24.28,48.42,15.08,41.53,13.05Z"/>
        <path class="cls-6" d="M48.79,46.64c1.05,4.22,3.62,7.5,7.28,8.57,3.29,1,6.8,0,9.77-2.39C57.49,57,51.27,52,48.79,46.64Z"/>
        <path class="cls-6" d="M72.18,43c2.53-8.61-.57-17.1-6.93-19s-13.57,3.59-16.11,12.2C62.16,33.28,71.33,38.69,72.18,43Z"/>
      </g>
      <g class="cls-7">
        <path class="cls-8" d="M4758.59,172.27l0-92.72V49.18l-.13-458.67,0-147.62-15622.49.31.06,186.17h0l0,129.29v105l0,63.92v1.62c1.2.11,1.78,3.94,2,9.52.19,5.81,0,13.52-.42,20.89-.35,7.21-.82,14.11-1.14,18.57h0c-.19,2.49-.35,4.21-.38,4.84v0a1.36,1.36,0,0,0,0,.24s0,0,.06,0c.41.58,5.24,6.79,7.85,7.15l0,89.05,0,59.93c4.39,15.44,6.55,30.06,2.35,46.16-.76,2.92-1.53,5.83-2.33,8.73l0,140.52v8h237.47l15029.66-.29h339.53l0-163.8h7.91Z"/>
        <path class="cls-9" d="M4413.94-60.72c-1354.44,31.09-9549.2,6.84-15593.32,0V94.55c8.91,9,17.29,18.8,20.46,28.29,7.48,22.43,13.62,41.68,7.89,63.74-5.82,22.41-12.69,44.54-22.2,66.64-2.05,4.76-4.14,9.52-6.15,14.28v76.18H4413.94Z"/>
        <g class="cls-10">
          <g class="cls-11">
            <g class="cls-12">
              <g class="cls-11">
                <path class="cls-13" d="M4407,152h5.61l3.82,151.22h43.49v43.32H-4008.38V184.79l6.48-.06q23.59-.24,47.14-.53,81.78-1,163.2-2.29h0l14.35-.23h0q60.15-1,120.15-2c201.13-3.55,400.68-6.51,603.58-8.31l32.42-.3,6.61-.06,15.56-.14,14.65-.13q114.6-1.07,228.78-2.51,65.82-.9,131.18-2.1c50.5-.94,101-2.56,151.92-3.07,56-.58,100.32-1.46,129-7.29,1.7-.36.69-.71-2.16-.93-109.81-8-261.14-7.81-387.83-8.22q-57.33-.21-114.46-.63c-66-.44-131.87-.88-198-.83-118.58.08-237,.56-355.51,0-106.34-.55-226.25-1.45-320.19-7.47-17.53-1.12-33.22-2.55-46.68-4.24-11.41-1.41-10.35-1.43,2-2.67,14.22-1.39,30.64-2.49,47.34-3.47,62-3.71,135.15-5.11,204.14-6.28,64.2-1.07,129.19-1.63,193-2.9,98.88-2,196.7-5,294.53-7.48,111.55-2.83,223.78-5.76,337.27-7.49h0q13.55-.21,27.13-.39h.22q15.63-.21,31.32-.39c11-.12,22-.23,33-.33h1.66l15.93-.12,14.73-.1,18.36-.1h1.8q11.42,0,22.85-.06h0q10.55,0,21.09,0h3c157.47,0,314.86,2,472.41.94,30.69-.2,61.56-.53,92.1-1.07h0q23.57-.42,46.77-1l4.32-.11h0l11.27-.32q13.08-.39,26-.86c4.12-.14,8.2-.29,12.27-.45h0l3.58-.15q23.54-.93,46.1-2.18c4.32-.26,3.68-.92,0-1.16C-1911,86.39-2072,85.46-2218,84.7c-90.13-.45-178.44-1.22-267.42-2.92q-113.88-2.16-225.45-5.54l-16.32-.47-.66,0h0l-5.93-.17-26.54-.79-5.37-.15h-.19l-3.27-.1-13.16-.4h-.11l-.48,0h0c-.27,0-.55,0-.81,0q-21.21-.63-42.38-1.29-38.71-1.2-77.37-2.44l-2.18-.06h0l-1.73-.06h-.05q-140.88-4.5-281.59-9.18h0l-17.27-.56h-.1l-3.39-.11-48.85-1.58-25.76-.81h0l-12.44-.4-18.17-.57-9.93-.31-13.55-.42-11.66-.36h0l-20.54-.63-5.24-.16-33.38-1h0q-45.6-1.37-91.37-2.64h0q-26.67-.77-53.43-1.46h0q-29.86-.8-59.81-1.55l-4-.09-1.19,0q-31.2-.78-62.52-1.5-101.82-2.34-205-4-34-.51-68-.93-23.55-.28-47.14-.5c-2.16,0-4.32-.05-6.48-.06v-9l6.48,0q23.49.11,47.14.31c182.56,1.56,369.66,7.54,549.73,11.15q59.39,1.18,118.08,3h0l15.23.47Q-3218.16,49-3164.9,51h0l14.86.53,8.91.34h.07l11.87.43,36.74,1.36h.07l6.45.23h0l20,.74,4.45.16h.07l.32,0,8.76.31,15.07.55h0l19,.69,1.25,0,5.53.19c6.49.24,13,.47,19.47.69h0l17.61.61q38.76,1.32,77.73,2.49,15.15.45,30.38.87l2.86.08h0l16.6.44h0q17,.43,34,.82,11.18.26,22.38.48l3.66.08,16.22.32h.06l3.08.07c242.22,4.79,479.2,8.19,723.1,10.56h0l15.3.15h1.18l4.17,0c4.51,0,9,.08,13.53.13l5.79.06,11.15.13c3,0,6,.06,9.08.11q7.74.08,15.47.18l9.36.12,23.1.31h0q20.5.27,40.95.6h0c10.56.16,21.15.34,31.7.52h0q54.24.9,108.35,2h.52q18.78.38,37.56.78a0,0,0,0,1,0,0,0,0,0,0,1,0,0l9.62.2h.79l8.85.18,15.43.34,14.88.32,8.1.18h.55l11.54.26,15.21.34h0l19.35.44,1.9,0h0l8.16.2q12,.25,24.09.55l5.5.13h0c113.09,2.62,226.11,5.4,339.43,7.71q130.64,2.67,262,4.21c345.68,3.68,692.14.29,1038,4q110.4,1.2,219.63,2h0l27.49.2q-12.21,0-24.44,0h0c-38.69.06-77.36.21-116.22.52-98.25.81-196.15,2.26-294,3.49-96.16,1.22-193.61,2.45-290.59,2-85.75-.41-172.22-1.6-257.61,0-12.66.23-25.16.65-37.28,1-5.58.19-5.73.9-1.54,1.25,107.6,8.75,251.11,10.69,381.06,11.72,147.87,1.17,297.07.87,445.15,1.38q107.36.36,214.65.5,194.4.29,388.78,0c203.08-.28,406-1.35,609.05-1.77q102.54-.23,204.5.6c320.52,2.37,638,10.35,960,9.23,115.77-.4,231.68-1.56,347.34-2.85q101.55-1.12,202.79-2.27c145.33-1.55,312.53-4.94,452.68,1.29-56.79,9.54-184.5,9.54-251,18.18-2.58.33-2.25.69.26,1l.9.09c59.66,5,146,5,217.34,4.43,60.34-.47,120.27-1.64,179.29-3.21l18-.5q13.86-.39,27.63-.81l6.07-.19,13.83-.43,13.13-.42,6.19-.21h0q26.51-.87,52.6-1.83C3890.12,139,3995.58,134,4095,128c44.91-2.73,91.33-5.75,132.82-9.34,27.55-2.4,52.95-5,74.3-8l1.44-.21c-442,4.73-1288.72,15.53,0-14.64.21,0-.42,0-.62-.05-5.73-.46-11.81-.87-18.17-1.24h0c-17.25-1-36.58-1.69-56.93-2.17s-41.75-.73-63.05-.87l-6.14,0-3.07,0c-22.83-.11-45.42-.09-66.35-.06l-23.28,0c-98.09.11-195.93,1.23-293.64,2.22q-49,.48-98.06.92h0l-14,.12h-.07l-21.3.19s0,0,0,0l-76.19.65-3.7,0h-.71q-44.11.38-88.26.79l-2.87,0h-.54q-36,.33-72,.7c-135.32,1.39-272.68,2.6-408.8,1.79h-.15q-47.19-.29-94.15-.91l-.76,0-9.07-.12h-.15l-10.26-.16h-.71l-18.64-.3-1.26,0,1.3-.07,8.87-.44h0q6.76-.36,13.58-.68h0q8.64-.43,17.33-.83l2.24-.1c75.58-3.51,153.65-6.13,233-8.31h0q48.14-1.34,96.89-2.46h0q18.73-.45,37.55-.87h0l1.78,0h0L3284.5,83l32.75-.72h.66l18.79-.41,16.9-.36,21.49-.46h.63l3-.07,32.63-.7h0l13.12-.27h0c125.22-2.72,249.9-5.64,369.59-10.39,65.73-2.61,128.79-5.69,189.71-9.2,77.48-4.47,151.52-9.61,223.28-15.32l20.69-1.65c25-2,28.78.18,53.29-1.88.51,0,21.73-1.39,22.23-1.41,29.64-1.32,25.31,2.65,55.12,1.41,8.06-.35,40.51,2.92,48.6,2.59l0,18.59V152Z"/>
              </g>
            </g>
          </g>
        </g>
        <g>
          <g class="cls-14">
            <g class="cls-15">
              <g class="cls-16">
                <path class="cls-17" d="M997.26,329.85l4.21,0,110.31-.53,65.46-.32c7.85,0,15.72-.16,23.58-.11,5,0,21.44,3.59,17.51-6.17-1.39-3.43-4.88-5.16-8.09-6.57a608.85,608.85,0,0,0-199.54-49.74c22.39-7.52,45.29-15.31,63.38-31.77a16.83,16.83,0,0,0,5.33-10c1.47-10.08-6.94-15-14.28-18.29A516.8,516.8,0,0,0,883.2,161.72a105.82,105.82,0,0,0,39.16-21,9.73,9.73,0,0,0,3.47-7.51c-.09-5.27-4.32-6.91-8.06-8a196.47,196.47,0,0,0-55.23-8c6.17-9,24.49-8.47,22.79-19.24a9.44,9.44,0,0,0-6.57-7.59c-68.19-20.09-138.84-27.91-209.08-36a6.16,6.16,0,0,1-5.34-5.5c-.36-3.46,2.34-5.08,4.73-6.34l34.59-18.12A8.34,8.34,0,0,0,708,18.33c.87-5.77-4.6-8.28-9.12-9.6q-27-7.86-54.63-13.38l17.15-11.46a675.74,675.74,0,0,0-115-9.58c-29,.08-41.62,1.76-68.86-9.25-23.09-9.34-13.62-10.48-38.21-9.8C373-42.93,256.35-40.82,190-39c-6.37.18-10.12,3-15.11,7.34s-2.41,7.78,3.08,11.26C121.37-15.76,54-3.45-1.93-4.75c-40.39-.93-81.51,19.09-144.62,38.37-18.87,5.77,32,21.11,35.59,26.15-79.91,1-124.65-10.94-203.52,2.95C-321.61,64-381.55,82-393.14,86c-25.68,15.5,22.71,23.34,29.93,23.16-31.53,5-144.24,22-115.68,28.82,50.34,12-71,4.27-122.49,29.69A16.92,16.92,0,0,0-609,177c-3,11.25,8.64,17.74,18.09,20.69C-547,211.37-469.38,241.8-424,248.4a.41.41,0,0,1,0,.8c-90.36-15.91-232.75,34.17-232.75,34.17l-9.31-1.65v48.13Z"/>
              </g>
            </g>
            <g class="cls-18">
              <g class="cls-19">
                <path class="cls-17" d="M920.3,342.54l3.83,0,100.2-.54,59.46-.32c7.14,0,14.28-.16,21.42-.11,4.52,0,19.48,3.59,15.91-6.17-1.26-3.43-4.43-5.16-7.35-6.57a512.22,512.22,0,0,0-181.26-49.73c20.34-7.52,41.14-15.32,57.57-31.78a17.38,17.38,0,0,0,4.85-10c1.33-10.07-6.31-15-13-18.29a434.6,434.6,0,0,0-165.26-44.65,93.82,93.82,0,0,0,35.57-21,10.1,10.1,0,0,0,3.15-7.51c-.08-5.27-3.92-6.91-7.31-8a163.4,163.4,0,0,0-50.18-8c5.61-9,22.25-8.46,20.71-19.24a9.23,9.23,0,0,0-6-7.59C750.71,83,686.54,75.14,622.74,67.05a5.9,5.9,0,0,1-4.85-5.5c-.33-3.46,2.12-5.08,4.29-6.33L653.6,37.09a8.31,8.31,0,0,0,4-6.08c.79-5.76-4.18-8.28-8.28-9.59Q624.71,13.55,599.65,8L615.23-3.42A558.18,558.18,0,0,0,510.73-13c-26.31.08-37.8,1.76-62.55-9.25-21-9.34-12.37-10.47-34.71-9.8C353.2-30.25,247.28-28.14,187-26.32c-5.78.17-9.19,3-13.72,7.33s-2.2,7.78,2.8,11.26C124.66-3.08,63.46,9.23,12.66,7.94-24,7-61.39,27-118.71,46.3c-17.14,5.77,29.07,21.11,32.33,26.15-72.59,1-113.23-10.94-184.87,3-6.49,1.26-60.94,19.33-71.46,23.24C-366,114.13-322.08,122-315.52,121.79c-28.64,4.95-131,22-105.09,28.82,45.73,12-64.48,4.27-111.25,29.69-2.88,1.56-6.09,5.76-7,9.38-2.75,11.25,7.84,17.75,16.43,20.69,39.92,13.69,110.44,44.12,151.61,50.71a.42.42,0,0,1,0,.8c-82.07-15.91-211.42,34.18-211.42,34.18l-8.46-1.66v48.14Z"/>
              </g>
            </g>
          </g>
          <g class="cls-20">
            <rect class="cls-21" x="-568.16" y="-26.12" width="1691.4" height="373.94"/>
          </g>
        </g>
      </g>
      <g class="cls-22">
        <g class="cls-23">
          <rect class="cls-24" x="-8835.41" y="-193.31" width="13191.7" height="5525.81"/>
        </g>
      </g>
    </g>
  </g>
</svg>
