<svg id="Layer_1" data-name="Layer 1" xmlns="http://www.w3.org/2000/svg" xmlns:xlink="http://www.w3.org/1999/xlink" width="96.2" height="68.24" viewBox="0 0 96.2 68.24">
  <defs>
    <style>
      .cls-1 {
        fill: none;
      }

      .cls-2 {
        fill: #4da8de;
      }

      .cls-3 {
        clip-path: url(#clip-path);
      }

      .cls-4 {
        fill: #6de2fe;
      }

      .cls-5 {
        clip-path: url(#clip-path-2);
      }

      .cls-6 {
        clip-path: url(#clip-path-3);
      }

      .cls-7 {
        fill: url(#linear-gradient);
      }
    </style>
    <clipPath id="clip-path">
      <rect class="cls-1" x="2704.44" y="-251.76" width="1280" height="720"/>
    </clipPath>
    <clipPath id="clip-path-2">
      <rect class="cls-1" x="2731.31" y="3822.91" width="1280" height="720"/>
    </clipPath>
    <clipPath id="clip-path-3">
      <rect class="cls-1" x="2571.31" y="3732.91" width="1600" height="900"/>
    </clipPath>
    <linearGradient id="linear-gradient" x1="-2245.68" y1="5834.88" x2="-2245.68" y2="-1148.96" gradientUnits="userSpaceOnUse">
      <stop offset="0" stop-color="#a4f2ff"/>
      <stop offset="0.23" stop-color="#69e3ff"/>
      <stop offset="0.45" stop-color="#34d5ff"/>
      <stop offset="0.57" stop-color="#1fd0ff"/>
      <stop offset="0.65" stop-color="#25c3ff"/>
      <stop offset="0.81" stop-color="#36a2ff"/>
      <stop offset="1" stop-color="#4d73ff"/>
    </linearGradient>
  </defs>
  <g>
    <ellipse class="cls-2" cx="60.66" cy="39.63" rx="16.25" ry="12.01" transform="translate(5.52 86.63) rotate(-73.6)"/>
    <ellipse class="cls-2" cx="63.25" cy="41.91" rx="9.26" ry="6.84" transform="translate(5.19 90.76) rotate(-73.6)"/>
    <ellipse class="cls-2" cx="63.53" cy="41.73" rx="3.34" ry="2.47" transform="matrix(0.28, -0.96, 0.96, 0.28, 5.56, 90.89)"/>
    <ellipse class="cls-2" cx="66.57" cy="40.12" rx="2.71" ry="2.01" transform="translate(9.29 92.66) rotate(-73.6)"/>
    <ellipse class="cls-2" cx="60.66" cy="39.63" rx="16.25" ry="12.01" transform="translate(5.52 86.63) rotate(-73.6)"/>
    <g>
      <ellipse class="cls-2" cx="36.57" cy="29.93" rx="17.59" ry="13" transform="translate(-2.47 56.56) rotate(-73.6)"/>
      <ellipse class="cls-2" cx="39.37" cy="32.39" rx="10.03" ry="7.41" transform="translate(-2.82 61.02) rotate(-73.6)"/>
      <ellipse class="cls-2" cx="39.67" cy="32.2" rx="3.62" ry="2.67" transform="translate(-2.42 61.16) rotate(-73.6)"/>
      <ellipse class="cls-2" cx="42.97" cy="30.46" rx="2.94" ry="2.17" transform="matrix(0.28, -0.96, 0.96, 0.28, 1.62, 63.08)"/>
      <ellipse class="cls-2" cx="36.57" cy="29.93" rx="17.59" ry="13" transform="translate(-2.47 56.56) rotate(-73.6)"/>
    </g>
  </g>
  <g class="cls-3">
    <path class="cls-4" d="M4752.47,396.09l0-92.72V273l-.13-458.68,0-147.61-15622.49.3.07,186.17h0l0,129.3v105l0,63.92V153c1.21.12,1.78,3.95,2,9.52.19,5.81,0,13.52-.41,20.89-.35,7.21-.83,14.11-1.15,18.58h0c-.19,2.48-.35,4.21-.38,4.84h0a1.36,1.36,0,0,0,0,.24s0,0,.06,0c.42.58,5.25,6.79,7.85,7.14l0,89.06,0,59.93c4.39,15.44,6.55,30.05,2.36,46.16q-1.14,4.37-2.34,8.73l0,140.51v8h237.47l15029.66-.29h339.53l0-163.81h7.91Z"/>
  </g>
  <g class="cls-5">
    <g class="cls-6">
      <rect class="cls-7" x="-8841.53" y="30.51" width="13191.7" height="5525.81"/>
    </g>
  </g>
</svg>
