<svg id="Layer_1" data-name="Layer 1" xmlns="http://www.w3.org/2000/svg" xmlns:xlink="http://www.w3.org/1999/xlink" width="96.2" height="68.24" viewBox="0 0 96.2 68.24">
  <defs>
    <style>
      .cls-1 {
        fill: none;
      }

      .cls-2 {
        fill: #f8f6f0;
      }

      .cls-3 {
        fill: #1a406b;
      }

      .cls-4 {
        fill: #12170d;
      }

      .cls-5 {
        fill: #4da8de;
      }

      .cls-6 {
        clip-path: url(#clip-path);
      }

      .cls-7 {
        fill: #6de2fe;
      }

      .cls-8 {
        fill: #b3c661;
      }

      .cls-9 {
        clip-path: url(#clip-path-2);
      }

      .cls-10 {
        opacity: 0.21;
      }

      .cls-11 {
        clip-path: url(#clip-path-3);
      }

      .cls-12 {
        fill: #23490f;
      }

      .cls-13 {
        clip-path: url(#clip-path-4);
      }

      .cls-14 {
        clip-path: url(#clip-path-5);
      }

      .cls-15 {
        fill: url(#linear-gradient);
      }
    </style>
    <clipPath id="clip-path">
      <rect class="cls-1" x="2710.56" y="-368.47" width="1280" height="720"/>
    </clipPath>
    <clipPath id="clip-path-2">
      <rect class="cls-1" x="-4069.61" y="-449.08" width="12896.26" height="900"/>
    </clipPath>
    <clipPath id="clip-path-3">
      <rect class="cls-1" x="-666.1" y="62.21" width="1885.03" height="374.76"/>
    </clipPath>
    <clipPath id="clip-path-4">
      <rect class="cls-1" x="2737.43" y="3706.2" width="1280" height="720"/>
    </clipPath>
    <clipPath id="clip-path-5">
      <rect class="cls-1" x="2577.43" y="3616.2" width="1600" height="900"/>
    </clipPath>
    <linearGradient id="linear-gradient" x1="-2239.56" y1="5718.18" x2="-2239.56" y2="-1265.67" gradientUnits="userSpaceOnUse">
      <stop offset="0" stop-color="#a4f2ff"/>
      <stop offset="0.23" stop-color="#69e3ff"/>
      <stop offset="0.45" stop-color="#34d5ff"/>
      <stop offset="0.57" stop-color="#1fd0ff"/>
      <stop offset="0.65" stop-color="#25c3ff"/>
      <stop offset="0.81" stop-color="#36a2ff"/>
      <stop offset="1" stop-color="#4d73ff"/>
    </linearGradient>
  </defs>
  <g>
    <ellipse class="cls-2" cx="36.66" cy="29.93" rx="17.59" ry="13" transform="translate(-2.4 56.65) rotate(-73.6)"/>
    <ellipse class="cls-3" cx="39.47" cy="32.39" rx="10.03" ry="7.41" transform="translate(-2.75 61.11) rotate(-73.6)"/>
    <ellipse class="cls-4" cx="39.76" cy="32.2" rx="3.62" ry="2.67" transform="translate(-2.35 61.26) rotate(-73.6)"/>
    <ellipse class="cls-2" cx="43.06" cy="30.46" rx="2.94" ry="2.17" transform="translate(1.69 63.17) rotate(-73.6)"/>
    <ellipse class="cls-2" cx="60.76" cy="39.63" rx="16.25" ry="12.01" transform="translate(5.59 86.72) rotate(-73.6)"/>
    <ellipse class="cls-3" cx="63.35" cy="41.91" rx="9.26" ry="6.84" transform="translate(5.26 90.85) rotate(-73.6)"/>
    <ellipse class="cls-4" cx="63.62" cy="41.73" rx="3.34" ry="2.47" transform="translate(5.63 90.98) rotate(-73.6)"/>
    <ellipse class="cls-2" cx="66.67" cy="40.12" rx="2.71" ry="2.01" transform="translate(9.36 92.75) rotate(-73.6)"/>
    <path class="cls-5" d="M23.93,38c1.21,4.34,3.94,7.67,7.76,8.8,4.67,1.37,9.21-.26,12.86-4.77C35.41,44.74,27.92,40.44,23.93,38Z"/>
    <path class="cls-5" d="M41.63,13.05c-6.89-2-14.7,3.89-17.44,13.21A23.41,23.41,0,0,0,23,32.8c4,2.43,14.79,8.56,23.93,5.86a22.58,22.58,0,0,0,2.16-5.06C51.88,24.28,48.52,15.08,41.63,13.05Z"/>
    <path class="cls-5" d="M48.88,46.64c1,4.22,3.63,7.5,7.29,8.57,3.28,1,6.79,0,9.77-2.39C58,53,51.71,48.88,48.88,46.64Z"/>
    <path class="cls-5" d="M69.3,49.23a18,18,0,0,0,3-6.21c2.54-8.61-.57-17.1-6.93-19s-13.57,3.59-16.1,12.2a17.3,17.3,0,0,0-.84,6C51.23,44.52,61.38,49.43,69.3,49.23Z"/>
  </g>
  <g class="cls-6">
    <path class="cls-7" d="M4758.59,279.38l0-92.72V156.29l-.13-458.67,0-147.62-15622.49.31.06,186.17h0l0,129.29v105l0,63.92v1.61c1.2.12,1.78,4,2,9.53.19,5.81,0,13.52-.42,20.88s-.82,14.12-1.14,18.58h0c-.19,2.48-.35,4.21-.38,4.84v0a1.22,1.22,0,0,0,0,.23s0,0,.06,0c.41.58,5.24,6.79,7.85,7.15l0,89.05,0,59.93c4.39,15.44,6.55,30.06,2.35,46.16-.76,2.92-1.53,5.82-2.33,8.73l0,140.52v8h237.47l15029.66-.29h339.53l0-163.81h7.91Z"/>
    <path class="cls-8" d="M4413.94,46.39c-1354.44,31.09-9549.2,6.84-15593.32,0V201.65c8.91,9,17.29,18.81,20.46,28.3,7.48,22.43,13.62,41.68,7.89,63.74-5.82,22.41-12.69,44.54-22.2,66.64-2.05,4.76-4.14,9.51-6.15,14.28v76.18H4413.94Z"/>
    <g class="cls-9">
      <g class="cls-10">
        <g class="cls-11">
          <path class="cls-12" d="M997.26,437l4.21,0,110.31-.53,65.46-.32c7.85,0,15.72-.16,23.58-.11,5,0,21.44,3.59,17.51-6.17-1.39-3.43-4.88-5.17-8.09-6.57A608.85,608.85,0,0,0,1010.7,373.5c22.39-7.52,45.29-15.31,63.38-31.77a16.82,16.82,0,0,0,5.33-10c1.47-10.07-6.94-15-14.28-18.28A516.8,516.8,0,0,0,883.2,268.83a105.82,105.82,0,0,0,39.16-21,9.74,9.74,0,0,0,3.47-7.51c-.09-5.27-4.32-6.91-8.06-8a196.11,196.11,0,0,0-55.23-8c6.17-9,24.49-8.47,22.79-19.24a9.44,9.44,0,0,0-6.57-7.59c-68.19-20.09-138.84-27.91-209.08-36a6.17,6.17,0,0,1-5.34-5.5c-.36-3.46,2.34-5.08,4.73-6.34l34.59-18.12a8.34,8.34,0,0,0,4.36-6.09c.87-5.76-4.6-8.28-9.12-9.59q-27-7.86-54.63-13.38L661.42,91a675.74,675.74,0,0,0-115-9.58c-29,.08-41.62,1.76-68.86-9.26-23.09-9.33-13.62-10.47-38.21-9.79C373,64.18,256.35,66.29,190,68.1c-6.37.18-10.12,3.05-15.11,7.34S172.49,83.22,178,86.7c-56.61,4.65-124,17-179.91,15.66-40.39-.94-81.51,19.09-144.62,38.37-18.87,5.77,32,21.11,35.59,26.15-79.91,1-124.65-10.94-203.52,3-7.13,1.25-67.07,19.32-78.66,23.23-25.68,15.5,22.71,23.33,29.93,23.16-31.53,4.95-144.24,22-115.68,28.82,50.34,12-71,4.27-122.49,29.69a16.92,16.92,0,0,0-7.67,9.38c-3,11.25,8.64,17.74,18.09,20.69,44,13.68,121.58,44.11,166.91,50.71a.41.41,0,0,1,0,.8c-90.36-15.92-232.75,34.17-232.75,34.17l-9.31-1.65V437Z"/>
        </g>
      </g>
    </g>
  </g>
  <g class="cls-13">
    <g class="cls-14">
      <rect class="cls-15" x="-8835.41" y="-86.2" width="13191.7" height="5525.81"/>
    </g>
  </g>
</svg>
