<svg xmlns="http://www.w3.org/2000/svg" xmlns:xlink="http://www.w3.org/1999/xlink" width="96.2" height="68.24" viewBox="0 0 96.2 68.24">
  <defs>
    <style>
      .cls-1 {
        fill: none;
      }

      .cls-2 {
        isolation: isolate;
      }

      .cls-3 {
        fill: #f8f6f0;
      }

      .cls-4 {
        fill: #1a406b;
      }

      .cls-5 {
        fill: #12170d;
      }

      .cls-6 {
        fill: #4da8de;
      }

      .cls-7 {
        clip-path: url(#clip-path);
      }

      .cls-8 {
        fill: #6de2fe;
      }

      .cls-9 {
        fill: #b3c661;
      }

      .cls-10 {
        opacity: 0.3;
      }

      .cls-11 {
        clip-path: url(#clip-path-2);
      }

      .cls-12 {
        mix-blend-mode: multiply;
      }

      .cls-13 {
        fill: #84e75a;
      }

      .cls-14 {
        clip-path: url(#clip-path-4);
      }

      .cls-15 {
        opacity: 0.21;
      }

      .cls-16 {
        clip-path: url(#clip-path-5);
      }

      .cls-17 {
        fill: #23490f;
      }

      .cls-18 {
        opacity: 0.56;
      }

      .cls-19 {
        clip-path: url(#clip-path-6);
      }

      .cls-20 {
        clip-path: url(#clip-path-7);
      }

      .cls-21 {
        fill: url(#radial-gradient);
      }

      .cls-22 {
        clip-path: url(#clip-path-8);
      }

      .cls-23 {
        clip-path: url(#clip-path-9);
      }

      .cls-24 {
        fill: url(#linear-gradient);
      }
    </style>
    <clipPath id="clip-path">
      <rect class="cls-1" x="2710.56" y="-585.88" width="1280" height="720"/>
    </clipPath>
    <clipPath id="clip-path-2">
      <rect class="cls-1" x="-4008.38" y="-77.91" width="8468.38" height="314.12"/>
    </clipPath>
    <clipPath id="clip-path-4">
      <rect class="cls-1" x="-4069.61" y="-666.49" width="12896.26" height="900"/>
    </clipPath>
    <clipPath id="clip-path-5">
      <rect class="cls-1" x="-666.1" y="-155.21" width="1885.03" height="374.76"/>
    </clipPath>
    <clipPath id="clip-path-6">
      <rect class="cls-1" x="-590.67" y="-142.52" width="1712.33" height="374.76"/>
    </clipPath>
    <clipPath id="clip-path-7">
      <path class="cls-1" d="M437.71-131.59c24.45,11,47.5,14,73.49,14A544.81,544.81,0,0,1,614.42-108L599-96.58q24.72,5.51,49,13.39c4.05,1.31,9,3.83,8.18,9.59a8.31,8.31,0,0,1-3.91,6.08l-31,18.13c-2.15,1.26-4.57,2.88-4.24,6.34a5.89,5.89,0,0,0,4.79,5.5c63,8.09,126.41,15.91,187.59,36A9.19,9.19,0,0,1,815.33,6c1.52,10.78-14.91,10.28-20.45,19.24a159.62,159.62,0,0,1,49.56,8c3.35,1.1,7.15,2.75,7.23,8a10.22,10.22,0,0,1-3.12,7.51,92.4,92.4,0,0,1-35.13,21c56,3.57,111.46,18.75,163.24,44.67,6.59,3.3,14.13,8.21,12.81,18.29a17.48,17.48,0,0,1-4.78,9.95c-16.23,16.46-36.78,24.26-56.87,31.78,61.36,5,122,21.89,179,49.74,2.88,1.41,6,3.14,7.26,6.57a7.75,7.75,0,0,1,.54,2.7H-576.73V189.82l8.35,1.66s127.77-50.1,208.83-34.18a.42.42,0,0,0,0-.8c-40.67-6.59-110.33-37-149.76-50.72-8.49-2.94-18.94-9.44-16.23-20.69.87-3.62,4-7.82,6.88-9.38C-472.44,50.29-363.58,58.06-408.75,46c-25.62-6.84,75.51-23.87,103.8-28.83-6.48.18-49.9-7.66-26.86-23.15,10.4-3.92,64.18-22,70.58-23.24,47.16-9.26,80.71-7,119.07-4.83C-123-32.93-94-27.81-70-28.15c-3.21-5-57.43-24.39-40.49-30.15C-53.92-77.58-17-97.61,19.22-96.68c50.18,1.3,110.63-11,161.43-15.66-4.94-3.48-3.84-13.26.64-17.55s10.64-4.65,16.36-4.83l178.58-5.44c4.81-.15,9.46-.27,14-.27,16.31,0,31.28,1.54,47.47,8.84"/>
    </clipPath>
    <radialGradient id="radial-gradient" cx="-7201.05" cy="234.46" r="1" gradientTransform="matrix(608.17, 0, 0, -367.21, 4379763.47, 86148.61)" gradientUnits="userSpaceOnUse">
      <stop offset="0" stop-color="#61dfff"/>
      <stop offset="0.14" stop-color="#5adaff"/>
      <stop offset="0.35" stop-color="#47caff"/>
      <stop offset="0.59" stop-color="#28b1ff"/>
      <stop offset="0.84" stop-color="#0091ff"/>
      <stop offset="1" stop-color="#0091ff"/>
    </radialGradient>
    <clipPath id="clip-path-8">
      <rect class="cls-1" x="2737.43" y="3488.79" width="1280" height="720"/>
    </clipPath>
    <clipPath id="clip-path-9">
      <rect class="cls-1" x="2577.43" y="3398.79" width="1600" height="900"/>
    </clipPath>
    <linearGradient id="linear-gradient" x1="-2239.56" y1="5500.76" x2="-2239.56" y2="-1483.08" gradientUnits="userSpaceOnUse">
      <stop offset="0" stop-color="#a4f2ff"/>
      <stop offset="0.23" stop-color="#69e3ff"/>
      <stop offset="0.45" stop-color="#34d5ff"/>
      <stop offset="0.57" stop-color="#1fd0ff"/>
      <stop offset="0.65" stop-color="#25c3ff"/>
      <stop offset="0.81" stop-color="#36a2ff"/>
      <stop offset="1" stop-color="#4d73ff"/>
    </linearGradient>
  </defs>
  <g class="cls-2">
    <g id="Layer_1" data-name="Layer 1">
      <g>
        <ellipse class="cls-3" cx="36.57" cy="29.93" rx="17.59" ry="13" transform="translate(-2.47 56.56) rotate(-73.6)"/>
        <ellipse class="cls-4" cx="39.37" cy="32.39" rx="10.03" ry="7.41" transform="translate(-2.82 61.02) rotate(-73.6)"/>
        <ellipse class="cls-5" cx="39.67" cy="32.2" rx="3.62" ry="2.67" transform="matrix(0.28, -0.96, 0.96, 0.28, -2.42, 61.16)"/>
        <ellipse class="cls-3" cx="42.97" cy="30.46" rx="2.94" ry="2.17" transform="translate(1.62 63.08) rotate(-73.6)"/>
        <path class="cls-6" d="M23.83,38c1.21,4.34,4,7.67,7.77,8.8,4.67,1.37,9.21-.26,12.86-4.77C36.15,51,25.65,44.57,23.83,38Z"/>
        <path class="cls-6" d="M41.53,13.05c-6.89-2-14.69,3.89-17.44,13.21C32,7,52.38,9.61,49,33.6,51.78,24.28,48.42,15.08,41.53,13.05Z"/>
        <ellipse class="cls-3" cx="60.66" cy="39.63" rx="16.25" ry="12.01" transform="translate(5.52 86.63) rotate(-73.6)"/>
        <ellipse class="cls-4" cx="63.25" cy="41.91" rx="9.26" ry="6.84" transform="translate(5.19 90.76) rotate(-73.6)"/>
        <ellipse class="cls-5" cx="63.53" cy="41.73" rx="3.34" ry="2.47" transform="translate(5.56 90.89) rotate(-73.6)"/>
        <ellipse class="cls-3" cx="66.57" cy="40.12" rx="2.71" ry="2.01" transform="translate(9.29 92.66) rotate(-73.6)"/>
        <path class="cls-6" d="M48.79,46.64c1.05,4.22,3.62,7.5,7.28,8.57,3.29,1,6.8,0,9.77-2.39C57.21,58.16,51,53,48.79,46.64Z"/>
        <path class="cls-6" d="M72.18,43c2.53-8.61-.57-17.1-6.93-19s-13.57,3.59-16.11,12.2C60,13.49,76.53,28.22,72.18,43Z"/>
      </g>
      <g class="cls-7">
        <path class="cls-8" d="M4758.59,62l0-92.72V-61.12l-.13-458.67,0-147.62-15622.49.31.06,186.17h0l0,129.3v105l0,63.92v1.62c1.2.12,1.78,4,2,9.52.19,5.82,0,13.53-.42,20.89s-.82,14.12-1.14,18.58h0c-.19,2.48-.35,4.21-.38,4.84v0a1.22,1.22,0,0,0,0,.23s0,0,.06,0c.41.58,5.24,6.79,7.85,7.15l0,89.05,0,59.93c4.39,15.44,6.55,30.05,2.35,46.16-.76,2.91-1.53,5.82-2.33,8.73l0,140.52v8h237.47l15029.66-.29h339.53l0-163.81h7.91Z"/>
        <path class="cls-9" d="M4413.94-171c-1354.44,31.1-9549.2,6.85-15593.32,0V-15.76c8.91,9,17.29,18.81,20.46,28.3,7.48,22.43,13.62,41.68,7.89,63.74-5.82,22.41-12.69,44.54-22.2,66.64-2.05,4.75-4.14,9.51-6.15,14.28v76.17H4413.94Z"/>
        <g class="cls-10">
          <g class="cls-11">
            <g class="cls-12">
              <g class="cls-11">
                <path class="cls-13" d="M4407,41.67h5.61l3.82,151.22h43.49v43.32H-4008.38V74.49l6.48-.07q23.59-.24,47.14-.52,81.78-1,163.2-2.29h0l14.35-.23h0q60.15-1,120.15-2c201.13-3.54,400.68-6.5,603.58-8.31l32.42-.29,6.61-.06,15.56-.14,14.65-.14q114.6-1,228.78-2.5,65.82-.9,131.18-2.11c50.5-.94,101-2.56,151.92-3.06,56-.58,100.32-1.46,129-7.3,1.7-.35.69-.7-2.16-.92-109.81-8-261.14-7.82-387.83-8.22q-57.33-.21-114.46-.64c-66-.43-131.87-.88-198-.83-118.58.09-237,.57-355.51,0-106.34-.54-226.25-1.45-320.19-7.46-17.53-1.12-33.22-2.55-46.68-4.24-11.41-1.42-10.35-1.43,2-2.67,14.22-1.39,30.64-2.49,47.34-3.47,62-3.71,135.15-5.12,204.14-6.28,64.2-1.07,129.19-1.63,193-2.91,98.88-2,196.7-5,294.53-7.47,111.55-2.84,223.78-5.76,337.27-7.49h0q13.55-.21,27.13-.39h.22q15.63-.23,31.32-.39c11-.12,22-.23,33-.33h1.66l15.93-.12,14.73-.1,18.36-.1h1.8q11.42,0,22.85-.07h0q10.55,0,21.09,0h3c157.47,0,314.86,2,472.41.94,30.69-.2,61.56-.53,92.1-1.07h0q23.57-.42,46.77-1c1.43,0,2.89-.07,4.32-.12h0l11.27-.31q13.08-.39,26-.86c4.12-.14,8.2-.29,12.27-.45h0l3.58-.16q23.54-.93,46.1-2.17c4.32-.26,3.68-.92,0-1.17C-1911-23.92-2072-24.84-2218-25.6c-90.13-.46-178.44-1.22-267.42-2.93q-113.88-2.14-225.45-5.54l-16.32-.47c-.22,0-.43,0-.66,0h0l-5.93-.17-26.54-.79-5.37-.16h-.19l-3.27-.1c-4.39-.12-8.79-.26-13.16-.39h-.11l-.48,0h0l-.81,0q-21.21-.63-42.38-1.29-38.71-1.2-77.37-2.44l-2.18-.07h0c-.59,0-1.16,0-1.73-.06h-.05q-140.88-4.48-281.59-9.17h0l-17.27-.56h-.1c-1.13,0-2.27-.08-3.39-.11l-48.85-1.58-25.76-.82h0l-12.44-.39-18.17-.57-9.93-.31-13.55-.42-11.66-.36h0l-20.54-.63-5.24-.16-33.38-1h0q-45.6-1.38-91.37-2.65h0q-26.67-.75-53.43-1.46h0q-29.86-.78-59.81-1.54c-1.32,0-2.63-.07-4-.09l-1.19,0q-31.2-.78-62.52-1.49-101.82-2.34-205-4-34-.53-68-.93-23.55-.3-47.14-.5l-6.48-.07v-9l6.48,0q23.49.11,47.14.3C-3772.2-76-3585.1-70-3405-66.44q59.39,1.2,118.08,3h0l15.23.47q53.55,1.68,106.81,3.64h0l14.86.53,8.91.33a.16.16,0,0,0,.07,0l11.87.44,36.74,1.35h.07l6.45.24h0l20,.74,4.45.16h.39l8.76.32,15.07.55h0l19,.69c.42,0,.83,0,1.25,0l5.53.19L-2992-53h0l17.61.6q38.76,1.34,77.73,2.5,15.15.45,30.38.87l2.86.08h0l16.6.43h0q17,.45,34,.82,11.18.27,22.38.49l3.66.08,16.22.32h.06l3.08.06c242.22,4.8,479.2,8.2,723.1,10.56h0l15.3.16h1.18l4.17.05,13.53.14c1.94,0,3.87,0,5.79.06l11.15.12,9.08.11q7.74.07,15.47.19l9.36.11,23.1.32h0q20.5.27,40.95.6h0l31.7.51h0q54.24.91,108.35,2h.52q18.78.38,37.56.78a0,0,0,0,1,0,0,0,0,0,0,1,0,0c3.2.05,6.42.12,9.62.2h.79l8.85.19,15.43.33,14.88.32,8.1.19h.55l11.54.26,15.21.33h0l19.35.45,1.9,0h0l8.16.19q12,.27,24.09.56l5.5.12h0c113.09,2.63,226.11,5.41,339.43,7.72q130.64,2.67,262,4.2c345.68,3.69,692.14.3,1038,4q110.4,1.22,219.63,2h0l27.49.2-24.44,0h0c-38.69.06-77.36.21-116.22.52-98.25.82-196.15,2.27-294,3.5-96.16,1.21-193.61,2.45-290.59,2-85.75-.42-172.22-1.61-257.61,0-12.66.23-25.16.65-37.28,1.05-5.58.18-5.73.9-1.54,1.25C-600.53,7.45-457,9.39-327.07,10.42-179.2,11.59-30,11.28,118.08,11.8q107.36.36,214.65.5,194.4.27,388.78,0c203.08-.28,406-1.36,609.05-1.78q102.54-.21,204.5.61c320.52,2.37,638,10.35,960,9.22,115.77-.39,231.68-1.55,347.34-2.84q101.55-1.14,202.79-2.27c145.33-1.55,312.53-4.94,452.68,1.29C3441.12,26,3313.41,26,3247,34.69c-2.58.33-2.25.69.26,1,.26,0,.57.07.9.1,59.66,5,146,5,217.34,4.43,60.34-.47,120.27-1.64,179.29-3.22l18-.49q13.86-.39,27.63-.82c2,0,4.05-.11,6.07-.18l13.83-.43,13.13-.43,6.19-.2h0q26.51-.89,52.6-1.83c107.89-3.91,213.35-8.89,312.75-14.94,44.91-2.73,91.33-5.75,132.82-9.35,27.55-2.39,52.95-5,74.3-8q.73-.09,1.44-.21c-442,4.74-1288.72,15.53,0-14.63.21,0-.42,0-.62-.05-5.73-.46-11.81-.87-18.17-1.24h0c-17.25-1-36.58-1.7-56.93-2.18s-41.75-.73-63.05-.86l-6.14,0-3.07,0c-22.83-.11-45.42-.09-66.35-.07l-23.28,0c-98.09.11-195.93,1.22-293.64,2.21q-49,.49-98.06.93h0l-14,.11h-.07l-21.3.2h0l-76.19.65-3.7,0h-.71L3470-14l-2.87,0h-.54q-36,.33-72,.7c-135.32,1.39-272.68,2.6-408.8,1.78h-.15q-47.19-.27-94.15-.9l-.76,0-9.07-.13h-.15l-10.26-.16h-.71L2851.85-13l-1.26,0,1.3-.07,8.87-.44h0q6.76-.36,13.58-.68h0q8.64-.43,17.33-.83l2.24-.11c75.58-3.5,153.65-6.12,233-8.31h0q48.14-1.32,96.89-2.46s0,0,0,0l37.55-.86h0l1.78,0h0l21.22-.47,32.75-.73h.66q9.39-.23,18.79-.42,8.46-.16,16.9-.36l21.49-.46h.63l3-.06,32.63-.7h0l13.12-.28h0c125.22-2.71,249.9-5.63,369.59-10.38,65.73-2.61,128.79-5.69,189.71-9.2,77.48-4.47,151.52-9.62,223.28-15.32l20.69-1.66c25-2,28.78.18,53.29-1.87l22.23-1.42c29.64-1.31,25.31,2.66,55.12,1.42,8.06-.35,40.51,2.92,48.6,2.58l0,18.59V41.67Z"/>
              </g>
            </g>
          </g>
        </g>
        <g>
          <g class="cls-14">
            <g class="cls-15">
              <g class="cls-16">
                <path class="cls-17" d="M997.26,219.55l4.21,0,110.31-.53,65.46-.32c7.85,0,15.72-.16,23.58-.12,5,0,21.44,3.6,17.51-6.16-1.39-3.43-4.88-5.17-8.09-6.57a608.85,608.85,0,0,0-199.54-49.74c22.39-7.52,45.29-15.31,63.38-31.77a16.85,16.85,0,0,0,5.33-10c1.47-10.07-6.94-15-14.28-18.28A516.58,516.58,0,0,0,883.2,51.42a106,106,0,0,0,39.16-21,9.74,9.74,0,0,0,3.47-7.51c-.09-5.27-4.32-6.92-8.06-8a196.1,196.1,0,0,0-55.23-8c6.17-9,24.49-8.47,22.79-19.24a9.44,9.44,0,0,0-6.57-7.59C810.57-40,739.92-47.84,669.68-55.93a6.17,6.17,0,0,1-5.34-5.5c-.36-3.46,2.34-5.08,4.73-6.34l34.59-18.12A8.35,8.35,0,0,0,708-92c.87-5.76-4.6-8.28-9.12-9.59q-27-7.86-54.63-13.39l17.15-11.45a674.73,674.73,0,0,0-115-9.58c-29,.08-41.62,1.76-68.86-9.26-23.09-9.33-13.62-10.47-38.21-9.8-66.35,1.82-183,3.93-249.3,5.74-6.37.18-10.12,3.05-15.11,7.34s-2.41,7.78,3.08,11.26c-56.61,4.65-124,17-179.91,15.66C-42.32-116-83.44-96-146.55-76.68c-18.87,5.77,32,21.1,35.59,26.15-79.91,1-124.65-10.94-203.52,2.94-7.13,1.26-67.07,19.33-78.66,23.24C-418.82-8.85-370.43-1-363.21-1.19c-31.53,4.95-144.24,22-115.68,28.82,50.34,12-71,4.26-122.49,29.69A16.92,16.92,0,0,0-609,66.7c-3,11.24,8.64,17.74,18.09,20.69C-547,101.07-469.38,131.5-424,138.1a.4.4,0,0,1,0,.79C-514.41,123-656.8,173.07-656.8,173.07l-9.31-1.66v48.14Z"/>
              </g>
            </g>
            <g class="cls-18">
              <g class="cls-19">
                <path class="cls-17" d="M920.3,232.23l3.83,0,100.2-.53,59.46-.32c7.14,0,14.28-.16,21.42-.11,4.52,0,19.48,3.59,15.91-6.17-1.26-3.43-4.43-5.17-7.35-6.57a512.45,512.45,0,0,0-181.26-49.74c20.34-7.52,41.14-15.31,57.57-31.77a17.38,17.38,0,0,0,4.85-10c1.33-10.07-6.31-15-13-18.28A434.8,434.8,0,0,0,816.69,64.1a93.67,93.67,0,0,0,35.57-21,10.13,10.13,0,0,0,3.15-7.51c-.08-5.27-3.92-6.91-7.31-8a163.1,163.1,0,0,0-50.18-8c5.61-9,22.25-8.47,20.71-19.24a9.22,9.22,0,0,0-6-7.59c-61.94-20.09-126.11-27.91-189.91-36a5.91,5.91,0,0,1-4.85-5.5c-.33-3.46,2.12-5.08,4.29-6.34L653.6-73.21a8.31,8.31,0,0,0,4-6.09c.79-5.76-4.18-8.28-8.28-9.59q-24.57-7.86-49.63-13.38l15.58-11.46a559,559,0,0,0-104.5-9.58c-26.31.08-37.8,1.76-62.55-9.26-21-9.33-12.37-10.47-34.71-9.79-60.27,1.81-166.19,3.92-226.46,5.73-5.78.18-9.19,3-13.72,7.34s-2.2,7.78,2.8,11.26c-51.43,4.65-112.63,17-163.43,15.66C-24-103.31-61.39-83.28-118.71-64c-17.14,5.77,29.07,21.11,32.33,26.15-72.59,1-113.23-10.94-184.87,3-6.49,1.25-60.94,19.32-71.46,23.23C-366,3.83-322.08,11.66-315.52,11.49c-28.64,5-131,22-105.09,28.82,45.73,12-64.48,4.27-111.25,29.69-2.88,1.56-6.09,5.76-7,9.38-2.75,11.25,7.84,17.74,16.43,20.69,39.92,13.68,110.44,44.11,151.61,50.71a.42.42,0,0,1,0,.8c-82.07-15.92-211.42,34.17-211.42,34.17l-8.46-1.65v48.13Z"/>
              </g>
            </g>
          </g>
          <g class="cls-20">
            <rect class="cls-21" x="-568.16" y="-136.42" width="1691.4" height="373.94"/>
          </g>
        </g>
      </g>
      <g class="cls-22">
        <g class="cls-23">
          <rect class="cls-24" x="-8835.41" y="-303.61" width="13191.7" height="5525.81"/>
        </g>
      </g>
    </g>
  </g>
</svg>
