<svg id="Layer_1" data-name="Layer 1" xmlns="http://www.w3.org/2000/svg" xmlns:xlink="http://www.w3.org/1999/xlink" width="6400" height="902.25" viewBox="0 0 6400 902.25">
  <defs>
    <style>
      .cls-1 {
        fill: none;
      }

      .cls-2 {
        clip-path: url(#clip-path);
      }

      .cls-3 {
        fill: #181c3e;
      }

      .cls-4, .cls-56, .cls-58 {
        opacity: 0.5;
      }

      .cls-5 {
        fill: #4766b0;
      }

      .cls-6 {
        fill: #2364b0;
      }

      .cls-7 {
        fill: #2a6597;
        opacity: 0.69;
      }

      .cls-14, .cls-15, .cls-16, .cls-21, .cls-46, .cls-47, .cls-48, .cls-49, .cls-56, .cls-58, .cls-59, .cls-62, .cls-63, .cls-64, .cls-7 {
        isolation: isolate;
      }

      .cls-8 {
        fill: #fef8e7;
      }

      .cls-9 {
        fill: #325baa;
      }

      .cls-10 {
        fill: #075999;
      }

      .cls-11 {
        fill: #1965b0;
      }

      .cls-12 {
        fill: #3960ac;
      }

      .cls-13 {
        fill: #5089c8;
      }

      .cls-14, .cls-16 {
        fill: #fff;
      }

      .cls-14 {
        opacity: 0.15;
      }

      .cls-15 {
        opacity: 0.39;
        fill: url(#radial-gradient);
      }

      .cls-16 {
        opacity: 0.24;
      }

      .cls-17 {
        opacity: 0.6;
      }

      .cls-18 {
        fill: #fddb01;
      }

      .cls-19 {
        fill: #fabc14;
      }

      .cls-20 {
        fill: #f78e1e;
      }

      .cls-21, .cls-22 {
        fill: #febe41;
      }

      .cls-21 {
        opacity: 0.44;
      }

      .cls-23 {
        fill: #f37221;
      }

      .cls-24 {
        fill: #df9c26;
      }

      .cls-25 {
        fill: #e9a023;
      }

      .cls-26 {
        fill: #efa325;
      }

      .cls-27 {
        fill: #cc962b;
      }

      .cls-28 {
        fill: #fbd725;
      }

      .cls-29 {
        opacity: 0.8;
      }

      .cls-30 {
        fill: #f4ecf5;
      }

      .cls-31 {
        opacity: 0.88;
      }

      .cls-32 {
        fill: #faf0bd;
      }

      .cls-33 {
        opacity: 0.78;
      }

      .cls-34 {
        opacity: 0.7;
      }

      .cls-35 {
        fill: #f8e8a9;
      }

      .cls-36 {
        fill: #a6def2;
      }

      .cls-37 {
        opacity: 0.77;
      }

      .cls-38 {
        opacity: 0.76;
      }

      .cls-39 {
        opacity: 0.81;
      }

      .cls-40 {
        opacity: 0.57;
      }

      .cls-41 {
        opacity: 0.79;
      }

      .cls-42 {
        opacity: 0.92;
      }

      .cls-43 {
        fill: #bbe5f1;
      }

      .cls-44 {
        opacity: 0.9;
      }

      .cls-45 {
        opacity: 0.89;
      }

      .cls-46 {
        fill: #121233;
      }

      .cls-46, .cls-47, .cls-48, .cls-49, .cls-50 {
        opacity: 0.3;
      }

      .cls-47, .cls-51 {
        fill: #101423;
      }

      .cls-48 {
        fill: #111322;
      }

      .cls-49 {
        fill: #0f1833;
      }

      .cls-52 {
        fill: #101334;
      }

      .cls-53 {
        fill: #131234;
      }

      .cls-54 {
        fill: #111222;
      }

      .cls-55 {
        fill: #141234;
      }

      .cls-56 {
        fill: #c8c0e0;
      }

      .cls-57 {
        fill: url(#radial-gradient-2);
      }

      .cls-58 {
        fill: #846484;
      }

      .cls-59 {
        fill: #1a101a;
        opacity: 0.73;
      }

      .cls-60, .cls-62 {
        fill: #010101;
      }

      .cls-61 {
        fill: #251324;
      }

      .cls-62 {
        opacity: 0.17;
      }

      .cls-63 {
        fill: #c4b2d7;
        opacity: 0.12;
      }

      .cls-64 {
        fill: #d1a4cc;
        opacity: 0.31;
      }
    </style>
    <clipPath id="clip-path" transform="translate(3200)">
      <rect class="cls-1" width="1600" height="900"/>
    </clipPath>
    <radialGradient id="radial-gradient" cx="-773.91" cy="-1885.66" r="16.26" gradientTransform="matrix(0.03, -0.89, -0.92, 0.16, -721.71, -268.29)" gradientUnits="userSpaceOnUse">
      <stop offset="0.23" stop-color="#fff"/>
      <stop offset="1" stop-color="#f3faf8"/>
    </radialGradient>
    <radialGradient id="radial-gradient-2" cx="757.01" cy="2607.72" r="13.92" gradientTransform="matrix(0.68, -0.74, -0.75, -0.67, 4973.56, 2612.38)" gradientUnits="userSpaceOnUse">
      <stop offset="0" stop-color="#854c9a"/>
      <stop offset="1" stop-color="#36254f"/>
    </radialGradient>
  </defs>
  <g class="cls-2">
    <g>
      <g>
        <rect class="cls-3" x="3200" width="1600" height="900"/>
        <rect class="cls-3" x="4800" width="1600" height="900"/>
      </g>
      <g class="cls-4">
        <ellipse class="cls-5" cx="4207.09" cy="118.78" rx="15.18" ry="14.99"/>
        <path class="cls-6" d="M995.65,109a12.63,12.63,0,0,1,17.18-1.5,12.26,12.26,0,0,1,2.15,17.2l-.15.19a12.65,12.65,0,0,1-17.6,2A12.28,12.28,0,0,1,994.84,110a14.86,14.86,0,0,0,2.78,20.56,15.32,15.32,0,0,0,21.33-2.4,14.86,14.86,0,0,0-2.19-20.91l-.2-.16A15.3,15.3,0,0,0,995.65,109Z" transform="translate(3200)"/>
        <path class="cls-7" d="M1015.4,126.6a15.89,15.89,0,0,1-18.55,3.28,15.35,15.35,0,0,0,21.3-.85,14.87,14.87,0,0,0-.52-21l-.21-.2c-.07-.06-.09,0-.16-.06A15.47,15.47,0,0,1,1015.4,126.6Z" transform="translate(3200)"/>
        <path class="cls-8" d="M1020.17,117h-.06a.1.1,0,0,0-.06.13.09.09,0,0,0,.06.06h.06a.1.1,0,0,0,.06-.13A.09.09,0,0,0,1020.17,117Z" transform="translate(3200)"/>
        <path class="cls-9" d="M1005.22,106a6.55,6.55,0,0,0,1.14-2.15,15.21,15.21,0,0,0-12.54,7.7A14.35,14.35,0,0,0,1005.22,106Z" transform="translate(3200)"/>
        <path class="cls-10" d="M1006.57,131.84a12.11,12.11,0,0,0-3.43,1.41,15.28,15.28,0,0,0,17-6.78,14.67,14.67,0,0,1-6.2,3.88C1011.54,131.1,1009,131.22,1006.57,131.84Z" transform="translate(3200)"/>
        <path class="cls-10" d="M1015.73,125.1c-2.87,1.29-6.1,2.25-8.45,4.34-1,.88-2.52.71-3.85.61a22.32,22.32,0,0,0-5.94.33A15.36,15.36,0,0,0,1000,132a39.82,39.82,0,0,0,6-1.38,48.06,48.06,0,0,0,8.74-4.26l6.64-3.82.49-.29c.08-.33.15-.66.2-1A22.86,22.86,0,0,1,1015.73,125.1Z" transform="translate(3200)"/>
        <path class="cls-9" d="M998.38,115c1.2-.72,2.24-1.66,3.48-2.29s2.3-.84,3.39-1.39a8.14,8.14,0,0,0,4.51-5.62.16.16,0,0,0-.14-.16.17.17,0,0,0-.12,0c-1.63,2-3.94,3.15-5.64,5.13a2.5,2.5,0,0,1-1.92.63,4.77,4.77,0,0,0-2.05.25.82.82,0,0,0-.49.55,4.94,4.94,0,0,0,.14.75,1.28,1.28,0,0,1-1.13,1.27,2.93,2.93,0,0,1-1.65-.47c-.44-.19-.9.31-1.12.64a1,1,0,0,1-.54.39c-.74.18-.9-.77-1.48-1a1.15,1.15,0,0,0-.87.1,15.28,15.28,0,0,0-.71,3.06A16.24,16.24,0,0,0,998.38,115Z" transform="translate(3200)"/>
        <path class="cls-11" d="M996.19,126.77c1.23-.46,2.35-1.19,3.62-1.55a7.63,7.63,0,0,0,1.62-.51c.81-.11,1.61-.23,2.41-.39a34.21,34.21,0,0,0,11.51-5.06.78.78,0,0,0,.54.52c.48.1.89-.34,1.13-.76s.45-.92.9-1.1,1.29.15,1.8-.19c.35-.23.43-.71.6-1.1a5.41,5.41,0,0,1,1.41-1.6h0a14.92,14.92,0,0,0-1.23-3.15c-1.71,2.8-5.11,4.29-7.37,6.74a19.49,19.49,0,0,1-2.36,2.53,9.68,9.68,0,0,1-4.72,1.54,75.78,75.78,0,0,0-7.8,1.08c-.47.11-.94.23-1.4.38a8.6,8.6,0,0,0-3.94.13,14.74,14.74,0,0,0,1.54,2.91A6.15,6.15,0,0,0,996.19,126.77Z" transform="translate(3200)"/>
        <path class="cls-12" d="M999.1,119.74a15.72,15.72,0,0,1-6.78,2.45,3,3,0,0,0,.19.75,18.64,18.64,0,0,0,5.66-1.34c2.48-1,4.82-2.26,7.29-3.25,3-1.21,6.27-2,9.09-3.62a10.91,10.91,0,0,0,4.64-5,14.47,14.47,0,0,0-2.23-2.33,12.46,12.46,0,0,1-6.94,7.27c-2.23.91-4.71,1.16-6.85,2.27A48.93,48.93,0,0,0,999.1,119.74Z" transform="translate(3200)"/>
        <path class="cls-9" d="M994.46,120.11c.93-.23,1.93,0,2.85-.32a5.54,5.54,0,0,0,2-1.45l1-1a.33.33,0,0,0,0-.47.34.34,0,0,0-.38-.08,74.29,74.29,0,0,1-8.12,2.57,14,14,0,0,0,.2,1.94A11.57,11.57,0,0,1,994.46,120.11Z" transform="translate(3200)"/>
        <path class="cls-10" d="M1021.86,115.33a1.66,1.66,0,0,0-.72,1A11.83,11.83,0,0,1,1014,123a46.26,46.26,0,0,1-6.38,1.2,10.76,10.76,0,0,0-4.82,2,.52.52,0,0,0,.36.92c2.18-.09,4.28-1.21,6.35-2,2.47-.94,5.09-1.46,7.54-2.44a11.78,11.78,0,0,0,5.25-3.79h0A14.71,14.71,0,0,0,1021.86,115.33Z" transform="translate(3200)"/>
        <path class="cls-9" d="M1009,113.08a4.39,4.39,0,0,0,1.51-1.33,13.07,13.07,0,0,1,1.29-1.58,5.85,5.85,0,0,0,.82-.83,1,1,0,0,0,.08-1.1.94.94,0,0,0-1.11-.24,2,2,0,0,0-.88.82,6.77,6.77,0,0,1-.68,1,9.09,9.09,0,0,1-1.92,1.26A1.93,1.93,0,0,0,1007,113,1.92,1.92,0,0,0,1009,113.08Z" transform="translate(3200)"/>
        <g>
          <path class="cls-13" d="M1021.56,114.25l-.18.36c-.06.13-.14.26-.22.4s-.15.28-.24.43l-.28.45c-.09.15-.19.31-.3.46s-.21.32-.33.48c-.24.31-.47.65-.75,1s-.55.62-.84.93a12.37,12.37,0,0,1-.91.87,11.46,11.46,0,0,1-1,.77c-.15.12-.32.23-.47.34a4.76,4.76,0,0,1-.47.31l-.44.29-.43.25-.4.22-.37.19c-.23.12.17-.07,0,0a11.82,11.82,0,0,0-1.43,1l.39-.17.59-.17c.22-.07.44-.14.66-.23l.4-.15.44-.2.47-.22.49-.27a5.09,5.09,0,0,0,.5-.3l.52-.33a10.37,10.37,0,0,0,1-.78,12,12,0,0,0,1-.89,10.59,10.59,0,0,0,.89-1c.27-.32.53-.65.77-1,.12-.17.22-.35.33-.51a4.21,4.21,0,0,0,.29-.51c.17-.32.33-.66.47-1l.06-.14A4.31,4.31,0,0,0,1021.56,114.25Z" transform="translate(3200)"/>
          <path class="cls-13" d="M1005.14,115.6l-.93.28c-.3.1-.6.19-.88.3l-.41.17-.39.18c-.26.12-.49.26-.72.38s-.41.26-.61.41a6.7,6.7,0,0,0-.89.79l-.28.33-.19.27-.15.23.31.2.17-.18.2-.23.3-.27a3,3,0,0,1,.39-.31,5.25,5.25,0,0,1,.49-.33c.17-.12.38-.21.59-.33a4.69,4.69,0,0,1,.68-.31l.37-.16.41-.14c.26-.1.55-.17.84-.27l.92-.26,1-.29c.67-.22,1.31-.48,2-.77.33-.15.67-.29,1-.46l.49-.24.49-.26c.33-.16.64-.38,1-.56l.45-.3c.15-.11.31-.2.45-.32s.58-.44.84-.69l.39-.36.37-.37c.25-.25.47-.51.68-.76a8.9,8.9,0,0,0,.58-.79,12.25,12.25,0,0,0,1.42-3l.06-.21-.29-.23c0,.09-.09.19-.15.3-.18.39-.42.82-.68,1.27-.15.23-.28.47-.45.7s-.32.48-.51.72c-.36.48-.74,1-1.18,1.49l-.33.37-.36.36c-.24.25-.51.47-.76.71l-.82.66c-.29.2-.58.42-.89.6l-.46.27-.48.24a9.4,9.4,0,0,1-1,.39c-.66.19-1.37.36-2,.49Z" transform="translate(3200)"/>
          <path class="cls-13" d="M991.92,118.8h1a5.14,5.14,0,0,0,.9-.13,6.9,6.9,0,0,0,1-.23c.34-.09.67-.2,1-.32s.69-.27,1-.42l1-.49c.34-.17.63-.35.93-.52s.59-.33.86-.5l.76-.46c.23-.14.44-.28.62-.41l.48-.32.41-.28-.46.19-.53.23-.68.27-.82.31c-.29.12-.61.2-.93.3s-.66.2-1,.28l-1,.27c-.34.09-.69.17-1,.27l-1,.27-.47.14-.45.14-.81.27-.69.26v.89Z" transform="translate(3200)"/>
        </g>
        <path class="cls-10" d="M1000.62,127.85a12.08,12.08,0,0,0-5.38.29,15.75,15.75,0,0,0,2.73,2.62,14.1,14.1,0,0,1,3.45-1.61,25.68,25.68,0,0,1,2.76-.23,3.29,3.29,0,0,0,2.4-1.19A14.26,14.26,0,0,1,1000.62,127.85Z" transform="translate(3200)"/>
        <path class="cls-13" d="M1014.06,124.41a19.9,19.9,0,0,0-2.41,1.4,3.14,3.14,0,0,1-2.68.4C1010.35,125,1012.26,124.69,1014.06,124.41Z" transform="translate(3200)"/>
        <path class="cls-14" d="M991.92,118.78A14.7,14.7,0,0,0,993.3,125a15.32,15.32,0,0,0,15-4.7c4.23-4.44,5.76-10.4,3.75-15.72A15.2,15.2,0,0,0,992,118.76Z" transform="translate(3200)"/>
        <path class="cls-15" d="M996.71,108.72c3.83-3.64,9.94-4.34,13.15-1.09s.29,6.19-3.37,10.68c-3,3.69-8.17,6.78-11.38,3.52S992.88,112.35,996.71,108.72Z" transform="translate(3200)"/>
        <path class="cls-16" d="M1000.58,132.33a15.41,15.41,0,0,0,6.51,1.44,15,15,0,1,0-3.89-29.48,15.1,15.1,0,0,1,10.53,1.32,14.67,14.67,0,0,1,6.27,19.78l-.12.22A15.29,15.29,0,0,1,1000.58,132.33Z" transform="translate(3200)"/>
      </g>
      <g class="cls-17">
        <path class="cls-18" d="M1492.3,159.36a16.34,16.34,0,0,0,4.54-.8l.5,1.66a28.31,28.31,0,0,1-4.13,1.31A5.71,5.71,0,0,1,1492.3,159.36Z" transform="translate(3200)"/>
        <path class="cls-19" d="M1496.84,158.56a16.34,16.34,0,0,1-4.54.8,6.94,6.94,0,0,0,.54,1.55,10.46,10.46,0,0,0,3.25-.84.9.9,0,0,1,1,.27l.29-.12Z" transform="translate(3200)"/>
        <g>
          <path class="cls-18" d="M1503.78,145.41s1.28.17,2.28.4a15.11,15.11,0,0,1,.35,4.19,17.32,17.32,0,0,1-3,1.3Z" transform="translate(3200)"/>
          <path class="cls-19" d="M1503.42,151.3a10.31,10.31,0,0,0,1.06-.38,5,5,0,0,0,.76-1.82,7,7,0,0,1,1-2.63c-.07-.4-.13-.66-.13-.66-1-.23-2.28-.4-2.28-.4Z" transform="translate(3200)"/>
        </g>
        <g>
          <path class="cls-20" d="M1501.94,155.21a13.32,13.32,0,0,1-18.52,2.26,12.91,12.91,0,0,1-2.45-18.08l.15-.19a13.31,13.31,0,0,1,18.52-2.27,12.91,12.91,0,0,1,2.45,18.09Z" transform="translate(3200)"/>
          <path class="cls-21" d="M1499.59,155.37c-3.38,1.13-7.59-2.25-9.41-7.55s-.57-10.51,2.8-11.64,7.59,2.25,9.42,7.55S1503,154.23,1499.59,155.37Z" transform="translate(3200)"/>
          <path class="cls-22" d="M1499.63,152c-2.36.8-5.31-1.57-6.59-5.28s-.4-7.36,2-8.15,5.31,1.57,6.59,5.28S1502,151.2,1499.63,152Z" transform="translate(3200)"/>
          <path class="cls-23" d="M1487.22,157.31a12.91,12.91,0,0,1-2.45-18.09l.15-.19a13.16,13.16,0,0,1,7.93-4.78,13.26,13.26,0,0,0-11.73,4.95,12.9,12.9,0,0,0,2.11,18.12l.19.15A13.32,13.32,0,0,0,1494,160,13.34,13.34,0,0,1,1487.22,157.31Z" transform="translate(3200)"/>
        </g>
        <g>
          <path class="cls-24" d="M1502,144.66c-.37.32-1.2,0-1.85-.8s-.88-1.63-.5-1.94,1.2,0,1.85.8S1502.35,144.35,1502,144.66Z" transform="translate(3200)"/>
          <path class="cls-25" d="M1501.83,144.57c-.24.1-.61-.21-.83-.7s-.2-1,0-1.08.61.21.83.7S1502.07,144.46,1501.83,144.57Z" transform="translate(3200)"/>
          <path class="cls-26" d="M1501.84,144.32c-.16.06-.4-.14-.54-.46s-.13-.63,0-.7.4.14.54.45S1502,144.25,1501.84,144.32Z" transform="translate(3200)"/>
          <path class="cls-27" d="M1500.62,143.91c-.65-.76-.88-1.63-.5-1.94a.4.4,0,0,1,.21-.09.75.75,0,0,0-.71,0c-.38.31-.15,1.18.5,1.94a2,2,0,0,0,1.64.89A2.85,2.85,0,0,1,1500.62,143.91Z" transform="translate(3200)"/>
        </g>
        <g>
          <path class="cls-24" d="M1499.89,154c-.6.94-1.43,1.48-1.87,1.21s-.32-1.25.28-2.19,1.43-1.49,1.87-1.22S1500.48,153.08,1499.89,154Z" transform="translate(3200)"/>
          <path class="cls-27" d="M1498.58,155.1c-.44-.27-.32-1.25.28-2.19a3.27,3.27,0,0,1,1.14-1.14c-.47-.08-1.18.44-1.7,1.27s-.72,1.92-.28,2.19a.73.73,0,0,0,.73-.07A.49.49,0,0,1,1498.58,155.1Z" transform="translate(3200)"/>
          <path class="cls-18" d="M1498,155.23c-.44-.27-.32-1.25.28-2.19s1.43-1.49,1.87-1.22a4.12,4.12,0,0,0-1.66-2.32s-3.67,2.39-3.13,6.5Z" transform="translate(3200)"/>
          <path class="cls-19" d="M1500,151.26h0c0-.06-.06-.13-.1-.2l-.06-.12a1.92,1.92,0,0,0-.18-.31h0l-.23-.3-.06-.07c-.1-.11-.2-.22-.31-.32l-.07-.06a3.79,3.79,0,0,0-.4-.3s-3.67,2.39-3.13,6.5l.19-.05C1497,151.27,1499.1,150.65,1500,151.26Z" transform="translate(3200)"/>
          <path class="cls-28" d="M1498.18,152.76a20.72,20.72,0,0,0-.8,2.16c-.2.77-.57.67-1.08.5S1499,150.91,1498.18,152.76Z" transform="translate(3200)"/>
          <path class="cls-25" d="M1500.12,153.34c-.24.62-.63,1-.87,1s-.24-.67,0-1.29.63-1,.88-1S1500.36,152.72,1500.12,153.34Z" transform="translate(3200)"/>
          <path class="cls-26" d="M1500,153.31c-.13.34-.34.57-.47.52s-.13-.36,0-.7.34-.56.47-.51S1500.15,153,1500,153.31Z" transform="translate(3200)"/>
        </g>
        <g>
          <path class="cls-24" d="M1500.47,138.49c-.4.51-1.83.08-3.18-1s-2.13-2.31-1.73-2.82,1.83-.08,3.19,1S1500.88,138,1500.47,138.49Z" transform="translate(3200)"/>
          <path class="cls-27" d="M1498,137.54c-1.35-1-2.13-2.31-1.72-2.82a.63.63,0,0,1,.26-.16c-.47-.1-.84-.07-1,.15-.4.51.37,1.77,1.73,2.82,1.14.88,2.33,1.32,2.92,1.13A6.08,6.08,0,0,1,1498,137.54Z" transform="translate(3200)"/>
          <path class="cls-25" d="M1499.9,138.09c-.31.25-1,0-1.49-.65s-.7-1.31-.4-1.56,1,0,1.49.65S1500.2,137.84,1499.9,138.09Z" transform="translate(3200)"/>
          <path class="cls-26" d="M1499.79,137.73c-.19.16-.62,0-1-.42s-.46-.85-.26-1,.62,0,1,.43S1500,137.56,1499.79,137.73Z" transform="translate(3200)"/>
        </g>
        <g>
          <path class="cls-18" d="M1500.47,138.49c-.4.51-1.83.08-3.18-1s-2.13-2.31-1.73-2.82a10.59,10.59,0,0,1-2.09,1.55,16.14,16.14,0,0,0,6.51,4.24Z" transform="translate(3200)"/>
          <path class="cls-19" d="M1495.34,137.11a1.39,1.39,0,0,1,.19-1.69.87.87,0,0,1-.06-.32.21.21,0,0,1,0-.11.14.14,0,0,1,0-.09.64.64,0,0,1,.08-.19,10.59,10.59,0,0,1-2.09,1.55,16.14,16.14,0,0,0,6.51,4.24v-.13A28.19,28.19,0,0,1,1495.34,137.11Z" transform="translate(3200)"/>
          <path class="cls-28" d="M1497.37,137.91a8.47,8.47,0,0,0,2.26,1c.62,0,.59,1,.26,1.08S1495.84,137.14,1497.37,137.91Z" transform="translate(3200)"/>
        </g>
        <g>
          <path class="cls-24" d="M1489.44,140.92c-.66.46-1.4.55-1.65.19s.07-1,.74-1.47,1.4-.55,1.65-.2S1490.1,140.46,1489.44,140.92Z" transform="translate(3200)"/>
          <path class="cls-27" d="M1488.25,141c-.25-.35.08-1,.74-1.48a2.49,2.49,0,0,1,.51-.27,2,2,0,0,0-1,.4c-.67.46-1,1.12-.74,1.47s.65.29,1.14.09A.69.69,0,0,1,1488.25,141Z" transform="translate(3200)"/>
          <path class="cls-25" d="M1489.78,140.4a.62.62,0,0,1-.82.07c-.16-.2-.06-.55.22-.79a.61.61,0,0,1,.82-.07C1490.16,139.8,1490.07,140.16,1489.78,140.4Z" transform="translate(3200)"/>
          <path class="cls-26" d="M1489.76,140.22c-.16.13-.36.15-.45,0s0-.31.12-.44a.3.3,0,0,1,.46,0A.32.32,0,0,1,1489.76,140.22Z" transform="translate(3200)"/>
        </g>
        <g>
          <path class="cls-24" d="M1483.13,158.77c-.13.17-1-.24-1.83-.92s-1.49-1.36-1.35-1.53,1,.24,1.83.92S1483.27,158.6,1483.13,158.77Z" transform="translate(3200)"/>
          <path class="cls-27" d="M1481.63,158c-.88-.67-1.48-1.36-1.35-1.53a.17.17,0,0,1,.14,0c-.24-.11-.42-.14-.47-.07a4,4,0,0,0,1.35,1.53,4.46,4.46,0,0,0,1.69,1A6.68,6.68,0,0,1,1481.63,158Z" transform="translate(3200)"/>
          <path class="cls-18" d="M1480,156.32c.13-.17,1,.24,1.83.92s1.49,1.36,1.35,1.53l2.09-.56-4.84-4.64Z" transform="translate(3200)"/>
          <path class="cls-19" d="M1480.87,155.74a2.67,2.67,0,0,1,.13-1.58l-.62-.59-.43,2.75c.13-.17,1,.24,1.83.92s1.49,1.36,1.35,1.53l.6-.16C1483,157.55,1481.1,156.27,1480.87,155.74Z" transform="translate(3200)"/>
          <path class="cls-28" d="M1483.62,156.91a5.37,5.37,0,0,1,1,1.13c.1.34-.33.34-.74.34S1482.57,155.94,1483.62,156.91Z" transform="translate(3200)"/>
          <path class="cls-25" d="M1483,158.65c-.09.1-.58-.18-1.11-.63s-.88-.88-.79-1,.59.18,1.11.63A2.46,2.46,0,0,1,1483,158.65Z" transform="translate(3200)"/>
          <path class="cls-26" d="M1482.8,158.51c-.06.07-.42-.13-.79-.44s-.62-.63-.55-.7.41.12.78.44S1482.86,158.43,1482.8,158.51Z" transform="translate(3200)"/>
        </g>
        <g>
          <g>
            <path class="cls-18" d="M1485.62,134.49c.43.47-.18,1.73-1.37,2.8s-2.52,1.56-3,1.08a9.67,9.67,0,0,1,.46,1.91l6-4.42Z" transform="translate(3200)"/>
            <path class="cls-19" d="M1485,137.07a3.64,3.64,0,0,0,1.09-2.27l-.48-.31c.43.47-.18,1.73-1.37,2.8s-2.52,1.56-3,1.08a9.67,9.67,0,0,1,.46,1.91l.78-.57C1482.2,138.87,1484,138,1485,137.07Z" transform="translate(3200)"/>
            <path class="cls-28" d="M1486.5,135.37s.68.4.74.58-1.11.76-1.42,1S1486.08,135.15,1486.5,135.37Z" transform="translate(3200)"/>
          </g>
          <g>
            <path class="cls-24" d="M1484.25,137.29c-1.2,1.07-2.52,1.56-3,1.08s.18-1.73,1.37-2.8,2.52-1.56,3-1.08S1485.44,136.22,1484.25,137.29Z" transform="translate(3200)"/>
            <path class="cls-27" d="M1481.79,138.34c-.43-.47.18-1.73,1.37-2.8a5.28,5.28,0,0,1,2.08-1.22,4,4,0,0,0-2.58,1.25c-1.19,1.07-1.81,2.33-1.37,2.8a.9.9,0,0,0,.88.13A.59.59,0,0,1,1481.79,138.34Z" transform="translate(3200)"/>
            <path class="cls-25" d="M1484.59,136.65c-.78.78-1.67,1.16-2,.85s.06-1.19.84-2,1.67-1.16,2-.85S1485.37,135.87,1484.59,136.65Z" transform="translate(3200)"/>
            <path class="cls-26" d="M1484.69,136.15c-.47.46-1,.69-1.19.5s0-.71.5-1.17,1-.69,1.19-.51S1485.15,135.69,1484.69,136.15Z" transform="translate(3200)"/>
          </g>
        </g>
        <g>
          <path class="cls-18" d="M1484.08,141.47c.28.43-.1,1.16-.85,1.63s-1.58.5-1.86.07a6.11,6.11,0,0,0,.08,1.76,8.62,8.62,0,0,0,4.14-2.74Z" transform="translate(3200)"/>
          <path class="cls-19" d="M1483.1,143.61a3.52,3.52,0,0,0,1.4-1.94l-.42-.2c.28.43-.1,1.16-.85,1.63s-1.58.5-1.86.07a6.11,6.11,0,0,0,.08,1.76l.38-.12C1481.9,144.37,1482.2,144.13,1483.1,143.61Z" transform="translate(3200)"/>
          <path class="cls-28" d="M1484.74,142a2.16,2.16,0,0,1,.58.31c.09.13-.94,1-1.15,1.13S1484.45,141.86,1484.74,142Z" transform="translate(3200)"/>
        </g>
        <g>
          <path class="cls-24" d="M1483.23,143.1c-.75.47-1.58.5-1.86.07s.11-1.16.86-1.63,1.58-.5,1.85-.07S1484,142.63,1483.23,143.1Z" transform="translate(3200)"/>
          <path class="cls-27" d="M1481.89,143c-.27-.43.11-1.16.85-1.63a2.31,2.31,0,0,1,.35-.18,2.4,2.4,0,0,0-.86.35c-.75.47-1.13,1.2-.86,1.63s.88.39,1.52.11A.93.93,0,0,1,1481.89,143Z" transform="translate(3200)"/>
          <path class="cls-25" d="M1483.74,142.47a.81.81,0,0,1-1,.32c-.27-.21-.24-.69.06-1.07a.79.79,0,0,1,1-.32C1484.07,141.61,1484,142.09,1483.74,142.47Z" transform="translate(3200)"/>
          <path class="cls-26" d="M1483.76,142.16a.46.46,0,0,1-.59.18.45.45,0,0,1,0-.61c.18-.22.44-.3.59-.18A.44.44,0,0,1,1483.76,142.16Z" transform="translate(3200)"/>
        </g>
        <g>
          <g>
            <path class="cls-24" d="M1483.83,153.72c-.29.19-1-.42-1.67-1.37s-.91-1.87-.61-2.06,1,.42,1.67,1.37S1484.13,153.53,1483.83,153.72Z" transform="translate(3200)"/>
            <path class="cls-27" d="M1482.47,152.5c-.64-.95-.91-1.87-.62-2.06a.31.31,0,0,1,.23,0c-.22-.15-.42-.21-.53-.13-.3.19,0,1.11.61,2.06a3.39,3.39,0,0,0,1.44,1.39A4.4,4.4,0,0,1,1482.47,152.5Z" transform="translate(3200)"/>
            <path class="cls-25" d="M1483.74,153.49c-.18.11-.61-.29-1-.88s-.48-1.15-.3-1.25.6.29,1,.88S1483.92,153.39,1483.74,153.49Z" transform="translate(3200)"/>
            <path class="cls-26" d="M1483.65,153.31c-.13.07-.43-.21-.68-.62s-.35-.82-.22-.89.43.21.68.62S1483.77,153.24,1483.65,153.31Z" transform="translate(3200)"/>
          </g>
          <g>
            <path class="cls-18" d="M1481.55,150.29c.29-.19,1,.42,1.67,1.37s.91,1.87.61,2.06l1.73-.06-2.8-4.94Z" transform="translate(3200)"/>
            <path class="cls-19" d="M1484.42,153.7c-.1-1.14-1.36-2.69-1.58-3.2a1.19,1.19,0,0,1,.3-1.12l-.38-.66-1.21,1.57c.29-.19,1,.42,1.67,1.37s.91,1.87.61,2.06Z" transform="translate(3200)"/>
            <path class="cls-28" d="M1484.52,152.19a5.11,5.11,0,0,1,.58,1.17c0,.18-.47.09-.6,0S1483.93,151.25,1484.52,152.19Z" transform="translate(3200)"/>
          </g>
        </g>
      </g>
      <rect class="cls-1" x="4538.18" y="131.21" width="36.81" height="21.16"/>
      <g class="cls-4">
        <g>
          <g class="cls-29">
            <path class="cls-30" d="M107.12,438.47l-.12,6.32a2.1,2.1,0,0,0,1,2l4.14,2-4.37-.17c-.62,0-1.17.53-1.37,1.37l-1.4,6,.12-6.32a2.1,2.1,0,0,0-1-2l-4.14-2,4.37.17c.61,0,1.17-.53,1.37-1.37Z" transform="translate(3200)"/>
            <path class="cls-30" d="M265.23,245.94l-1.62,5.87a2.64,2.64,0,0,0,.43,2.32l3.4,4-4.06-2.34a1.16,1.16,0,0,0-1.56.5.54.54,0,0,0-.05.11L259,261.29l1.62-5.87a2.64,2.64,0,0,0-.43-2.32l-3.4-4,4.06,2.34a1.16,1.16,0,0,0,1.56-.5.54.54,0,0,0,0-.11Z" transform="translate(3200)"/>
            <path class="cls-30" d="M119.89,64.46l-.76,9.21a3.37,3.37,0,0,0,1.21,3.07l5.87,3.76-6.38-1.09c-.89-.16-1.75.55-2.12,1.74l-2.6,8.48.76-9.21a3.32,3.32,0,0,0-1.21-3.07l-5.87-3.76,6.38,1.1c.89.15,1.75-.56,2.12-1.75Z" transform="translate(3200)"/>
            <g class="cls-31">
              <path class="cls-30" d="M360.93,631.81l.31,6.55a2,2,0,0,0,1.12,1.9l4.42,1.5-4.53.45a1.76,1.76,0,0,0-1.32,1.62l-1,6.39-.31-6.55a2,2,0,0,0-1.11-1.9l-4.43-1.5,4.54-.45a1.74,1.74,0,0,0,1.31-1.62Z" transform="translate(3200)"/>
            </g>
            <path class="cls-32" d="M340.34,61.3l1.33,6c.18.85.73,1.42,1.34,1.41l4.38-.06-4.17,1.92a2.09,2.09,0,0,0-1,1.94v6.33l-1.32-6c-.19-.84-.74-1.42-1.35-1.41l-4.37.06,4.16-1.92a2.09,2.09,0,0,0,1-1.94Z" transform="translate(3200)"/>
            <path class="cls-32" d="M240.55,843.52l-1.14,6.11a2.49,2.49,0,0,0,.6,2.23l3.7,3.38-4.22-1.65a1.24,1.24,0,0,0-1.54.84v0l-2.34,5.34,1.14-6.1a2.51,2.51,0,0,0-.6-2.24l-3.7-3.37,4.22,1.65a1.24,1.24,0,0,0,1.54-.84v0Z" transform="translate(3200)"/>
            <path class="cls-30" d="M135.21,649.65,138.92,663c.52,1.87,1.82,3,3.22,2.86l9.9-1.2L142.82,670c-1.3.75-2.1,2.64-2,4.65l.82,14.32L138,675.65c-.52-1.87-1.82-3-3.21-2.86l-9.91,1.2,9.22-5.37c1.3-.75,2.1-2.64,2-4.65Z" transform="translate(3200)"/>
            <path class="cls-30" d="M191.62,513.21l-.12,6.32a2.1,2.1,0,0,0,.95,2l4.14,2-4.37-.17a1.55,1.55,0,0,0-1.36,1.37l-1.41,6,.12-6.32a2.1,2.1,0,0,0-.95-2l-4.14-2,4.37.17c.62,0,1.17-.53,1.37-1.37Z" transform="translate(3200)"/>
            <path class="cls-30" d="M343.37,236.57l-3.51,6.76a3.69,3.69,0,0,0,0,3.21l3.44,6.83-4.68-5.07a1.43,1.43,0,0,0-2-.21,1,1,0,0,0-.21.21l-4.73,5,3.51-6.76a3.69,3.69,0,0,0,0-3.21l-3.44-6.83,4.68,5.07a1.43,1.43,0,0,0,2,.21,1,1,0,0,0,.21-.21Z" transform="translate(3200)"/>
            <g class="cls-33">
              <path class="cls-30" d="M127.21,334.67l1.27,7.18c.18,1,.79,1.73,1.51,1.78l5.13.35-5,1.84a2.34,2.34,0,0,0-1.23,2.19l-.25,7.4-1.27-7.18a1.94,1.94,0,0,0-1.52-1.78l-5.12-.36,5-1.84a2.31,2.31,0,0,0,1.23-2.18Z" transform="translate(3200)"/>
            </g>
            <path class="cls-30" d="M199.53,381.32l-1.76,5.78a2.69,2.69,0,0,0,.36,2.35l3.31,4.14-4-2.55a1.12,1.12,0,0,0-1.54.37,1.19,1.19,0,0,0-.08.16L193,396.34l1.76-5.78a2.69,2.69,0,0,0-.36-2.35l-3.4-4.14,4,2.55a1.14,1.14,0,0,0,1.56-.39.83.83,0,0,0,.07-.13Z" transform="translate(3200)"/>
            <path class="cls-30" d="M174.4,225.53l1,6.15a1.67,1.67,0,0,0,1.27,1.56l4.36.45-4.26,1.43a1.94,1.94,0,0,0-1.08,1.83l-.31,6.3-1-6.15a1.7,1.7,0,0,0-1.26-1.57l-4.37-.44,4.26-1.43a1.94,1.94,0,0,0,1.08-1.83Z" transform="translate(3200)"/>
            <path class="cls-30" d="M377.75,12.15l-1.21,6.07a2.5,2.5,0,0,0,.58,2.25l3.65,3.47-4.2-1.76c-.59-.24-1.22.1-1.56.84l-2.39,5.28,1.21-6.07a2.5,2.5,0,0,0-.58-2.25l-3.65-3.47,4.2,1.76c.59.24,1.22-.09,1.56-.84Z" transform="translate(3200)"/>
          </g>
          <g class="cls-34">
            <path class="cls-30" d="M31,193.72c0,1.1-.62,2-1.39,2s-1.39-.9-1.39-2,.63-2,1.39-2S31,192.61,31,193.72Z" transform="translate(3200)"/>
            <path class="cls-30" d="M2.94,393.86c0,1.11-.62,2-1.38,2s-1.39-.9-1.39-2,.62-2,1.39-2S2.94,392.76,2.94,393.86Z" transform="translate(3200)"/>
            <path class="cls-30" d="M75.75,400.63c0,1.11-.62,2-1.39,2s-1.38-.9-1.38-2,.62-2,1.38-2S75.75,399.53,75.75,400.63Z" transform="translate(3200)"/>
            <path class="cls-30" d="M68,233.47c0,1.11-.62,2-1.39,2s-1.39-.9-1.39-2,.63-2,1.39-2S68,232.37,68,233.47Z" transform="translate(3200)"/>
            <path class="cls-30" d="M139.66,99.94c0,1.11-.62,2-1.39,2s-1.38-.89-1.38-2,.62-2,1.38-2S139.66,98.83,139.66,99.94Z" transform="translate(3200)"/>
            <path class="cls-30" d="M228.72,125.94c0,1.11-.62,2-1.38,2s-1.39-.89-1.39-2,.62-2,1.39-2S228.72,124.83,228.72,125.94Z" transform="translate(3200)"/>
            <path class="cls-30" d="M252.28,194c0,1.1-.62,2-1.39,2s-1.39-.9-1.39-2,.62-2,1.39-2S252.28,192.86,252.28,194Z" transform="translate(3200)"/>
            <path class="cls-30" d="M255.32,302.4c0,1.11-.62,2-1.38,2s-1.39-.89-1.39-2,.62-2,1.39-2S255.32,301.29,255.32,302.4Z" transform="translate(3200)"/>
            <path class="cls-30" d="M298.46,356.67c0,1.11-.62,2-1.39,2s-1.39-.9-1.39-2,.62-2,1.39-2S298.46,355.57,298.46,356.67Z" transform="translate(3200)"/>
            <path class="cls-35" d="M224.14,520.44c0,1.1-.62,2-1.39,2s-1.39-.9-1.39-2,.62-2,1.39-2S224.14,519.33,224.14,520.44Z" transform="translate(3200)"/>
            <path class="cls-30" d="M135.86,548.77c0,1.1-.62,2-1.38,2s-1.39-.9-1.39-2,.62-2,1.39-2S135.86,547.66,135.86,548.77Z" transform="translate(3200)"/>
            <path class="cls-35" d="M13.88,825.85c0,1.11-.62,2-1.39,2s-1.38-.9-1.38-2,.62-2,1.38-2S13.88,824.75,13.88,825.85Z" transform="translate(3200)"/>
            <path class="cls-36" d="M52.45,831.47c0,1.11-.62,2-1.38,2s-1.39-.9-1.39-2,.62-2,1.39-2S52.45,830.37,52.45,831.47Z" transform="translate(3200)"/>
            <path class="cls-30" d="M195.9,799.67c0,1.1-.62,2-1.39,2s-1.38-.9-1.38-2,.62-2,1.38-2S195.9,798.56,195.9,799.67Z" transform="translate(3200)"/>
            <path class="cls-30" d="M241.26,667.4c0,1.11-.62,2-1.39,2s-1.39-.89-1.39-2,.63-2,1.39-2S241.26,666.29,241.26,667.4Z" transform="translate(3200)"/>
            <path class="cls-30" d="M305.52,675.27c0,1.11-.62,2-1.38,2s-1.39-.89-1.39-2,.62-2,1.39-2S305.52,674.16,305.52,675.27Z" transform="translate(3200)"/>
            <path class="cls-30" d="M332.77,819.78c0,1.11-.62,2-1.39,2s-1.39-.9-1.39-2,.62-2,1.39-2S332.77,818.68,332.77,819.78Z" transform="translate(3200)"/>
            <path class="cls-30" d="M4.6,639.13c0,1.11-.62,2-1.39,2s-1.39-.9-1.39-2,.62-2,1.39-2S4.6,638,4.6,639.13Z" transform="translate(3200)"/>
            <path class="cls-30" d="M47.55,543.07c0,1.11-.62,2-1.38,2s-1.39-.9-1.39-2,.62-2,1.39-2S47.55,542,47.55,543.07Z" transform="translate(3200)"/>
            <path class="cls-30" d="M364.17,433.44c0,1.11-.62,2-1.38,2s-1.39-.89-1.39-2,.62-2,1.39-2S364.17,432.33,364.17,433.44Z" transform="translate(3200)"/>
            <path class="cls-35" d="M281.11,17.56c0,1.1-.62,2-1.39,2s-1.39-.9-1.39-2,.63-2,1.39-2S281.11,16.45,281.11,17.56Z" transform="translate(3200)"/>
            <path class="cls-30" d="M254.47,900.25c0,1.1-.62,2-1.39,2s-1.39-.9-1.39-2,.62-2,1.39-2S254.47,899.14,254.47,900.25Z" transform="translate(3200)"/>
            <path class="cls-30" d="M354.69,142c0,1.11-.62,2-1.39,2s-1.39-.9-1.39-2,.62-2,1.39-2S354.69,140.89,354.69,142Z" transform="translate(3200)"/>
            <path class="cls-36" d="M326.58,517.16c0,1.11-.62,2-1.39,2s-1.38-.9-1.38-2,.62-2,1.38-2S326.58,516.06,326.58,517.16Z" transform="translate(3200)"/>
          </g>
        </g>
      </g>
      <g class="cls-4">
        <g>
          <g class="cls-29">
            <g class="cls-37">
              <path class="cls-30" d="M1039.28,455.27l-.13,5.88a1.91,1.91,0,0,0,1,1.83l4.38,1.88-4.62-.16a1.54,1.54,0,0,0-1.44,1.28l-1.48,5.57.13-5.88a1.91,1.91,0,0,0-1-1.83l-4.37-1.88,4.62.16a1.55,1.55,0,0,0,1.44-1.28Z" transform="translate(3200)"/>
            </g>
            <path class="cls-30" d="M883.71,389.71l.83,5.78a1.71,1.71,0,0,0,1.28,1.53l4.58.69-4.54,1.06a1.78,1.78,0,0,0-1.2,1.63l-.54,5.83-.83-5.78a1.71,1.71,0,0,0-1.28-1.53l-4.59-.69,4.54-1.06a1.77,1.77,0,0,0,1.21-1.63Z" transform="translate(3200)"/>
            <g class="cls-38">
              <path class="cls-30" d="M1206.21,211.87l.46,5.88a1.77,1.77,0,0,0,1.18,1.67l4.55,1.18-4.62.58a1.67,1.67,0,0,0-1.31,1.51l-.93,5.79-.46-5.88a1.77,1.77,0,0,0-1.18-1.67l-4.55-1.18,4.62-.58a1.67,1.67,0,0,0,1.31-1.51Z" transform="translate(3200)"/>
            </g>
            <path class="cls-30" d="M1359.42,434.41l-.12,5.88a1.91,1.91,0,0,0,1,1.83l4.37,1.88-4.61-.16a1.54,1.54,0,0,0-1.44,1.28l-1.48,5.57.12-5.88a1.91,1.91,0,0,0-1-1.83l-4.37-1.88,4.61.16a1.54,1.54,0,0,0,1.44-1.28Z" transform="translate(3200)"/>
            <g class="cls-39">
              <path class="cls-30" d="M795.59,731.53l-.12,5.87a1.89,1.89,0,0,0,1,1.83l4.37,1.89-4.61-.16a1.53,1.53,0,0,0-1.44,1.27l-1.48,5.57.12-5.87a1.91,1.91,0,0,0-1-1.84l-4.37-1.88,4.61.16a1.54,1.54,0,0,0,1.44-1.28Z" transform="translate(3200)"/>
            </g>
            <path class="cls-30" d="M584.45,588.34l3.14,4.31a1.25,1.25,0,0,0,1.72.42h0l4.16-2.54-3.39,4a2.29,2.29,0,0,0-.33,2.2l2,5.29-3.13-4.31a1.26,1.26,0,0,0-1.73-.42l-4.16,2.54,3.39-4a2.24,2.24,0,0,0,.33-2.19Z" transform="translate(3200)"/>
            <path class="cls-32" d="M543.23,174.56l-4.52,9a4.17,4.17,0,0,0,.21,4.06l5.42,8.15L537.27,190a2.25,2.25,0,0,0-3.16.24l0,0-6.41,6.9,4.52-9a4.16,4.16,0,0,0-.21-4L526.57,176l7.07,5.76a2.25,2.25,0,0,0,3.16-.24l0,0Z" transform="translate(3200)"/>
            <g class="cls-40">
              <path class="cls-30" d="M725.85,61.53l-.15,7a2.28,2.28,0,0,0,1.2,2.19L732.13,73l-5.52-.19a1.82,1.82,0,0,0-1.72,1.52L723.12,81l.15-7a2.29,2.29,0,0,0-1.2-2.2l-5.24-2.25,5.53.19a1.83,1.83,0,0,0,1.72-1.53Z" transform="translate(3200)"/>
            </g>
            <path class="cls-30" d="M1526.31,255.42l-1.71,5.46a2.21,2.21,0,0,0,.45,2.16l3.59,3.69-4.29-2.17a1.26,1.26,0,0,0-1.69.56l-2.9,4.58,1.71-5.46a2.21,2.21,0,0,0-.45-2.16l-3.59-3.69,4.29,2.18a1.29,1.29,0,0,0,1.69-.57Z" transform="translate(3200)"/>
            <path class="cls-30" d="M1372.9,86.71l-.8,8.57a3,3,0,0,0,1.28,2.85l6.19,3.5-6.73-1a2.12,2.12,0,0,0-2.23,1.62l-2.75,7.89.8-8.57a3,3,0,0,0-1.28-2.85l-6.19-3.5,6.73,1a2.14,2.14,0,0,0,2.24-1.62Z" transform="translate(3200)"/>
            <path class="cls-30" d="M912.37,826.38l-.21,9.46a3.1,3.1,0,0,0,1.62,3l7,3-7.43-.26a2.48,2.48,0,0,0-2.32,2.06l-2.39,9,.21-9.46a3.1,3.1,0,0,0-1.62-3l-7-3,7.44.26a2.48,2.48,0,0,0,2.32-2.06Z" transform="translate(3200)"/>
            <g class="cls-37">
              <path class="cls-30" d="M520.86,808.63l.18,5.87a1.84,1.84,0,0,0,1.1,1.74l4.46,1.51L522,818a1.61,1.61,0,0,0-1.37,1.4l-1.18,5.68-.19-5.87a1.85,1.85,0,0,0-1.09-1.75L513.7,816l4.62-.24a1.6,1.6,0,0,0,1.37-1.39Z" transform="translate(3200)"/>
            </g>
            <path class="cls-32" d="M1500.26,811l-1.21,5.67a2.13,2.13,0,0,0,.64,2.08l3.9,3.14-4.45-1.54a1.37,1.37,0,0,0-1.64.82l-2.47,5,1.21-5.67a2.13,2.13,0,0,0-.64-2.08l-3.9-3.14,4.46,1.54a1.36,1.36,0,0,0,1.63-.81Z" transform="translate(3200)"/>
            <path class="cls-30" d="M1389.07,630.74l3.92,12.39a3.38,3.38,0,0,0,3.39,2.67l10.46-1.12-9.74,5A4.51,4.51,0,0,0,1395,654l.88,13.31-3.88-12.4a3.39,3.39,0,0,0-3.4-2.67l-10.45,1.12,9.73-5A4.49,4.49,0,0,0,1390,644Z" transform="translate(3200)"/>
            <g class="cls-41">
              <path class="cls-30" d="M707.67,405.79l.75,5.8a1.71,1.71,0,0,0,1.26,1.55l4.57.79-4.55,1a1.74,1.74,0,0,0-1.22,1.6l-.62,5.83-.76-5.8a1.71,1.71,0,0,0-1.26-1.56l-4.57-.79,4.55-1a1.75,1.75,0,0,0,1.23-1.6Z" transform="translate(3200)"/>
            </g>
            <path class="cls-30" d="M886.75,176.77l-.35,5.86a2,2,0,0,0,.93,1.89l4.29,2.16-4.6-.45a1.48,1.48,0,0,0-1.49,1.18l-1.7,5.47.36-5.86a2,2,0,0,0-.93-1.9L879,183l4.6.46a1.5,1.5,0,0,0,1.49-1.19Z" transform="translate(3200)"/>
            <path class="cls-30" d="M1448.61,503.89l-.12,5.88a1.91,1.91,0,0,0,1,1.83l4.37,1.89-4.61-.17a1.54,1.54,0,0,0-1.44,1.28l-1.48,5.57.12-5.88a1.92,1.92,0,0,0-1-1.83l-4.37-1.88,4.61.16a1.54,1.54,0,0,0,1.44-1.28Z" transform="translate(3200)"/>
            <g class="cls-29">
              <path class="cls-30" d="M446.5,522.44l-.21,10.17a3.28,3.28,0,0,0,1.73,3.17l7.57,3.26-8-.27A2.65,2.65,0,0,0,445.1,541l-2.56,9.63.22-10.17a3.34,3.34,0,0,0-1.74-3.17L433.46,534l8,.28a2.67,2.67,0,0,0,2.49-2.21Z" transform="translate(3200)"/>
            </g>
            <path class="cls-30" d="M1608.78,246.72l-3.7,6.28a3.08,3.08,0,0,0,0,3l3.63,6.35-4.94-4.71a1.63,1.63,0,0,0-2.32,0l0,0-5,4.61,3.7-6.28a3.08,3.08,0,0,0,0-3l-3.63-6.35,4.94,4.71a1.63,1.63,0,0,0,2.32,0l0,0Z" transform="translate(3200)"/>
            <g class="cls-33">
              <path class="cls-30" d="M1380.63,337.91l1.34,6.68a1.91,1.91,0,0,0,1.6,1.65l5.4.33-5.24,1.71a2.15,2.15,0,0,0-1.3,2l-.26,6.89-1.34-6.68a1.9,1.9,0,0,0-1.6-1.65l-5.41-.34,5.25-1.71a2.15,2.15,0,0,0,1.3-2Z" transform="translate(3200)"/>
            </g>
            <path class="cls-30" d="M1457,381.28l-1.86,5.38a2.26,2.26,0,0,0,.39,2.18l3.48,3.85-4.22-2.37a1.25,1.25,0,0,0-1.71.49l-3,4.44,1.86-5.38a2.26,2.26,0,0,0-.39-2.18l-3.49-3.85,4.23,2.37a1.27,1.27,0,0,0,1.71-.49Z" transform="translate(3200)"/>
            <path class="cls-36" d="M1165.25,522.59l-1.71,5.46a2.23,2.23,0,0,0,.44,2.16l3.6,3.69-4.29-2.18a1.3,1.3,0,0,0-1.7.57l-2.89,4.58,1.71-5.46a2.23,2.23,0,0,0-.45-2.16l-3.6-3.69,4.29,2.18a1.3,1.3,0,0,0,1.7-.57Z" transform="translate(3200)"/>
            <path class="cls-30" d="M844.38,510.73l1.15,5.69a1.61,1.61,0,0,0,1.36,1.41l4.61.28-4.5,1.46a1.84,1.84,0,0,0-1.1,1.73l-.23,5.87-1.14-5.69a1.61,1.61,0,0,0-1.36-1.41l-4.61-.28,4.47-1.46a1.83,1.83,0,0,0,1.11-1.73Z" transform="translate(3200)"/>
            <g class="cls-42">
              <path class="cls-43" d="M898.3,567.81l-.13,5.88a1.94,1.94,0,0,0,1,1.83l4.37,1.88-4.61-.16a1.54,1.54,0,0,0-1.44,1.28L896,584.08l.12-5.87a1.91,1.91,0,0,0-1-1.83l-4.37-1.89,4.61.16a1.53,1.53,0,0,0,1.44-1.27Z" transform="translate(3200)"/>
            </g>
            <path class="cls-30" d="M716.37,671.7l3.34,11.56a3.18,3.18,0,0,0,3.08,2.57l9.66-.66-9.08,4.26a4.08,4.08,0,0,0-2,3.91l.52,12.3-3.34-11.56a3.18,3.18,0,0,0-3.08-2.57l-9.66.66,9.08-4.26a4.08,4.08,0,0,0,2-3.91Z" transform="translate(3200)"/>
            <path class="cls-30" d="M714.12,548.47l-.13,5.88a1.92,1.92,0,0,0,1,1.83l4.37,1.89-4.61-.17a1.54,1.54,0,0,0-1.44,1.28l-1.48,5.57.12-5.88a1.92,1.92,0,0,0-1-1.83l-4.37-1.88,4.61.16a1.54,1.54,0,0,0,1.44-1.28Z" transform="translate(3200)"/>
            <g class="cls-44">
              <path class="cls-30" d="M661.06,732l-.06,5.88a1.9,1.9,0,0,0,1,1.81l4.39,1.8-4.61-.07a1.55,1.55,0,0,0-1.43,1.31L659,748.28l.06-5.88a1.91,1.91,0,0,0-1-1.81l-4.39-1.8,4.61.07a1.56,1.56,0,0,0,1.43-1.3Z" transform="translate(3200)"/>
            </g>
            <path class="cls-36" d="M463.94,874.65l1.79,5.42a1.47,1.47,0,0,0,1.51,1.14l4.59-.57-4.26,2.27a2,2,0,0,0-.9,1.92l.45,5.85-1.78-5.42a1.48,1.48,0,0,0-1.51-1.15l-4.59.58,4.26-2.27a2,2,0,0,0,.89-1.92Z" transform="translate(3200)"/>
            <path class="cls-30" d="M781.45,859.54l-.13,5.88a1.91,1.91,0,0,0,1,1.83l4.37,1.88-4.62-.16a1.55,1.55,0,0,0-1.44,1.28l-1.48,5.56.13-5.87a1.91,1.91,0,0,0-1-1.83l-4.38-1.89,4.62.16a1.53,1.53,0,0,0,1.44-1.27Z" transform="translate(3200)"/>
            <g class="cls-45">
              <path class="cls-30" d="M1148.29,608.37l1.08,7.83a2.27,2.27,0,0,0,1.71,2.09l6.2,1-6.15,1.36a2.36,2.36,0,0,0-1.64,2.19l-.79,7.89-1.08-7.84a2.3,2.3,0,0,0-1.71-2.09l-6.2-1,6.15-1.36a2.37,2.37,0,0,0,1.64-2.19Z" transform="translate(3200)"/>
            </g>
            <path class="cls-30" d="M1430.44,236.45l1,5.72a1.63,1.63,0,0,0,1.34,1.45l4.6.42-4.49,1.33a1.79,1.79,0,0,0-1.14,1.7l-.33,5.86-1-5.73a1.65,1.65,0,0,0-1.34-1.45l-4.6-.41L1429,244a1.79,1.79,0,0,0,1.14-1.7Z" transform="translate(3200)"/>
          </g>
          <g class="cls-34">
            <ellipse class="cls-30" cx="3702.27" cy="71.35" rx="1.46" ry="1.86"/>
            <path class="cls-30" d="M603.21,100.76a1.51,1.51,0,1,1-1.47-1.86A1.71,1.71,0,0,1,603.21,100.76Z" transform="translate(3200)"/>
            <path class="cls-30" d="M645.23,224.68a1.51,1.51,0,1,1,0-.73A1.51,1.51,0,0,1,645.23,224.68Z" transform="translate(3200)"/>
            <path class="cls-30" d="M562.59,465.26a1.51,1.51,0,1,1-1.46-1.86A1.71,1.71,0,0,1,562.59,465.26Z" transform="translate(3200)"/>
            <path class="cls-35" d="M660.82,496.89a1.5,1.5,0,1,1-2.91-.72,1.49,1.49,0,0,1,1.45-1.14A1.7,1.7,0,0,1,660.82,496.89Z" transform="translate(3200)"/>
            <path class="cls-30" d="M686.38,365.48a1.51,1.51,0,1,1-1.47-1.86A1.7,1.7,0,0,1,686.38,365.48Z" transform="translate(3200)"/>
            <path class="cls-30" d="M805.1,343.31a1.51,1.51,0,1,1-1.47-1.86A1.7,1.7,0,0,1,805.1,343.31Z" transform="translate(3200)"/>
            <path class="cls-30" d="M888.42,259.36A1.51,1.51,0,1,1,887,257.5,1.7,1.7,0,0,1,888.42,259.36Z" transform="translate(3200)"/>
            <path class="cls-30" d="M859.55,156.35a1.51,1.51,0,1,1,0-.73A1.51,1.51,0,0,1,859.55,156.35Z" transform="translate(3200)"/>
            <path class="cls-30" d="M954.4,391.81a1.5,1.5,0,0,1-2.91-.74,1.51,1.51,0,0,1,1.45-1.13A1.68,1.68,0,0,1,954.4,391.81Z" transform="translate(3200)"/>
            <path class="cls-30" d="M996.54,306.62a1.51,1.51,0,1,1,0-.73A1.51,1.51,0,0,1,996.54,306.62Z" transform="translate(3200)"/>
            <path class="cls-35" d="M980,165.78a1.51,1.51,0,1,1,0-.73A1.51,1.51,0,0,1,980,165.78Z" transform="translate(3200)"/>
            <path class="cls-30" d="M1122.4,101.75a1.51,1.51,0,1,1-1.46-1.86A1.7,1.7,0,0,1,1122.4,101.75Z" transform="translate(3200)"/>
            <path class="cls-30" d="M1279.12,206.88a1.51,1.51,0,1,1,0-.73A1.51,1.51,0,0,1,1279.12,206.88Z" transform="translate(3200)"/>
            <path class="cls-30" d="M1140.69,336.16a1.5,1.5,0,1,1-2.91-.72,1.49,1.49,0,0,1,1.45-1.14A1.7,1.7,0,0,1,1140.69,336.16Z" transform="translate(3200)"/>
            <path class="cls-30" d="M1249.47,392.94a1.51,1.51,0,1,1,0-.73A1.51,1.51,0,0,1,1249.47,392.94Z" transform="translate(3200)"/>
            <path class="cls-30" d="M1326.31,399.24a1.5,1.5,0,0,1-2.91-.74,1.51,1.51,0,0,1,1.45-1.13A1.68,1.68,0,0,1,1326.31,399.24Z" transform="translate(3200)"/>
            <path class="cls-30" d="M1318.09,243.84a1.51,1.51,0,1,1-2.93-.72,1.5,1.5,0,0,1,1.47-1.15A1.7,1.7,0,0,1,1318.09,243.84Z" transform="translate(3200)"/>
            <path class="cls-30" d="M1393.77,119.7a1.51,1.51,0,1,1,0-.73A1.51,1.51,0,0,1,1393.77,119.7Z" transform="translate(3200)"/>
            <path class="cls-30" d="M1487.78,143.87a1.51,1.51,0,1,1-1.47-1.87A1.7,1.7,0,0,1,1487.78,143.87Z" transform="translate(3200)"/>
            <path class="cls-30" d="M1512.64,207.11a1.51,1.51,0,1,1-1.47-1.87A1.7,1.7,0,0,1,1512.64,207.11Z" transform="translate(3200)"/>
            <path class="cls-30" d="M1515.85,307.91a1.51,1.51,0,1,1-1.46-1.86A1.7,1.7,0,0,1,1515.85,307.91Z" transform="translate(3200)"/>
            <path class="cls-30" d="M1561.38,358.37a1.51,1.51,0,1,1-1.47-1.86A1.7,1.7,0,0,1,1561.38,358.37Z" transform="translate(3200)"/>
            <path class="cls-35" d="M1482.93,510.61a1.5,1.5,0,1,1-2.91-.72,1.49,1.49,0,0,1,1.45-1.14A1.69,1.69,0,0,1,1482.93,510.61Z" transform="translate(3200)"/>
            <path class="cls-30" d="M1389.76,537a1.51,1.51,0,1,1,0-.73A1.51,1.51,0,0,1,1389.76,537Z" transform="translate(3200)"/>
            <path class="cls-36" d="M1222.31,720.82a1.51,1.51,0,1,1,0-.73A1.51,1.51,0,0,1,1222.31,720.82Z" transform="translate(3200)"/>
            <path class="cls-30" d="M1091.37,632.54a1.51,1.51,0,1,1-1.47-1.86A1.71,1.71,0,0,1,1091.37,632.54Z" transform="translate(3200)"/>
            <ellipse class="cls-30" cx="4247.91" cy="530.49" rx="1.46" ry="1.86"/>
            <path class="cls-30" d="M981.62,514.71a1.51,1.51,0,1,1-1.47-1.87A1.71,1.71,0,0,1,981.62,514.71Z" transform="translate(3200)"/>
            <path class="cls-30" d="M961.94,632.55a1.51,1.51,0,1,1-1.46-1.86A1.69,1.69,0,0,1,961.94,632.55Z" transform="translate(3200)"/>
            <path class="cls-30" d="M876.2,643a1.51,1.51,0,1,1-1.47-1.86A1.7,1.7,0,0,1,876.2,643Z" transform="translate(3200)"/>
            <path class="cls-30" d="M820.88,593.41a1.51,1.51,0,1,1-1.46-1.86A1.7,1.7,0,0,1,820.88,593.41Z" transform="translate(3200)"/>
            <path class="cls-30" d="M782.59,598.8a1.51,1.51,0,1,1-1.47-1.87A1.7,1.7,0,0,1,782.59,598.8Z" transform="translate(3200)"/>
            <path class="cls-30" d="M612.24,741.88a1.51,1.51,0,1,1-1.46-1.86A1.71,1.71,0,0,1,612.24,741.88Z" transform="translate(3200)"/>
            <path class="cls-30" d="M589.16,651.38a1.51,1.51,0,1,1-1.46-1.86A1.71,1.71,0,0,1,589.16,651.38Z" transform="translate(3200)"/>
            <path class="cls-30" d="M536.37,579.7a1.51,1.51,0,1,1-1.46-1.86A1.71,1.71,0,0,1,536.37,579.7Z" transform="translate(3200)"/>
            <path class="cls-30" d="M500.46,587a1.5,1.5,0,1,1-2.91-.72,1.49,1.49,0,0,1,1.45-1.14A1.7,1.7,0,0,1,500.46,587Z" transform="translate(3200)"/>
            <ellipse class="cls-30" cx="3685" cy="635.7" rx="1.46" ry="1.86"/>
            <path class="cls-35" d="M504.05,729.33a1.51,1.51,0,1,1,0-.73A1.51,1.51,0,0,1,504.05,729.33Z" transform="translate(3200)"/>
            <path class="cls-30" d="M579.17,818.79a1.51,1.51,0,1,1-1.46-1.86A1.71,1.71,0,0,1,579.17,818.79Z" transform="translate(3200)"/>
            <path class="cls-30" d="M685.62,804a1.51,1.51,0,1,1-1.46-1.86A1.7,1.7,0,0,1,685.62,804Z" transform="translate(3200)"/>
            <path class="cls-30" d="M772.88,739.94a1.51,1.51,0,1,1-2.93-.72,1.5,1.5,0,0,1,1.47-1.15A1.7,1.7,0,0,1,772.88,739.94Z" transform="translate(3200)"/>
            <path class="cls-30" d="M835.61,691.62a1.51,1.51,0,1,1-1.47-1.87A1.7,1.7,0,0,1,835.61,691.62Z" transform="translate(3200)"/>
            <path class="cls-30" d="M914.9,742.09a1.51,1.51,0,1,1,0-.73A1.51,1.51,0,0,1,914.9,742.09Z" transform="translate(3200)"/>
            <path class="cls-30" d="M988.26,798.83a1.51,1.51,0,1,1-1.47-1.86A1.7,1.7,0,0,1,988.26,798.83Z" transform="translate(3200)"/>
            <path class="cls-30" d="M1093.77,772.36a1.51,1.51,0,1,1-2.93-.72,1.5,1.5,0,0,1,1.47-1.15A1.7,1.7,0,0,1,1093.77,772.36Z" transform="translate(3200)"/>
            <path class="cls-35" d="M1261,794.54a1.51,1.51,0,1,1-1.46-1.86A1.7,1.7,0,0,1,1261,794.54Z" transform="translate(3200)"/>
            <path class="cls-36" d="M1301.72,799.77a1.5,1.5,0,0,1-2.91-.74,1.51,1.51,0,0,1,1.45-1.13A1.68,1.68,0,0,1,1301.72,799.77Z" transform="translate(3200)"/>
            <path class="cls-30" d="M1453.13,770.2a1.51,1.51,0,1,1,0-.73A1.51,1.51,0,0,1,1453.13,770.2Z" transform="translate(3200)"/>
            <path class="cls-30" d="M1501,647.23a1.51,1.51,0,1,1-1.47-1.86A1.71,1.71,0,0,1,1501,647.23Z" transform="translate(3200)"/>
            <path class="cls-30" d="M1568.84,654.55a1.51,1.51,0,1,1-1.47-1.86A1.71,1.71,0,0,1,1568.84,654.55Z" transform="translate(3200)"/>
            <path class="cls-30" d="M1597.59,788.9a1.5,1.5,0,0,1-2.91-.74,1.51,1.51,0,0,1,1.45-1.13A1.68,1.68,0,0,1,1597.59,788.9Z" transform="translate(3200)"/>
            <path class="cls-30" d="M1251.21,621a1.51,1.51,0,1,1-1.46-1.86A1.7,1.7,0,0,1,1251.21,621Z" transform="translate(3200)"/>
            <path class="cls-30" d="M1296.55,531.66a1.51,1.51,0,1,1,0-.73A1.51,1.51,0,0,1,1296.55,531.66Z" transform="translate(3200)"/>
            <path class="cls-30" d="M436.39,137.8a1.51,1.51,0,1,1,0-.73A1.51,1.51,0,0,1,436.39,137.8Z" transform="translate(3200)"/>
            <path class="cls-30" d="M452.14,872.09a1.51,1.51,0,1,1-1.46-1.86A1.7,1.7,0,0,1,452.14,872.09Z" transform="translate(3200)"/>
            <path class="cls-36" d="M443.59,726a1.51,1.51,0,1,1-1.46-1.86A1.71,1.71,0,0,1,443.59,726Z" transform="translate(3200)"/>
            <path class="cls-35" d="M1543.07,43.11a1.51,1.51,0,1,1-1.47-1.86A1.7,1.7,0,0,1,1543.07,43.11Z" transform="translate(3200)"/>
            <path class="cls-30" d="M815,74.4a1.51,1.51,0,1,1-1.46-1.86A1.71,1.71,0,0,1,815,74.4Z" transform="translate(3200)"/>
            <ellipse class="cls-30" cx="4307.98" cy="854.54" rx="1.46" ry="1.86"/>
            <path class="cls-30" d="M834,860.86a1.51,1.51,0,1,1-1.47-1.87A1.7,1.7,0,0,1,834,860.86Z" transform="translate(3200)"/>
            <path class="cls-30" d="M1515,863.7a1.51,1.51,0,1,1-1.47-1.86A1.7,1.7,0,0,1,1515,863.7Z" transform="translate(3200)"/>
            <path class="cls-30" d="M1238.84,80.71a1.51,1.51,0,1,1-2.93-.72,1.5,1.5,0,0,1,1.47-1.15A1.7,1.7,0,0,1,1238.84,80.71Z" transform="translate(3200)"/>
            <path class="cls-36" d="M1179.4,135.53a1.51,1.51,0,1,1,0-.73A1.51,1.51,0,0,1,1179.4,135.53Z" transform="translate(3200)"/>
            <ellipse class="cls-36" cx="4006.14" cy="424.42" rx="1.46" ry="1.86"/>
            <path class="cls-36" d="M1591.06,507.57a1.51,1.51,0,1,1,0-.73A1.51,1.51,0,0,1,1591.06,507.57Z" transform="translate(3200)"/>
          </g>
        </g>
      </g>
      <g>
        <path class="cls-46" d="M-30.72,315.17c13.39-9.84-.46-102.83,16.21-103.68,82.78-4.21,123.22,2.95,145.92,11,47.79,16.86,91.45,41.64,97.44,44.5a56.77,56.77,0,0,1,29.08,32.89c9.38,28.33-4.49,62.22,11.18,87.69,7.73,12.56,21.36,20.4,35.08,26.11s28.22,9.9,40.85,17.68c22.09,13.62,36.46,37.36,42.77,62.33,3.74,14.76,4.94,30.12,9.52,44.65,14,44.24,62,75.3,108.67,70.21-24.34,1.39-49.12-.57-72.14-8.49s-44.22-22.09-58-41.94c-17.67-25.39-23.3-59.5-47.77-78.61-20.27-15.83-48-17-73.64-20.31s-54-11.64-65.71-34.41c-4.11-8-5.89-17.43-12.19-23.89-10.5-10.77-28.18-8.63-43-5.68,0,0-70.37,13.87-88.69-59.39C39.25,313.49-30.72,315.17-30.72,315.17Z" transform="translate(3200)"/>
        <path class="cls-47" d="M-28.16,311.8c-.31-12.87-9-65.3-3.84-77.13s64.14-5.61,128-1.26c37.12,2.53,103.82,41.21,110.73,47s11.93,13.45,16,21.44a124.17,124.17,0,0,1,13.34,53.84c.14,8.64-.62,17.41,1.4,25.82a41.05,41.05,0,0,0,20,26.08c8.67,4.72,18.73,6.19,28,9.63a68.15,68.15,0,0,1,30.09,22.17c5.17,6.72,9.12,15.64,5.93,23.47-8.2-20.65-30.39-35-52.83-34.22-6.37.23-12.66,1.55-19,1.72-18.19.49-36.31-9.23-45.8-24.57-5.49-8.87-8.45-19.63-16.45-26.39-7.54-6.38-12.31-7-22.24-6.92-9.31.08-19.51,7.8-28,11.69-13,6-62.69,1.13-83.41-47.09C39.68,304.21-28.16,311.8-28.16,311.8Z" transform="translate(3200)"/>
      </g>
      <path class="cls-48" d="M114.06,616c-9.53-4.61-14.29-6.91-16.1-8.87-11.65-12.59-10.5-45.41-19.1-67.91-8.32-21.8-47.62-27.94-51.8-28.54-13.86-2-16.6,1.43-40.07-.92-19.18-1.91-28.92-3-36.82-9.71-9.72-8.28-5.53-16.38-15.9-29.15-7.2-8.87,12.31-6.1,5.91-8.67a21.08,21.08,0,0,1,3.26,9.4,20.06,20.06,0,0,1-.89,7.66c-.82,2.9-6.76,23.25,1.31,34.62a23.2,23.2,0,0,0,7.56,6.47c11,6.65,4.44,33.84,11.82,52.77C-24,606-9.33,617.42-8.17,618.52c9.43,9,22.23,9.63,45.41,10.75,21.51,1,25.43-1.9,32.62,3,4.9,3.31,9.24,8.82,20,13.55a32.5,32.5,0,0,0,7.52,2.77c12.26,2.4,18.3-3.86,31.58-.43,8.91,2.31,35.54,20.14,39.59,24.29a49.2,49.2,0,0,0-8.14-24.87c-3.37-5-27.15-20.77-28.11-21.61C126.92,621.26,122.58,620.11,114.06,616Z" transform="translate(3200)"/>
      <g>
        <path class="cls-49" d="M566.8,239.32c-3.07,3.79-1.45,9.83,2.33,12.94s9,3.9,13.89,3.95c11.72.13,23.47-3.2,35-1.32,3.49.56,7,1.67,9.6,4.07,4.83,4.47,4.93,11.85,5.07,18.39.21,10,1.34,20.11,5.48,29.2s11.67,17.06,21.35,19.86c15.09,4.38,30.58-4.32,43.83-12.69s28.65-17.15,43.79-12.93c16.91,4.72,27.82,24.51,45.38,24.87,13.55.28,24.16-11.5,30.36-23.4,3.32-6.37,6-13.93,3.23-20.55-2.23-5.33-7.43-8.71-11.9-12.4a65.34,65.34,0,0,1-17.92-23.42c-3.51-7.78-5.67-16.54-11.82-22.52-4.69-4.55-11.11-6.87-17.42-8.67a162.21,162.21,0,0,0-69.77-4.16c-14.55,2.32-28.91,6.65-43.65,6.5-9.69-.11-19.28-2.15-29-2.56a86.59,86.59,0,0,0-54.51,16.59" transform="translate(3200)"/>
        <path class="cls-47" d="M630.68,242c5.82,3.35,13.16,3.72,16.12,9.7s3.11,12.9,2.83,19.55-.92,13.41.65,19.88,5.89,12.76,12.35,14.63c5.43,1.57,11.27-.21,16.39-2.59s10-5.4,15.58-6.49c7.29-1.44,14.76.59,22.18.92a48.51,48.51,0,0,0,24.59-5.48c8.68-4.56,17.19-12,26.85-10.26,5.22,1,9.55,4.54,14.58,6.23a21,21,0,0,0,15.12-.72c2.77-1.24,5.47-3.45,5.72-6.44.4-4.57-4.75-7.44-9.07-9.1l-23.39-9c-5.69-2.18-11.57-4.4-17.67-4.24-10.8.28-19.91,7.8-30.28,10.77a37.1,37.1,0,0,1-21.66-.44c-5.14-1.69-10.28-5.05-11.61-10.23-.9-3.49.09-7.2-.32-10.78C689,242,684.42,237,679.1,234.18s-11.4-3.93-17.36-5l-19.36-3.39a14.11,14.11,0,0,0-1.59-.08C619.52,224.45,618,234.63,630.68,242Z" transform="translate(3200)"/>
      </g>
      <g class="cls-50">
        <path class="cls-51" d="M887.61,528a75.5,75.5,0,0,1,5.21-7.34,135.87,135.87,0,0,1,37.9-32.93c4.51-2.63,9.38-5.07,14.62-5.22,1.93,0,4,.29,5.34,1.71,2.55,2.77.4,7.44,2,10.83,1.91,4,7.61,4,12,3.32a233.45,233.45,0,0,0,53.39-15.4c13.2-5.58,30.41-14.27,32.08-30.52a8.32,8.32,0,0,0-.68-4.82c-1.39-2.59-4.59-3.63-7.53-4-14.26-1.84-29.17,7.62-33.4,21.2,5.36,2.72,11.21-2.36,17-3.9,1.06-.29,2.38-.37,3.09.46,1,1.16-.08,2.87-1.16,3.92a34.73,34.73,0,0,1-13.73,8.2c-5.27,1.66-11.94,1.64-15.3-2.7s-1.5-11,1.43-15.79a49.81,49.81,0,0,1,42.87-23.31c6.58.15,13.31,1.72,18.55,5.65,8.72,6.52,11.75,18.76,9.09,29.24-9.22,36.3-58.32,38.44-88.51,43.72-24.19,4.23-49.38,10.87-66.7,28.07-9.76,9.7-16.3,22.1-21.68,34.71-1.26,2.92-2.5,5.95-4.72,8.25s-5.69,3.72-8.71,2.64c-7.66-2.76-.23-15.54,2.09-19.6,3.43-6,3.83-5.13,1.79-11.5-1.62-5-2.19-9.74-.81-14.94A37.46,37.46,0,0,1,887.61,528Z" transform="translate(3200)"/>
      </g>
      <g class="cls-50">
        <path class="cls-52" d="M1195.63,250.45a119.36,119.36,0,0,0-48.88-24.34c-8.79-2.07-18.51-3-26.47,1.22-5.57,3-9.6,8.17-14.85,11.67a29.39,29.39,0,0,1-24.74,3.5c-15.07-4.77-23.31-20.43-35.56-30.34-8.62-7-19.23-11-29.64-15-3.43-1.31-7.12-2.63-10.7-1.82s-6.66,4.76-5.11,8C1013,216,1020.31,234.77,1036.23,244a5.64,5.64,0,0,0,2.88,1,11.17,11.17,0,0,0,2.84-.77c5.35-1.48,9.78,3.87,13.69,7.77,9.91,9.89,24.69,12.81,38.51,15.48s28.62,6.11,37.91,16.56c4.25,4.79,7,10.77,11.67,15.18,5.68,5.41,13.53,7.93,21.22,9.69a154.72,154.72,0,0,0,28.18,3.77,15,15,0,0,0,6.7-.8c2.08-.92,3.77-3.07,3.42-5.29-.28-1.73-1.66-3-3-4.23q-7.83-7-16-13.63a76.62,76.62,0,0,0-8.16-6.32c-1.53-.94-5.33-3.05-4.67-5.31.27-.92,1.52-1.09,2.47-.92,5.06.88,10.66,5.4,14.61,8.49,6.21,4.84,12.21,10.35,19.73,12.76a3.72,3.72,0,0,0,2.26.2c1.39-.45,1.81-2.16,2-3.59,1.26-12.27-1.57-25.81-9.12-35.81A47.47,47.47,0,0,0,1195.63,250.45Z" transform="translate(3200)"/>
      </g>
      <g>
        <g class="cls-50">
          <path class="cls-53" d="M1435.39,175.48c-17.2,4.54-35,7.27-51.46,13.91s-32.06,18-38.59,34.36c-1.11,2.79-1.93,6-.6,8.72a8.46,8.46,0,0,0,3.08,3.26,14,14,0,0,0,13.24,1,13.6,13.6,0,0,0,7.69-10.69,3.74,3.74,0,0,0-.74-3.11,3.55,3.55,0,0,0-3.08-.64,8.27,8.27,0,0,0-6.55,6.57,2.77,2.77,0,0,0,3.8-.5c-1.59,2.14-5.29,1.81-7-.27s-1.46-5.2-.11-7.49a14.79,14.79,0,0,1,6-5.14c4.8-2.56,11.22-3.83,15.38-.34,2.74,2.3,3.72,6.2,3.16,9.71a21,21,0,0,1-4.69,9.48c-7.37,9.28-19,15.34-31,15.15s-23.77-7-29.06-17.56a21.85,21.85,0,0,1-2.5-10.93c.51-8.38,7-15.17,13.86-20.17s14.55-9.21,19.53-16c1.09-1.49,2-3.67.75-5a3.25,3.25,0,0,0-1.77-.91c-4.67-1-8.8,3.09-13.45,4.16-6.63,1.52-13.49-4-14.86-10.58s1.72-13.46,6.43-18.32c10-10.34,25.73-12.49,40.16-14l53.34-5.77c12-1.29,24-2.58,36-1.3,9.34,1,33.92,11,23.46,23.72C1467.12,167.27,1448.13,172.13,1435.39,175.48Z" transform="translate(3200)"/>
        </g>
        <g class="cls-50">
          <path class="cls-54" d="M1379.47,181.89a17.93,17.93,0,0,1-6.74,1.35c-2.3-.13-4.69-1.3-5.6-3.4-.62-1.45-.47-3.1-.69-4.66a9.85,9.85,0,0,0-5.37-7.33c-6-2.92-13.16.71-19.8-.1a14.84,14.84,0,0,1-11.89-9.33,4.32,4.32,0,0,1-.22-3.16,4.87,4.87,0,0,1,2.48-2.17,60.63,60.63,0,0,1,10.7-3.83c14-4,28-8.08,42.36-10.32,8-1.24,16.08-1.91,24-3.36,5.15-.94,10.34-2.21,15.56-1.74s10.61,3.12,12.66,7.88c4.53,10.52-13.29,18.31-20,22.44A190.1,190.1,0,0,1,1379.47,181.89Z" transform="translate(3200)"/>
        </g>
      </g>
      <g class="cls-50">
        <path class="cls-55" d="M1647.09,427c-17.21,10.34-30,26.62-46.43,38.06-8.71,6.06-19.42,10.84-29.79,8.44s-17.87-11.3-27.67-15.37c-6.3-2.62-13.31-3.11-20.13-2.8a90.88,90.88,0,0,0-56.25,23.12c-1.89-3.72.94-8,3.86-11.05a134.71,134.71,0,0,1,14.74-12.67c25-19.2,52-36.12,81.34-47.84s61.15-18.14,92.74-16.09c8.18.53,44,2.59,33.59,18.33-4,6-14.21,5.67-20.57,7.38A100.05,100.05,0,0,0,1647.09,427Z" transform="translate(3200)"/>
      </g>
      <g>
        <path class="cls-56" d="M313.68,357.58c.73.71-21.47,24.28-22.75,25.58s-2.92,1.78-3.65,1.08-.27-2.33,1-3.63S313,356.88,313.68,357.58Z" transform="translate(3200)"/>
        <path class="cls-56" d="M185.68,515.63c.73.71-21.47,24.28-22.75,25.58s-2.92,1.78-3.65,1.08-.27-2.33,1-3.63S185,514.93,185.68,515.63Z" transform="translate(3200)"/>
        <path class="cls-56" d="M533.84,471.38c.73.7-21.47,24.27-22.75,25.57s-2.92,1.78-3.65,1.08-.27-2.32,1-3.62S533.11,470.68,533.84,471.38Z" transform="translate(3200)"/>
        <path class="cls-56" d="M745.52,337.52c.73.7-21.46,24.27-22.75,25.57s-2.92,1.78-3.64,1.08-.28-2.32,1-3.62S744.8,336.82,745.52,337.52Z" transform="translate(3200)"/>
        <path class="cls-56" d="M954.16,262.92c.73.7-21.46,24.27-22.75,25.57s-2.92,1.78-3.64,1.08-.28-2.32,1-3.62S953.44,262.22,954.16,262.92Z" transform="translate(3200)"/>
        <path class="cls-56" d="M778.8,500.62c.73.71-21.46,24.28-22.75,25.58s-2.92,1.78-3.64,1.08-.28-2.33,1-3.63S778.08,499.92,778.8,500.62Z" transform="translate(3200)"/>
        <path class="cls-56" d="M1193.52,437.4c.73.71-21.46,24.28-22.75,25.58s-2.92,1.78-3.64,1.08-.28-2.33,1-3.63S1192.8,436.7,1193.52,437.4Z" transform="translate(3200)"/>
        <path class="cls-56" d="M1417.52,197.17c.73.7-21.46,24.27-22.75,25.57s-2.92,1.79-3.64,1.08-.28-2.32,1-3.62S1416.8,196.47,1417.52,197.17Z" transform="translate(3200)"/>
        <path class="cls-56" d="M1390.64,321.08c.73.7-21.46,24.27-22.75,25.57s-2.92,1.79-3.64,1.08-.28-2.32,1-3.62S1389.92,320.38,1390.64,321.08Z" transform="translate(3200)"/>
        <path class="cls-56" d="M327.76,582.65c.73.7-21.47,24.27-22.75,25.57s-2.92,1.78-3.65,1.08-.27-2.33,1-3.62S327,581.94,327.76,582.65Z" transform="translate(3200)"/>
      </g>
      <g>
        <ellipse class="cls-57" cx="3524.94" cy="308.27" rx="9.35" ry="9.23"/>
        <g>
          <g>
            <path class="cls-58" d="M330,302.31s.05.32.24.41.28.27.4.3.26.19.25-.13a.87.87,0,0,0-.11-.55.63.63,0,0,0-.35-.35C330.27,301.93,330,301.86,330,302.31Z" transform="translate(3200)"/>
            <path class="cls-58" d="M323.22,304.63a.32.32,0,0,0,.2.36c.24.08.45-.1.58-.1s.22-.19.1-.38a.53.53,0,0,0-.42-.26C323.54,304.25,323.23,304.36,323.22,304.63Z" transform="translate(3200)"/>
            <path class="cls-58" d="M324.07,303.3a.42.42,0,0,0,.24.39,1.64,1.64,0,0,0,.73.1,4.42,4.42,0,0,0,.73-.1c.31-.05.27-.31.18-.74s-.15-.65-.38-.8a.91.91,0,0,0-.86-.06A1.41,1.41,0,0,0,324.07,303.3Z" transform="translate(3200)"/>
            <path class="cls-59" d="M324.68,302.39s-.67.61-.16,1,1.31.13,1.35-.27C325.94,302.56,325.49,301.94,324.68,302.39Z" transform="translate(3200)"/>
            <path class="cls-58" d="M323.37,313.23a1.9,1.9,0,0,0,.21.56c.12.13.4.48.59.51s.47-.41.51-.56a2.46,2.46,0,0,0,.16-.76c0-.23-.35-.43-.49-.53a.44.44,0,0,0-.56.05C323.58,312.68,323.31,312.91,323.37,313.23Z" transform="translate(3200)"/>
            <path class="cls-59" d="M323.87,312.65a.79.79,0,0,0-.3.62c.05.35.52.82.79.55s.41-.69.24-.91S324.17,312.41,323.87,312.65Z" transform="translate(3200)"/>
            <path class="cls-58" d="M322.51,311.25s.17.26.27.23.43.26.57,0a1,1,0,0,0,.12-.82.57.57,0,0,0-.63-.35C322.48,310.38,322.39,310.86,322.51,311.25Z" transform="translate(3200)"/>
            <path class="cls-59" d="M322.82,310.82s-.23.33,0,.55.52,0,.52-.3S323.05,310.52,322.82,310.82Z" transform="translate(3200)"/>
            <path class="cls-58" d="M320.35,303.44s0,.43.28.55.64.42.72.24a4.72,4.72,0,0,1,.18-.53.69.69,0,0,0,0-.73c-.17-.38-.39-.35-.62-.37S320.4,302.9,320.35,303.44Z" transform="translate(3200)"/>
            <path class="cls-59" d="M320.6,303.19a.51.51,0,0,0,.21.68h0c.47.21.43-.16.52-.22a.36.36,0,0,0,.18-.49.16.16,0,0,0,0-.07.49.49,0,0,0-.66-.2A.49.49,0,0,0,320.6,303.19Z" transform="translate(3200)"/>
            <path class="cls-58" d="M319.38,313.61a1,1,0,0,0,0,.48.93.93,0,0,0,.38.49c.16.13.35.26.48-.15s.36-.3.31-.59-.32-.36-.49-.46S319.46,313.2,319.38,313.61Z" transform="translate(3200)"/>
            <path class="cls-59" d="M319.53,313.7a.52.52,0,0,0,.09.62c.27.32.46.26.51.08s.31-.35.19-.55S319.89,313.24,319.53,313.7Z" transform="translate(3200)"/>
            <path class="cls-59" d="M326.44,310.56s-.1.4.14.44.25,0,.21-.31S326.76,310.23,326.44,310.56Z" transform="translate(3200)"/>
            <path class="cls-58" d="M326.3,306.17a1.12,1.12,0,0,0,.13.76c.22.25.63.48.72.39a1,1,0,0,0,.14-.75.84.84,0,0,0-.41-.51C326.78,306,326.39,305.83,326.3,306.17Z" transform="translate(3200)"/>
            <path class="cls-59" d="M326.62,306.34s-.28.43.09.67.55-.09.49-.35S326.93,306,326.62,306.34Z" transform="translate(3200)"/>
            <path class="cls-58" d="M328.15,305.84s.1.31.28.25.37,0,.45-.15.15-.11.14-.38a.73.73,0,0,0-.28-.6c-.21-.18-.33-.26-.5,0A.75.75,0,0,0,328.15,305.84Z" transform="translate(3200)"/>
            <path class="cls-59" d="M328.27,305.46s-.09.6.32.48a.39.39,0,0,0,.22-.69C328.59,305,328.4,305,328.27,305.46Z" transform="translate(3200)"/>
            <path class="cls-58" d="M328.18,302.71s0,.43.23.56.51.52.64.27a3.46,3.46,0,0,0,.33-.88c.06-.31,0-.3-.29-.53S328.24,301.92,328.18,302.71Z" transform="translate(3200)"/>
            <path class="cls-59" d="M328.53,302.34s-.35.27,0,.7.55-.13.61-.44S328.86,302,328.53,302.34Z" transform="translate(3200)"/>
            <path class="cls-59" d="M326.8,300.88s-.21.36.12.44a.34.34,0,0,0,.42-.24.37.37,0,0,0,0-.25.27.27,0,0,0-.36-.14A.32.32,0,0,0,326.8,300.88Z" transform="translate(3200)"/>
            <path class="cls-59" d="M323.42,304.53s-.15.27.1.32.59,0,.5-.19S323.76,304.27,323.42,304.53Z" transform="translate(3200)"/>
            <path class="cls-58" d="M323.6,315.87s-.16.51.13.67a4.24,4.24,0,0,0,1,.21,1,1,0,0,0,.84-.09c.22-.19.66-.49.29-.86a1.82,1.82,0,0,0-1.17-.47C324.28,315.31,323.71,315.32,323.6,315.87Z" transform="translate(3200)"/>
            <path class="cls-59" d="M323.94,315.77s-.41.44.34.71,1.38,0,1.36-.32A1.31,1.31,0,0,0,323.94,315.77Z" transform="translate(3200)"/>
            <path class="cls-58" d="M327.29,315.68s0,.15.37.27a1.18,1.18,0,0,0,1.14-.23c.25-.27,0-.51-.17-.72s-.16-.31-.58-.29-.47,0-.72.18S327.29,315.68,327.29,315.68Z" transform="translate(3200)"/>
            <path class="cls-59" d="M327.49,315.46s-.11.41.6.35.58-.71.33-.83S327.53,314.81,327.49,315.46Z" transform="translate(3200)"/>
            <path class="cls-60" d="M324.68,302.39s-.67.61-.16,1a1,1,0,0,0,1,.13c-.28,0-.72-.11-.83-.38a.61.61,0,0,1,.33-.81h0a.92.92,0,0,1,.57,0A.78.78,0,0,0,324.68,302.39Z" transform="translate(3200)"/>
            <path class="cls-60" d="M320.6,303.19a.51.51,0,0,0,.21.68h0a.38.38,0,0,0,.33,0c-.16-.06-.39-.19-.43-.39a.44.44,0,0,1,.3-.55h0a.45.45,0,0,1,.41.13.5.5,0,0,0-.67-.18A.48.48,0,0,0,320.6,303.19Z" transform="translate(3200)"/>
            <path class="cls-58" d="M319.44,307.66s.12.46.19.67.15.52.41.39a1.16,1.16,0,0,0,.64-.63,1.56,1.56,0,0,0,.19-.9c-.06-.29-.37-.48-.51-.62s-.45-.42-.61-.16A1.49,1.49,0,0,0,319.44,307.66Z" transform="translate(3200)"/>
            <path class="cls-59" d="M319.7,307.41s-.16,1,.29,1.09.79-.83.71-1.13a1,1,0,0,0-.59-.63C320,306.71,319.71,306.56,319.7,307.41Z" transform="translate(3200)"/>
            <path class="cls-58" d="M319.34,311.11s0,.33.16.34a.74.74,0,0,0,.55-.18c.09-.14,0-.4,0-.67s-.14-.35-.35-.28S319.38,310.74,319.34,311.11Z" transform="translate(3200)"/>
            <path class="cls-59" d="M319.48,310.84s-.07.49.2.47.36-.17.28-.56S319.55,310.51,319.48,310.84Z" transform="translate(3200)"/>
            <path class="cls-58" d="M316.63,307.24s-.07.85.1,1,.27.29.35.07a4,4,0,0,0,.2-.67,2.25,2.25,0,0,0,.11-.68c0-.34-.15-.87-.18-1.21s-.08-.64-.26-.19A6.4,6.4,0,0,0,316.63,307.24Z" transform="translate(3200)"/>
            <path class="cls-59" d="M317,305.91a4,4,0,0,0-.22,1.87c.15.82.6-.31.5-.91S317.11,305.64,317,305.91Z" transform="translate(3200)"/>
            <path class="cls-58" d="M328.53,310.39s.15.84.36.83a4.87,4.87,0,0,0,.84-.28c.28-.1.46-.73.35-1.19s-.3-.87-.68-.93-.48,0-.65.33A3.53,3.53,0,0,0,328.53,310.39Z" transform="translate(3200)"/>
            <path class="cls-59" d="M328.8,309.86s-.08.92.19,1,1.14-.6.93-1.12S329.08,308.59,328.8,309.86Z" transform="translate(3200)"/>
            <path class="cls-58" d="M332.57,306.24a1.19,1.19,0,0,0,.1.72,1.14,1.14,0,0,0,.69.34c.21.08.45.05.33-.43a4.83,4.83,0,0,0-.39-.87C333.21,305.74,332.6,305.48,332.57,306.24Z" transform="translate(3200)"/>
            <path class="cls-59" d="M332.82,306.37a.6.6,0,0,0,.27.79h0c.55.21.34-.2.27-.53S333.06,305.72,332.82,306.37Z" transform="translate(3200)"/>
            <path class="cls-58" d="M332.47,310.94s0,.39.36.34a2.12,2.12,0,0,0,.72-.32c.18-.09.18-.18.25-.58a1,1,0,0,0-.28-.95c-.2-.18-.38-.05-.58.21A3.18,3.18,0,0,0,332.47,310.94Z" transform="translate(3200)"/>
            <path class="cls-59" d="M332.72,310.38s-.31.9.43.7.56-1,.43-1.35S333,309.56,332.72,310.38Z" transform="translate(3200)"/>
            <path class="cls-58" d="M330.78,313.86s-.13.64.2.49.29-.25.41-.34.37-.3.33-.48-.38-.25-.5-.27S330.86,313.34,330.78,313.86Z" transform="translate(3200)"/>
            <path class="cls-59" d="M330.94,314s0,.24.22.08.54-.38.29-.5S331.08,313.4,330.94,314Z" transform="translate(3200)"/>
            <path class="cls-59" d="M330.3,302.52s.29.58.44.22,0-.4-.14-.51S330.12,302,330.3,302.52Z" transform="translate(3200)"/>
            <path class="cls-59" d="M323.07,300s-.29.21.18.3.86-.25.57-.41A.51.51,0,0,0,323.07,300Z" transform="translate(3200)"/>
            <path class="cls-60" d="M323.93,304.52c-.1-.13-.26-.18-.51,0,0,0-.15.27.1.32h.05c-.07,0-.13-.1-.09-.2a.48.48,0,0,1,.43-.15Z" transform="translate(3200)"/>
            <path class="cls-60" d="M317,305.91a4,4,0,0,0-.22,1.87c.07.38.2.34.32.13a.89.89,0,0,1-.17-.65c0-.46.12-1,.25-1C317.13,305.92,317.07,305.74,317,305.91Z" transform="translate(3200)"/>
            <path class="cls-60" d="M319.7,307.41s-.16,1,.29,1.09h.16a.75.75,0,0,1-.25-.38c-.11-.37.08-.58.09-.72a1.69,1.69,0,0,1,.13-.63h0C320,306.71,319.71,306.56,319.7,307.41Z" transform="translate(3200)"/>
            <path class="cls-60" d="M319.53,313.7a.52.52,0,0,0,.09.62c.23.27.4.27.48.15a.44.44,0,0,1-.26-.18c-.18-.25-.21-.39,0-.57a.3.3,0,0,1,.38-.06C320,313.49,319.79,313.37,319.53,313.7Z" transform="translate(3200)"/>
            <path class="cls-60" d="M324.51,312.8c-.16-.19-.39-.35-.64-.15a.79.79,0,0,0-.3.62.73.73,0,0,0,.62.63.49.49,0,0,1-.3-.42c-.06-.4-.05-.44,0-.57a.39.39,0,0,1,.41-.16Z" transform="translate(3200)"/>
            <path class="cls-60" d="M319.48,310.84s-.07.49.2.47h.07a.57.57,0,0,1-.14-.38c.05-.17.05-.14.16-.24a.15.15,0,0,1,.16,0C319.82,310.39,319.54,310.54,319.48,310.84Z" transform="translate(3200)"/>
            <path class="cls-61" d="M320.56,314.61s-.1.19.14.09.34-.37.21-.4S320.7,314.24,320.56,314.61Z" transform="translate(3200)"/>
            <path class="cls-61" d="M325,313.7s0,.17.13.11a.23.23,0,0,0,.11-.23S325.13,313.43,325,313.7Z" transform="translate(3200)"/>
            <path class="cls-61" d="M323.51,308.32v.17s.14-.06.12-.14S323.55,308.19,323.51,308.32Z" transform="translate(3200)"/>
            <path class="cls-61" d="M322.11,305.31s0,.23.09.14a.17.17,0,0,0,.05-.22S322.18,305.19,322.11,305.31Z" transform="translate(3200)"/>
            <path class="cls-60" d="M328.8,309.86s-.08.92.19,1a.88.88,0,0,0,.5-.2c-.16,0-.4,0-.41-.41,0-.61.19-.77.38-.76a1.54,1.54,0,0,1,.42.17C329.64,309.19,329.07,308.66,328.8,309.86Z" transform="translate(3200)"/>
            <path class="cls-60" d="M323.94,315.77s-.41.44.34.71l.27.08a1.07,1.07,0,0,1-.38-.41c-.1-.24.05-.41.35-.44h.61A1.2,1.2,0,0,0,323.94,315.77Z" transform="translate(3200)"/>
            <path class="cls-60" d="M327.49,315.46s-.11.41.6.35c0,0-.53-.22-.34-.47a.76.76,0,0,1,.67-.36C328.17,314.86,327.53,314.81,327.49,315.46Z" transform="translate(3200)"/>
            <path class="cls-60" d="M333.58,309.73a.2.2,0,0,0-.19-.15,1.2,1.2,0,0,1,.15.59c0,.2-.06.3-.35.59s-.51.16-.51.16h0c0,.14.17.24.47.16C333.89,310.88,333.71,310.05,333.58,309.73Z" transform="translate(3200)"/>
            <path class="cls-61" d="M327.47,314.34s.17.18.25,0,0-.21-.07-.22S327.25,314.12,327.47,314.34Z" transform="translate(3200)"/>
            <path class="cls-61" d="M325.51,317s.09-.42.2-.3a.18.18,0,0,1-.2.3Z" transform="translate(3200)"/>
            <path class="cls-61" d="M321.51,316.12a.76.76,0,0,0,.39.36c.23.07.3.08.14-.06S321.51,315.94,321.51,316.12Z" transform="translate(3200)"/>
            <path class="cls-61" d="M326.47,303.28s.08.18.19.09.2-.11.06-.17S326.43,303.12,326.47,303.28Z" transform="translate(3200)"/>
            <path class="cls-61" d="M328.07,300.32s-.16.32.17.31.8.26.75.08S328.19,300.7,328.07,300.32Z" transform="translate(3200)"/>
            <path class="cls-61" d="M329.15,306.51s-.12.14.12.06.13-.27.13-.27Z" transform="translate(3200)"/>
            <path class="cls-60" d="M326.7,306.74a.51.51,0,0,1,.22-.52.35.35,0,0,0-.3.12.41.41,0,0,0,.09.67c.17.11.3.1.38,0A.38.38,0,0,1,326.7,306.74Z" transform="translate(3200)"/>
            <path class="cls-60" d="M323.25,310.83a.24.24,0,0,0-.32-.11.2.2,0,0,0-.11.11s-.23.33,0,.55a.28.28,0,0,0,.26.07.49.49,0,0,1-.2-.36c0-.22.1-.36.28-.29Z" transform="translate(3200)"/>
            <path class="cls-60" d="M332.82,306.37a.6.6,0,0,0,.27.79h.15c-.16-.13-.41-.37-.37-.55s.36-.2.36-.44S333,306,332.82,306.37Z" transform="translate(3200)"/>
            <path class="cls-60" d="M329.12,302.36c-.1-.18-.35-.26-.59,0,0,0-.35.27,0,.7.11.13.19.17.27.16-.1-.06-.29-.2-.29-.37s.19-.36.26-.46.24,0,.32,0Z" transform="translate(3200)"/>
            <path class="cls-60" d="M328.27,305.46s-.09.6.32.48h.06c-.12-.07-.32-.21-.28-.36s.27-.34.31-.41h0C328.51,305,328.37,305.09,328.27,305.46Z" transform="translate(3200)"/>
            <path class="cls-60" d="M330.3,302.52s.21.42.36.32c-.08,0-.19-.14-.19-.24s-.11-.29-.08-.36.06-.06.1-.08C330.33,302.09,330.16,302.08,330.3,302.52Z" transform="translate(3200)"/>
            <path class="cls-61" d="M318.64,313.15s.2.48.27.27S318.85,313,318.64,313.15Z" transform="translate(3200)"/>
            <path class="cls-61" d="M320.52,311.15s.12.79.44.81.23-.13,0-.29A1.15,1.15,0,0,1,320.52,311.15Z" transform="translate(3200)"/>
            <path class="cls-61" d="M317.37,310.15l.06.17c.1.28.28.79.3.52S317.45,310.39,317.37,310.15Z" transform="translate(3200)"/>
            <path class="cls-61" d="M320.48,308.94s.1.12.14,0S320.59,308.74,320.48,308.94Z" transform="translate(3200)"/>
            <path class="cls-61" d="M317.83,304.63s-.07.8.09.66a.52.52,0,0,0,.1-.48C318,304.71,318,304.55,317.83,304.63Z" transform="translate(3200)"/>
            <path class="cls-61" d="M329.9,308.9s.32.65.43.45S329.92,308.92,329.9,308.9Z" transform="translate(3200)"/>
            <path class="cls-61" d="M331.31,304s0,.87.21.71.2-.26.19-.33S331.4,304.27,331.31,304Z" transform="translate(3200)"/>
            <path class="cls-61" d="M324.76,299.75s0,.57.26.45-.12-.15-.08-.31.59-.31.59-.31S324.9,299.58,324.76,299.75Z" transform="translate(3200)"/>
            <path class="cls-61" d="M321.28,300.76s0,.49.18.34.24-.3.1-.36S321.43,300.77,321.28,300.76Z" transform="translate(3200)"/>
          </g>
          <path class="cls-62" d="M332.07,302.72a9.52,9.52,0,0,0-4.49-3.26c2.91,2,2.83,5.05,1.7,8.42-1.34,4-3.56,6-5.89,6.95-1.32.56-1.62,1.3-1.62,1.84a6.83,6.83,0,0,0,2,.71,7.43,7.43,0,0,0,7.05-2,9.75,9.75,0,0,0,3.17-4.84A8.52,8.52,0,0,0,332.07,302.72Z" transform="translate(3200)"/>
          <path class="cls-63" d="M317.76,302.56A8.92,8.92,0,0,0,315.7,307a6.59,6.59,0,0,0,2.6,6.43c1.94,1.25,2.43-2.15,2.79-4.88s2.74-3.62,3.84-6,.83-2.84-1.28-2.87A9.53,9.53,0,0,0,317.76,302.56Z" transform="translate(3200)"/>
          <path class="cls-64" d="M318.46,304.21s-1.68,2.49-.7,4.7,1.72-3.77,2.27-5.16S319.34,302.25,318.46,304.21Z" transform="translate(3200)"/>
        </g>
      </g>
      <rect class="cls-1" width="6400" height="900"/>
    </g>
  </g>
</svg>
