<svg id="Layer_1" data-name="Layer 1" xmlns="http://www.w3.org/2000/svg" xmlns:xlink="http://www.w3.org/1999/xlink" width="1743.94" height="900" viewBox="0 0 1743.94 900">
  <defs>
    <style>
      .cls-1 {
        fill: none;
      }

      .cls-2 {
        clip-path: url(#clip-path);
      }

      .cls-3 {
        fill: #181c3e;
      }

      .cls-4, .cls-48, .cls-50 {
        opacity: 0.3;
      }

      .cls-5 {
        fill: #4b5aa8;
      }

      .cls-12, .cls-13, .cls-22, .cls-23, .cls-26, .cls-27, .cls-28, .cls-48, .cls-5, .cls-50, .cls-59, .cls-60, .cls-61, .cls-63, .cls-8 {
        isolation: isolate;
      }

      .cls-22, .cls-29, .cls-5, .cls-63 {
        opacity: 0.5;
      }

      .cls-6, .cls-8 {
        opacity: 0.51;
      }

      .cls-12, .cls-7 {
        fill: #272364;
      }

      .cls-16, .cls-8 {
        fill: #dc3794;
      }

      .cls-9 {
        fill: #9a9ecf;
      }

      .cls-10 {
        fill: #4a51a3;
      }

      .cls-11 {
        fill: #4851a3;
      }

      .cls-12 {
        opacity: 0.35;
      }

      .cls-13 {
        fill: #ded1e7;
        opacity: 0.47;
      }

      .cls-14 {
        fill: #af98c8;
      }

      .cls-15, .cls-59, .cls-60 {
        fill: #fff;
      }

      .cls-17 {
        fill: #436cb4;
      }

      .cls-18 {
        fill: #9696ca;
      }

      .cls-19 {
        fill: #6d50a1;
      }

      .cls-20 {
        opacity: 0.71;
      }

      .cls-21 {
        fill: url(#radial-gradient);
      }

      .cls-22 {
        fill: #846484;
      }

      .cls-23 {
        fill: #1a101a;
        opacity: 0.73;
      }

      .cls-24, .cls-26 {
        fill: #010101;
      }

      .cls-25 {
        fill: #251324;
      }

      .cls-26 {
        opacity: 0.17;
      }

      .cls-27 {
        fill: #c4b2d7;
        opacity: 0.12;
      }

      .cls-28 {
        fill: #d1a4cc;
        opacity: 0.31;
      }

      .cls-30 {
        opacity: 0.8;
      }

      .cls-31 {
        opacity: 0.88;
      }

      .cls-32 {
        fill: #f4ecf5;
      }

      .cls-33 {
        fill: #faf0bd;
      }

      .cls-34 {
        opacity: 0.7;
      }

      .cls-35 {
        opacity: 0.81;
      }

      .cls-36 {
        opacity: 0.57;
      }

      .cls-37 {
        opacity: 0.79;
      }

      .cls-38 {
        fill: #a6def2;
      }

      .cls-39 {
        fill: #f8e8a9;
      }

      .cls-40 {
        opacity: 0.77;
      }

      .cls-41 {
        opacity: 0.76;
      }

      .cls-42 {
        opacity: 0.78;
      }

      .cls-43 {
        opacity: 0.92;
      }

      .cls-44 {
        fill: #bbe5f1;
      }

      .cls-45 {
        opacity: 0.9;
      }

      .cls-46 {
        opacity: 0.89;
      }

      .cls-47, .cls-48 {
        fill: #141234;
      }

      .cls-49, .cls-50 {
        fill: #111222;
      }

      .cls-51 {
        fill: #11122b;
      }

      .cls-52 {
        opacity: 0.4;
      }

      .cls-53 {
        fill: #63b7e6;
      }

      .cls-54 {
        fill: #4faecf;
      }

      .cls-55 {
        fill: #205fac;
      }

      .cls-56 {
        fill: #7dcff4;
      }

      .cls-57 {
        fill: #449ed8;
      }

      .cls-58 {
        fill: #acd8f4;
      }

      .cls-59 {
        opacity: 0.24;
      }

      .cls-60 {
        opacity: 0.15;
      }

      .cls-61 {
        opacity: 0.39;
        fill: url(#radial-gradient-2);
      }

      .cls-62 {
        fill: url(#linear-gradient);
      }

      .cls-63 {
        fill: #c8c0e0;
      }
    </style>
    <clipPath id="clip-path" transform="translate(133.79)">
      <rect class="cls-1" width="1600" height="900"/>
    </clipPath>
    <radialGradient id="radial-gradient" cx="4553.38" cy="-689.92" r="69.2" gradientTransform="matrix(0.66, 0, 0, -0.61, -2301.29, -359.19)" gradientUnits="userSpaceOnUse">
      <stop offset="0" stop-color="#854c9a"/>
      <stop offset="1" stop-color="#36254f"/>
    </radialGradient>
    <radialGradient id="radial-gradient-2" cx="3478.73" cy="-834.83" r="54.39" gradientTransform="matrix(0.05, 0.26, -0.27, -0.01, 821.09, -833.62)" gradientUnits="userSpaceOnUse">
      <stop offset="0.23" stop-color="#fff"/>
      <stop offset="1" stop-color="#f3faf8"/>
    </radialGradient>
    <linearGradient id="linear-gradient" x1="969.97" y1="1766.13" x2="977.89" y2="1760.49" gradientTransform="translate(6.71 -1556.08) rotate(-8.05)" gradientUnits="userSpaceOnUse">
      <stop offset="0" stop-color="#6b7dbd"/>
      <stop offset="1" stop-color="#fff"/>
    </linearGradient>
  </defs>
  <g class="cls-2">
    <g>
      <rect class="cls-3" x="133.79" width="1600" height="900"/>
      <g>
        <g class="cls-4">
          <path class="cls-5" d="M1176.65,325.08c1.21-1.61,3.57-24.15,20.48-42,15.84-16.77,13.78-17.6,24.72-28.44s28.83-14.77,46.27-23.21,45.14-12.71,76-6.74,39,4.76,56,15.56,23.16,28.84,30.07,35.24,22.77,25.38,23.2,50.23Z" transform="translate(133.79)"/>
          <g class="cls-6">
            <path class="cls-7" d="M1248.15,324.27s-2.93-4.65,4.24-9.66a60.69,60.69,0,0,0,12.16-11.85c2.76-3.52,10.38-11.17,14.59-13.06,13.67-6.15,17.69-8.89,21.9-11s19.58-4.3,19.83-2.57c.35,2.41-11.47,2.68-11.47,4.63s9-.65,14.29-2,12.62-.32,17.56,1.23,8,4,11.91,4.42,6.12,1,8.89,3.69,4,1.57,7.75,4.1,10.07,6.19,8.3,8.16-8.69-7.18-11.06-5.42,11.46,8.75,15.22,15,1.78,9,0,8.57-4.55-10.52-10.68-15-10.53-6.76-16.26-10.26-7.16-6-15.25-6.17-10.1-3.1-25.74-.07c-8.71,1.68-14.21,2-20.33,4.2a36.91,36.91,0,0,0-15.25,10.09c-3.55,4.12-2.59,6.65,2.68,4s10.42-8.36,20.28-9.74,4.54,1.75-.39,3.32-8.08,4.1-6.9,4.68,13.41-6.64,26.24-6.66,18.55,3.68,22.11,6.21,6.52,5.26,11.06,7.2,6.91.19,13,7.78,4.53,6.48,4.53,6.48Z" transform="translate(133.79)"/>
            <path class="cls-8" d="M1269.16,324.16s4-5.21,9.62-6,13.09-4.58,20.22-6.68,14.44,1.12,18.49,4.16,4.44,3.23,12.14,2.84,21-4.2,24.66,6Z" transform="translate(133.79)"/>
            <path class="cls-9" d="M1249.39,286.62c-1.88-2.65-24.15,26.89-26.74,26.12-3.16-.95,5.24-13.62,14.91-22.48s22.14-19.31,27.3-21.13,10.76-6.14,20.65-11.14,24.1-3,32.49-5,13.55-4.1,22.38,0,17.87,2,26.26,2,20.67,10.41,26.28,19.93,10.18,8.71,19.37,23.46c11.79,18.93,13.64,26.24,13.64,26.24h-28c0-11.73-8.43-31.82-13.56-37.93s-17.93-15.41-28.47-16.53-22.83-11.31-36-7.44-15.06,2.29-33.56,7.07S1247.53,295,1247.53,295s-5.17,5-6.09,3.53S1250.76,288.54,1249.39,286.62Z" transform="translate(133.79)"/>
            <path class="cls-10" d="M1238.48,324.79a75.24,75.24,0,0,1,10.33-15.89c5.44-6.61-3.11-1.68-9.15,6s-5.72,9.9-5.72,9.9Z" transform="translate(133.79)"/>
            <path class="cls-7" d="M1207.81,325s7.37-31.52,40-50.5c25.85-15,37.2-22,48.22-23.89s39.45-2.45,41.29-3.49c4.1-2.32-13.39-3.5-32.9-.88-9.41,1.27-10.79-2.92,12.33-5.3s54,8.92,55.28,5.66c1.09-2.75-27.47-10.9-53.87-10.26s-34.09,10.39-52,14.86-39,19.83-46.05,27.87-10.69,13.85-17,20.89-11,13-12.61,25.06Z" transform="translate(133.79)"/>
            <path class="cls-11" d="M1259.9,292.43a78.52,78.52,0,0,1,15-11c8.16-4.41,11.73-6.17,12-7.49s-8,1.77-18.26,8.24S1255.16,295.52,1259.9,292.43Z" transform="translate(133.79)"/>
            <path class="cls-11" d="M1344.79,293.22a78,78,0,0,1,16.38,8.89c7.45,5.5,10.55,8,11.89,7.68s-5-6.47-15.17-13S1340,290.23,1344.79,293.22Z" transform="translate(133.79)"/>
            <path class="cls-10" d="M1388.3,255.08a51.59,51.59,0,0,1,16.13,18.85c9.51,18.58,23.67,25.32,27.44,50.54h8.26s1.81-12.25-10.86-27.7c-12.13-14.78-8.84-7-16.51-18.75-9.93-15.2-20.19-24.91-26.17-27.11S1388.3,255.08,1388.3,255.08Z" transform="translate(133.79)"/>
          </g>
          <path class="cls-12" d="M1357,319.89s.22-5.13-6.8-7.54-16.58.13-21.26-.85,6.23-3.75,12.69-2.88,12.69-1.22,16.59,1.19c3.68,2.28,7.16,5.64,8.29,8.69q.1.27.18.54C1367.56,322.22,1357,319.89,1357,319.89Z" transform="translate(133.79)"/>
          <path class="cls-12" d="M1306.78,280.43s.73-2.09,5-2.1,7.35-1.38,11.62-2.19,6.06-2.18,11-.89,9,2.8,12,3.52,5.71,2.33,5.71,3-3.58,0-7.17-1.28a36.29,36.29,0,0,0-11.25-2.09c-4.89-.3-5.14-.86-12.39,1S1305.5,281.73,1306.78,280.43Z" transform="translate(133.79)"/>
          <path class="cls-12" d="M1249.75,318.71a11.8,11.8,0,0,1,5.12-7.32c4.22-2.52,8.7-6,11.37-9.49s5.82-8.65,7.4-5.77-5.09,8.53-1.2,10,13.34-6.49,16-5,3,2.39,8.74.35,9.46-1.1,9.1.7-10.68,2.29-14.8,4.34-8.49,4.33-14.56,5.41-9.1,4.21-10.56,6.85Z" transform="translate(133.79)"/>
          <path class="cls-13" d="M1325.34,257.68s8.9-.5,16.61,3.13,11.24,6.38,20.29,6.56,22.12,6.16,28.5,17.39,7.22,7.09,6,2.46-10.57-9.37-14.09-15.43-11.25-10.85-19.29-11-12.4.35-20.44-2.29-22-2.83-29.5-.81S1325.34,257.68,1325.34,257.68Z" transform="translate(133.79)"/>
          <path class="cls-12" d="M1216.69,294.66A66.36,66.36,0,0,1,1242.1,270c17.6-9.74,29.73-15,32.56-18.56s-8.83,2.09-14.37,5-20.37,8-26.11,11.71-10.67,11.62-13.83,15.88S1211.63,302.42,1216.69,294.66Z" transform="translate(133.79)"/>
          <g>
            <path class="cls-14" d="M1256.41,296.15a1.56,1.56,0,1,1-1.58-1.54h0A1.58,1.58,0,0,1,1256.41,296.15Z" transform="translate(133.79)"/>
            <path class="cls-15" d="M1237,304.72a.88.88,0,1,1-.9-.86h0a.86.86,0,0,1,.88.84Z" transform="translate(133.79)"/>
            <path class="cls-16" d="M1219.33,312.71a2.62,2.62,0,1,1-2.66-2.58h0a2.59,2.59,0,0,1,2.63,2.57Z" transform="translate(133.79)"/>
            <path class="cls-17" d="M1208.81,281.82a1.63,1.63,0,1,1-1.66-1.6h0A1.62,1.62,0,0,1,1208.81,281.82Z" transform="translate(133.79)"/>
            <path class="cls-17" d="M1320.22,287.32a1.5,1.5,0,1,1-1.52-1.48h0a1.49,1.49,0,0,1,1.5,1.48Z" transform="translate(133.79)"/>
            <path class="cls-14" d="M1325.38,284.84a1,1,0,1,1-1-1A1,1,0,0,1,1325.38,284.84Z" transform="translate(133.79)"/>
            <path class="cls-15" d="M1329.18,268a1.92,1.92,0,1,1-2-1.89h0a1.9,1.9,0,0,1,1.91,1.89Z" transform="translate(133.79)"/>
            <path class="cls-14" d="M1304.6,268.86a.86.86,0,1,1-.88-.84h0a.85.85,0,0,1,.86.84Z" transform="translate(133.79)"/>
            <path class="cls-14" d="M1388.46,300.22a2,2,0,1,1-2-2A2,2,0,0,1,1388.46,300.22Z" transform="translate(133.79)"/>
            <path class="cls-17" d="M1400.07,269.55a2.25,2.25,0,1,1-2.28-2.22h0a2.23,2.23,0,0,1,2.25,2.21Z" transform="translate(133.79)"/>
            <path class="cls-18" d="M1354.12,248.73a1.42,1.42,0,1,1-1.44-1.4h0a1.41,1.41,0,0,1,1.42,1.4Z" transform="translate(133.79)"/>
            <path class="cls-18" d="M1348.79,244.38a1.67,1.67,0,1,1-1.7-1.64h0a1.65,1.65,0,0,1,1.67,1.63Z" transform="translate(133.79)"/>
            <ellipse class="cls-18" cx="1511.28" cy="239.82" rx="2.91" ry="2.88"/>
            <ellipse class="cls-15" cx="1511.45" cy="248.7" rx="1.41" ry="1.4"/>
            <path class="cls-15" d="M1302.34,229a1.5,1.5,0,1,1-1.5-1.5A1.5,1.5,0,0,1,1302.34,229Z" transform="translate(133.79)"/>
            <path class="cls-14" d="M1274.65,238.1a1.88,1.88,0,1,1-1.91-1.85h0a1.86,1.86,0,0,1,1.88,1.84Z" transform="translate(133.79)"/>
            <ellipse class="cls-17" cx="1413.84" cy="235.75" rx="1.33" ry="1.31"/>
            <path class="cls-16" d="M1405.84,303.92a1.78,1.78,0,1,1-1.81-1.75h0A1.77,1.77,0,0,1,1405.84,303.92Z" transform="translate(133.79)"/>
            <path class="cls-15" d="M1417,292.61a1.25,1.25,0,1,1-1.27-1.23h0a1.25,1.25,0,0,1,1.25,1.23Z" transform="translate(133.79)"/>
            <path class="cls-15" d="M1419.45,267a2.51,2.51,0,1,1-2.55-2.47h0A2.51,2.51,0,0,1,1419.45,267Z" transform="translate(133.79)"/>
            <ellipse class="cls-16" cx="1577.46" cy="303.05" rx="0.94" ry="0.93"/>
            <path class="cls-19" d="M1372.28,225.91a1.53,1.53,0,1,1-1.56-1.5h0A1.52,1.52,0,0,1,1372.28,225.91Z" transform="translate(133.79)"/>
            <path class="cls-15" d="M1254.37,233.2a1.28,1.28,0,1,1-1.3-1.26h0a1.27,1.27,0,0,1,1.28,1.26Z" transform="translate(133.79)"/>
            <path class="cls-19" d="M1214,256.13a1.22,1.22,0,1,1-1.39-1.16h.22A1.18,1.18,0,0,1,1214,256.13Z" transform="translate(133.79)"/>
          </g>
        </g>
        <g class="cls-4">
          <path class="cls-5" d="M1176.65,325c1.21,1.58,3.57,23.7,20.48,41.25,15.84,16.44,13.78,17.26,24.73,27.9s28.82,14.49,46.26,22.77,45.14,12.48,76,6.62,39-4.67,56-15.27,23.16-28.29,30.07-34.57,22.77-23.61,23.2-48Z" transform="translate(133.79)"/>
          <g class="cls-6">
            <path class="cls-7" d="M1248.15,324.79s-2.93,4.85,4.24,10.07a61.34,61.34,0,0,1,12.16,12.35c2.76,3.66,10.38,11.64,14.59,13.61,13.67,6.41,17.69,9.26,21.9,11.5s19.58,4.49,19.83,2.69c.35-2.52-11.47-2.8-11.47-4.83s9,.68,14.29,2.11,12.62.33,17.56-1.29,8-4.2,11.91-4.6,6.12-1,8.89-3.85,4-1.64,7.75-4.28,10.07-6.45,8.3-8.5-8.69,7.48-11.06,5.65,11.46-9.13,15.22-15.62,1.78-9.35,0-8.94-4.55,11-10.68,15.63-10.53,7-16.26,10.69-7.16,6.23-15.25,6.43-10.1,3.23-25.74.08c-8.71-1.76-14.21-2.14-20.33-4.38a37.09,37.09,0,0,1-15.25-10.52c-3.55-4.29-2.59-6.93,2.68-4.21s10.42,8.71,20.28,10.15,4.54-1.82-.39-3.46-8.08-4.27-6.9-4.88,13.41,6.92,26.24,6.94,18.55-3.84,22.11-6.47,6.52-5.48,11.06-7.51,6.91-.19,13-8.11,4.53-6.75,4.53-6.75Z" transform="translate(133.79)"/>
            <path class="cls-8" d="M1269.26,324.74s4,5.42,9.62,6.22,13.09,4.78,20.22,7,14.44-1.17,18.49-4.34,4.44-3.36,12.14-3,21,4.38,24.66-6.22Z" transform="translate(133.79)"/>
            <path class="cls-9" d="M1249.39,361.56c-1.88,2.59-24.16-26.27-26.74-25.51-3.16.92,5.23,13.3,14.91,21.95s22.14,18.87,27.3,20.65,10.76,6,20.65,10.88,24.1,2.91,32.49,4.92,13.55,4,22.38,0,17.87-2,26.26-2,20.67-10.17,26.28-19.47,10.18-8.51,19.36-22.92c11.8-18.49,13.65-25.63,13.65-25.63h-28c0,11.46-8.43,31.07-13.56,37s-17.93,15-28.47,16.14-22.83,11-36,7.26-15.06-2.23-33.56-6.91-38.87-24.65-38.87-24.65-5.17-4.87-6.08-3.45S1250.76,359.69,1249.39,361.56Z" transform="translate(133.79)"/>
            <path class="cls-10" d="M1238.48,324.77a78.46,78.46,0,0,0,10.33,16.57c5.44,6.88-3.11,1.75-9.15-6.25s-5.72-10.32-5.72-10.32Z" transform="translate(133.79)"/>
            <path class="cls-7" d="M1207.55,323.43s7.37,32.86,40,52.64c25.85,15.67,37.2,22.94,48.22,24.9s39.45,2.55,41.29,3.64c4.1,2.42-13.39,3.64-32.9.91-9.42-1.32-10.79,3.05,12.33,5.53s54-9.29,55.28-5.9c1.09,2.86-27.47,11.37-53.87,10.69s-34.09-10.83-52-15.49-39-20.66-46.05-29.05-10.69-14.43-17-21.77-11-13.58-12.61-26.12Z" transform="translate(133.79)"/>
            <path class="cls-11" d="M1259.9,353.15a78.58,78.58,0,0,0,15,11.49c8.16,4.6,11.73,6.44,12,7.82s-8-1.85-18.26-8.59S1255.16,349.93,1259.9,353.15Z" transform="translate(133.79)"/>
            <path class="cls-11" d="M1344.79,352.33a76.94,76.94,0,0,0,16.38-9.27c7.45-5.73,10.55-8.31,11.89-8s-5,6.74-15.17,13.53S1340,355.44,1344.79,352.33Z" transform="translate(133.79)"/>
            <path class="cls-10" d="M1388.3,396.84s9.6-6.36,16.13-19.65c9.51-19.37,23.67-26.39,27.44-52.68h8.26s1.81,12.77-10.86,28.87c-12.13,15.41-8.84,7.3-16.51,19.54-9.93,15.85-20.19,26-26.17,28.27S1388.3,396.84,1388.3,396.84Z" transform="translate(133.79)"/>
          </g>
          <path class="cls-12" d="M1357,328.24s.22,5.13-6.8,7.54-16.58-.13-21.26.85,6.23,3.75,12.69,2.88,12.69,1.22,16.59-1.19c3.68-2.28,7.16-5.64,8.29-8.7a4.72,4.72,0,0,0,.18-.53C1367.56,325.9,1357,328.24,1357,328.24Z" transform="translate(133.79)"/>
          <path class="cls-12" d="M1306.78,367.7s.73,2.09,5,2.1,7.35,1.37,11.62,2.18,6.06,2.18,11,.9,9-2.8,12-3.53,5.71-2.32,5.71-3-3.58,0-7.17,1.28a36.25,36.25,0,0,1-11.25,2.1c-4.89.3-5.14.86-12.39-1S1305.5,366.4,1306.78,367.7Z" transform="translate(133.79)"/>
          <path class="cls-12" d="M1249.75,329.42a11.86,11.86,0,0,0,5.12,7.32c4.22,2.52,8.7,6,11.37,9.48s5.82,8.66,7.4,5.78-5.09-8.53-1.2-10,13.34,6.49,16,5,3-2.39,8.74-.35,9.46,1.09,9.1-.71-10.68-2.29-14.8-4.33-8.49-4.33-14.56-5.42-9.1-4.2-10.56-6.84Z" transform="translate(133.79)"/>
          <path class="cls-13" d="M1325.34,390.44s8.9.51,16.61-3.12,11.24-6.38,20.29-6.57,22.12-6.15,28.5-17.39,7.22-7.08,6-2.45-10.57,9.37-14.09,15.43-11.25,10.85-19.29,11-12.4-.34-20.44,2.3-22,2.83-29.5.81S1325.34,390.44,1325.34,390.44Z" transform="translate(133.79)"/>
          <path class="cls-12" d="M1216.69,353.47a66.39,66.39,0,0,0,25.41,24.67c17.6,9.74,29.73,15,32.56,18.56s-8.83-2.09-14.37-5-20.37-8-26.11-11.71-10.67-11.62-13.83-15.88S1211.63,345.71,1216.69,353.47Z" transform="translate(133.79)"/>
          <g>
            <path class="cls-14" d="M1256.41,352a1.56,1.56,0,1,0-1.58,1.54h0a1.54,1.54,0,0,0,1.56-1.54Z" transform="translate(133.79)"/>
            <path class="cls-15" d="M1237,343.41a.88.88,0,1,0-.9.86h0a.86.86,0,0,0,.88-.84Z" transform="translate(133.79)"/>
            <path class="cls-16" d="M1219.33,335.42a2.62,2.62,0,1,0-2.66,2.58h0A2.61,2.61,0,0,0,1219.33,335.42Z" transform="translate(133.79)"/>
            <path class="cls-17" d="M1208.81,366.3a1.63,1.63,0,1,0-1.66,1.6h0A1.62,1.62,0,0,0,1208.81,366.3Z" transform="translate(133.79)"/>
            <path class="cls-17" d="M1320.22,360.81a1.5,1.5,0,1,0-1.52,1.48h0a1.49,1.49,0,0,0,1.5-1.48Z" transform="translate(133.79)"/>
            <path class="cls-14" d="M1325.38,363.28a1,1,0,1,0-1,1A1,1,0,0,0,1325.38,363.28Z" transform="translate(133.79)"/>
            <path class="cls-15" d="M1329.18,380.14a1.92,1.92,0,1,0-2,1.88h0A1.92,1.92,0,0,0,1329.18,380.14Z" transform="translate(133.79)"/>
            <path class="cls-14" d="M1304.6,379.26a.86.86,0,1,0-.87.85h0a.85.85,0,0,0,.86-.84Z" transform="translate(133.79)"/>
            <path class="cls-14" d="M1388.46,347.91a2,2,0,1,0-2,2A2,2,0,0,0,1388.46,347.91Z" transform="translate(133.79)"/>
            <path class="cls-17" d="M1400.07,378.58a2.25,2.25,0,1,0-2.28,2.22h0a2.23,2.23,0,0,0,2.25-2.21Z" transform="translate(133.79)"/>
            <path class="cls-18" d="M1354.12,399.4a1.42,1.42,0,1,0-1.45,1.39h0A1.41,1.41,0,0,0,1354.12,399.4Z" transform="translate(133.79)"/>
            <path class="cls-18" d="M1348.79,403.75a1.67,1.67,0,1,0-1.7,1.64h0A1.66,1.66,0,0,0,1348.79,403.75Z" transform="translate(133.79)"/>
            <ellipse class="cls-18" cx="1511.28" cy="408.3" rx="2.91" ry="2.88"/>
            <ellipse class="cls-15" cx="1511.45" cy="399.43" rx="1.41" ry="1.4"/>
            <path class="cls-15" d="M1302.34,419.14a1.5,1.5,0,0,0-3,0,1.47,1.47,0,0,0,1.46,1.48h0a1.49,1.49,0,0,0,1.51-1.47Z" transform="translate(133.79)"/>
            <path class="cls-14" d="M1274.65,410a1.88,1.88,0,1,0-1.92,1.84h0a1.86,1.86,0,0,0,1.88-1.84Z" transform="translate(133.79)"/>
            <ellipse class="cls-17" cx="1413.84" cy="412.38" rx="1.33" ry="1.31"/>
            <path class="cls-16" d="M1405.84,344.21A1.78,1.78,0,1,0,1404,346h0a1.76,1.76,0,0,0,1.78-1.74Z" transform="translate(133.79)"/>
            <path class="cls-15" d="M1417,355.51a1.25,1.25,0,1,0-1.27,1.23h0a1.25,1.25,0,0,0,1.25-1.23Z" transform="translate(133.79)"/>
            <path class="cls-15" d="M1419.45,381.08a2.51,2.51,0,1,0-2.54,2.48h0a2.48,2.48,0,0,0,2.51-2.47Z" transform="translate(133.79)"/>
            <ellipse class="cls-16" cx="1577.46" cy="345.07" rx="0.94" ry="0.93"/>
            <path class="cls-19" d="M1372.28,422.21a1.53,1.53,0,1,0-1.2,1.2A1.53,1.53,0,0,0,1372.28,422.21Z" transform="translate(133.79)"/>
            <path class="cls-15" d="M1254.37,414.92a1.28,1.28,0,1,0-1.29,1.27h0a1.27,1.27,0,0,0,1.28-1.26Z" transform="translate(133.79)"/>
            <path class="cls-19" d="M1214,392a1.16,1.16,0,0,0-1.17-1.15h0a1.15,1.15,0,0,0,0,2.3h0A1.16,1.16,0,0,0,1214,392Z" transform="translate(133.79)"/>
          </g>
        </g>
      </g>
      <g class="cls-20">
        <ellipse class="cls-21" cx="706.03" cy="70.88" rx="30.34" ry="27.94"/>
        <g>
          <g>
            <path class="cls-22" d="M597.84,70.13s-.68.77-.5,1.38-.05,1.17.15,1.49.09,1,.85.28.92-.66,1.11-1.34a2,2,0,0,0,.09-1.5C599.33,70,598.79,69.06,597.84,70.13Z" transform="translate(133.79)"/>
            <path class="cls-22" d="M577.42,59.7s-.8.46-.45,1.16,1.21.81,1.5,1.11,1,.09,1.14-.55a1.49,1.49,0,0,0-.27-1.47A1.59,1.59,0,0,0,577.42,59.7Z" transform="translate(133.79)"/>
            <path class="cls-22" d="M582.52,58.91a1.26,1.26,0,0,0-.44,1.33A4.94,4.94,0,0,0,583.43,62a10.6,10.6,0,0,0,1.83,1.43c.77.59,1.34,0,2.18-1.08s1.28-1.66,1.15-2.48a2.79,2.79,0,0,0-1.71-2C586,57.57,584.51,57.59,582.52,58.91Z" transform="translate(133.79)"/>
            <path class="cls-23" d="M586.07,58.41s-3-.25-2.88,1.75,2.51,3.18,3.57,2.47C588.37,61.56,588.92,59.3,586.07,58.41Z" transform="translate(133.79)"/>
            <path class="cls-22" d="M556.72,77.4a5.58,5.58,0,0,0-.91,1.61c-.08.51-.32,1.85,0,2.32s2,.22,2.47,0a8.58,8.58,0,0,0,2.22-1.17c.52-.51.31-1.65.22-2.18a1.37,1.37,0,0,0-1.34-1.13C558.52,76.76,557.36,76.61,556.72,77.4Z" transform="translate(133.79)"/>
            <path class="cls-23" d="M559.21,77.35a2.75,2.75,0,0,0-2.16.58c-.76.8-.88,2.81.35,2.86s2.57-.48,2.76-1.3S560.45,77.52,559.21,77.35Z" transform="translate(133.79)"/>
            <path class="cls-22" d="M559.68,71.48s-.26.9,0,1.08.29,1.47,1.14,1.35a3.54,3.54,0,0,0,2.25-1.39,1.58,1.58,0,0,0-.51-2.11C561.76,69.67,560.39,70.42,559.68,71.48Z" transform="translate(133.79)"/>
            <path class="cls-23" d="M561.41,71.29s-1.29.18-1.33,1.11,1.19,1.11,1.83.57S562.63,71.22,561.41,71.29Z" transform="translate(133.79)"/>
            <path class="cls-22" d="M574.12,50.9s-1,.91-.76,1.75.37,2.26,1,2.07,1-.5,1.67-.66a2.28,2.28,0,0,0,1.77-1.5c.56-1.14,0-1.58-.44-2.12S575.54,49.94,574.12,50.9Z" transform="translate(133.79)"/>
            <path class="cls-23" d="M575.27,51s-1.68.46-1.16,1.93,1.32.64,1.66.72a1.19,1.19,0,0,0,1.58-.62,1.72,1.72,0,0,0,.07-.21C577.74,51.63,576.87,50.48,575.27,51Z" transform="translate(133.79)"/>
            <path class="cls-22" d="M547.14,69.28a3.58,3.58,0,0,0-1.22,1,2.56,2.56,0,0,0-.36,1.85c0,.6.13,1.28,1.4.76s1.52.19,2.13-.51.18-1.45.07-2a1.38,1.38,0,0,0-1.49-1.25A1.2,1.2,0,0,0,547.14,69.28Z" transform="translate(133.79)"/>
            <path class="cls-23" d="M547.26,69.81a1.66,1.66,0,0,0-1.34,1.43c-.18,1.27.36,1.56.91,1.33s1.52,0,1.75-.69S549.15,69.69,547.26,69.81Z" transform="translate(133.79)"/>
            <path class="cls-23" d="M569.89,78.84s-1.19.57-.79,1.2.56.54,1.25-.15S571.39,78.87,569.89,78.84Z" transform="translate(133.79)"/>
            <path class="cls-22" d="M580.34,69.65s-1.43.85-1.58,1.83.18,2.37.62,2.39a3.52,3.52,0,0,0,2.11-1.21,2.41,2.41,0,0,0,.37-2C581.84,70.34,581.37,69.16,580.34,69.65Z" transform="translate(133.79)"/>
            <path class="cls-23" d="M580.62,70.7s-1.67.25-1.47,1.57,1.44,1,1.94.38S582.12,70.73,580.62,70.7Z" transform="translate(133.79)"/>
            <path class="cls-22" d="M585.13,73.1s-.52.86,0,1.13.86.77,1.32.7.61.13,1.24-.46a2,2,0,0,0,.87-1.82c0-.82-.08-1.28-1.12-1.09S585.51,72,585.13,73.1Z" transform="translate(133.79)"/>
            <path class="cls-23" d="M586.34,72.6s-1.67,1-.48,1.68,2.13,0,2.17-.91S587.76,72,586.34,72.6Z" transform="translate(133.79)"/>
            <path class="cls-22" d="M592.87,66.85s-1.15.78-.87,1.64-.16,2.19.71,2a13.36,13.36,0,0,0,2.89-1c.88-.48.69-.63.65-1.7S595,65.38,592.87,66.85Z" transform="translate(133.79)"/>
            <path class="cls-23" d="M594.52,66.88s-1.4-.22-1.66,1.48,1.51.93,2.4.45S596.05,67,594.52,66.88Z" transform="translate(133.79)"/>
            <path class="cls-23" d="M594.35,60.09s-1.32.26-.81,1.16a1.15,1.15,0,0,0,1.57.36,1.13,1.13,0,0,0,.43-.49C595.78,60.35,595.31,59.83,594.35,60.09Z" transform="translate(133.79)"/>
            <path class="cls-23" d="M578.11,59.93s-1,.21-.56.88,1.21,1.36,1.52.74S579.46,60.17,578.11,59.93Z" transform="translate(133.79)"/>
            <path class="cls-22" d="M550.75,83.24s-1.58.68-1.34,1.65A11,11,0,0,0,551,87.43a3,3,0,0,0,2,1.69c1,.12,2.65.49,2.73-1.07a4.89,4.89,0,0,0-1.38-3.55C553.59,83.62,552.35,82.37,550.75,83.24Z" transform="translate(133.79)"/>
            <path class="cls-23" d="M551.73,83.81s-2,0-1,2.18,2.86,3.16,3.73,2.37S554,84,551.73,83.81Z" transform="translate(133.79)"/>
            <path class="cls-22" d="M559.22,91.05s-.34.36.12,1.39a3.81,3.81,0,0,0,3,2.08c1.2,0,1.22-1.06,1.4-1.86s.4-1-.55-1.86-1-1.11-2-1.24S559.22,91.05,559.22,91.05Z" transform="translate(133.79)"/>
            <path class="cls-23" d="M560.19,91.07s-1.24.59.44,2,3-.13,2.73-.93a2,2,0,0,0-3.17-1.07Z" transform="translate(133.79)"/>
            <path class="cls-24" d="M586.07,58.41s-3-.25-2.88,1.75A2.87,2.87,0,0,0,585,62.6c-.54-.68-1.28-1.84-.88-2.64a2.14,2.14,0,0,1,2.77-.86,2.88,2.88,0,0,1,1.23,1.26C588,59.58,587.44,58.83,586.07,58.41Z" transform="translate(133.79)"/>
            <path class="cls-24" d="M575.27,51s-1.68.46-1.16,1.93a1.24,1.24,0,0,0,.6.83,1.83,1.83,0,0,1,0-1.76,1.54,1.54,0,0,1,2.12-.36,1.34,1.34,0,0,1,.56,1.18C577.74,51.63,576.87,50.48,575.27,51Z" transform="translate(133.79)"/>
            <path class="cls-22" d="M561.81,57.41s-.86,1.19-1.22,1.77-1,1.38-.06,1.71a4.31,4.31,0,0,0,2.92.15,5,5,0,0,0,2.6-1.4c.59-.71.37-1.79.41-2.39s.06-1.86-.91-1.67A5,5,0,0,0,561.81,57.41Z" transform="translate(133.79)"/>
            <path class="cls-23" d="M563,57.48s-2.87,1.73-2.06,2.84,3.73.09,4.32-.69A2.82,2.82,0,0,0,565.5,57C565.25,56.63,565.11,55.79,563,57.48Z" transform="translate(133.79)"/>
            <path class="cls-22" d="M553.18,64.15s-.87.65-.5,1a2.37,2.37,0,0,0,1.63.84c.55-.06,1-.76,1.62-1.38s.53-1-.07-1.31S554.16,63.49,553.18,64.15Z" transform="translate(133.79)"/>
            <path class="cls-23" d="M554.13,63.92s-1.36.83-.71,1.39,1.19.46,2-.51S555.08,63.41,554.13,63.92Z" transform="translate(133.79)"/>
            <path class="cls-22" d="M556.75,50.3s-2.22,1.59-2.26,2.27-.13,1.18.6.93a17.39,17.39,0,0,0,2.07-.92,7,7,0,0,0,1.89-1.13c.8-.71,1.81-2.08,2.58-2.83s1.4-1.48-.09-1A20.85,20.85,0,0,0,556.75,50.3Z" transform="translate(133.79)"/>
            <path class="cls-23" d="M560.81,48.44a13.47,13.47,0,0,0-5,3.28c-1.69,2,2,.71,3.32-.71S561.71,48.13,560.81,48.44Z" transform="translate(133.79)"/>
            <path class="cls-22" d="M574.83,83.13s-1.73,2-1.26,2.49a14.83,14.83,0,0,0,2.54,1.3c.84.42,2.76-.44,3.65-1.62s1.48-2.43.8-3.4-.92-1.14-2.21-.79A12,12,0,0,0,574.83,83.13Z" transform="translate(133.79)"/>
            <path class="cls-23" d="M576.71,82.67s-2.41,1.67-2.08,2.5,3.93,1.34,4.74-.19S580.44,80.75,576.71,82.67Z" transform="translate(133.79)"/>
            <path class="cls-22" d="M593.74,83.74s-1.31.77-1.54,1.7.39,1.61.66,2.22.87,1.08,1.77-.16a14.25,14.25,0,0,0,1.29-2.63C596.34,84.16,595.66,82.28,593.74,83.74Z" transform="translate(133.79)"/>
            <path class="cls-23" d="M594,84.56s-2,.62-1.33,2.27,1.21.35,1.88-.47S596.08,83.8,594,84.56Z" transform="translate(133.79)"/>
            <path class="cls-22" d="M582.05,93s-1,.79-.07,1.49a6.15,6.15,0,0,0,2.36,1c.6.22.81,0,1.95-.61A3.21,3.21,0,0,0,588,92.3c0-.8-.73-.94-1.79-.86A11.29,11.29,0,0,0,582.05,93Z" transform="translate(133.79)"/>
            <path class="cls-23" d="M583.94,92.46s-2.87,1.1-.78,2.34,3.73-.83,4.24-1.74S586.51,91.35,583.94,92.46Z" transform="translate(133.79)"/>
            <path class="cls-22" d="M571.24,95.16s-1.86,1-.77,1.44,1.25.13,1.7.21,1.55.23,1.9-.23-.21-1.33-.41-1.65S572.66,94.29,571.24,95.16Z" transform="translate(133.79)"/>
            <path class="cls-23" d="M571.27,95.76s-.63.42.31.65,2.07.43,1.85-.37S573,94.91,571.27,95.76Z" transform="translate(133.79)"/>
            <path class="cls-23" d="M598,71.18s-.83,1.82.41,1.43,1-.74.94-1.33S598.87,69.68,598,71.18Z" transform="translate(133.79)"/>
            <path class="cls-23" d="M588.34,50.07s-1.12-.21-.34,1,2.48,1.4,2.25.43S589.68,50,588.34,50.07Z" transform="translate(133.79)"/>
            <path class="cls-24" d="M579.24,61.06c.09-.48-.12-1-1.13-1.13,0,0-1,.21-.56.88l.08.13a.46.46,0,0,1,.24-.6l0,0a1.16,1.16,0,0,1,1.29.67Z" transform="translate(133.79)"/>
            <path class="cls-24" d="M560.81,48.44a13.47,13.47,0,0,0-5,3.28c-.79.93-.4,1.15.36,1a3,3,0,0,1,1.2-1.72c1.16-.9,2.58-1.68,3-1.51C561.05,48.75,561.37,48.25,560.81,48.44Z" transform="translate(133.79)"/>
            <path class="cls-24" d="M563,57.48s-2.87,1.73-2.06,2.84a.94.94,0,0,0,.39.32,2.11,2.11,0,0,1,.39-1.31c.67-1,1.6-1,2-1.26a5,5,0,0,1,1.84-1h0C565.25,56.63,565.11,55.79,563,57.48Z" transform="translate(133.79)"/>
            <path class="cls-24" d="M547.26,69.81a1.66,1.66,0,0,0-1.34,1.43c-.16,1.09.22,1.45.67,1.39a1.15,1.15,0,0,1-.11-.94c.19-.91.48-1.26,1.3-1.24a1,1,0,0,1,1,.71C548.82,70.49,548.61,69.72,547.26,69.81Z" transform="translate(133.79)"/>
            <path class="cls-24" d="M560.24,79.07c.1-.75,0-1.58-1-1.72a2.75,2.75,0,0,0-2.16.58c-.62.65-.81,2.11-.2,2.65a1.44,1.44,0,0,1,.38-1.53c.83-.93,1-1,1.45-1.06a1.28,1.28,0,0,1,1.29.59A4.44,4.44,0,0,1,560.24,79.07Z" transform="translate(133.79)"/>
            <path class="cls-24" d="M554.13,63.92s-1.36.83-.71,1.39l.18.14c.06-.3.22-.89.61-1.07a1,1,0,0,1,.93-.14.49.49,0,0,1,.39.33C556,63.77,555,63.45,554.13,63.92Z" transform="translate(133.79)"/>
            <path class="cls-25" d="M547.26,73.93s-.71.16.07.49,1.63,0,1.42-.32S548.46,73.51,547.26,73.93Z" transform="translate(133.79)"/>
            <path class="cls-25" d="M559.12,82s-.46.28,0,.51a.7.7,0,0,0,.81-.22S560.05,81.73,559.12,82Z" transform="translate(133.79)"/>
            <path class="cls-25" d="M569,67.8s-.52.31-.37.42.47.18.61,0S569.44,67.62,569,67.8Z" transform="translate(133.79)"/>
            <path class="cls-25" d="M573.33,58.6s-.63.38-.13.47a.59.59,0,0,0,.67-.32S573.8,58.53,573.33,58.6Z" transform="translate(133.79)"/>
            <path class="cls-24" d="M576.71,82.67s-2.41,1.67-2.08,2.5c.13.33.78.6,1.57.73-.42-.32-.86-.92.1-1.75,1.47-1.28,2.28-1.14,2.67-.69a3.71,3.71,0,0,1,.51,1.29C580.19,83.19,580.25,80.84,576.71,82.67Z" transform="translate(133.79)"/>
            <path class="cls-24" d="M551.73,83.81s-2,0-1,2.18a4.6,4.6,0,0,0,.4.76,3.23,3.23,0,0,1,.16-1.66c.37-.72,1.12-.72,1.83-.11a16.69,16.69,0,0,1,1.33,1.33A3.64,3.64,0,0,0,551.73,83.81Z" transform="translate(133.79)"/>
            <path class="cls-24" d="M560.19,91.07s-1.24.59.44,2c0,0-.62-1.6.4-1.69a2.56,2.56,0,0,1,2.33.76,2,2,0,0,0-2.44-1.43A2.08,2.08,0,0,0,560.19,91.07Z" transform="translate(133.79)"/>
            <path class="cls-24" d="M587.4,93.06a.62.62,0,0,0,0-.75,3.54,3.54,0,0,1-1.13,1.54c-.53.34-.84.45-2.19.43s-1.48-.84-1.48-.84h0c-.26.39-.23.87.62,1.37C585.24,96.05,586.89,94,587.4,93.06Z" transform="translate(133.79)"/>
            <path class="cls-25" d="M562.89,88.76s-.08.75.55.54.49-.46.39-.6S562.93,87.83,562.89,88.76Z" transform="translate(133.79)"/>
            <path class="cls-25" d="M552.13,89.78s1.2-.65,1.16-.17a.61.61,0,0,1-.69.52A.63.63,0,0,1,552.13,89.78Z" transform="translate(133.79)"/>
            <path class="cls-25" d="M545.6,79.11a2.16,2.16,0,0,0,0,1.58c.34.66.47.85.47.2S546.06,78.73,545.6,79.11Z" transform="translate(133.79)"/>
            <path class="cls-25" d="M587.78,64.2s-.28.55.18.62.7.21.56-.24S588.08,63.78,587.78,64.2Z" transform="translate(133.79)"/>
            <path class="cls-25" d="M598.49,61.78s-1.15.3-.42,1,1.13,2.31,1.45,1.81S597.8,62.8,598.49,61.78Z" transform="translate(133.79)"/>
            <path class="cls-25" d="M585.68,76.69s-.63,0,.11.39a.65.65,0,0,0,1-.26Z" transform="translate(133.79)"/>
            <path class="cls-24" d="M579.81,71.69a1.84,1.84,0,0,1,1.73-.56c-.11-.25-.38-.42-.92-.43,0,0-1.67.25-1.47,1.57.1.6.4.86.76.92a1,1,0,0,1-.19-1.4Z" transform="translate(133.79)"/>
            <path class="cls-24" d="M562.33,72.29c.13-.51-.1-1.05-.92-1,0,0-1.29.18-1.33,1.11a.75.75,0,0,0,.4.74,1.37,1.37,0,0,1,.43-1.19c.55-.42,1.09-.47,1.3,0Z" transform="translate(133.79)"/>
            <path class="cls-24" d="M594,84.56s-2,.62-1.33,2.27a1.76,1.76,0,0,0,.17.37c0-.62,0-1.67.54-2,.75-.4,1.27.41,1.86-.08C595.43,84.55,595.25,84.1,594,84.56Z" transform="translate(133.79)"/>
            <path class="cls-24" d="M595.76,68.25c.22-.59-.13-1.32-1.24-1.37,0,0-1.4-.22-1.66,1.48-.07.47,0,.75.2.9a1.54,1.54,0,0,1,.28-1.4c.59-.5,1.29-.29,1.68-.35s.63.45.73.71C595.75,68.23,595.76,68.24,595.76,68.25Z" transform="translate(133.79)"/>
            <path class="cls-24" d="M586.34,72.6s-1.67,1-.48,1.68l.2.1c-.1-.42-.18-1.15.28-1.38a3.55,3.55,0,0,1,1.65-.13h0C587.9,72.29,587.48,72.09,586.34,72.6Z" transform="translate(133.79)"/>
            <path class="cls-24" d="M598,71.18s-.59,1.31,0,1.46a1.08,1.08,0,0,1,.15-.92c.38-.35.49-.85.72-.91a.74.74,0,0,1,.41.08C599.05,70.38,598.68,70,598,71.18Z" transform="translate(133.79)"/>
            <path class="cls-25" d="M546.65,66.7s-.75,1.43-.09,1.16S547.55,66.81,546.65,66.7Z" transform="translate(133.79)"/>
            <path class="cls-25" d="M555.63,66.87s-1.69,1.84-1,2.59.81.25.79-.51A4.33,4.33,0,0,1,555.63,66.87Z" transform="translate(133.79)"/>
            <path class="cls-25" d="M551.25,57.84l-.3.46c-.48.79-1.32,2.24-.61,1.73C551.29,59.35,550.83,58.49,551.25,57.84Z" transform="translate(133.79)"/>
            <path class="cls-25" d="M560.93,62.3s-.07.46.24.38S561.67,62.15,560.93,62.3Z" transform="translate(133.79)"/>
            <path class="cls-25" d="M565.75,47.69s-2.1,1.48-1.42,1.54a1.64,1.64,0,0,0,1.37-.74C565.9,48.21,566.19,47.8,565.75,47.69Z" transform="translate(133.79)"/>
            <path class="cls-25" d="M581.47,83.18s-.93,2-.19,1.88S581.44,83.28,581.47,83.18Z" transform="translate(133.79)"/>
            <path class="cls-25" d="M596.61,76.35s-2.08,1.8-1.29,1.89,1.06-.07,1.23-.24S596,77.17,596.61,76.35Z" transform="translate(133.79)"/>
            <path class="cls-25" d="M592.7,53.28s-1.38,1.17-.54,1.48.1-.56.59-.83,2,.7,2,.7S593.41,53.24,592.7,53.28Z" transform="translate(133.79)"/>
            <path class="cls-25" d="M582.67,47.56s-1.29.87-.42,1.08,1.24-.08,1.07-.5S583,47.9,582.67,47.56Z" transform="translate(133.79)"/>
          </g>
          <path class="cls-26" d="M601.29,75.53c.74-5,1.08-11.71-1.75-16.58,1.45,10.49-6.23,16.48-16.92,20.78-12.73,5.12-22.32,4.12-29.78,1-4.24-1.81-6.69-1-8,.09a19.63,19.63,0,0,0,2.52,5.83c5,7.78,11.72,10.94,20.24,11.59,5.78.44,12.94.39,18.73-2.74C595.28,90.6,600,84.12,601.29,75.53Z" transform="translate(133.79)"/>
          <path class="cls-27" d="M570.65,43.35a31.49,31.49,0,0,0-15.24,4.36c-7.11,4.43-11.25,11.92-10.11,18.75s10.53,1.08,18-3.64,14.77-1.21,23.12-3.7,8.74-3.88,4.23-8.64S575,43.05,570.65,43.35Z" transform="translate(133.79)"/>
          <path class="cls-28" d="M568.13,48.26s-9.73,1.29-13,7.92,13-3.76,17.52-5.35S574.84,46.25,568.13,48.26Z" transform="translate(133.79)"/>
        </g>
      </g>
      <rect class="cls-1" x="452.98" y="92.27" width="55.84" height="47.54"/>
      <g class="cls-29">
        <g>
          <g class="cls-30">
            <g class="cls-31">
              <path class="cls-32" d="M27.32,614.15l.33,6.09A1.88,1.88,0,0,0,28.83,622l4.66,1.39-4.78.42a1.72,1.72,0,0,0-1.39,1.5l-1.09,5.94-.33-6.09a1.88,1.88,0,0,0-1.18-1.76L20.05,622l4.78-.42a1.67,1.67,0,0,0,1.39-1.5Z" transform="translate(133.79)"/>
            </g>
            <path class="cls-33" d="M8.41,90.68A1.54,1.54,0,0,1,7,89.37l-.75-3v8.12l1.39,5.58V94.19a1.91,1.91,0,0,1,1-1.81L13,90.63Z" transform="translate(133.79)"/>
            <path class="cls-32" d="M45.08,38.08l-1.29,5.65a2.14,2.14,0,0,0,.61,2.09L48.26,49l-4.43-1.63a1.34,1.34,0,0,0-1.65.78l-2.53,5,1.28-5.64a2.16,2.16,0,0,0-.6-2.1l-3.87-3.22,4.44,1.63A1.34,1.34,0,0,0,42.55,43Z" transform="translate(133.79)"/>
          </g>
          <g class="cls-34">
            <path class="cls-32" d="M30.74,429.73a1.7,1.7,0,0,1-1.46,1.87,1.92,1.92,0,0,1,0-3.73A1.69,1.69,0,0,1,30.74,429.73Z" transform="translate(133.79)"/>
            <path class="cls-32" d="M13.19,885.65a1.69,1.69,0,0,1-1.46,1.86,1.92,1.92,0,0,1,0-3.73A1.7,1.7,0,0,1,13.19,885.65Z" transform="translate(133.79)"/>
            <path class="cls-32" d="M20.73,158.8a1.7,1.7,0,0,1-1.46,1.86,1.91,1.91,0,0,1,0-3.72A1.7,1.7,0,0,1,20.73,158.8Z" transform="translate(133.79)"/>
          </g>
        </g>
        <g>
          <g class="cls-30">
            <g class="cls-35">
              <path class="cls-32" d="M1610.15,740.68l-3.36-1.45a1.91,1.91,0,0,1-1-1.83l.12-5.87-1.48,5.56a1.54,1.54,0,0,1-1.44,1.28l-4.61-.16,4.37,1.88a1.91,1.91,0,0,1,1,1.84l-.12,5.87,1.48-5.57a1.53,1.53,0,0,1,1.44-1.27l3.6.12Z" transform="translate(133.79)"/>
            </g>
            <g class="cls-36">
              <path class="cls-32" d="M1536.17,61.53l-.15,7a2.28,2.28,0,0,0,1.2,2.19l5.23,2.26-5.52-.19a1.82,1.82,0,0,0-1.72,1.52L1533.44,81l.15-7a2.29,2.29,0,0,0-1.2-2.2l-5.23-2.25,5.52.19a1.83,1.83,0,0,0,1.72-1.53Z" transform="translate(133.79)"/>
            </g>
            <g class="cls-37">
              <path class="cls-32" d="M1518,405.79l.75,5.8a1.71,1.71,0,0,0,1.26,1.55l4.58.79-4.56,1a1.75,1.75,0,0,0-1.22,1.6l-.62,5.83-.76-5.8a1.71,1.71,0,0,0-1.26-1.56l-4.57-.79,4.55-1a1.75,1.75,0,0,0,1.23-1.6Z" transform="translate(133.79)"/>
            </g>
            <path class="cls-32" d="M1526.69,671.7l3.35,11.56a3.17,3.17,0,0,0,3.07,2.57l9.66-.66-9.08,4.26a4.08,4.08,0,0,0-2,3.91l.52,12.3-3.34-11.56a3.18,3.18,0,0,0-3.08-2.57l-9.66.66,9.08-4.26a4,4,0,0,0,2-3.91Z" transform="translate(133.79)"/>
            <path class="cls-32" d="M1524.44,548.47l-.12,5.88a1.91,1.91,0,0,0,1,1.83l4.37,1.89-4.61-.17a1.54,1.54,0,0,0-1.44,1.28l-1.48,5.57.12-5.88a1.92,1.92,0,0,0-1-1.83l-4.37-1.88,4.61.16A1.55,1.55,0,0,0,1523,554Z" transform="translate(133.79)"/>
            <path class="cls-32" d="M1591.77,859.54l-.13,5.88a1.94,1.94,0,0,0,1,1.83l4.37,1.88-4.62-.16a1.55,1.55,0,0,0-1.44,1.28l-1.48,5.56.13-5.87a1.91,1.91,0,0,0-1-1.83l-4.37-1.89,4.61.16a1.53,1.53,0,0,0,1.44-1.27Z" transform="translate(133.79)"/>
          </g>
          <g class="cls-34">
            <ellipse class="cls-32" cx="1446.38" cy="71.35" rx="1.46" ry="1.86"/>
            <path class="cls-32" d="M1413.53,100.76a1.51,1.51,0,1,1-1.47-1.86A1.71,1.71,0,0,1,1413.53,100.76Z" transform="translate(133.79)"/>
            <path class="cls-32" d="M1324.28,201.8a1.51,1.51,0,1,1-1.47-1.87A1.7,1.7,0,0,1,1324.28,201.8Z" transform="translate(133.79)"/>
            <path class="cls-32" d="M1455.55,224.68a1.51,1.51,0,1,1,0-.73A1.51,1.51,0,0,1,1455.55,224.68Z" transform="translate(133.79)"/>
            <path class="cls-38" d="M1391.89,304.63a1.51,1.51,0,1,1-1.46-1.86A1.69,1.69,0,0,1,1391.89,304.63Z" transform="translate(133.79)"/>
            <path class="cls-32" d="M1303.48,392.83a1.51,1.51,0,1,1-3-.64A1.51,1.51,0,0,1,1302,391,1.71,1.71,0,0,1,1303.48,392.83Z" transform="translate(133.79)"/>
            <path class="cls-32" d="M1372.91,465.26a1.51,1.51,0,1,1-1.46-1.86A1.7,1.7,0,0,1,1372.91,465.26Z" transform="translate(133.79)"/>
            <path class="cls-39" d="M1471.15,496.89a1.51,1.51,0,1,1,0-.73A1.51,1.51,0,0,1,1471.15,496.89Z" transform="translate(133.79)"/>
            <path class="cls-32" d="M1496.7,365.48a1.51,1.51,0,1,1-1.47-1.86A1.7,1.7,0,0,1,1496.7,365.48Z" transform="translate(133.79)"/>
            <path class="cls-32" d="M1592.91,598.8a1.51,1.51,0,1,1-1.47-1.87A1.7,1.7,0,0,1,1592.91,598.8Z" transform="translate(133.79)"/>
            <path class="cls-32" d="M1422.56,741.88a1.51,1.51,0,1,1-1.46-1.86A1.71,1.71,0,0,1,1422.56,741.88Z" transform="translate(133.79)"/>
            <path class="cls-32" d="M1399.48,651.38a1.51,1.51,0,1,1-1.46-1.86A1.71,1.71,0,0,1,1399.48,651.38Z" transform="translate(133.79)"/>
            <path class="cls-32" d="M1346.69,579.7a1.51,1.51,0,1,1-1.46-1.86A1.7,1.7,0,0,1,1346.69,579.7Z" transform="translate(133.79)"/>
            <path class="cls-32" d="M1310.79,587a1.51,1.51,0,1,1,0-.73A1.51,1.51,0,0,1,1310.79,587Z" transform="translate(133.79)"/>
            <ellipse class="cls-32" cx="1429.11" cy="635.7" rx="1.46" ry="1.86"/>
            <path class="cls-39" d="M1314.37,729.33a1.51,1.51,0,1,1,0-.73A1.51,1.51,0,0,1,1314.37,729.33Z" transform="translate(133.79)"/>
            <path class="cls-32" d="M1389.49,818.79a1.51,1.51,0,1,1-1.46-1.86A1.7,1.7,0,0,1,1389.49,818.79Z" transform="translate(133.79)"/>
            <path class="cls-32" d="M1495.94,804a1.51,1.51,0,1,1-1.46-1.86A1.7,1.7,0,0,1,1495.94,804Z" transform="translate(133.79)"/>
            <path class="cls-32" d="M1583.2,739.94a1.5,1.5,0,0,1-2.91-.74,1.51,1.51,0,0,1,1.45-1.13A1.7,1.7,0,0,1,1583.2,739.94Z" transform="translate(133.79)"/>
            <path class="cls-32" d="M1246.71,137.8a1.51,1.51,0,1,1,0-.73A1.51,1.51,0,0,1,1246.71,137.8Z" transform="translate(133.79)"/>
            <path class="cls-32" d="M1262.46,872.09a1.51,1.51,0,1,1-1.46-1.86A1.7,1.7,0,0,1,1262.46,872.09Z" transform="translate(133.79)"/>
            <path class="cls-38" d="M1253.91,726a1.51,1.51,0,1,1-1.46-1.86A1.7,1.7,0,0,1,1253.91,726Z" transform="translate(133.79)"/>
          </g>
        </g>
        <g>
          <g class="cls-30">
            <g class="cls-40">
              <path class="cls-32" d="M644.78,455.27l.13,5.88a1.91,1.91,0,0,1-1,1.83l-4.37,1.88,4.62-.16A1.55,1.55,0,0,1,645.6,466l1.48,5.57-.13-5.88a1.91,1.91,0,0,1,1-1.83l4.38-1.88-4.62.16a1.54,1.54,0,0,1-1.44-1.28Z" transform="translate(133.79)"/>
            </g>
            <path class="cls-32" d="M800.35,389.71l-.83,5.78a1.71,1.71,0,0,1-1.28,1.53l-4.59.69,4.54,1.06a1.77,1.77,0,0,1,1.21,1.63l.54,5.83.83-5.78a1.71,1.71,0,0,1,1.28-1.53l4.58-.69-4.54-1.06a1.78,1.78,0,0,1-1.2-1.63Z" transform="translate(133.79)"/>
            <g class="cls-41">
              <path class="cls-32" d="M477.85,211.87l-.46,5.88a1.77,1.77,0,0,1-1.18,1.67l-4.55,1.18,4.62.58a1.67,1.67,0,0,1,1.31,1.51l.93,5.79.45-5.88a1.79,1.79,0,0,1,1.19-1.67l4.55-1.18-4.63-.58a1.68,1.68,0,0,1-1.31-1.51Z" transform="translate(133.79)"/>
            </g>
            <path class="cls-32" d="M324.64,434.41l.12,5.88a1.91,1.91,0,0,1-1,1.83L319.39,444l4.61-.16a1.54,1.54,0,0,1,1.44,1.28l1.48,5.57-.13-5.88a1.92,1.92,0,0,1,1-1.83l4.37-1.88-4.61.16a1.54,1.54,0,0,1-1.44-1.28Z" transform="translate(133.79)"/>
            <g class="cls-35">
              <path class="cls-32" d="M888.47,731.53l.12,5.87a1.91,1.91,0,0,1-1,1.83l-4.37,1.89,4.61-.16a1.53,1.53,0,0,1,1.44,1.27l1.48,5.57-.13-5.87a1.91,1.91,0,0,1,1-1.84l4.37-1.88-4.61.16a1.54,1.54,0,0,1-1.44-1.28Z" transform="translate(133.79)"/>
            </g>
            <path class="cls-32" d="M1099.6,588.34l-3.13,4.31a1.25,1.25,0,0,1-1.72.42h0l-4.17-2.54,3.39,4a2.26,2.26,0,0,1,.33,2.2l-2,5.29,3.13-4.31a1.25,1.25,0,0,1,1.72-.42h0l4.17,2.54-3.39-4a2.24,2.24,0,0,1-.33-2.19Z" transform="translate(133.79)"/>
            <path class="cls-33" d="M1140.83,174.56l4.52,9a4.17,4.17,0,0,1-.21,4.06l-5.42,8.15,7.07-5.76a2.25,2.25,0,0,1,3.16.24l0,0,6.41,6.9-4.53-9a4.21,4.21,0,0,1,.21-4l5.43-8.15-7.07,5.76a2.24,2.24,0,0,1-3.17-.25l0,0Z" transform="translate(133.79)"/>
            <path class="cls-32" d="M1200.76,305.81l.83,5.78a2.08,2.08,0,0,1-.78,2l-4.1,2.7,4.55-1.05a1.4,1.4,0,0,1,1.57,1l2.13,5.21-.83-5.78a2.08,2.08,0,0,1,.78-2L1209,311l-4.54,1.05a1.4,1.4,0,0,1-1.57-1Z" transform="translate(133.79)"/>
            <g class="cls-36">
              <path class="cls-32" d="M958.21,61.53l.15,7a2.29,2.29,0,0,1-1.2,2.19L951.93,73l5.52-.19a1.83,1.83,0,0,1,1.72,1.52L960.94,81l-.15-7a2.29,2.29,0,0,1,1.2-2.2l5.23-2.25-5.52.19a1.84,1.84,0,0,1-1.7-1.55Z" transform="translate(133.79)"/>
            </g>
            <path class="cls-32" d="M157.75,255.42l1.71,5.46A2.24,2.24,0,0,1,159,263l-3.6,3.69,4.29-2.17a1.29,1.29,0,0,1,1.7.56l2.9,4.58-1.71-5.46A2.23,2.23,0,0,1,163,262l3.6-3.69-4.29,2.18a1.3,1.3,0,0,1-1.7-.57Z" transform="translate(133.79)"/>
            <path class="cls-32" d="M311.15,86.71l.8,8.57a3,3,0,0,1-1.27,2.85l-6.2,3.5,6.73-1a2.13,2.13,0,0,1,2.24,1.62l2.75,7.89-.8-8.57a3,3,0,0,1,1.27-2.85l6.2-3.5-6.73,1a2.13,2.13,0,0,1-2.24-1.62Z" transform="translate(133.79)"/>
            <g class="cls-31">
              <path class="cls-32" d="M56.74,614.15l-.33,6.09A1.88,1.88,0,0,1,55.23,622l-4.67,1.39,4.79.42a1.72,1.72,0,0,1,1.39,1.5l1.09,5.94.33-6.09a1.88,1.88,0,0,1,1.18-1.76L64,622l-4.79-.42a1.68,1.68,0,0,1-1.39-1.5Z" transform="translate(133.79)"/>
            </g>
            <path class="cls-33" d="M78.47,83.77l-1.4,5.6a1.54,1.54,0,0,1-1.42,1.31L71,90.63l4.4,1.78a1.88,1.88,0,0,1,1,1.81v5.88l1.4-5.6a1.55,1.55,0,0,1,1.42-1.31h4.62l-4.4-1.78a1.88,1.88,0,0,1-1-1.81Z" transform="translate(133.79)"/>
            <path class="cls-32" d="M771.69,826.38l.21,9.46a3.12,3.12,0,0,1-1.62,3l-7,3,7.44-.26a2.5,2.5,0,0,1,2.32,2.06l2.38,9-.2-9.46a3.1,3.1,0,0,1,1.62-3l7-3-7.43.26a2.48,2.48,0,0,1-2.32-2.06Z" transform="translate(133.79)"/>
            <g class="cls-40">
              <path class="cls-32" d="M1163.2,808.63l-.18,5.87a1.86,1.86,0,0,1-1.1,1.74l-4.46,1.51,4.61.23a1.61,1.61,0,0,1,1.37,1.4l1.18,5.68.18-5.87a1.86,1.86,0,0,1,1.1-1.75l4.46-1.5-4.61-.24a1.6,1.6,0,0,1-1.37-1.39Z" transform="translate(133.79)"/>
            </g>
            <path class="cls-33" d="M183.8,811l1.21,5.67a2.13,2.13,0,0,1-.64,2.08l-3.9,3.14,4.45-1.54a1.37,1.37,0,0,1,1.64.82l2.46,5-1.2-5.67a2.15,2.15,0,0,1,.63-2.08l3.91-3.14-4.46,1.54a1.35,1.35,0,0,1-1.63-.81Z" transform="translate(133.79)"/>
            <path class="cls-32" d="M295,630.74l-3.92,12.39a3.41,3.41,0,0,1-3.39,2.67l-10.46-1.12,9.73,5a4.49,4.49,0,0,1,2.1,4.32l-.88,13.31,3.92-12.39a3.41,3.41,0,0,1,3.39-2.67L306,653.37l-9.73-5a4.49,4.49,0,0,1-2.1-4.32Z" transform="translate(133.79)"/>
            <g class="cls-37">
              <path class="cls-32" d="M976.39,405.79l-.75,5.8a1.71,1.71,0,0,1-1.26,1.55l-4.58.79,4.56,1a1.75,1.75,0,0,1,1.22,1.6l.62,5.83.76-5.8a1.69,1.69,0,0,1,1.25-1.56l4.58-.79-4.56-1a1.72,1.72,0,0,1-1.22-1.6Z" transform="translate(133.79)"/>
            </g>
            <path class="cls-32" d="M797.3,176.77l.36,5.86a2,2,0,0,1-.93,1.89l-4.29,2.16,4.6-.45a1.48,1.48,0,0,1,1.49,1.18l1.7,5.47-.36-5.86a2,2,0,0,1,.93-1.9l4.29-2.16-4.6.46a1.5,1.5,0,0,1-1.49-1.19Z" transform="translate(133.79)"/>
            <path class="cls-32" d="M235.45,503.89l.12,5.88a1.91,1.91,0,0,1-1,1.83l-4.37,1.89,4.61-.17a1.54,1.54,0,0,1,1.44,1.28l1.48,5.57-.13-5.88a1.94,1.94,0,0,1,1-1.83l4.37-1.88-4.61.16a1.54,1.54,0,0,1-1.44-1.28Z" transform="translate(133.79)"/>
            <g class="cls-30">
              <path class="cls-32" d="M1237.55,522.44l.22,10.17a3.31,3.31,0,0,1-1.73,3.17l-7.57,3.26,8-.27A2.66,2.66,0,0,1,1239,541l2.56,9.63-.22-10.17a3.3,3.3,0,0,1,1.74-3.17l7.57-3.26-8,.28a2.67,2.67,0,0,1-2.49-2.21Z" transform="translate(133.79)"/>
            </g>
            <path class="cls-32" d="M75.28,246.72,79,253a3.08,3.08,0,0,1,0,3l-3.63,6.35,4.94-4.71a1.63,1.63,0,0,1,2.32,0l0,0,5,4.61L84,256a3.08,3.08,0,0,1,0-3l3.63-6.35-4.94,4.71a1.63,1.63,0,0,1-2.32,0l0,0Z" transform="translate(133.79)"/>
            <g class="cls-42">
              <path class="cls-32" d="M303.43,337.91l-1.34,6.68a1.91,1.91,0,0,1-1.6,1.65l-5.41.33,5.25,1.71a2.18,2.18,0,0,1,1.3,2l.26,6.89,1.34-6.68a1.9,1.9,0,0,1,1.6-1.65l5.4-.34L305,346.82a2.14,2.14,0,0,1-1.3-2Z" transform="translate(133.79)"/>
            </g>
            <path class="cls-32" d="M227.1,381.28l1.86,5.38a2.26,2.26,0,0,1-.39,2.18l-3.49,3.85,4.23-2.37a1.25,1.25,0,0,1,1.71.49l3,4.44-1.86-5.38a2.26,2.26,0,0,1,.39-2.18l3.49-3.85-4.23,2.37a1.27,1.27,0,0,1-1.71-.49Z" transform="translate(133.79)"/>
            <path class="cls-38" d="M518.81,522.59l1.71,5.46a2.21,2.21,0,0,1-.45,2.16l-3.59,3.69,4.29-2.18a1.3,1.3,0,0,1,1.7.57l2.89,4.58-1.71-5.46a2.21,2.21,0,0,1,.45-2.16l3.59-3.69-4.29,2.18a1.29,1.29,0,0,1-1.69-.57Z" transform="translate(133.79)"/>
            <path class="cls-32" d="M839.68,510.73l-1.15,5.69a1.61,1.61,0,0,1-1.36,1.41l-4.61.28,4.47,1.46a1.83,1.83,0,0,1,1.11,1.73l.22,5.87,1.15-5.69a1.61,1.61,0,0,1,1.36-1.41l4.61-.28L841,518.33a1.83,1.83,0,0,1-1.11-1.73Z" transform="translate(133.79)"/>
            <g class="cls-43">
              <path class="cls-44" d="M785.76,567.81l.12,5.88a1.92,1.92,0,0,1-1,1.83l-4.37,1.88,4.61-.16a1.54,1.54,0,0,1,1.44,1.28l1.48,5.56-.12-5.87a1.91,1.91,0,0,1,1-1.83l4.37-1.89-4.61.16a1.53,1.53,0,0,1-1.44-1.27Z" transform="translate(133.79)"/>
            </g>
            <path class="cls-32" d="M967.69,671.7l-3.35,11.56a3.17,3.17,0,0,1-3.07,2.57l-9.67-.66,9.09,4.26a4.08,4.08,0,0,1,2,3.91l-.52,12.3,3.34-11.56a3.18,3.18,0,0,1,3.08-2.57l9.66.66-9.08-4.26a4,4,0,0,1-2-3.91Z" transform="translate(133.79)"/>
            <path class="cls-32" d="M969.94,548.47l.12,5.88a1.91,1.91,0,0,1-1,1.83l-4.37,1.89,4.61-.17a1.54,1.54,0,0,1,1.44,1.28l1.48,5.57-.12-5.88a1.91,1.91,0,0,1,1-1.83l4.37-1.88-4.61.16a1.54,1.54,0,0,1-1.44-1.28Z" transform="translate(133.79)"/>
            <g class="cls-45">
              <path class="cls-32" d="M1023,732v5.88a1.87,1.87,0,0,1-1,1.81l-4.4,1.8,4.62-.07a1.54,1.54,0,0,1,1.42,1.31l1.42,5.59-.06-5.88a1.88,1.88,0,0,1,1-1.81l4.39-1.8-4.61.07a1.56,1.56,0,0,1-1.43-1.3Z" transform="translate(133.79)"/>
            </g>
            <path class="cls-38" d="M1220.11,874.65l-1.78,5.42a1.47,1.47,0,0,1-1.51,1.14l-4.59-.57,4.26,2.27a2,2,0,0,1,.89,1.92l-.45,5.85,1.79-5.42a1.48,1.48,0,0,1,1.51-1.15l4.59.58-4.26-2.27a2,2,0,0,1-.9-1.92Z" transform="translate(133.79)"/>
            <path class="cls-32" d="M902.61,859.54l.13,5.88a1.94,1.94,0,0,1-1,1.83l-4.37,1.88L902,869a1.54,1.54,0,0,1,1.44,1.28l1.48,5.56L904.8,870a1.91,1.91,0,0,1,1-1.83l4.37-1.89-4.61.16a1.53,1.53,0,0,1-1.44-1.27Z" transform="translate(133.79)"/>
            <g class="cls-46">
              <path class="cls-32" d="M535.77,608.37l-1.08,7.83a2.27,2.27,0,0,1-1.72,2.09l-6.19,1,6.15,1.36a2.36,2.36,0,0,1,1.64,2.19l.79,7.89,1.07-7.84a2.31,2.31,0,0,1,1.72-2.09l6.2-1-6.16-1.36a2.39,2.39,0,0,1-1.64-2.19Z" transform="translate(133.79)"/>
            </g>
            <path class="cls-32" d="M253.62,236.45l-1.05,5.72a1.62,1.62,0,0,1-1.33,1.45l-4.61.42,4.5,1.33a1.79,1.79,0,0,1,1.14,1.7l.33,5.86,1-5.73a1.65,1.65,0,0,1,1.34-1.45l4.6-.41L255,244a1.83,1.83,0,0,1-1.14-1.7Z" transform="translate(133.79)"/>
            <path class="cls-32" d="M39,38.08l1.28,5.65a2.14,2.14,0,0,1-.61,2.09L35.79,49l4.44-1.63a1.33,1.33,0,0,1,1.64.78l2.54,4.91-1.29-5.64a2.16,2.16,0,0,1,.61-2.1l3.86-3.22-4.43,1.63A1.34,1.34,0,0,1,41.51,43Z" transform="translate(133.79)"/>
          </g>
          <g class="cls-34">
            <ellipse class="cls-32" cx="1315.58" cy="71.35" rx="1.46" ry="1.86"/>
            <path class="cls-32" d="M1080.85,100.76a1.51,1.51,0,1,0,1.46-1.86A1.71,1.71,0,0,0,1080.85,100.76Z" transform="translate(133.79)"/>
            <path class="cls-32" d="M1170.1,201.8a1.51,1.51,0,1,0,1.47-1.87A1.7,1.7,0,0,0,1170.1,201.8Z" transform="translate(133.79)"/>
            <path class="cls-32" d="M1038.83,224.68a1.51,1.51,0,1,0,1.47-1.86A1.71,1.71,0,0,0,1038.83,224.68Z" transform="translate(133.79)"/>
            <path class="cls-38" d="M1102.49,304.63a1.5,1.5,0,1,0,2.91-.72,1.49,1.49,0,0,0-1.45-1.14A1.69,1.69,0,0,0,1102.49,304.63Z" transform="translate(133.79)"/>
            <path class="cls-32" d="M1190.9,392.83a1.51,1.51,0,1,0,1.46-1.86A1.71,1.71,0,0,0,1190.9,392.83Z" transform="translate(133.79)"/>
            <path class="cls-32" d="M1121.47,465.26a1.51,1.51,0,1,0,1.46-1.86A1.7,1.7,0,0,0,1121.47,465.26Z" transform="translate(133.79)"/>
            <path class="cls-39" d="M1023.23,496.89a1.51,1.51,0,1,0,0-.73,1.51,1.51,0,0,0,0,.73Z" transform="translate(133.79)"/>
            <path class="cls-32" d="M997.68,365.48a1.51,1.51,0,1,0,1.47-1.86A1.7,1.7,0,0,0,997.68,365.48Z" transform="translate(133.79)"/>
            <path class="cls-32" d="M879,343.31a1.51,1.51,0,1,0,1.46-1.86A1.69,1.69,0,0,0,879,343.31Z" transform="translate(133.79)"/>
            <path class="cls-32" d="M795.64,259.36a1.51,1.51,0,1,0,1.47-1.86A1.7,1.7,0,0,0,795.64,259.36Z" transform="translate(133.79)"/>
            <path class="cls-32" d="M824.51,156.35a1.51,1.51,0,1,0,1.46-1.86A1.71,1.71,0,0,0,824.51,156.35Z" transform="translate(133.79)"/>
            <path class="cls-32" d="M729.65,391.81a1.51,1.51,0,1,0,1.47-1.87A1.7,1.7,0,0,0,729.65,391.81Z" transform="translate(133.79)"/>
            <path class="cls-32" d="M687.52,306.62a1.51,1.51,0,1,0,0-.73A1.51,1.51,0,0,0,687.52,306.62Z" transform="translate(133.79)"/>
            <path class="cls-39" d="M704.07,165.78a1.51,1.51,0,1,0,1.47-1.87A1.7,1.7,0,0,0,704.07,165.78Z" transform="translate(133.79)"/>
            <path class="cls-32" d="M561.66,101.75a1.51,1.51,0,1,0,1.46-1.86A1.7,1.7,0,0,0,561.66,101.75Z" transform="translate(133.79)"/>
            <path class="cls-32" d="M404.94,206.88A1.5,1.5,0,1,0,406.4,205,1.69,1.69,0,0,0,404.94,206.88Z" transform="translate(133.79)"/>
            <path class="cls-32" d="M543.36,336.16a1.51,1.51,0,1,0,0-.73A1.51,1.51,0,0,0,543.36,336.16Z" transform="translate(133.79)"/>
            <path class="cls-32" d="M434.59,392.94a1.51,1.51,0,1,0,1.47-1.86A1.71,1.71,0,0,0,434.59,392.94Z" transform="translate(133.79)"/>
            <path class="cls-32" d="M357.74,399.24a1.51,1.51,0,1,0,1.47-1.87A1.7,1.7,0,0,0,357.74,399.24Z" transform="translate(133.79)"/>
            <path class="cls-32" d="M366,243.84a1.51,1.51,0,1,0,0-.73A1.51,1.51,0,0,0,366,243.84Z" transform="translate(133.79)"/>
            <path class="cls-32" d="M290.29,119.7a1.5,1.5,0,0,0,2.91-.74,1.51,1.51,0,0,0-1.45-1.13A1.68,1.68,0,0,0,290.29,119.7Z" transform="translate(133.79)"/>
            <path class="cls-32" d="M196.28,143.87a1.51,1.51,0,1,0,2.93-.72,1.5,1.5,0,0,0-1.47-1.15A1.7,1.7,0,0,0,196.28,143.87Z" transform="translate(133.79)"/>
            <path class="cls-32" d="M171.42,207.11a1.51,1.51,0,1,0,1.47-1.87A1.7,1.7,0,0,0,171.42,207.11Z" transform="translate(133.79)"/>
            <path class="cls-32" d="M168.21,307.91a1.51,1.51,0,1,0,1.46-1.86A1.7,1.7,0,0,0,168.21,307.91Z" transform="translate(133.79)"/>
            <path class="cls-32" d="M122.68,358.37a1.51,1.51,0,1,0,1.46-1.86A1.69,1.69,0,0,0,122.68,358.37Z" transform="translate(133.79)"/>
            <path class="cls-39" d="M201.12,510.61a1.51,1.51,0,1,0,1.47-1.86A1.7,1.7,0,0,0,201.12,510.61Z" transform="translate(133.79)"/>
            <path class="cls-32" d="M294.3,537a1.5,1.5,0,0,0,2.91-.74,1.51,1.51,0,0,0-1.45-1.13A1.68,1.68,0,0,0,294.3,537Z" transform="translate(133.79)"/>
            <path class="cls-38" d="M461.75,720.82a1.5,1.5,0,0,0,2.91-.74,1.51,1.51,0,0,0-1.45-1.13A1.68,1.68,0,0,0,461.75,720.82Z" transform="translate(133.79)"/>
            <path class="cls-32" d="M592.69,632.54a1.51,1.51,0,1,0,1.46-1.86A1.7,1.7,0,0,0,592.69,632.54Z" transform="translate(133.79)"/>
            <ellipse class="cls-32" cx="769.93" cy="530.49" rx="1.46" ry="1.86"/>
            <path class="cls-32" d="M702.44,514.71a1.51,1.51,0,1,0,1.47-1.87A1.71,1.71,0,0,0,702.44,514.71Z" transform="translate(133.79)"/>
            <path class="cls-32" d="M722.12,632.55a1.5,1.5,0,1,0,2.91-.72,1.49,1.49,0,0,0-1.45-1.14A1.69,1.69,0,0,0,722.12,632.55Z" transform="translate(133.79)"/>
            <path class="cls-32" d="M807.86,643a1.51,1.51,0,1,0,1.46-1.86A1.7,1.7,0,0,0,807.86,643Z" transform="translate(133.79)"/>
            <path class="cls-32" d="M863.18,593.41a1.5,1.5,0,1,0,2.91-.72,1.49,1.49,0,0,0-1.45-1.14A1.7,1.7,0,0,0,863.18,593.41Z" transform="translate(133.79)"/>
            <path class="cls-32" d="M901.47,598.8a1.51,1.51,0,1,0,1.47-1.87A1.7,1.7,0,0,0,901.47,598.8Z" transform="translate(133.79)"/>
            <path class="cls-32" d="M1071.82,741.88a1.51,1.51,0,1,0,1.46-1.86A1.7,1.7,0,0,0,1071.82,741.88Z" transform="translate(133.79)"/>
            <path class="cls-32" d="M1094.9,651.38a1.51,1.51,0,1,0,1.46-1.86A1.7,1.7,0,0,0,1094.9,651.38Z" transform="translate(133.79)"/>
            <path class="cls-32" d="M1147.69,579.7a1.51,1.51,0,1,0,1.46-1.86A1.7,1.7,0,0,0,1147.69,579.7Z" transform="translate(133.79)"/>
            <path class="cls-32" d="M1183.59,587a1.51,1.51,0,1,0,0-.73A1.51,1.51,0,0,0,1183.59,587Z" transform="translate(133.79)"/>
            <ellipse class="cls-32" cx="1332.85" cy="635.7" rx="1.46" ry="1.86"/>
            <path class="cls-39" d="M1180,729.33a1.5,1.5,0,0,0,2.91-.74,1.51,1.51,0,0,0-1.45-1.13A1.68,1.68,0,0,0,1180,729.33Z" transform="translate(133.79)"/>
            <path class="cls-32" d="M1104.89,818.79a1.51,1.51,0,1,0,1.46-1.86A1.7,1.7,0,0,0,1104.89,818.79Z" transform="translate(133.79)"/>
            <path class="cls-32" d="M998.44,804a1.5,1.5,0,1,0,2.91-.72,1.49,1.49,0,0,0-1.45-1.14A1.7,1.7,0,0,0,998.44,804Z" transform="translate(133.79)"/>
            <path class="cls-32" d="M911.17,739.94a1.51,1.51,0,1,0,1.47-1.87A1.71,1.71,0,0,0,911.17,739.94Z" transform="translate(133.79)"/>
            <path class="cls-32" d="M848.45,691.62a1.51,1.51,0,1,0,2.93-.72,1.5,1.5,0,0,0-1.47-1.15A1.7,1.7,0,0,0,848.45,691.62Z" transform="translate(133.79)"/>
            <path class="cls-32" d="M769.16,742.09a1.51,1.51,0,1,0,1.47-1.86A1.71,1.71,0,0,0,769.16,742.09Z" transform="translate(133.79)"/>
            <path class="cls-32" d="M695.8,798.83a1.51,1.51,0,1,0,1.46-1.86A1.69,1.69,0,0,0,695.8,798.83Z" transform="translate(133.79)"/>
            <path class="cls-32" d="M590.29,772.36a1.51,1.51,0,1,0,0-.73A1.51,1.51,0,0,0,590.29,772.36Z" transform="translate(133.79)"/>
            <path class="cls-39" d="M423.05,794.54a1.51,1.51,0,1,0,1.46-1.86A1.7,1.7,0,0,0,423.05,794.54Z" transform="translate(133.79)"/>
            <path class="cls-38" d="M382.33,799.77a1.51,1.51,0,1,0,1.47-1.87A1.7,1.7,0,0,0,382.33,799.77Z" transform="translate(133.79)"/>
            <path class="cls-32" d="M230.93,770.2a1.5,1.5,0,0,0,2.91-.74,1.51,1.51,0,0,0-1.45-1.13A1.68,1.68,0,0,0,230.93,770.2Z" transform="translate(133.79)"/>
            <path class="cls-32" d="M183.05,647.23a1.51,1.51,0,1,0,1.47-1.86A1.71,1.71,0,0,0,183.05,647.23Z" transform="translate(133.79)"/>
            <path class="cls-32" d="M115.22,654.55a1.51,1.51,0,1,0,1.46-1.86A1.7,1.7,0,0,0,115.22,654.55Z" transform="translate(133.79)"/>
            <path class="cls-32" d="M86.46,788.9a1.51,1.51,0,1,0,1.47-1.9A1.7,1.7,0,0,0,86.46,788.9Z" transform="translate(133.79)"/>
            <path class="cls-32" d="M432.85,621a1.5,1.5,0,1,0,2.91-.72,1.49,1.49,0,0,0-1.45-1.14A1.7,1.7,0,0,0,432.85,621Z" transform="translate(133.79)"/>
            <path class="cls-32" d="M387.51,531.66a1.5,1.5,0,0,0,2.91-.74,1.51,1.51,0,0,0-1.45-1.13A1.68,1.68,0,0,0,387.51,531.66Z" transform="translate(133.79)"/>
            <path class="cls-32" d="M1247.67,137.8a1.51,1.51,0,1,0,0-.73A1.51,1.51,0,0,0,1247.67,137.8Z" transform="translate(133.79)"/>
            <path class="cls-32" d="M1231.92,872.09a1.51,1.51,0,1,0,1.46-1.86A1.7,1.7,0,0,0,1231.92,872.09Z" transform="translate(133.79)"/>
            <path class="cls-38" d="M1240.47,726a1.51,1.51,0,1,0,1.46-1.86A1.7,1.7,0,0,0,1240.47,726Z" transform="translate(133.79)"/>
            <path class="cls-32" d="M53.32,429.73a1.51,1.51,0,1,0,1.46-1.86A1.7,1.7,0,0,0,53.32,429.73Z" transform="translate(133.79)"/>
            <path class="cls-39" d="M141,43.11a1.51,1.51,0,1,0,1.46-1.86A1.7,1.7,0,0,0,141,43.11Z" transform="translate(133.79)"/>
            <path class="cls-32" d="M869.07,74.4a1.51,1.51,0,1,0,1.46-1.86A1.7,1.7,0,0,0,869.07,74.4Z" transform="translate(133.79)"/>
            <path class="cls-32" d="M70.86,885.65a1.51,1.51,0,1,0,1.47-1.87A1.7,1.7,0,0,0,70.86,885.65Z" transform="translate(133.79)"/>
            <ellipse class="cls-32" cx="709.87" cy="854.54" rx="1.46" ry="1.86"/>
            <path class="cls-32" d="M850,860.86a1.51,1.51,0,1,0,1.5-1.86A1.7,1.7,0,0,0,850,860.86Z" transform="translate(133.79)"/>
            <path class="cls-32" d="M169.11,863.7a1.51,1.51,0,1,0,1.46-1.86A1.69,1.69,0,0,0,169.11,863.7Z" transform="translate(133.79)"/>
            <path class="cls-32" d="M63.33,158.8a1.51,1.51,0,1,0,1.46-1.86A1.69,1.69,0,0,0,63.33,158.8Z" transform="translate(133.79)"/>
            <path class="cls-32" d="M445.22,80.71a1.51,1.51,0,1,0,0-.73A1.51,1.51,0,0,0,445.22,80.71Z" transform="translate(133.79)"/>
            <path class="cls-38" d="M504.66,135.53a1.5,1.5,0,0,0,2.91-.74,1.51,1.51,0,0,0-1.45-1.13A1.68,1.68,0,0,0,504.66,135.53Z" transform="translate(133.79)"/>
            <ellipse class="cls-38" cx="1011.71" cy="424.42" rx="1.46" ry="1.86"/>
            <path class="cls-38" d="M93,507.57a1.51,1.51,0,1,0,1.47-1.87A1.7,1.7,0,0,0,93,507.57Z" transform="translate(133.79)"/>
          </g>
        </g>
      </g>
      <g class="cls-4">
        <path class="cls-47" d="M47.09,427c-17.21,10.34-30,26.62-46.43,38.06C-8,471.12-18.76,475.9-29.13,473.5S-47,462.2-56.8,458.13c-6.3-2.62-13.31-3.11-20.13-2.8a90.88,90.88,0,0,0-56.25,23.12c-1.89-3.72.94-8,3.86-11.05a134.71,134.71,0,0,1,14.74-12.67c25-19.2,52-36.12,81.34-47.84S27.91,388.75,59.5,390.8c8.18.53,44,2.59,33.59,18.33-4,6-14.21,5.67-20.57,7.38A100.05,100.05,0,0,0,47.09,427Z" transform="translate(133.79)"/>
      </g>
      <g>
        <path class="cls-48" d="M372.72,217.35c7.84-3.8,11.75-5.69,13.25-7.3,9.58-10.36-14.85-31.21-7.78-49.72,6.86-17.94,39.19-23,42.63-23.49,11.4-1.66,13.65,1.18,33-.75,15.77-1.57,23.79-2.47,30.29-8,8-6.81,4.55-13.48,13.08-24A45.66,45.66,0,0,1,515.82,90.8a17.42,17.42,0,0,0-2.69,7.74,16.78,16.78,0,0,0,.73,6.3c.68,2.39,5.56,19.13-1.07,28.48a19.23,19.23,0,0,1-6.22,5.33c-9.09,5.47-15.54,1.55-22.72,4.38-9.44,3.72-15.51,17.27-14.79,28,1,14.14,13.31,17.28,12.56,31-.53,9.81-7.35,16.53-8.31,17.44-7.75,7.42-18.28,7.92-37.35,8.84-17.7.85-20.93-1.56-26.85,2.43-4,2.72-7.6,7.25-16.41,11.15a26.28,26.28,0,0,1-6.19,2.27c-10.08,2-15.06-3.17-26-.35a34.3,34.3,0,0,0-15.89,9.58,40.36,40.36,0,0,1,6.7-20.47,38.34,38.34,0,0,1,6.44-7.37C362.14,221.68,365.71,220.73,372.72,217.35Z" transform="translate(133.79)"/>
        <g class="cls-4">
          <path class="cls-49" d="M431.47,165.27c-3.16,2.94-6.4,6-8.06,10a1.91,1.91,0,0,0-.05,1.84,1.59,1.59,0,0,0,1.27.47c1.69,0,3-1.4,4.36-2.4s3.5-1.58,4.59-.3.32,3-.45,4.28c-2.84,5-5.14,8.88-11.08,10.16-3.1.67-6.45,1.06-8.88,3.07-2.8,2.31-3.66,6.13-5.33,9.33-3.68,7-10.66,8.29-16.68,12.56a2.21,2.21,0,0,0-1.15,1.54,1.55,1.55,0,0,0,1.34,1.4,4.12,4.12,0,0,0,2.08-.31c13.22-4.5,22.41-16.49,34.95-22.59,2.08-1,4.74-1.79,6.55-.36.54.43.94,1,1.49,1.45,1.72,1.33,4.36.57,5.93-.93,2.1-2,2.91-5,3.07-7.91s-.27-5.77-.22-8.66c.14-7.93,3.83-15.47,8.81-21.69,1.09-1.37,6.25-6.31,4.92-8.19s-5.89.4-7.23,1.15C444.16,153.37,437.74,159.45,431.47,165.27Z" transform="translate(133.79)"/>
        </g>
      </g>
      <path class="cls-50" d="M1039.18,154.16c-8.24-4-12.37-6-13.94-7.68-10.07-10.89,15.62-32.82,8.18-52.3-7.21-18.86-41.22-24.17-44.83-24.7-12-1.74-14.36,1.24-34.68-.79-16.59-1.65-25-2.6-31.86-8.41-8.41-7.16-4.79-14.17-13.76-25.22a48,48,0,0,0-19.59-14,18.12,18.12,0,0,1,2.82,8.14,17.68,17.68,0,0,1-.76,6.62c-.72,2.52-5.85,20.12,1.13,30a20,20,0,0,0,6.54,5.6C908,77.16,914.78,73,922.33,76c9.93,3.92,16.3,18.17,15.55,29.44-1,14.87-14,18.18-13.22,32.56.57,10.32,7.74,17.38,8.75,18.34,8.15,7.8,19.23,8.33,39.29,9.29,18.61.9,22-1.64,28.23,2.56,4.24,2.86,8,7.63,17.27,11.73a27.87,27.87,0,0,0,6.5,2.39c10.61,2.08,15.84-3.34,27.33-.36,7.71,2,30.75,17.42,34.26,21a42.39,42.39,0,0,0-7-21.52c-2.9-4.32-23.48-18-24.32-18.7C1050.3,158.72,1046.55,157.72,1039.18,154.16Z" transform="translate(133.79)"/>
      <g class="cls-4">
        <path class="cls-51" d="M862.15,377.56a75.63,75.63,0,0,0-5.21-7.35A136,136,0,0,0,819,337.29c-4.51-2.64-9.38-5.07-14.62-5.22a6.92,6.92,0,0,0-5.34,1.7c-2.55,2.78-.4,7.45-2,10.84-1.91,4-7.61,4-12,3.32a233.45,233.45,0,0,1-53.39-15.4C718.4,327,701.19,318.26,699.52,302a8.29,8.29,0,0,1,.68-4.81c1.39-2.59,4.59-3.63,7.53-4,14.26-1.84,29.17,7.62,33.4,21.2-5.36,2.72-11.21-2.36-17-3.91-1.06-.28-2.38-.37-3.09.47-1,1.16.08,2.87,1.16,3.92a34.84,34.84,0,0,0,13.73,8.2c5.27,1.66,11.94,1.64,15.3-2.71s1.5-11-1.43-15.78c-8.8-14.48-25.8-23.72-42.86-23.33-6.58.16-13.31,1.73-18.55,5.65-8.72,6.53-11.75,18.77-9.09,29.25,9.22,36.29,58.32,38.44,88.51,43.72,24.19,4.23,49.38,10.86,66.7,28.07,9.76,9.7,16.3,22.1,21.68,34.7,1.26,2.93,2.5,5.95,4.72,8.25s5.69,3.73,8.71,2.64c7.66-2.75.23-15.54-2.09-19.6-3.43-6-3.83-5.12-1.79-11.49,1.62-5,2.19-9.74.81-14.95A37.58,37.58,0,0,0,862.15,377.56Z" transform="translate(133.79)"/>
      </g>
      <g>
        <g class="cls-52">
          <ellipse class="cls-53" cx="1351.06" cy="53.77" rx="14.86" ry="14.68"/>
          <path class="cls-54" d="M1207.55,64.84a12.37,12.37,0,0,0,16.87-.89,12,12,0,0,0-.37-17l-.15-.14a12.36,12.36,0,0,0-17.33.47,12,12,0,0,0,.06,16.68,14.54,14.54,0,0,1-.17-20.31,15,15,0,0,1,21-.57,14.54,14.54,0,0,1,.8,20.55l-.18.19A15,15,0,0,1,1207.55,64.84Z" transform="translate(133.79)"/>
          <path class="cls-55" d="M1205.84,44.4a.27.27,0,0,1,.07-.08,15,15,0,0,1,20.93-1.78A14.56,14.56,0,0,1,1231.5,58l-.09.27a.84.84,0,0,1-.1.29,14.8,14.8,0,0,1-2.49,4.41c-.06.07-.09,0-.15.09a15.16,15.16,0,0,0-4.43-18A15.6,15.6,0,0,0,1205.84,44.4Z" transform="translate(133.79)"/>
          <path class="cls-56" d="M1207.71,65a14.56,14.56,0,0,1-3.68-4.57,19.93,19.93,0,0,1,8.22,2.64,19.41,19.41,0,0,1,5.88,5.35A14.94,14.94,0,0,1,1207.71,65Z" transform="translate(133.79)"/>
          <path class="cls-56" d="M1222,67.7a10.05,10.05,0,0,0-2.68-2.91c-1.48-1.13-3.14-2-4.73-3-3.31-2-6.36-4.66-10.12-5.67a7.16,7.16,0,0,0-1.84-.25,14.39,14.39,0,0,1-.16-2.54,11.29,11.29,0,0,1,5.17,2c2.1,1.43,3.9,3.26,6,4.66,1.91,1.27,4,2.16,6,3.36a11.91,11.91,0,0,1,3.91,3.66A14.33,14.33,0,0,1,1222,67.7Z" transform="translate(133.79)"/>
          <path class="cls-56" d="M1229.39,62.27c-.24.32-.48.64-.75.95l-.15.17a64.65,64.65,0,0,0-10.3-7.64,2.14,2.14,0,0,0-.91-.37.76.76,0,0,0-.81.43c-.2.56.53,1.06.5,1.65a.94.94,0,0,1-1.21.74,2.82,2.82,0,0,1-1.33-.86A28,28,0,0,0,1202.68,51a14.59,14.59,0,0,1,1.09-3.35,50.37,50.37,0,0,1,8,4.89,3.59,3.59,0,0,1-.26-1.3,1.28,1.28,0,0,1,.63-1.1,2,2,0,0,1,1.78.37C1219.56,53.8,1225.36,57.26,1229.39,62.27Z" transform="translate(133.79)"/>
          <path class="cls-56" d="M1227.42,64.49a14.9,14.9,0,0,1-1.23,1,56.83,56.83,0,0,0-8.32-6,1.35,1.35,0,0,1-.49-.4.45.45,0,0,1,0-.58.69.69,0,0,1,.68,0A27.87,27.87,0,0,1,1227.42,64.49Z" transform="translate(133.79)"/>
          <path class="cls-57" d="M1219.19,41.63c-.36-.24-.93-.45-1.16-.08s0,.6.2.86a17.18,17.18,0,0,0,2.41,2.63,4.38,4.38,0,0,1,1.12,1.23,1.3,1.3,0,0,1-.18,1.54c-.57.5-1.47.16-2.14-.2l-7.13-3.78a25.62,25.62,0,0,0-4-1.8,14.63,14.63,0,0,1,5.06-2.43,13.46,13.46,0,0,1,3.1.42,23.87,23.87,0,0,1,6.6,3,49.65,49.65,0,0,1,8.33,6.39,14.92,14.92,0,0,1,.63,3.11A82.39,82.39,0,0,0,1219.19,41.63Z" transform="translate(133.79)"/>
          <path class="cls-56" d="M1220.91,68l-.34.08c-1.52-2-3.85-3.31-5.93-4.8-2.34-1.67-4.53-3.72-7.32-4.45a11.37,11.37,0,0,0-4.07-.21l-.24-.73a12,12,0,0,1,5.41,1.09,23.52,23.52,0,0,1,3.46,2.11l4.7,3.26a26.5,26.5,0,0,1,3.36,2.61A9.55,9.55,0,0,1,1220.91,68Z" transform="translate(133.79)"/>
          <path class="cls-56" d="M1224.71,65.53a2.77,2.77,0,0,1,.42.7l-.29.17a9.23,9.23,0,0,0-3.21-3c-1.51-.91-3.17-1.59-4.68-2.51q-.72-.45-1.41-.93a.69.69,0,0,1-.3-.31.25.25,0,0,1,.15-.32h0a.39.39,0,0,1,.21.08l7.69,5A6.37,6.37,0,0,1,1224.71,65.53Z" transform="translate(133.79)"/>
          <path class="cls-57" d="M1232.13,53.84a22.21,22.21,0,0,0-4.78-4.3c-2.26-1.69-4.45-3.49-6.56-5.38a4.67,4.67,0,0,1-1.25-1.54.2.2,0,0,1,.09-.27.21.21,0,0,1,.23,0c3.78,3.06,7.54,6.13,11.05,9.48a10,10,0,0,1,1.21,1.31C1232.13,53.4,1232.13,53.62,1232.13,53.84Z" transform="translate(133.79)"/>
          <path class="cls-56" d="M1216.77,45.15a39.28,39.28,0,0,0-7.7-3.64,15.29,15.29,0,0,1,5.1-2.1c-.19.71.39,1.48.92,2l2.52,2.44a2.19,2.19,0,0,1,.53.68.72.72,0,0,1-.15.8C1217.65,45.61,1217.15,45.37,1216.77,45.15Z" transform="translate(133.79)"/>
          <path class="cls-56" d="M1210.16,48.83a1.89,1.89,0,0,1-1.64,0,7.61,7.61,0,0,1-1.44-.88,13.55,13.55,0,0,0-2.75-1.43c.31-.53.64-1.05,1-1.55A17.68,17.68,0,0,1,1210.16,48.83Z" transform="translate(133.79)"/>
          <path class="cls-57" d="M1225.54,50.76c-.78-.61-1.66-1.37-1.58-2.34l7.84,5.94.31.24a13.54,13.54,0,0,1-.3,2.2A40.71,40.71,0,0,0,1225.54,50.76Z" transform="translate(133.79)"/>
          <path class="cls-56" d="M1223.18,53.15a51.84,51.84,0,0,0-6.16-2.31,21.67,21.67,0,0,1-8.13-5.51.29.29,0,0,1,.33-.47,27.36,27.36,0,0,1,4.34,2.62c2.89,1.82,6.21,2.86,9.28,4.36s6.06,3.65,7.35,6.78a7.13,7.13,0,0,1,.45,1.56c-.17.36-.37.72-.58,1.07C1228.55,58,1226.37,54.87,1223.18,53.15Z" transform="translate(133.79)"/>
          <path class="cls-56" d="M1220,48.88a37.07,37.07,0,0,1-7.5-3.56l-.76-.48a16.67,16.67,0,0,0-4.21-2.18c.08-.08.17-.14.25-.21a18.08,18.08,0,0,1,4.11,2.15l.76.48a36,36,0,0,0,7.44,3.54c.36.13,1.55.47,1.92-.23l.24.13C1222,49.12,1221.13,49.26,1220,48.88Z" transform="translate(133.79)"/>
          <path class="cls-58" d="M1221,47.5c-.29.27-.75.14-1.12,0a24.78,24.78,0,0,1-3.65-1.9,3.29,3.29,0,0,0,2.3.34,1.61,1.61,0,0,0,1-1.08,3.89,3.89,0,0,1,1.47,1.59A.77.77,0,0,1,1221,47.5Z" transform="translate(133.79)"/>
          <g>
            <path class="cls-58" d="M1224.25,59.12c-1.87-1.33-3.86-2.53-5.61-4-.21-.17-.41-.49-.21-.66a.48.48,0,0,1,.49,0,28.25,28.25,0,0,1,10,7.77l.25.3c-.16.22-.33.43-.51.64A20,20,0,0,0,1224.25,59.12Z" transform="translate(133.79)"/>
            <path class="cls-58" d="M1203.17,49.14a4.38,4.38,0,0,1,1.63.43,28.64,28.64,0,0,1,8.06,5.64,23.06,23.06,0,0,0-10.06-4.75A8.62,8.62,0,0,1,1203.17,49.14Z" transform="translate(133.79)"/>
            <path class="cls-58" d="M1218.07,43.71a.7.7,0,0,1-.22.73.83.83,0,0,1-.72,0,15.24,15.24,0,0,1-2.28-1.24,13.86,13.86,0,0,0-5.6-1.76,14.33,14.33,0,0,1,3.74-1.69c.51.34.92.81,1.42,1.16a19.57,19.57,0,0,0,2.14,1.09A2.72,2.72,0,0,1,1218.07,43.71Z" transform="translate(133.79)"/>
            <path class="cls-58" d="M1219.6,63.71a9.8,9.8,0,0,1,3.28,3.31,2.44,2.44,0,0,1,.14.28l-.74.29a10,10,0,0,0-1.5-2.1c-2.29-2.47-5.63-3.67-8.47-5.51a20.94,20.94,0,0,1-4.69-4.12,42.27,42.27,0,0,0,7.86,5.55C1216.86,62.16,1218.29,62.84,1219.6,63.71Z" transform="translate(133.79)"/>
            <path class="cls-58" d="M1224.6,62.64a18.93,18.93,0,0,1-3-2.09,20.61,20.61,0,0,1,5.82,4L1227,65A6.72,6.72,0,0,0,1224.6,62.64Z" transform="translate(133.79)"/>
            <path class="cls-58" d="M1215.25,66.75a17.84,17.84,0,0,0-3.82-2.29,8.65,8.65,0,0,0-4.38-.64l4.2,2.17c-1.06-.2-2.11-.43-3.15-.68l-.39-.31a14.89,14.89,0,0,1-2.24-2.32A12.57,12.57,0,0,1,1215.25,66.75Z" transform="translate(133.79)"/>
          </g>
          <path class="cls-58" d="M1219.8,51.36a4.25,4.25,0,0,0-3.09-1.74,2.53,2.53,0,0,0,1.4,1.09A12.81,12.81,0,0,1,1219.8,51.36Z" transform="translate(133.79)"/>
          <path class="cls-58" d="M1219.6,53.72a.54.54,0,0,1,.69.33s0,0,0,.05a.23.23,0,0,1-.29.22l-.55-.2c-.25-.09-.09-.48.16-.38l.55.2-.29.22a.08.08,0,0,0-.11,0C1219.51,54.19,1219.34,53.81,1219.6,53.72Z" transform="translate(133.79)"/>
          <path class="cls-58" d="M1220.67,60.33l-.53-.31a.21.21,0,0,1-.07-.29.23.23,0,0,1,.07-.07.46.46,0,0,1,.61.22h0a.23.23,0,0,1-.11.28.22.22,0,0,1-.28-.12h-.06V59.7l.52.3a.2.2,0,0,1,0,.28h0A.23.23,0,0,1,1220.67,60.33Z" transform="translate(133.79)"/>
          <path class="cls-58" d="M1222.27,61.68a.86.86,0,0,1,.59.31.22.22,0,0,1,0,.3.25.25,0,0,1-.17,0,1,1,0,0,1-.58-.32c-.19-.19.15-.45.33-.26a.59.59,0,0,0,.31.17l-.19.33a.38.38,0,0,0-.31-.16.21.21,0,0,1-.14-.26A.21.21,0,0,1,1222.27,61.68Z" transform="translate(133.79)"/>
          <path class="cls-58" d="M1211.12,52.82a1.11,1.11,0,0,1,.54.44.2.2,0,0,1-.05.29.18.18,0,0,1-.09,0,.48.48,0,0,1-.45-.16c-.17-.2.16-.46.34-.26h0l-.13.34a.82.82,0,0,0-.37-.32.21.21,0,1,1,.21-.37Z" transform="translate(133.79)"/>
          <path class="cls-58" d="M1213.28,54.93l.37.25c.23.15,0,.48-.25.33l-.37-.24C1212.8,55.12,1213.05,54.78,1213.28,54.93Z" transform="translate(133.79)"/>
          <path class="cls-58" d="M1214.51,56l.15.12c.21.18-.05.51-.25.34l-.16-.13C1214.05,56.17,1214.3,55.83,1214.51,56Z" transform="translate(133.79)"/>
          <path class="cls-58" d="M1209.7,44.81l.32.07c.26.07.21.48,0,.42l-.33-.08C1209.38,45.16,1209.43,44.74,1209.7,44.81Z" transform="translate(133.79)"/>
          <path class="cls-58" d="M1211.46,45.79a.58.58,0,0,1,.52.23c.15.22-.18.48-.33.26,0-.05-.07-.08-.14-.07C1211.24,46.22,1211.18,45.81,1211.46,45.79Z" transform="translate(133.79)"/>
          <path class="cls-58" d="M1213.13,46.72l.08.06a.21.21,0,1,1-.25.33l-.08-.06C1212.67,46.88,1212.93,46.54,1213.13,46.72Z" transform="translate(133.79)"/>
          <path class="cls-58" d="M1224,48.47l.08.07a.21.21,0,1,1-.25.33l-.08-.06C1223.58,48.64,1223.84,48.3,1224,48.47Z" transform="translate(133.79)"/>
          <path class="cls-58" d="M1225.76,50.87l.19.08a.21.21,0,0,1,.11.28.21.21,0,0,1-.27.11l-.19-.08C1225.36,51.14,1225.52,50.76,1225.76,50.87Z" transform="translate(133.79)"/>
          <path class="cls-58" d="M1226.84,53.26l.21.05c.27.06.22.48,0,.42h-.22C1226.52,53.62,1226.57,53.2,1226.84,53.26Z" transform="translate(133.79)"/>
          <path class="cls-58" d="M1226.79,53.6a.37.37,0,0,1-.2-.47.21.21,0,0,1,.27-.12l.05,0,.27.22a.21.21,0,1,1-.26.33l-.26-.22.32-.08v-.08C1227.19,53.33,1227,53.72,1226.79,53.6Z" transform="translate(133.79)"/>
          <path class="cls-58" d="M1227.54,54.2l.14.06a.21.21,0,0,1,.06.29.22.22,0,0,1-.22.09l-.14-.06a.21.21,0,0,1-.06-.29A.22.22,0,0,1,1227.54,54.2Z" transform="translate(133.79)"/>
          <path class="cls-58" d="M1227.62,54.34l.08.06a.21.21,0,1,1-.25.33l-.08-.06C1227.16,54.5,1227.41,54.16,1227.62,54.34Z" transform="translate(133.79)"/>
          <path class="cls-58" d="M1228.49,55.15a.21.21,0,0,1,.21.21.23.23,0,0,1-.15.2.21.21,0,0,1-.21-.21A.23.23,0,0,1,1228.49,55.15Z" transform="translate(133.79)"/>
          <path class="cls-58" d="M1215.16,40.91l.26.15a.21.21,0,0,1,0,.29.22.22,0,0,1-.3,0l-.26-.15a.2.2,0,0,1,0-.28h0a.22.22,0,0,1,.3,0Z" transform="translate(133.79)"/>
          <path class="cls-58" d="M1216.57,41.39l.22.12a.21.21,0,0,1,.16.25.21.21,0,0,1-.25.16l-.07,0-.22-.12a.22.22,0,0,1-.11-.27.2.2,0,0,1,.26-.11Z" transform="translate(133.79)"/>
          <path class="cls-58" d="M1217.71,42.18l.19.16a.21.21,0,1,1-.25.33l-.19-.15C1217.25,42.34,1217.5,42,1217.71,42.18Z" transform="translate(133.79)"/>
          <path class="cls-58" d="M1208.92,57.16l.09.27c.09.26-.3.42-.38.17l-.1-.27C1208.44,57.08,1208.83,56.91,1208.92,57.16Z" transform="translate(133.79)"/>
          <path class="cls-58" d="M1206.71,56l.25.09c.26.09.1.47-.16.39l-.25-.09C1206.29,56.3,1206.45,55.92,1206.71,56Z" transform="translate(133.79)"/>
          <path class="cls-58" d="M1209.9,58.14l.15.13a.21.21,0,1,1-.26.33l-.15-.13C1209.43,58.3,1209.69,58,1209.9,58.14Z" transform="translate(133.79)"/>
          <path class="cls-58" d="M1205.22,56.08l.19.08a.21.21,0,0,1,.06.29.22.22,0,0,1-.22.09l-.19-.08a.21.21,0,0,1-.06-.29A.22.22,0,0,1,1205.22,56.08Z" transform="translate(133.79)"/>
          <path class="cls-58" d="M1213,64.36l.15.13c.21.17-.05.5-.26.33l-.15-.13A.21.21,0,1,1,1213,64.36Z" transform="translate(133.79)"/>
          <path class="cls-58" d="M1214.16,65h0a.21.21,0,1,1-.25.33h0C1213.7,65.19,1214,64.85,1214.16,65Z" transform="translate(133.79)"/>
          <path class="cls-58" d="M1215.19,65.88l.11.09a.21.21,0,1,1-.25.34l-.11-.1C1214.73,66,1215,65.7,1215.19,65.88Z" transform="translate(133.79)"/>
          <path class="cls-58" d="M1217.62,57.31l.15.13a.21.21,0,1,1-.25.33l-.16-.13C1217.16,57.47,1217.41,57.14,1217.62,57.31Z" transform="translate(133.79)"/>
          <path class="cls-59" d="M1226.84,42.54a14.55,14.55,0,0,1,2,20.48l-.17.2a14.86,14.86,0,0,1-9.52,5.11,14.64,14.64,0,0,0,9-5,14.37,14.37,0,0,0-1.57-20.26l-.21-.18a14.81,14.81,0,0,0-20.69,1.76c.09-.12.18-.23.28-.34A15,15,0,0,1,1226.84,42.54Z" transform="translate(133.79)"/>
          <path class="cls-60" d="M1218.36,52.09c4.7,3.71,7,9.23,5.87,14.65A15,15,0,0,1,1207.71,65,14.57,14.57,0,0,1,1203,49.6,15.14,15.14,0,0,1,1218.36,52.09Z" transform="translate(133.79)"/>
          <path class="cls-61" d="M1208.62,64.93c4.21,3,10.24,2.86,12.89-.73s-.58-6-4.75-9.9c-3.43-3.17-8.87-5.45-11.52-1.86S1204.4,61.93,1208.62,64.93Z" transform="translate(133.79)"/>
          <path class="cls-62" d="M1234.2,69.34a12.62,12.62,0,0,1-1.77-.58,38.59,38.59,0,0,1-4.54-2.29c-.53-.31-1.08-.65-1.65-1l.23-.17c.53.33,1,.64,1.54.93a33.15,33.15,0,0,0,4.49,2.27,12.83,12.83,0,0,0,1.72.57c2.12.48,2.71-.36,1.88-2.24a11.92,11.92,0,0,0-.87-1.56,32.68,32.68,0,0,0-3.09-3.94q-.63-.7-1.35-1.47-1.47-1.55-3.24-3.23c-1.76-1.66-3.71-3.41-5.82-5.21s-4.39-3.65-6.8-5.48c-1.92-1.46-3.93-2.92-6-4.29l-1.61-1a38.08,38.08,0,0,0-4.18-2.24,13.2,13.2,0,0,0-2.19-.76,4.9,4.9,0,0,0-1.08-.12c-1.23,0-1.22,1.13-.75,2.25a12.58,12.58,0,0,0,1.11,2,34.72,34.72,0,0,0,2.89,3.73c.37.43.75.84,1.13,1.26,0,.08-.09.17-.14.26-.4-.45-.81-.9-1.2-1.36s-1-1.22-1.52-1.85a16.53,16.53,0,0,1-1.4-1.93,14,14,0,0,1-1.15-2.07c-.56-1.34-.5-2.56,1-2.62a4.6,4.6,0,0,1,1.17.11,14.07,14.07,0,0,1,2.28.73c.74.3,1.47.65,2.18,1s1.43.74,2.12,1.13,1.28.74,1.91,1.13c2.08,1.27,4.07,2.62,6,4,2.47,1.81,4.78,3.64,6.9,5.48s4.06,3.63,5.77,5.37q1.62,1.62,3,3.14c.53.6,1,1.18,1.51,1.74a38.54,38.54,0,0,1,3,4.08,12.86,12.86,0,0,1,.87,1.64C1237.4,69.07,1236.37,69.85,1234.2,69.34Z" transform="translate(133.79)"/>
        </g>
        <path class="cls-63" d="M147.76,219.93c.73.7-21.46,24.27-22.75,25.57s-2.92,1.78-3.64,1.08-.28-2.32,1-3.62S147,219.23,147.76,219.93Z" transform="translate(133.79)"/>
        <path class="cls-63" d="M387.12,118.78c.73.7-21.46,24.27-22.75,25.57s-2.92,1.78-3.64,1.08-.28-2.32,1-3.62S386.4,118.08,387.12,118.78Z" transform="translate(133.79)"/>
        <path class="cls-63" d="M453.68,297.06c.73.7-21.46,24.27-22.75,25.57s-2.92,1.78-3.64,1.08-.28-2.32,1-3.62S453,296.35,453.68,297.06Z" transform="translate(133.79)"/>
        <path class="cls-63" d="M649.52,130.16c.73.7-21.46,24.27-22.75,25.57s-2.92,1.78-3.64,1.08-.28-2.32,1-3.62S648.8,129.46,649.52,130.16Z" transform="translate(133.79)"/>
        <path class="cls-63" d="M814.64,227.52c.73.7-21.46,24.27-22.75,25.57s-2.92,1.78-3.64,1.08-.28-2.33,1-3.62S813.92,226.81,814.64,227.52Z" transform="translate(133.79)"/>
        <path class="cls-63" d="M914.48,103.61c.73.7-21.46,24.27-22.75,25.57s-2.92,1.78-3.64,1.08-.28-2.33,1-3.62S913.76,102.9,914.48,103.61Z" transform="translate(133.79)"/>
        <path class="cls-63" d="M1029.68,249c.73.7-21.46,24.27-22.75,25.57s-2.92,1.79-3.64,1.08-.28-2.32,1-3.62S1029,248.31,1029.68,249Z" transform="translate(133.79)"/>
        <path class="cls-63" d="M1118,55.56c.73.7-21.46,24.27-22.75,25.57s-2.92,1.78-3.64,1.08-.28-2.32,1-3.62S1117.28,54.86,1118,55.56Z" transform="translate(133.79)"/>
        <path class="cls-63" d="M1283.12,26.48c.73.7-21.46,24.27-22.75,25.57s-2.92,1.78-3.64,1.08-.28-2.32,1-3.62S1282.4,25.78,1283.12,26.48Z" transform="translate(133.79)"/>
        <path class="cls-63" d="M1319,134c.73.7-21.46,24.27-22.75,25.57s-2.92,1.79-3.64,1.08-.28-2.32,1-3.62S1318.24,133.25,1319,134Z" transform="translate(133.79)"/>
        <path class="cls-63" d="M1564.72,15.1c.73.7-21.46,24.27-22.75,25.57s-2.92,1.78-3.64,1.08-.28-2.32,1-3.62S1564,14.4,1564.72,15.1Z" transform="translate(133.79)"/>
        <path class="cls-63" d="M1558.32,212.34c.73.71-21.46,24.28-22.75,25.58s-2.92,1.78-3.64,1.08-.28-2.33,1-3.63S1557.6,211.64,1558.32,212.34Z" transform="translate(133.79)"/>
        <path class="cls-63" d="M239.92,345.1c.73.71-21.46,24.28-22.75,25.58s-2.92,1.78-3.64,1.08-.28-2.33,1-3.63S239.2,344.4,239.92,345.1Z" transform="translate(133.79)"/>
      </g>
    </g>
  </g>
</svg>
