<svg id="Layer_1" data-name="Layer 1" xmlns="http://www.w3.org/2000/svg" xmlns:xlink="http://www.w3.org/1999/xlink" width="1676.03" height="913.64" viewBox="0 0 1676.03 913.64">
  <defs>
    <style>
      .cls-1 {
        fill: none;
      }

      .cls-2 {
        clip-path: url(#clip-path);
      }

      .cls-3 {
        fill: #181c3e;
      }

      .cls-4 {
        opacity: 0.6;
      }

      .cls-5 {
        fill: #fddb01;
      }

      .cls-6 {
        fill: #fabc14;
      }

      .cls-7 {
        fill: #f78e1e;
      }

      .cls-8, .cls-9 {
        fill: #febe41;
      }

      .cls-38, .cls-47, .cls-48, .cls-49, .cls-51, .cls-8 {
        isolation: isolate;
      }

      .cls-8 {
        opacity: 0.44;
      }

      .cls-10 {
        fill: #f37221;
      }

      .cls-11 {
        fill: #df9c26;
      }

      .cls-12 {
        fill: #e9a023;
      }

      .cls-13 {
        fill: #efa325;
      }

      .cls-14 {
        fill: #cc962b;
      }

      .cls-15 {
        fill: #fbd725;
      }

      .cls-16, .cls-51 {
        opacity: 0.5;
      }

      .cls-17 {
        opacity: 0.8;
      }

      .cls-18 {
        opacity: 0.77;
      }

      .cls-19 {
        fill: #f4ecf5;
      }

      .cls-20 {
        opacity: 0.76;
      }

      .cls-21 {
        opacity: 0.81;
      }

      .cls-22 {
        fill: #faf0bd;
      }

      .cls-23 {
        opacity: 0.57;
      }

      .cls-24 {
        opacity: 0.88;
      }

      .cls-25 {
        opacity: 0.79;
      }

      .cls-26 {
        opacity: 0.78;
      }

      .cls-27 {
        fill: #a6def2;
      }

      .cls-28 {
        opacity: 0.92;
      }

      .cls-29 {
        fill: #bbe5f1;
      }

      .cls-30 {
        opacity: 0.9;
      }

      .cls-31 {
        opacity: 0.89;
      }

      .cls-32 {
        opacity: 0.7;
      }

      .cls-33 {
        fill: #f8e8a9;
      }

      .cls-34, .cls-38 {
        opacity: 0.3;
      }

      .cls-35 {
        fill: #131234;
      }

      .cls-36, .cls-38 {
        fill: #111222;
      }

      .cls-37 {
        fill: #141234;
      }

      .cls-39 {
        fill: #11122b;
      }

      .cls-40 {
        opacity: 0.4;
      }

      .cls-41 {
        fill: #63b7e6;
      }

      .cls-42 {
        fill: #4faecf;
      }

      .cls-43 {
        fill: #205fac;
      }

      .cls-44 {
        fill: #7dcff4;
      }

      .cls-45 {
        fill: #449ed8;
      }

      .cls-46 {
        fill: #acd8f4;
      }

      .cls-47, .cls-48 {
        fill: #fff;
      }

      .cls-47 {
        opacity: 0.24;
      }

      .cls-48 {
        opacity: 0.15;
      }

      .cls-49 {
        opacity: 0.39;
        fill: url(#radial-gradient);
      }

      .cls-50 {
        fill: url(#linear-gradient);
      }

      .cls-51 {
        fill: #c8c0e0;
      }
    </style>
    <clipPath id="clip-path" transform="translate(0 13.64)">
      <rect class="cls-1" width="1600" height="900"/>
    </clipPath>
    <radialGradient id="radial-gradient" cx="1809.65" cy="-2478.89" r="54.39" gradientTransform="matrix(0.05, 0.26, -0.27, -0.01, 414.28, -420.06)" gradientUnits="userSpaceOnUse">
      <stop offset="0.23" stop-color="#fff"/>
      <stop offset="1" stop-color="#f3faf8"/>
    </radialGradient>
    <linearGradient id="linear-gradient" x1="922.37" y1="1992.77" x2="930.3" y2="1987.13" gradientTransform="translate(-9.42 -1784.1) rotate(-8.05)" gradientUnits="userSpaceOnUse">
      <stop offset="0" stop-color="#6b7dbd"/>
      <stop offset="1" stop-color="#fff"/>
    </linearGradient>
  </defs>
  <g class="cls-2">
    <g>
      <rect class="cls-3" y="13.64" width="1600" height="900"/>
      <g class="cls-4">
        <path class="cls-5" d="M517,242.7a16.72,16.72,0,0,0,4.54-.8l.5,1.66a28.83,28.83,0,0,1-4.14,1.31A5.54,5.54,0,0,1,517,242.7Z" transform="translate(0 13.64)"/>
        <path class="cls-6" d="M521.54,241.9a16.72,16.72,0,0,1-4.54.8,6.45,6.45,0,0,0,.53,1.55,10.52,10.52,0,0,0,3.26-.84.86.86,0,0,1,1,.26l.3-.11Z" transform="translate(0 13.64)"/>
        <g>
          <path class="cls-5" d="M528.48,228.74s1.27.17,2.28.41c0,0,.64,3.06.34,4.18a17.32,17.32,0,0,1-3,1.3Z" transform="translate(0 13.64)"/>
          <path class="cls-6" d="M528.11,234.63a10.41,10.41,0,0,0,1.07-.37,5.22,5.22,0,0,0,.76-1.82,7.1,7.1,0,0,1,.94-2.63c-.07-.4-.12-.66-.12-.66-1-.24-2.28-.41-2.28-.41Z" transform="translate(0 13.64)"/>
        </g>
        <g>
          <path class="cls-7" d="M526.64,238.54a13.31,13.31,0,0,1-18.52,2.27,12.91,12.91,0,0,1-2.45-18.09l.15-.19a13.32,13.32,0,0,1,18.52-2.26,12.91,12.91,0,0,1,2.45,18.08Z" transform="translate(0 13.64)"/>
          <path class="cls-8" d="M524.28,238.7c-3.37,1.13-7.59-2.24-9.41-7.54s-.56-10.51,2.81-11.64,7.59,2.25,9.41,7.54S527.66,237.57,524.28,238.7Z" transform="translate(0 13.64)"/>
          <path class="cls-9" d="M524.33,235.33c-2.37.79-5.32-1.57-6.6-5.28s-.39-7.36,2-8.16,5.32,1.58,6.59,5.29S526.69,234.54,524.33,235.33Z" transform="translate(0 13.64)"/>
          <path class="cls-10" d="M511.91,240.64a12.9,12.9,0,0,1-2.44-18.08l.15-.19a13.1,13.1,0,0,1,7.93-4.79,13.28,13.28,0,0,0-11.73,4.95,12.91,12.91,0,0,0,2.11,18.13l.19.15a13.3,13.3,0,0,0,10.59,2.52A13.23,13.23,0,0,1,511.91,240.64Z" transform="translate(0 13.64)"/>
        </g>
        <g>
          <path class="cls-11" d="M526.67,228c-.37.31-1.21-.05-1.86-.81s-.87-1.62-.5-1.94,1.21.05,1.86.81S527,227.69,526.67,228Z" transform="translate(0 13.64)"/>
          <path class="cls-12" d="M526.53,227.9c-.24.11-.62-.21-.83-.7s-.2-1,0-1.08.62.21.84.71S526.77,227.8,526.53,227.9Z" transform="translate(0 13.64)"/>
          <path class="cls-13" d="M526.53,227.65c-.15.07-.4-.13-.54-.45s-.12-.64,0-.7.4.13.54.45S526.69,227.58,526.53,227.65Z" transform="translate(0 13.64)"/>
          <path class="cls-14" d="M525.32,227.25c-.65-.76-.88-1.63-.51-1.94a.4.4,0,0,1,.21-.09.7.7,0,0,0-.71,0c-.37.32-.15,1.18.5,1.94a2.08,2.08,0,0,0,1.65.9A2.88,2.88,0,0,1,525.32,227.25Z" transform="translate(0 13.64)"/>
        </g>
        <g>
          <path class="cls-11" d="M524.58,237.35c-.59,1-1.43,1.49-1.87,1.22s-.31-1.25.28-2.19,1.43-1.49,1.87-1.22S525.18,236.41,524.58,237.35Z" transform="translate(0 13.64)"/>
          <path class="cls-14" d="M523.27,238.44c-.44-.27-.31-1.25.28-2.2a3.27,3.27,0,0,1,1.14-1.14c-.46-.07-1.17.44-1.7,1.28s-.72,1.92-.28,2.19a.79.79,0,0,0,.73-.07A.49.49,0,0,1,523.27,238.44Z" transform="translate(0 13.64)"/>
          <path class="cls-5" d="M522.71,238.57c-.44-.27-.31-1.25.28-2.19s1.43-1.49,1.87-1.22a4.12,4.12,0,0,0-1.66-2.32s-3.66,2.39-3.12,6.5Z" transform="translate(0 13.64)"/>
          <path class="cls-6" d="M524.66,234.6h0a2,2,0,0,0-.1-.21l-.06-.12c-.06-.1-.11-.2-.18-.3v-.05l-.22-.3-.06-.07c-.1-.11-.2-.22-.31-.32l-.08-.06a3,3,0,0,0-.4-.3s-3.66,2.39-3.12,6.5l.19-.05C521.66,234.6,523.8,234,524.66,234.6Z" transform="translate(0 13.64)"/>
          <path class="cls-15" d="M522.87,236.1a21.52,21.52,0,0,0-.79,2.16c-.2.77-.57.66-1.08.5S523.72,234.25,522.87,236.1Z" transform="translate(0 13.64)"/>
          <path class="cls-12" d="M524.82,236.67c-.24.62-.63,1.05-.87,1s-.25-.67,0-1.29.63-1,.87-1S525.06,236.05,524.82,236.67Z" transform="translate(0 13.64)"/>
          <path class="cls-13" d="M524.72,236.65c-.13.33-.34.57-.47.52s-.14-.36,0-.7.34-.56.47-.52S524.85,236.31,524.72,236.65Z" transform="translate(0 13.64)"/>
        </g>
        <g>
          <path class="cls-11" d="M525.17,221.83c-.4.51-1.83.08-3.19-1s-2.13-2.3-1.72-2.81,1.83-.08,3.18,1S525.57,221.32,525.17,221.83Z" transform="translate(0 13.64)"/>
          <path class="cls-14" d="M522.73,220.87c-1.36-1-2.13-2.3-1.73-2.81a.47.47,0,0,1,.27-.16c-.47-.1-.84-.07-1,.15-.41.51.37,1.77,1.72,2.81a4,4,0,0,0,2.93,1.13A5.7,5.7,0,0,1,522.73,220.87Z" transform="translate(0 13.64)"/>
          <path class="cls-12" d="M524.59,221.42c-.3.26-1,0-1.49-.64s-.7-1.31-.4-1.56,1,0,1.49.65S524.89,221.17,524.59,221.42Z" transform="translate(0 13.64)"/>
          <path class="cls-13" d="M524.49,221.06c-.2.17-.63,0-1-.42s-.45-.85-.26-1,.63,0,1,.42S524.69,220.9,524.49,221.06Z" transform="translate(0 13.64)"/>
        </g>
        <g>
          <path class="cls-5" d="M525.17,221.83c-.4.51-1.83.08-3.19-1s-2.13-2.3-1.72-2.81a10.59,10.59,0,0,1-2.09,1.55,16.14,16.14,0,0,0,6.51,4.24Z" transform="translate(0 13.64)"/>
          <path class="cls-6" d="M520,220.45a1.38,1.38,0,0,1,.2-1.69,1.14,1.14,0,0,1-.07-.32v-.2a.46.46,0,0,1,.08-.19,10.59,10.59,0,0,1-2.09,1.55,16.14,16.14,0,0,0,6.51,4.24v-.13A30.41,30.41,0,0,1,520,220.45Z" transform="translate(0 13.64)"/>
          <path class="cls-15" d="M522.07,221.25a8.47,8.47,0,0,0,2.26,1c.62,0,.58,1,.26,1.08S520.54,220.47,522.07,221.25Z" transform="translate(0 13.64)"/>
        </g>
        <g>
          <path class="cls-11" d="M514.14,224.25c-.66.47-1.4.55-1.66.2s.08-1,.74-1.47,1.41-.55,1.66-.2S514.8,223.79,514.14,224.25Z" transform="translate(0 13.64)"/>
          <path class="cls-14" d="M513,224.33c-.26-.36.07-1,.74-1.48a2.53,2.53,0,0,1,.51-.28,2.44,2.44,0,0,0-1,.41c-.66.46-1,1.12-.74,1.47s.65.28,1.15.08A.7.7,0,0,1,513,224.33Z" transform="translate(0 13.64)"/>
          <path class="cls-12" d="M514.48,223.73c-.29.24-.66.27-.82.07s-.07-.54.22-.78a.62.62,0,0,1,.82-.07A.58.58,0,0,1,514.48,223.73Z" transform="translate(0 13.64)"/>
          <path class="cls-13" d="M514.46,223.55a.34.34,0,0,1-.46,0c-.09-.11,0-.3.13-.43a.29.29,0,0,1,.45,0C514.67,223.27,514.62,223.42,514.46,223.55Z" transform="translate(0 13.64)"/>
        </g>
        <g>
          <path class="cls-11" d="M507.83,242.11c-.14.17-1-.24-1.84-.92s-1.48-1.36-1.35-1.53,1,.24,1.84.91S508,241.93,507.83,242.11Z" transform="translate(0 13.64)"/>
          <path class="cls-14" d="M506.32,241.29c-.87-.68-1.48-1.36-1.34-1.53s.08,0,.14,0c-.24-.1-.42-.13-.48-.06a4,4,0,0,0,1.35,1.53,4.79,4.79,0,0,0,1.69,1A6.78,6.78,0,0,1,506.32,241.29Z" transform="translate(0 13.64)"/>
          <path class="cls-5" d="M504.64,239.66c.14-.17,1,.24,1.84.91s1.48,1.36,1.35,1.54l2.09-.56-4.84-4.64Z" transform="translate(0 13.64)"/>
          <path class="cls-6" d="M505.57,239.08a2.66,2.66,0,0,1,.12-1.58l-.61-.59-.44,2.75c.14-.17,1,.24,1.84.91s1.48,1.36,1.35,1.54l.6-.17C507.65,240.89,505.79,239.61,505.57,239.08Z" transform="translate(0 13.64)"/>
          <path class="cls-15" d="M508.31,240.25a4.69,4.69,0,0,1,1,1.13c.11.33-.32.33-.73.33S507.27,239.28,508.31,240.25Z" transform="translate(0 13.64)"/>
          <path class="cls-12" d="M507.65,242c-.09.11-.59-.17-1.11-.62s-.88-.89-.79-1,.58.18,1.11.62S507.74,241.88,507.65,242Z" transform="translate(0 13.64)"/>
          <path class="cls-13" d="M507.49,241.84c-.06.08-.41-.12-.78-.44s-.62-.62-.56-.7.42.13.79.44S507.56,241.77,507.49,241.84Z" transform="translate(0 13.64)"/>
        </g>
        <g>
          <g>
            <path class="cls-5" d="M510.31,217.82c.44.48-.17,1.73-1.37,2.81s-2.51,1.56-2.95,1.08a9.65,9.65,0,0,1,.45,1.91l6-4.42Z" transform="translate(0 13.64)"/>
            <path class="cls-6" d="M509.7,220.41a3.6,3.6,0,0,0,1.1-2.27l-.49-.32c.44.48-.17,1.73-1.37,2.81s-2.51,1.56-2.95,1.08a9.65,9.65,0,0,1,.45,1.91l.78-.58C506.9,222.21,508.65,221.33,509.7,220.41Z" transform="translate(0 13.64)"/>
            <path class="cls-15" d="M511.19,218.71s.69.39.74.58-1.1.75-1.41,1S510.78,218.49,511.19,218.71Z" transform="translate(0 13.64)"/>
          </g>
          <g>
            <path class="cls-11" d="M508.94,220.63c-1.19,1.07-2.51,1.56-2.95,1.08s.17-1.73,1.37-2.8,2.51-1.56,2.95-1.09S510.14,219.55,508.94,220.63Z" transform="translate(0 13.64)"/>
            <path class="cls-14" d="M506.49,221.68c-.44-.48.18-1.73,1.37-2.81a5.26,5.26,0,0,1,2.08-1.21,3.92,3.92,0,0,0-2.58,1.25c-1.2,1.07-1.81,2.33-1.37,2.8a.88.88,0,0,0,.88.13A.68.68,0,0,1,506.49,221.68Z" transform="translate(0 13.64)"/>
            <path class="cls-12" d="M509.29,220c-.78.78-1.67,1.15-2,.84s.06-1.19.84-2,1.67-1.15,2-.84S510.07,219.21,509.29,220Z" transform="translate(0 13.64)"/>
            <path class="cls-13" d="M509.38,219.49c-.46.46-1,.69-1.18.5s0-.71.5-1.17,1-.69,1.18-.51S509.85,219,509.38,219.49Z" transform="translate(0 13.64)"/>
          </g>
        </g>
        <g>
          <path class="cls-5" d="M508.78,224.8c.28.44-.1,1.17-.85,1.63s-1.58.5-1.86.07a5.84,5.84,0,0,0,.08,1.77,8.74,8.74,0,0,0,4.14-2.74Z" transform="translate(0 13.64)"/>
          <path class="cls-6" d="M507.8,227a3.61,3.61,0,0,0,1.4-1.94l-.42-.21c.28.44-.1,1.17-.85,1.63s-1.58.5-1.86.07a5.84,5.84,0,0,0,.08,1.77l.38-.13C506.59,227.71,506.89,227.47,507.8,227Z" transform="translate(0 13.64)"/>
          <path class="cls-15" d="M509.43,225.28s.51.19.59.32-.95,1-1.15,1.13S509.15,225.2,509.43,225.28Z" transform="translate(0 13.64)"/>
        </g>
        <g>
          <path class="cls-11" d="M507.93,226.43c-.75.47-1.58.5-1.86.07s.1-1.16.85-1.63,1.58-.5,1.86-.07S508.68,226,507.93,226.43Z" transform="translate(0 13.64)"/>
          <path class="cls-14" d="M506.59,226.34c-.28-.43.1-1.16.85-1.63a2.21,2.21,0,0,1,.34-.18,2.38,2.38,0,0,0-.86.34c-.75.47-1.13,1.2-.85,1.63s.87.4,1.52.11A.94.94,0,0,1,506.59,226.34Z" transform="translate(0 13.64)"/>
          <path class="cls-12" d="M508.44,225.81a.8.8,0,0,1-1,.31.78.78,0,0,1,.05-1.07c.31-.38.77-.52,1-.31A.78.78,0,0,1,508.44,225.81Z" transform="translate(0 13.64)"/>
          <path class="cls-13" d="M508.46,225.49c-.17.22-.44.3-.59.18a.44.44,0,0,1,0-.6c.17-.22.44-.3.59-.18A.43.43,0,0,1,508.46,225.49Z" transform="translate(0 13.64)"/>
        </g>
        <g>
          <g>
            <path class="cls-11" d="M508.53,237.06c-.3.19-1-.42-1.68-1.37s-.9-1.87-.61-2.06,1.05.42,1.68,1.37S508.82,236.87,508.53,237.06Z" transform="translate(0 13.64)"/>
            <path class="cls-14" d="M507.16,235.83c-.63-.94-.9-1.87-.61-2.06a.31.31,0,0,1,.23,0c-.23-.15-.42-.21-.54-.13-.29.19,0,1.11.61,2.06a3.33,3.33,0,0,0,1.45,1.38A4.53,4.53,0,0,1,507.16,235.83Z" transform="translate(0 13.64)"/>
            <path class="cls-12" d="M508.44,236.83c-.18.1-.61-.29-1-.88s-.49-1.15-.31-1.26.61.3,1,.89S508.62,236.73,508.44,236.83Z" transform="translate(0 13.64)"/>
            <path class="cls-13" d="M508.34,236.65c-.12.07-.43-.21-.67-.63s-.35-.81-.22-.88.43.2.67.62S508.47,236.57,508.34,236.65Z" transform="translate(0 13.64)"/>
          </g>
          <g>
            <path class="cls-5" d="M506.24,233.63c.3-.19,1.05.42,1.68,1.37s.9,1.87.61,2.06l1.72-.07-2.79-4.93Z" transform="translate(0 13.64)"/>
            <path class="cls-6" d="M509.12,237c-.1-1.14-1.36-2.69-1.59-3.2a1.19,1.19,0,0,1,.3-1.12l-.37-.66-1.22,1.57c.3-.19,1.05.42,1.68,1.37s.9,1.87.61,2.06Z" transform="translate(0 13.64)"/>
            <path class="cls-15" d="M509.22,235.52a5.07,5.07,0,0,1,.57,1.17c0,.19-.47.09-.6.05S508.63,234.58,509.22,235.52Z" transform="translate(0 13.64)"/>
          </g>
        </g>
      </g>
      <g class="cls-16">
        <g>
          <g class="cls-17">
            <g class="cls-18">
              <path class="cls-19" d="M610.08,441.78l-.13,5.87a1.91,1.91,0,0,0,1,1.84l4.37,1.88-4.61-.16a1.53,1.53,0,0,0-1.44,1.28l-1.48,5.56.12-5.87a1.91,1.91,0,0,0-1-1.84l-4.37-1.88,4.61.16a1.54,1.54,0,0,0,1.44-1.28Z" transform="translate(0 13.64)"/>
            </g>
            <path class="cls-19" d="M454.51,376.21l.83,5.78a1.71,1.71,0,0,0,1.28,1.53l4.59.69-4.54,1.06a1.74,1.74,0,0,0-1.2,1.63l-.55,5.84-.83-5.78a1.66,1.66,0,0,0-1.28-1.53l-4.58-.69,4.54-1.06a1.78,1.78,0,0,0,1.2-1.63Z" transform="translate(0 13.64)"/>
            <g class="cls-20">
              <path class="cls-19" d="M777,198.37l.45,5.89a1.81,1.81,0,0,0,1.18,1.67l4.55,1.18-4.62.58a1.68,1.68,0,0,0-1.31,1.5l-.93,5.79-.45-5.88a1.81,1.81,0,0,0-1.18-1.67l-4.55-1.18,4.62-.58a1.68,1.68,0,0,0,1.31-1.5Z" transform="translate(0 13.64)"/>
            </g>
            <path class="cls-19" d="M930.23,420.92l-.13,5.87a1.91,1.91,0,0,0,1,1.84l4.38,1.88-4.62-.16a1.54,1.54,0,0,0-1.44,1.28l-1.48,5.56.13-5.87a1.91,1.91,0,0,0-1-1.84l-4.37-1.88,4.62.16a1.54,1.54,0,0,0,1.44-1.28Z" transform="translate(0 13.64)"/>
            <g class="cls-21">
              <path class="cls-19" d="M366.4,718l-.13,5.88a1.92,1.92,0,0,0,1,1.83l4.38,1.88-4.62-.16a1.54,1.54,0,0,0-1.44,1.28l-1.48,5.56.13-5.87a1.91,1.91,0,0,0-1-1.83l-4.37-1.89,4.62.16a1.54,1.54,0,0,0,1.44-1.27Z" transform="translate(0 13.64)"/>
            </g>
            <path class="cls-19" d="M155.26,574.84l3.13,4.32a1.28,1.28,0,0,0,1.73.42l4.16-2.54-3.39,4a2.24,2.24,0,0,0-.33,2.19l2,5.3-3.13-4.32a1.27,1.27,0,0,0-1.72-.42l-4.16,2.54,3.39-4a2.29,2.29,0,0,0,.32-2.2Z" transform="translate(0 13.64)"/>
            <path class="cls-22" d="M114,161.06l-4.53,9a4.15,4.15,0,0,0,.21,4.05l5.42,8.16L108,176.51a2.25,2.25,0,0,0-3.16.24l0,0-6.41,6.9,4.53-9a4.15,4.15,0,0,0-.21-4.05l-5.42-8.16,7.06,5.76a2.24,2.24,0,0,0,3.17-.25l0,0Z" transform="translate(0 13.64)"/>
            <g class="cls-23">
              <path class="cls-19" d="M296.65,48l-.15,7a2.32,2.32,0,0,0,1.2,2.19l5.23,2.25-5.52-.19a1.83,1.83,0,0,0-1.72,1.53l-1.77,6.66.15-7a2.28,2.28,0,0,0-1.2-2.19L287.64,56l5.52.2a1.85,1.85,0,0,0,1.72-1.53Z" transform="translate(0 13.64)"/>
            </g>
            <path class="cls-19" d="M1097.11,241.93l-1.7,5.46a2.23,2.23,0,0,0,.44,2.16l3.6,3.68-4.29-2.17a1.29,1.29,0,0,0-1.7.57l-2.89,4.57,1.7-5.46a2.23,2.23,0,0,0-.44-2.16l-3.6-3.68,4.29,2.17a1.29,1.29,0,0,0,1.7-.57Z" transform="translate(0 13.64)"/>
            <path class="cls-19" d="M943.71,73.22l-.8,8.56a3,3,0,0,0,1.27,2.85l6.2,3.5-6.73-1a2.14,2.14,0,0,0-2.24,1.62l-2.75,7.89.8-8.57a3,3,0,0,0-1.27-2.85L932,81.71l6.73,1A2.14,2.14,0,0,0,941,81.1Z" transform="translate(0 13.64)"/>
            <g class="cls-24">
              <path class="cls-19" d="M1198.12,600.65l.33,6.09a1.88,1.88,0,0,0,1.18,1.77l4.67,1.4-4.78.41a1.69,1.69,0,0,0-1.39,1.51l-1.1,5.94-.33-6.09a1.88,1.88,0,0,0-1.18-1.77l-4.67-1.39,4.79-.42a1.72,1.72,0,0,0,1.39-1.5Z" transform="translate(0 13.64)"/>
            </g>
            <path class="cls-22" d="M1176.39,70.28l1.4,5.6a1.57,1.57,0,0,0,1.42,1.31h4.62l-4.4,1.78a1.88,1.88,0,0,0-1,1.81v5.87L1177,81a1.55,1.55,0,0,0-1.42-1.31H1171l4.4-1.78a1.87,1.87,0,0,0,1-1.81Z" transform="translate(0 13.64)"/>
            <path class="cls-19" d="M483.17,812.88l-.2,9.47a3.06,3.06,0,0,0,1.61,2.95l7.05,3-7.44-.26a2.49,2.49,0,0,0-2.32,2.06l-2.38,9,.2-9.47a3.09,3.09,0,0,0-1.61-3l-7.05-3,7.44.26a2.49,2.49,0,0,0,2.32-2.06Z" transform="translate(0 13.64)"/>
            <g class="cls-18">
              <path class="cls-19" d="M91.66,795.13l.19,5.87a1.85,1.85,0,0,0,1.09,1.75l4.47,1.5-4.62.24a1.61,1.61,0,0,0-1.37,1.39l-1.18,5.68-.18-5.87A1.85,1.85,0,0,0,89,804l-4.46-1.51,4.61-.23a1.61,1.61,0,0,0,1.37-1.4Z" transform="translate(0 13.64)"/>
            </g>
            <path class="cls-22" d="M1071.06,797.47l-1.2,5.67a2.15,2.15,0,0,0,.63,2.09l3.91,3.13-4.46-1.53a1.34,1.34,0,0,0-1.64.81l-2.46,5,1.21-5.67a2.18,2.18,0,0,0-.64-2.09l-3.9-3.13,4.45,1.53a1.34,1.34,0,0,0,1.64-.81Z" transform="translate(0 13.64)"/>
            <path class="cls-19" d="M959.88,617.24l3.91,12.4a3.38,3.38,0,0,0,3.4,2.66l10.45-1.11-9.73,5a4.47,4.47,0,0,0-2.09,4.32l.87,13.32-3.92-12.4a3.37,3.37,0,0,0-3.39-2.66l-10.46,1.11,9.74-5a4.53,4.53,0,0,0,2.09-4.33Z" transform="translate(0 13.64)"/>
            <g class="cls-25">
              <path class="cls-19" d="M278.47,392.29l.76,5.8a1.69,1.69,0,0,0,1.25,1.56l4.58.79-4.56,1a1.72,1.72,0,0,0-1.22,1.6l-.62,5.82-.75-5.8a1.71,1.71,0,0,0-1.26-1.55l-4.58-.79,4.56-1a1.75,1.75,0,0,0,1.22-1.6Z" transform="translate(0 13.64)"/>
            </g>
            <path class="cls-19" d="M457.56,163.27l-.36,5.86a2,2,0,0,0,.93,1.9l4.29,2.16-4.6-.46a1.5,1.5,0,0,0-1.49,1.19l-1.69,5.46.35-5.86a2,2,0,0,0-.93-1.89l-4.29-2.16,4.6.45a1.48,1.48,0,0,0,1.49-1.18Z" transform="translate(0 13.64)"/>
            <path class="cls-19" d="M1019.42,490.4l-.13,5.87a1.91,1.91,0,0,0,1,1.84l4.38,1.88-4.62-.16a1.54,1.54,0,0,0-1.44,1.28l-1.48,5.56.13-5.87a1.89,1.89,0,0,0-1-1.83l-4.37-1.89,4.62.16A1.54,1.54,0,0,0,1018,496Z" transform="translate(0 13.64)"/>
            <g class="cls-17">
              <path class="cls-19" d="M17.31,509l-.22,10.17a3.3,3.3,0,0,0,1.74,3.17l7.57,3.26-8-.28a2.67,2.67,0,0,0-2.49,2.21l-2.57,9.64L13.57,527a3.31,3.31,0,0,0-1.73-3.17l-7.57-3.27,8,.28a2.66,2.66,0,0,0,2.5-2.21Z" transform="translate(0 13.64)"/>
            </g>
            <path class="cls-19" d="M1179.58,233.22l-3.7,6.28a3.08,3.08,0,0,0,0,3l3.62,6.36-4.93-4.71a1.64,1.64,0,0,0-2.32,0l0,0-5,4.62,3.7-6.28a3.08,3.08,0,0,0,0-3l-3.62-6.35,4.93,4.71a1.63,1.63,0,0,0,2.32,0l0,0Z" transform="translate(0 13.64)"/>
            <g class="cls-26">
              <path class="cls-19" d="M951.43,324.42l1.35,6.67a1.9,1.9,0,0,0,1.59,1.66l5.41.33-5.25,1.71a2.15,2.15,0,0,0-1.3,2L953,343.7l-1.37-6.7a1.91,1.91,0,0,0-1.6-1.66l-5.4-.33,5.24-1.71a2.14,2.14,0,0,0,1.3-2Z" transform="translate(0 13.64)"/>
            </g>
            <path class="cls-19" d="M1027.77,367.78l-1.86,5.38a2.21,2.21,0,0,0,.38,2.18l3.49,3.85-4.23-2.37a1.28,1.28,0,0,0-1.71.49l-3,4.44,1.86-5.38a2.24,2.24,0,0,0-.38-2.17l-3.49-3.85,4.22,2.37a1.28,1.28,0,0,0,1.71-.49Z" transform="translate(0 13.64)"/>
            <path class="cls-27" d="M736.05,509.1l-1.71,5.46a2.23,2.23,0,0,0,.45,2.16l3.59,3.68-4.29-2.17a1.27,1.27,0,0,0-1.69.57l-2.9,4.57,1.71-5.46a2.23,2.23,0,0,0-.45-2.16l-3.59-3.68,4.29,2.17a1.29,1.29,0,0,0,1.7-.57Z" transform="translate(0 13.64)"/>
            <path class="cls-19" d="M415.18,497.23l1.15,5.69a1.61,1.61,0,0,0,1.36,1.42l4.61.28-4.47,1.46a1.82,1.82,0,0,0-1.11,1.73l-.22,5.87L415.35,508a1.61,1.61,0,0,0-1.36-1.42l-4.61-.28,4.47-1.46A1.82,1.82,0,0,0,415,503.1Z" transform="translate(0 13.64)"/>
            <g class="cls-28">
              <path class="cls-29" d="M469.1,554.32l-.12,5.87a1.91,1.91,0,0,0,1,1.83l4.37,1.89-4.61-.16A1.53,1.53,0,0,0,468.3,565l-1.48,5.57.13-5.88a1.94,1.94,0,0,0-1-1.83L461.57,561l4.61.16a1.54,1.54,0,0,0,1.44-1.28Z" transform="translate(0 13.64)"/>
            </g>
            <path class="cls-19" d="M287.17,658.2l3.35,11.56a3.19,3.19,0,0,0,3.07,2.58l9.67-.67-9.08,4.26a4.08,4.08,0,0,0-2,3.91l.53,12.31-3.35-11.57a3.19,3.19,0,0,0-3.07-2.57l-9.67.67,9.08-4.26a4.11,4.11,0,0,0,2-3.92Z" transform="translate(0 13.64)"/>
            <path class="cls-19" d="M284.93,535l-.13,5.87a1.91,1.91,0,0,0,1,1.84l4.37,1.88-4.61-.16a1.54,1.54,0,0,0-1.44,1.28l-1.48,5.56.13-5.87a1.91,1.91,0,0,0-1-1.83l-4.37-1.89,4.62.16a1.54,1.54,0,0,0,1.44-1.27Z" transform="translate(0 13.64)"/>
            <g class="cls-30">
              <path class="cls-19" d="M231.86,718.47l-.05,5.87a1.93,1.93,0,0,0,1,1.82l4.4,1.79-4.62-.07a1.56,1.56,0,0,0-1.42,1.31l-1.41,5.6.05-5.88a1.88,1.88,0,0,0-1-1.81l-4.4-1.8,4.62.07a1.56,1.56,0,0,0,1.42-1.31Z" transform="translate(0 13.64)"/>
            </g>
            <path class="cls-27" d="M34.75,861.15l1.78,5.42A1.49,1.49,0,0,0,38,867.72l4.59-.58-4.25,2.28a2,2,0,0,0-.9,1.91l.45,5.85-1.79-5.42a1.48,1.48,0,0,0-1.5-1.14l-4.6.57,4.26-2.27a2,2,0,0,0,.9-1.92Z" transform="translate(0 13.64)"/>
            <path class="cls-19" d="M352.25,846.05l-.12,5.87a1.91,1.91,0,0,0,1,1.83l4.37,1.89-4.61-.16a1.53,1.53,0,0,0-1.44,1.27L350,862.32l.12-5.87a1.91,1.91,0,0,0-1-1.84l-4.37-1.88,4.61.16a1.54,1.54,0,0,0,1.44-1.28Z" transform="translate(0 13.64)"/>
            <g class="cls-31">
              <path class="cls-19" d="M719.1,594.87l1.07,7.84a2.29,2.29,0,0,0,1.72,2.09l6.2,1-6.16,1.37a2.37,2.37,0,0,0-1.64,2.18l-.79,7.89-1.07-7.83a2.29,2.29,0,0,0-1.72-2.09l-6.2-1,6.16-1.37a2.37,2.37,0,0,0,1.64-2.19Z" transform="translate(0 13.64)"/>
            </g>
            <path class="cls-19" d="M1001.24,223l1,5.73a1.67,1.67,0,0,0,1.33,1.45l4.61.41-4.5,1.33a1.83,1.83,0,0,0-1.14,1.7l-.32,5.86-1-5.72a1.62,1.62,0,0,0-1.33-1.45l-4.61-.42,4.5-1.33a1.79,1.79,0,0,0,1.14-1.7Z" transform="translate(0 13.64)"/>
            <path class="cls-19" d="M1215.88,24.59l-1.28,5.64a2.16,2.16,0,0,0,.61,2.1l3.86,3.22-4.44-1.63a1.33,1.33,0,0,0-1.64.77l-2.53,4.92,1.28-5.65a2.14,2.14,0,0,0-.61-2.09l-3.86-3.23,4.43,1.64a1.36,1.36,0,0,0,1.65-.78Z" transform="translate(0 13.64)"/>
          </g>
          <g class="cls-32">
            <ellipse class="cls-19" cx="73.07" cy="71.49" rx="1.46" ry="1.86"/>
            <path class="cls-19" d="M174,87.27a1.51,1.51,0,1,1-1.46-1.86A1.69,1.69,0,0,1,174,87.27Z" transform="translate(0 13.64)"/>
            <path class="cls-19" d="M216,211.19a1.51,1.51,0,1,1,0-.73A1.51,1.51,0,0,1,216,211.19Z" transform="translate(0 13.64)"/>
            <path class="cls-19" d="M133.39,451.77a1.5,1.5,0,0,1-2.91-.74,1.51,1.51,0,0,1,1.45-1.13A1.68,1.68,0,0,1,133.39,451.77Z" transform="translate(0 13.64)"/>
            <path class="cls-33" d="M231.63,483.4a1.51,1.51,0,1,1-1.47-1.87A1.7,1.7,0,0,1,231.63,483.4Z" transform="translate(0 13.64)"/>
            <path class="cls-19" d="M257.18,352a1.51,1.51,0,1,1-1.46-1.86A1.71,1.71,0,0,1,257.18,352Z" transform="translate(0 13.64)"/>
            <path class="cls-19" d="M375.9,329.81a1.5,1.5,0,1,1-2.91-.72,1.49,1.49,0,0,1,1.45-1.14A1.7,1.7,0,0,1,375.9,329.81Z" transform="translate(0 13.64)"/>
            <path class="cls-19" d="M459.22,245.86a1.51,1.51,0,1,1-1.46-1.86A1.71,1.71,0,0,1,459.22,245.86Z" transform="translate(0 13.64)"/>
            <path class="cls-19" d="M430.35,142.86a1.51,1.51,0,1,1,0-.73A1.51,1.51,0,0,1,430.35,142.86Z" transform="translate(0 13.64)"/>
            <path class="cls-19" d="M525.21,378.31a1.51,1.51,0,1,1-1.46-1.86A1.71,1.71,0,0,1,525.21,378.31Z" transform="translate(0 13.64)"/>
            <path class="cls-19" d="M567.34,293.13a1.51,1.51,0,1,1-2.93-.72,1.5,1.5,0,0,1,1.47-1.15A1.7,1.7,0,0,1,567.34,293.13Z" transform="translate(0 13.64)"/>
            <path class="cls-33" d="M550.79,152.28a1.51,1.51,0,1,1-1.47-1.86A1.7,1.7,0,0,1,550.79,152.28Z" transform="translate(0 13.64)"/>
            <path class="cls-19" d="M693.21,88.26a1.51,1.51,0,1,1-1.47-1.87A1.7,1.7,0,0,1,693.21,88.26Z" transform="translate(0 13.64)"/>
            <path class="cls-19" d="M849.93,193.38a1.51,1.51,0,1,1-1.47-1.86A1.7,1.7,0,0,1,849.93,193.38Z" transform="translate(0 13.64)"/>
            <path class="cls-19" d="M711.5,322.67a1.51,1.51,0,1,1-1.5-1.87A1.7,1.7,0,0,1,711.5,322.67Z" transform="translate(0 13.64)"/>
            <path class="cls-19" d="M820.27,379.45a1.51,1.51,0,1,1,0-.73A1.51,1.51,0,0,1,820.27,379.45Z" transform="translate(0 13.64)"/>
            <path class="cls-19" d="M897.12,385.74a1.51,1.51,0,1,1-1.46-1.86A1.71,1.71,0,0,1,897.12,385.74Z" transform="translate(0 13.64)"/>
            <path class="cls-19" d="M888.89,230.34a1.5,1.5,0,1,1-2.91-.72,1.49,1.49,0,0,1,1.45-1.14A1.7,1.7,0,0,1,888.89,230.34Z" transform="translate(0 13.64)"/>
            <path class="cls-19" d="M964.58,106.2a1.51,1.51,0,1,1-1.47-1.86A1.7,1.7,0,0,1,964.58,106.2Z" transform="translate(0 13.64)"/>
            <path class="cls-19" d="M1058.58,130.37a1.51,1.51,0,1,1-1.46-1.86A1.7,1.7,0,0,1,1058.58,130.37Z" transform="translate(0 13.64)"/>
            <path class="cls-19" d="M1083.44,193.61a1.51,1.51,0,1,1-1.46-1.86A1.7,1.7,0,0,1,1083.44,193.61Z" transform="translate(0 13.64)"/>
            <path class="cls-19" d="M1086.66,294.42a1.51,1.51,0,1,1-1.47-1.87A1.7,1.7,0,0,1,1086.66,294.42Z" transform="translate(0 13.64)"/>
            <path class="cls-19" d="M1132.18,344.87a1.51,1.51,0,1,1-1.46-1.86A1.7,1.7,0,0,1,1132.18,344.87Z" transform="translate(0 13.64)"/>
            <path class="cls-33" d="M1053.74,497.12a1.51,1.51,0,1,1-2.93-.72,1.5,1.5,0,0,1,1.47-1.15A1.71,1.71,0,0,1,1053.74,497.12Z" transform="translate(0 13.64)"/>
            <path class="cls-19" d="M960.57,523.45a1.51,1.51,0,1,1,0-.73A1.51,1.51,0,0,1,960.57,523.45Z" transform="translate(0 13.64)"/>
            <path class="cls-27" d="M793.12,707.32a1.51,1.51,0,1,1-1.47-1.86A1.7,1.7,0,0,1,793.12,707.32Z" transform="translate(0 13.64)"/>
            <path class="cls-19" d="M662.17,619.05a1.51,1.51,0,1,1,0-.73A1.51,1.51,0,0,1,662.17,619.05Z" transform="translate(0 13.64)"/>
            <ellipse class="cls-19" cx="618.72" cy="530.64" rx="1.46" ry="1.86"/>
            <path class="cls-19" d="M552.42,501.21a1.51,1.51,0,1,1-1.46-1.86A1.7,1.7,0,0,1,552.42,501.21Z" transform="translate(0 13.64)"/>
            <path class="cls-19" d="M532.75,619.05a1.51,1.51,0,1,1,0-.73A1.51,1.51,0,0,1,532.75,619.05Z" transform="translate(0 13.64)"/>
            <path class="cls-19" d="M447,629.48a1.51,1.51,0,1,1-1.46-1.86A1.7,1.7,0,0,1,447,629.48Z" transform="translate(0 13.64)"/>
            <path class="cls-19" d="M391.69,579.92a1.51,1.51,0,1,1-1.47-1.87A1.7,1.7,0,0,1,391.69,579.92Z" transform="translate(0 13.64)"/>
            <path class="cls-19" d="M353.39,585.3a1.51,1.51,0,1,1-1.46-1.86A1.71,1.71,0,0,1,353.39,585.3Z" transform="translate(0 13.64)"/>
            <path class="cls-19" d="M183,728.39a1.5,1.5,0,0,1-2.91-.74,1.51,1.51,0,0,1,1.45-1.13A1.68,1.68,0,0,1,183,728.39Z" transform="translate(0 13.64)"/>
            <path class="cls-19" d="M160,637.89a1.5,1.5,0,1,1-1.5-1.89,1.69,1.69,0,0,1,1.5,1.86Z" transform="translate(0 13.64)"/>
            <path class="cls-19" d="M107.17,566.21a1.5,1.5,0,1,1-2.91-.72,1.49,1.49,0,0,1,1.45-1.14A1.69,1.69,0,0,1,107.17,566.21Z" transform="translate(0 13.64)"/>
            <path class="cls-19" d="M71.27,573.49a1.51,1.51,0,1,1-2.93-.72,1.5,1.5,0,0,1,1.47-1.15A1.7,1.7,0,0,1,71.27,573.49Z" transform="translate(0 13.64)"/>
            <ellipse class="cls-19" cx="55.8" cy="635.84" rx="1.46" ry="1.86"/>
            <path class="cls-33" d="M74.86,715.83A1.51,1.51,0,1,1,73.39,714,1.7,1.7,0,0,1,74.86,715.83Z" transform="translate(0 13.64)"/>
            <path class="cls-19" d="M150,805.3a1.5,1.5,0,1,1-2.91-.72,1.49,1.49,0,0,1,1.45-1.14A1.69,1.69,0,0,1,150,805.3Z" transform="translate(0 13.64)"/>
            <path class="cls-19" d="M256.43,790.55a1.51,1.51,0,1,1-1.47-1.87A1.7,1.7,0,0,1,256.43,790.55Z" transform="translate(0 13.64)"/>
            <path class="cls-19" d="M343.69,726.44a1.51,1.51,0,1,1-1.47-1.86A1.7,1.7,0,0,1,343.69,726.44Z" transform="translate(0 13.64)"/>
            <path class="cls-19" d="M406.41,678.12a1.51,1.51,0,1,1-1.46-1.86A1.7,1.7,0,0,1,406.41,678.12Z" transform="translate(0 13.64)"/>
            <path class="cls-19" d="M485.7,728.6a1.51,1.51,0,1,1-2.93-.72,1.5,1.5,0,0,1,1.47-1.15A1.7,1.7,0,0,1,485.7,728.6Z" transform="translate(0 13.64)"/>
            <path class="cls-19" d="M559.06,785.33a1.51,1.51,0,1,1-1.46-1.86A1.7,1.7,0,0,1,559.06,785.33Z" transform="translate(0 13.64)"/>
            <path class="cls-19" d="M664.57,758.86a1.5,1.5,0,1,1-2.91-.72,1.49,1.49,0,0,1,1.45-1.14A1.69,1.69,0,0,1,664.57,758.86Z" transform="translate(0 13.64)"/>
            <path class="cls-33" d="M831.82,781.05a1.51,1.51,0,1,1-1.47-1.87A1.7,1.7,0,0,1,831.82,781.05Z" transform="translate(0 13.64)"/>
            <path class="cls-27" d="M872.53,786.27a1.51,1.51,0,1,1-1.47-1.86A1.7,1.7,0,0,1,872.53,786.27Z" transform="translate(0 13.64)"/>
            <path class="cls-19" d="M1023.94,756.7a1.51,1.51,0,1,1-1.47-1.86A1.7,1.7,0,0,1,1023.94,756.7Z" transform="translate(0 13.64)"/>
            <path class="cls-19" d="M1071.81,633.74a1.51,1.51,0,1,1-1.46-1.86A1.69,1.69,0,0,1,1071.81,633.74Z" transform="translate(0 13.64)"/>
            <path class="cls-19" d="M1139.64,641.06a1.51,1.51,0,1,1,0-.73A1.51,1.51,0,0,1,1139.64,641.06Z" transform="translate(0 13.64)"/>
            <path class="cls-19" d="M1168.4,775.4a1.51,1.51,0,1,1-1.47-1.86A1.71,1.71,0,0,1,1168.4,775.4Z" transform="translate(0 13.64)"/>
            <path class="cls-19" d="M822,607.46a1.51,1.51,0,1,1-1.47-1.86A1.7,1.7,0,0,1,822,607.46Z" transform="translate(0 13.64)"/>
            <path class="cls-19" d="M867.36,518.16a1.51,1.51,0,1,1-1.47-1.86A1.7,1.7,0,0,1,867.36,518.16Z" transform="translate(0 13.64)"/>
            <path class="cls-19" d="M7.2,124.3a1.7,1.7,0,0,1-1.47,1.86,1.91,1.91,0,0,1,0-3.72A1.7,1.7,0,0,1,7.2,124.3Z" transform="translate(0 13.64)"/>
            <path class="cls-19" d="M23,858.6a1.7,1.7,0,0,1-1.47,1.86,1.92,1.92,0,0,1,0-3.73A1.71,1.71,0,0,1,23,858.6Z" transform="translate(0 13.64)"/>
            <path class="cls-27" d="M14.39,712.54a1.69,1.69,0,0,1-1.46,1.86,1.92,1.92,0,0,1,0-3.73A1.7,1.7,0,0,1,14.39,712.54Z" transform="translate(0 13.64)"/>
            <path class="cls-19" d="M1201.55,416.24a1.51,1.51,0,1,1-1.47-1.87A1.7,1.7,0,0,1,1201.55,416.24Z" transform="translate(0 13.64)"/>
            <path class="cls-33" d="M1113.87,29.62a1.51,1.51,0,1,1-2.93,0,1.51,1.51,0,1,1,2.93,0Z" transform="translate(0 13.64)"/>
            <path class="cls-19" d="M385.79,60.91a1.5,1.5,0,0,1-2.89-.82A1.52,1.52,0,0,1,384.33,59a1.68,1.68,0,0,1,1.46,1.89Z" transform="translate(0 13.64)"/>
            <path class="cls-19" d="M1184,872.15a1.51,1.51,0,1,1-1.47-1.86A1.71,1.71,0,0,1,1184,872.15Z" transform="translate(0 13.64)"/>
            <ellipse class="cls-19" cx="678.78" cy="854.68" rx="1.46" ry="1.86"/>
            <path class="cls-19" d="M404.83,847.36a1.51,1.51,0,1,1-1.46-1.86A1.69,1.69,0,0,1,404.83,847.36Z" transform="translate(0 13.64)"/>
            <path class="cls-19" d="M1085.75,850.2a1.51,1.51,0,1,1-1.46-1.86A1.7,1.7,0,0,1,1085.75,850.2Z" transform="translate(0 13.64)"/>
            <path class="cls-19" d="M1191.53,145.3a1.5,1.5,0,1,1-2.91-.72,1.49,1.49,0,0,1,1.45-1.14A1.7,1.7,0,0,1,1191.53,145.3Z" transform="translate(0 13.64)"/>
            <path class="cls-19" d="M809.64,67.21a1.5,1.5,0,1,1-2.91-.72,1.49,1.49,0,0,1,1.45-1.14A1.69,1.69,0,0,1,809.64,67.21Z" transform="translate(0 13.64)"/>
            <path class="cls-27" d="M750.21,122a1.51,1.51,0,1,1-1.47-1.86A1.7,1.7,0,0,1,750.21,122Z" transform="translate(0 13.64)"/>
            <ellipse class="cls-27" cx="376.94" cy="424.57" rx="1.46" ry="1.86"/>
            <path class="cls-27" d="M1161.87,494.07a1.51,1.51,0,1,1,0-.73A1.51,1.51,0,0,1,1161.87,494.07Z" transform="translate(0 13.64)"/>
          </g>
        </g>
        <g>
          <g class="cls-17">
            <path class="cls-19" d="M1495.44,420.92l.13,5.87a1.91,1.91,0,0,1-1,1.84l-4.37,1.88,4.62-.16a1.54,1.54,0,0,1,1.44,1.28l1.48,5.56-.13-5.87a1.91,1.91,0,0,1,1-1.84l4.37-1.88-4.61.16a1.54,1.54,0,0,1-1.44-1.28Z" transform="translate(0 13.64)"/>
            <path class="cls-19" d="M1328.55,241.93l1.71,5.46a2.23,2.23,0,0,1-.45,2.16l-3.59,3.68,4.29-2.17a1.27,1.27,0,0,1,1.69.57l2.9,4.57-1.71-5.46a2.23,2.23,0,0,1,.45-2.16l3.59-3.68-4.29,2.17a1.27,1.27,0,0,1-1.69-.57Z" transform="translate(0 13.64)"/>
            <path class="cls-19" d="M1482,73.22l.8,8.56a3,3,0,0,1-1.28,2.85l-6.19,3.5,6.73-1a2.16,2.16,0,0,1,2.24,1.62l2.74,7.89-.8-8.57a3,3,0,0,1,1.28-2.85l6.19-3.49-6.73,1a2.16,2.16,0,0,1-2.24-1.63Z" transform="translate(0 13.64)"/>
            <g class="cls-24">
              <path class="cls-19" d="M1227.54,600.65l-.32,6.09a1.88,1.88,0,0,1-1.18,1.77l-4.67,1.4,4.78.41a1.7,1.7,0,0,1,1.39,1.51l1.1,5.94.32-6.09a1.9,1.9,0,0,1,1.18-1.77l4.67-1.39-4.78-.42a1.7,1.7,0,0,1-1.39-1.5Z" transform="translate(0 13.64)"/>
            </g>
            <path class="cls-22" d="M1249.28,70.28l-1.4,5.6a1.57,1.57,0,0,1-1.42,1.31h-4.62l4.4,1.78a1.9,1.9,0,0,1,1,1.81v5.87l1.4-5.6a1.54,1.54,0,0,1,1.42-1.31h4.61l-4.4-1.78a1.91,1.91,0,0,1-1-1.81Z" transform="translate(0 13.64)"/>
            <path class="cls-22" d="M1354.6,797.47l1.21,5.67a2.15,2.15,0,0,1-.64,2.09l-3.9,3.13,4.46-1.53a1.34,1.34,0,0,1,1.63.81l2.47,5-1.21-5.67a2.15,2.15,0,0,1,.64-2.09l3.9-3.13-4.45,1.53a1.34,1.34,0,0,1-1.64-.81Z" transform="translate(0 13.64)"/>
            <path class="cls-19" d="M1465.79,617.24l-3.91,12.4a3.38,3.38,0,0,1-3.4,2.66L1448,631.19l9.74,5a4.49,4.49,0,0,1,2.09,4.32l-.87,13.32,3.91-12.4a3.38,3.38,0,0,1,3.4-2.66l10.46,1.11-9.74-5a4.48,4.48,0,0,1-2.09-4.33Z" transform="translate(0 13.64)"/>
            <path class="cls-19" d="M1406.25,490.4l.13,5.87a1.91,1.91,0,0,1-1,1.84L1401,500l4.61-.16a1.53,1.53,0,0,1,1.44,1.28l1.48,5.56-.12-5.87a1.91,1.91,0,0,1,1-1.83l4.37-1.89-4.61.16a1.53,1.53,0,0,1-1.44-1.27Z" transform="translate(0 13.64)"/>
            <path class="cls-19" d="M1246.08,233.22l3.7,6.28a3.08,3.08,0,0,1,0,3l-3.62,6.36,4.93-4.71a1.63,1.63,0,0,1,2.3,0l0,0,5,4.62-3.7-6.28a3.08,3.08,0,0,1,0-3l3.62-6.35-4.93,4.71a1.64,1.64,0,0,1-2.33,0l0,0Z" transform="translate(0 13.64)"/>
            <g class="cls-26">
              <path class="cls-19" d="M1474.23,324.42l-1.34,6.67a1.91,1.91,0,0,1-1.59,1.66l-5.41.33,5.24,1.71a2.13,2.13,0,0,1,1.3,2l.26,6.88L1474,337a1.9,1.9,0,0,1,1.59-1.66L1481,335l-5.25-1.71a2.18,2.18,0,0,1-1.3-2Z" transform="translate(0 13.64)"/>
            </g>
            <path class="cls-19" d="M1397.9,367.78l1.86,5.38a2.26,2.26,0,0,1-.38,2.18l-3.49,3.85,4.22-2.37a1.27,1.27,0,0,1,1.71.49l3,4.44-1.86-5.38a2.21,2.21,0,0,1,.38-2.17l3.49-3.85-4.22,2.37a1.29,1.29,0,0,1-1.72-.49Z" transform="translate(0 13.64)"/>
            <path class="cls-19" d="M1424.42,223l-1,5.73a1.65,1.65,0,0,1-1.34,1.45l-4.6.41,4.49,1.33a1.79,1.79,0,0,1,1.14,1.7l.33,5.86,1-5.72a1.63,1.63,0,0,1,1.34-1.45l4.6-.42-4.49-1.33a1.79,1.79,0,0,1-1.14-1.7Z" transform="translate(0 13.64)"/>
            <path class="cls-19" d="M1209.79,24.59l1.28,5.64a2.16,2.16,0,0,1-.61,2.1l-3.86,3.22,4.43-1.63a1.34,1.34,0,0,1,1.65.77l2.53,4.92L1213.93,34a2.14,2.14,0,0,1,.61-2.09l3.86-3.23-4.4,1.6a1.33,1.33,0,0,1-1.64-.78Z" transform="translate(0 13.64)"/>
          </g>
          <g class="cls-32">
            <path class="cls-19" d="M1575.74,193.38a1.51,1.51,0,1,0,1.46-1.86A1.7,1.7,0,0,0,1575.74,193.38Z" transform="translate(0 13.64)"/>
            <path class="cls-19" d="M1528.55,385.74a1.51,1.51,0,1,0,1.46-1.86A1.7,1.7,0,0,0,1528.55,385.74Z" transform="translate(0 13.64)"/>
            <path class="cls-19" d="M1536.77,230.34a1.51,1.51,0,1,0,0-.73A1.51,1.51,0,0,0,1536.77,230.34Z" transform="translate(0 13.64)"/>
            <path class="cls-19" d="M1461.09,106.2a1.51,1.51,0,1,0,1.46-1.86A1.7,1.7,0,0,0,1461.09,106.2Z" transform="translate(0 13.64)"/>
            <path class="cls-19" d="M1367.08,130.37a1.51,1.51,0,1,0,0-.73A1.51,1.51,0,0,0,1367.08,130.37Z" transform="translate(0 13.64)"/>
            <path class="cls-19" d="M1342.23,193.61a1.5,1.5,0,1,0,2.91-.72,1.49,1.49,0,0,0-1.45-1.14A1.7,1.7,0,0,0,1342.23,193.61Z" transform="translate(0 13.64)"/>
            <path class="cls-19" d="M1339,294.42a1.51,1.51,0,1,0,1.47-1.87A1.7,1.7,0,0,0,1339,294.42Z" transform="translate(0 13.64)"/>
            <path class="cls-19" d="M1293.48,344.87a1.51,1.51,0,1,0,0-.73A1.51,1.51,0,0,0,1293.48,344.87Z" transform="translate(0 13.64)"/>
            <path class="cls-33" d="M1371.93,497.12a1.51,1.51,0,1,0,2.93-.72,1.5,1.5,0,0,0-1.47-1.15A1.7,1.7,0,0,0,1371.93,497.12Z" transform="translate(0 13.64)"/>
            <path class="cls-19" d="M1465.1,523.45a1.51,1.51,0,1,0,1.46-1.86A1.71,1.71,0,0,0,1465.1,523.45Z" transform="translate(0 13.64)"/>
            <path class="cls-33" d="M1593.85,781.05a1.51,1.51,0,1,0,1.47-1.87A1.7,1.7,0,0,0,1593.85,781.05Z" transform="translate(0 13.64)"/>
            <path class="cls-27" d="M1553.14,786.27a1.51,1.51,0,1,0,1.46-1.86A1.69,1.69,0,0,0,1553.14,786.27Z" transform="translate(0 13.64)"/>
            <path class="cls-19" d="M1401.73,756.7a1.51,1.51,0,1,0,1.46-1.86A1.7,1.7,0,0,0,1401.73,756.7Z" transform="translate(0 13.64)"/>
            <path class="cls-19" d="M1353.86,633.74a1.5,1.5,0,1,0,2.91-.72,1.49,1.49,0,0,0-1.45-1.14A1.69,1.69,0,0,0,1353.86,633.74Z" transform="translate(0 13.64)"/>
            <path class="cls-19" d="M1286,641.06a1.51,1.51,0,1,0,1.47-1.87A1.7,1.7,0,0,0,1286,641.06Z" transform="translate(0 13.64)"/>
            <path class="cls-19" d="M1257.27,775.4a1.51,1.51,0,1,0,1.46-1.86A1.7,1.7,0,0,0,1257.27,775.4Z" transform="translate(0 13.64)"/>
            <path class="cls-19" d="M1558.31,518.16a1.51,1.51,0,1,0,1.46-1.86A1.7,1.7,0,0,0,1558.31,518.16Z" transform="translate(0 13.64)"/>
            <path class="cls-19" d="M1224.12,416.24a1.51,1.51,0,1,0,1.47-1.87A1.7,1.7,0,0,0,1224.12,416.24Z" transform="translate(0 13.64)"/>
            <path class="cls-33" d="M1311.79,29.62a1.51,1.51,0,1,0,2.93,0,1.51,1.51,0,1,0-2.93,0Z" transform="translate(0 13.64)"/>
            <path class="cls-19" d="M1241.67,872.15a1.51,1.51,0,1,0,1.46-1.86A1.7,1.7,0,0,0,1241.67,872.15Z" transform="translate(0 13.64)"/>
            <path class="cls-19" d="M1339.91,850.2a1.51,1.51,0,1,0,0-.73A1.51,1.51,0,0,0,1339.91,850.2Z" transform="translate(0 13.64)"/>
            <path class="cls-19" d="M1234.13,145.3a1.51,1.51,0,1,0,1.47-1.86A1.71,1.71,0,0,0,1234.13,145.3Z" transform="translate(0 13.64)"/>
            <path class="cls-27" d="M1263.8,494.07a1.51,1.51,0,1,0,1.46-1.86A1.7,1.7,0,0,0,1263.8,494.07Z" transform="translate(0 13.64)"/>
          </g>
        </g>
      </g>
      <g>
        <g class="cls-34">
          <path class="cls-35" d="M368,297.83c-35.65,9.28-72.49,14.87-106.66,28.46s-66.43,36.84-80,70.32c-2.31,5.72-4,12.33-1.25,17.86a17.51,17.51,0,0,0,6.38,6.66,29.19,29.19,0,0,0,27.44,1.95,27.92,27.92,0,0,0,16-21.87c.24-2.25.1-4.78-1.55-6.37s-4.15-1.7-6.38-1.31A17,17,0,0,0,208.36,407a5.76,5.76,0,0,0,7.86-1c-3.29,4.37-11,3.7-14.41-.56s-3-10.63-.23-15.32,7.55-7.95,12.44-10.53c9.95-5.24,23.26-7.84,31.88-.7,5.68,4.71,7.72,12.7,6.55,19.89s-5.11,13.67-9.71,19.4c-15.29,19-39.48,31.39-64.24,31s-49.26-14.29-60.22-35.95c-3.5-6.93-5.65-14.65-5.18-22.36,1.06-17.16,14.57-31.06,28.73-41.3S172,330.68,182.3,316.75c2.26-3.05,4.14-7.5,1.55-10.3a6.9,6.9,0,0,0-3.67-1.86c-9.67-2.11-18.22,6.33-27.87,8.52-13.75,3.12-28-8.17-30.81-21.65s3.57-27.56,13.34-37.49c20.82-21.17,53.33-25.56,83.23-28.75l110.55-11.79c24.78-2.65,49.78-5.29,74.56-2.66,19.37,2,70.32,22.48,48.62,48.53C433.72,281,394.36,291,368,297.83Z" transform="translate(0 13.64)"/>
        </g>
        <g class="cls-34">
          <path class="cls-36" d="M252.05,310.94c-4.51,1.54-9.18,3-14,2.76s-9.72-2.66-11.6-6.94c-1.3-3-1-6.35-1.44-9.55a20.24,20.24,0,0,0-11.12-15c-12.42-6-27.28,1.47-41-.19a30.75,30.75,0,0,1-24.65-19.09c-.79-2.09-1.32-4.44-.45-6.49s3-3.4,5.13-4.44c7-3.5,14.62-5.68,22.18-7.83,29-8.26,58-16.55,87.8-21.11,16.57-2.55,33.32-3.93,49.82-6.9,10.67-1.92,21.43-4.51,32.24-3.54s22,6.37,26.23,16.12c9.39,21.53-27.54,37.46-41.45,45.93A396.92,396.92,0,0,1,252.05,310.94Z" transform="translate(0 13.64)"/>
        </g>
      </g>
      <g class="cls-34">
        <path class="cls-37" d="M1340.64,143c-17.21,10.34-30,26.62-46.43,38.07-8.71,6.05-19.42,10.83-29.79,8.43s-17.86-11.32-27.66-15.39c-6.31-2.61-13.32-3.11-20.14-2.79a90.88,90.88,0,0,0-56.25,23.12c-1.89-3.73.94-8.05,3.86-11.06A133.38,133.38,0,0,1,1179,170.67c25-19.19,52-36.11,81.33-47.83s61.15-18.14,92.74-16.1c8.18.53,44,2.6,33.59,18.33-4,6-14.21,5.67-20.57,7.39A99.82,99.82,0,0,0,1340.64,143Z" transform="translate(0 13.64)"/>
      </g>
      <path class="cls-38" d="M974.59,119.45c-8.24-4-12.36-6-13.94-7.68-10.07-10.89,15.62-32.82,8.18-52.29C961.63,40.61,927.62,35.3,924,34.77,912,33,909.64,36,889.32,34c-16.59-1.66-25-2.6-31.86-8.41-8.41-7.16-4.78-14.17-13.76-25.23a47.83,47.83,0,0,0-19.59-14,18.21,18.21,0,0,1,2.83,8.13,17.51,17.51,0,0,1-.77,6.63c-.72,2.51-5.85,20.12,1.13,30a20,20,0,0,0,6.54,5.59c9.56,5.77,16.35,1.64,23.9,4.62,9.93,3.91,16.3,18.16,15.55,29.43-1,14.88-14,18.18-13.21,32.56.56,10.32,7.73,17.38,8.74,18.34,8.15,7.8,19.23,8.33,39.29,9.3,18.61.89,22-1.64,28.23,2.55,4.24,2.86,8,7.63,17.27,11.73a27.43,27.43,0,0,0,6.5,2.39c10.61,2.08,15.84-3.33,27.33-.36,7.72,2,30.76,17.42,34.27,21a42.58,42.58,0,0,0-7.05-21.53c-2.91-4.31-23.49-18-24.33-18.7C985.72,124,982,123,974.59,119.45Z" transform="translate(0 13.64)"/>
      <g class="cls-34">
        <path class="cls-39" d="M769.24,233a75.63,75.63,0,0,0-5.21-7.35,136,136,0,0,0-37.9-32.92c-4.51-2.64-9.38-5.08-14.62-5.22a6.92,6.92,0,0,0-5.34,1.7c-2.55,2.78-.4,7.45-2,10.84-1.91,4-7.61,4-12,3.32A234,234,0,0,1,638.72,188c-13.2-5.58-30.41-14.27-32.08-30.53a8.29,8.29,0,0,1,.68-4.81c1.39-2.59,4.59-3.63,7.53-4,14.26-1.84,29.17,7.62,33.4,21.2-5.36,2.72-11.2-2.36-17-3.91-1.06-.28-2.38-.37-3.09.47-1,1.16.08,2.87,1.16,3.92a34.84,34.84,0,0,0,13.73,8.2c5.27,1.66,12,1.63,15.3-2.71s1.51-11-1.42-15.78A49.86,49.86,0,0,0,614,136.73c-6.57.15-13.31,1.73-18.55,5.65-8.72,6.53-11.75,18.77-9.09,29.25,9.22,36.29,58.33,38.43,88.52,43.71,24.18,4.23,49.37,10.87,66.69,28.08,9.76,9.7,16.3,22.1,21.69,34.7,1.25,2.93,2.49,5.95,4.71,8.25s5.69,3.73,8.72,2.64c7.66-2.75.22-15.54-2.1-19.6-3.43-6-3.83-5.12-1.78-11.49,1.61-5,2.18-9.74.8-15A37.58,37.58,0,0,0,769.24,233Z" transform="translate(0 13.64)"/>
      </g>
      <g class="cls-34">
        <path class="cls-39" d="M1665.13,118.89a75.63,75.63,0,0,0-5.21-7.35A136.22,136.22,0,0,0,1622,78.62c-4.51-2.64-9.39-5.08-14.63-5.22a6.92,6.92,0,0,0-5.34,1.7c-2.55,2.77-.39,7.44-2,10.83-1.91,4-7.61,4-12,3.33a234.69,234.69,0,0,1-53.4-15.4c-13.19-5.58-30.41-14.27-32.08-30.53a8.29,8.29,0,0,1,.68-4.81c1.39-2.59,4.59-3.63,7.53-4,14.26-1.84,29.17,7.62,33.4,21.2-5.36,2.72-11.2-2.36-17-3.91-1.06-.28-2.38-.37-3.08.47-1,1.15.07,2.86,1.16,3.92A34.81,34.81,0,0,0,1539,64.4c5.27,1.66,12,1.63,15.3-2.71s1.51-11-1.42-15.78C1544,31.43,1527.05,22.2,1510,22.59c-6.58.15-13.31,1.73-18.56,5.65-8.71,6.53-11.75,18.77-9.09,29.25,9.22,36.29,58.33,38.43,88.52,43.71,24.18,4.23,49.37,10.87,66.69,28.07,9.77,9.7,16.3,22.11,21.69,34.71,1.25,2.93,2.5,6,4.72,8.25s5.69,3.73,8.71,2.64c7.66-2.75.23-15.54-2.09-19.6-3.43-6-3.83-5.12-1.79-11.49,1.61-5,2.18-9.74.81-15A37,37,0,0,0,1665.13,118.89Z" transform="translate(0 13.64)"/>
      </g>
      <g>
        <g class="cls-40">
          <ellipse class="cls-41" cx="1185.82" cy="70.36" rx="14.86" ry="14.68"/>
          <path class="cls-42" d="M1176.09,67.8a12.39,12.39,0,0,0,16.87-.89,12,12,0,0,0-.35-17l-.16-.15a12.37,12.37,0,0,0-17.34.47,12,12,0,0,0,.06,16.68,14.53,14.53,0,0,1-.17-20.3,15,15,0,0,1,21-.58,14.54,14.54,0,0,1,.8,20.56l-.18.19A15,15,0,0,1,1176.09,67.8Z" transform="translate(0 13.64)"/>
          <path class="cls-43" d="M1174.38,47.35l.07-.08a15,15,0,0,1,20.94-1.78A14.59,14.59,0,0,1,1200,61l-.09.27a2.47,2.47,0,0,1-.1.29,14.73,14.73,0,0,1-2.49,4.42c-.06.07-.09,0-.15.08a15.16,15.16,0,0,0-4.43-18A15.62,15.62,0,0,0,1174.38,47.35Z" transform="translate(0 13.64)"/>
          <path class="cls-44" d="M1176.25,68a14.7,14.7,0,0,1-3.68-4.57,19.93,19.93,0,0,1,8.22,2.64,19.56,19.56,0,0,1,5.89,5.35A14.86,14.86,0,0,1,1176.25,68Z" transform="translate(0 13.64)"/>
          <path class="cls-44" d="M1190.49,70.65a10.05,10.05,0,0,0-2.68-2.91,49.05,49.05,0,0,0-4.73-2.94c-3.3-2-6.35-4.67-10.12-5.67a6.75,6.75,0,0,0-1.84-.25,15.52,15.52,0,0,1-.15-2.55,11.1,11.1,0,0,1,5.16,2c2.11,1.42,3.91,3.25,6,4.65,1.91,1.27,4,2.16,6,3.36A11.64,11.64,0,0,1,1192,70,14,14,0,0,1,1190.49,70.65Z" transform="translate(0 13.64)"/>
          <path class="cls-44" d="M1197.93,65.22l-.75,1-.15.18a64.11,64.11,0,0,0-10.3-7.65,2.14,2.14,0,0,0-.91-.37.76.76,0,0,0-.81.43c-.2.56.53,1.07.5,1.66a.94.94,0,0,1-1.2.74,3,3,0,0,1-1.34-.86A27.77,27.77,0,0,0,1171.23,54a14.64,14.64,0,0,1,1.08-3.34,50.31,50.31,0,0,1,8,4.88,3.8,3.8,0,0,1-.26-1.29,1.28,1.28,0,0,1,.63-1.1,2,2,0,0,1,1.79.36C1188.11,56.75,1193.9,60.21,1197.93,65.22Z" transform="translate(0 13.64)"/>
          <path class="cls-44" d="M1196,67.44a14.66,14.66,0,0,1-1.24,1,57.8,57.8,0,0,0-8.32-6A1.29,1.29,0,0,1,1186,62a.45.45,0,0,1,0-.58.69.69,0,0,1,.68,0A28.32,28.32,0,0,1,1196,67.44Z" transform="translate(0 13.64)"/>
          <path class="cls-45" d="M1187.73,44.59c-.36-.25-.92-.46-1.16-.09s0,.61.21.86a17.12,17.12,0,0,0,2.4,2.63,4.38,4.38,0,0,1,1.12,1.23,1.3,1.3,0,0,1-.17,1.54c-.58.5-1.47.16-2.15-.2l-7.13-3.78a24.69,24.69,0,0,0-3.95-1.8,15,15,0,0,1,5.06-2.43,14,14,0,0,1,3.1.42,24.06,24.06,0,0,1,6.61,3,50.06,50.06,0,0,1,8.33,6.39,14.29,14.29,0,0,1,.62,3.11A82.24,82.24,0,0,0,1187.73,44.59Z" transform="translate(0 13.64)"/>
          <path class="cls-44" d="M1189.45,71l-.34.08c-1.52-2-3.85-3.31-5.93-4.8-2.33-1.67-4.53-3.72-7.32-4.45a11.37,11.37,0,0,0-4.07-.21l-.24-.73A12,12,0,0,1,1177,62a24.47,24.47,0,0,1,3.46,2.12l4.7,3.26a27.37,27.37,0,0,1,3.36,2.6A9.55,9.55,0,0,1,1189.45,71Z" transform="translate(0 13.64)"/>
          <path class="cls-44" d="M1193.25,68.48a2.77,2.77,0,0,1,.42.7l-.28.17a9.44,9.44,0,0,0-3.22-3c-1.51-.91-3.17-1.59-4.68-2.51-.48-.29-.94-.61-1.41-.93a.69.69,0,0,1-.3-.31c0-.13,0-.32.17-.33a.39.39,0,0,1,.21.08l7.69,5A6.09,6.09,0,0,1,1193.25,68.48Z" transform="translate(0 13.64)"/>
          <path class="cls-45" d="M1200.67,56.8a21.75,21.75,0,0,0-4.78-4.3c-2.26-1.7-4.45-3.5-6.55-5.39a4.42,4.42,0,0,1-1.25-1.53.2.2,0,0,1,.09-.27.22.22,0,0,1,.22,0c3.78,3.06,7.54,6.13,11,9.48a9.48,9.48,0,0,1,1.21,1.32A2.46,2.46,0,0,1,1200.67,56.8Z" transform="translate(0 13.64)"/>
          <path class="cls-44" d="M1185.32,48.1a39.36,39.36,0,0,0-7.71-3.64,14.84,14.84,0,0,1,5.11-2.09c-.2.7.38,1.47.92,2l2.51,2.44a2.23,2.23,0,0,1,.53.69.69.69,0,0,1-.15.8C1186.19,48.56,1185.69,48.33,1185.32,48.1Z" transform="translate(0 13.64)"/>
          <path class="cls-44" d="M1178.7,51.78a1.89,1.89,0,0,1-1.64,0,8.11,8.11,0,0,1-1.44-.87,12.79,12.79,0,0,0-2.74-1.44,13.22,13.22,0,0,1,1-1.55A18,18,0,0,1,1178.7,51.78Z" transform="translate(0 13.64)"/>
          <path class="cls-45" d="M1194.09,53.71c-.78-.61-1.67-1.36-1.59-2.34l7.84,5.94.31.25a14.89,14.89,0,0,1-.29,2.2A41.25,41.25,0,0,0,1194.09,53.71Z" transform="translate(0 13.64)"/>
          <path class="cls-44" d="M1191.72,56.1a51.84,51.84,0,0,0-6.16-2.31,21.8,21.8,0,0,1-8.13-5.5.3.3,0,0,1,0-.42.29.29,0,0,1,.33-.06,27.26,27.26,0,0,1,4.33,2.62c2.89,1.83,6.21,2.87,9.28,4.36s6.06,3.65,7.35,6.78a7.76,7.76,0,0,1,.46,1.56c-.18.36-.38.72-.59,1.07C1197.09,60.9,1194.91,57.82,1191.72,56.1Z" transform="translate(0 13.64)"/>
          <path class="cls-44" d="M1188.58,51.84a37.84,37.84,0,0,1-7.49-3.57l-.77-.48a17.18,17.18,0,0,0-4.21-2.18l.25-.21a18.12,18.12,0,0,1,4.11,2.16l.76.48a37.31,37.31,0,0,0,7.44,3.54c.36.12,1.55.46,1.92-.23l.25.13C1190.52,52.08,1189.67,52.21,1188.58,51.84Z" transform="translate(0 13.64)"/>
          <path class="cls-46" d="M1189.58,50.46c-.29.26-.75.13-1.11,0a26.5,26.5,0,0,1-3.66-1.91,3.29,3.29,0,0,0,2.3.34,1.66,1.66,0,0,0,1-1.07,3.7,3.7,0,0,1,1.47,1.59A.87.87,0,0,1,1189.58,50.46Z" transform="translate(0 13.64)"/>
          <g>
            <path class="cls-46" d="M1192.8,62.08c-1.88-1.34-3.86-2.53-5.62-4-.21-.18-.41-.5-.21-.67s.33,0,.49,0a28.17,28.17,0,0,1,10,7.78,2.48,2.48,0,0,1,.25.3l-.5.63A20.16,20.16,0,0,0,1192.8,62.08Z" transform="translate(0 13.64)"/>
            <path class="cls-46" d="M1171.72,52.1a4.2,4.2,0,0,1,1.63.43,29,29,0,0,1,8.06,5.63,23.15,23.15,0,0,0-10.07-4.75A12.22,12.22,0,0,1,1171.72,52.1Z" transform="translate(0 13.64)"/>
            <path class="cls-46" d="M1186.61,46.66a.7.7,0,0,1-.22.73.81.81,0,0,1-.71,0,16.36,16.36,0,0,1-2.29-1.25,13.69,13.69,0,0,0-5.6-1.75,14.69,14.69,0,0,1,3.74-1.7c.51.34.92.81,1.42,1.17a21.43,21.43,0,0,0,2.14,1.08A2.71,2.71,0,0,1,1186.61,46.66Z" transform="translate(0 13.64)"/>
            <path class="cls-46" d="M1188.14,66.66a9.71,9.71,0,0,1,3.28,3.31,2.59,2.59,0,0,1,.14.29l-.74.28a10.66,10.66,0,0,0-1.49-2.1c-2.3-2.47-5.64-3.67-8.48-5.5a21.19,21.19,0,0,1-4.68-4.13,41.42,41.42,0,0,0,7.85,5.55C1185.4,65.12,1186.83,65.79,1188.14,66.66Z" transform="translate(0 13.64)"/>
            <path class="cls-46" d="M1193.14,65.6a18.36,18.36,0,0,1-3-2.1,21,21,0,0,1,5.82,4c-.15.14-.3.28-.46.41A6.61,6.61,0,0,0,1193.14,65.6Z" transform="translate(0 13.64)"/>
            <path class="cls-46" d="M1183.79,69.7a17.17,17.17,0,0,0-3.82-2.28,8.44,8.44,0,0,0-4.38-.64l4.2,2.16c-1.06-.2-2.1-.42-3.15-.68l-.39-.31a14.89,14.89,0,0,1-2.24-2.32A12.57,12.57,0,0,1,1183.79,69.7Z" transform="translate(0 13.64)"/>
          </g>
          <path class="cls-46" d="M1188.34,54.31a4.2,4.2,0,0,0-3.09-1.73,2.52,2.52,0,0,0,1.4,1.08A14.37,14.37,0,0,1,1188.34,54.31Z" transform="translate(0 13.64)"/>
          <path class="cls-46" d="M1188.14,56.68a.52.52,0,0,1,.68.29s0,.05,0,.08a.23.23,0,0,1-.29.23l-.55-.2c-.25-.1-.09-.48.16-.39l.55.2-.29.22a.11.11,0,0,0-.11,0C1188.06,57.14,1187.89,56.76,1188.14,56.68Z" transform="translate(0 13.64)"/>
          <path class="cls-46" d="M1189.21,63.28l-.52-.31c-.15-.08-.09-.29,0-.36a.46.46,0,0,1,.61.22h0c.11.25-.28.41-.39.17h-.06v-.36l.52.31a.2.2,0,0,1,0,.28h0A.25.25,0,0,1,1189.21,63.28Z" transform="translate(0 13.64)"/>
          <path class="cls-46" d="M1190.82,64.63a.83.83,0,0,1,.58.32.21.21,0,0,1-.05.29.23.23,0,0,1-.14,0,1,1,0,0,1-.59-.32c-.18-.19.15-.45.33-.25a.62.62,0,0,0,.31.16l-.19.34a.44.44,0,0,0-.31-.17.21.21,0,0,1,.06-.41Z" transform="translate(0 13.64)"/>
          <path class="cls-46" d="M1179.66,55.77a1.16,1.16,0,0,1,.54.44.22.22,0,0,1,0,.3.21.21,0,0,1-.11,0,.47.47,0,0,1-.44-.16c-.18-.21.15-.47.33-.26h0l-.13.34a.82.82,0,0,0-.37-.32C1179.25,56.06,1179.4,55.67,1179.66,55.77Z" transform="translate(0 13.64)"/>
          <path class="cls-46" d="M1181.82,57.89l.38.24c.22.15,0,.49-.26.34l-.37-.25C1181.34,58.07,1181.6,57.74,1181.82,57.89Z" transform="translate(0 13.64)"/>
          <path class="cls-46" d="M1183.05,59l.15.13a.21.21,0,1,1-.25.33l-.16-.13C1182.59,59.12,1182.84,58.79,1183.05,59Z" transform="translate(0 13.64)"/>
          <path class="cls-46" d="M1178.24,47.76l.32.08c.26.06.21.47,0,.41l-.33-.08C1177.92,48.11,1178,47.7,1178.24,47.76Z" transform="translate(0 13.64)"/>
          <path class="cls-46" d="M1180,48.75a.55.55,0,0,1,.52.22c.16.22-.17.48-.33.26,0,0-.07-.08-.13-.07C1179.79,49.18,1179.72,48.76,1180,48.75Z" transform="translate(0 13.64)"/>
          <path class="cls-46" d="M1181.68,49.67l.07.06a.21.21,0,1,1-.25.34l-.08-.07C1181.22,49.83,1181.47,49.5,1181.68,49.67Z" transform="translate(0 13.64)"/>
          <path class="cls-46" d="M1192.59,51.43l.07.06a.21.21,0,1,1-.25.33l-.08-.06C1192.12,51.59,1192.38,51.25,1192.59,51.43Z" transform="translate(0 13.64)"/>
          <path class="cls-46" d="M1194.31,53.82l.18.09c.25.11.09.5-.16.38l-.18-.08a.21.21,0,0,1-.11-.28A.21.21,0,0,1,1194.31,53.82Z" transform="translate(0 13.64)"/>
          <path class="cls-46" d="M1195.38,56.22h.22c.26.06.21.48-.06.42h-.21C1195.06,56.57,1195.11,56.16,1195.38,56.22Z" transform="translate(0 13.64)"/>
          <path class="cls-46" d="M1195.33,56.55a.37.37,0,0,1-.2-.47.21.21,0,0,1,.27-.12l0,0,.27.22a.21.21,0,1,1-.26.34l-.26-.22.32-.09v-.08C1195.74,56.28,1195.58,56.67,1195.33,56.55Z" transform="translate(0 13.64)"/>
          <path class="cls-46" d="M1196.08,57.15l.14.06a.21.21,0,0,1,.11.28.21.21,0,0,1-.27.11h0l-.14-.06a.22.22,0,0,1-.12-.28A.23.23,0,0,1,1196.08,57.15Z" transform="translate(0 13.64)"/>
          <path class="cls-46" d="M1196.16,57.29l.08.06a.21.21,0,1,1-.25.34l-.08-.07C1195.7,57.45,1196,57.12,1196.16,57.29Z" transform="translate(0 13.64)"/>
          <path class="cls-46" d="M1197,58.1a.21.21,0,0,1,.06.42h0a.21.21,0,1,1-.06-.42Z" transform="translate(0 13.64)"/>
          <path class="cls-46" d="M1183.71,43.86l.26.15a.22.22,0,0,1,0,.3.24.24,0,0,1-.3,0l-.26-.16a.2.2,0,0,1,0-.28h0A.22.22,0,0,1,1183.71,43.86Z" transform="translate(0 13.64)"/>
          <path class="cls-46" d="M1185.11,44.34l.22.12a.21.21,0,1,1-.15.39l-.23-.13a.2.2,0,0,1-.11-.26h0A.22.22,0,0,1,1185.11,44.34Z" transform="translate(0 13.64)"/>
          <path class="cls-46" d="M1186.26,45.14l.19.15a.21.21,0,1,1-.26.34l-.19-.16C1185.79,45.3,1186.05,45,1186.26,45.14Z" transform="translate(0 13.64)"/>
          <path class="cls-46" d="M1177.46,60.12l.09.27c.09.25-.29.42-.38.16l-.1-.27C1177,60,1177.37,59.86,1177.46,60.12Z" transform="translate(0 13.64)"/>
          <path class="cls-46" d="M1175.25,59l.25.08c.26.09.1.48-.16.39l-.25-.09C1174.83,59.26,1175,58.87,1175.25,59Z" transform="translate(0 13.64)"/>
          <path class="cls-46" d="M1178.44,61.09l.15.13a.21.21,0,1,1-.25.33l-.16-.12C1178,61.25,1178.23,60.92,1178.44,61.09Z" transform="translate(0 13.64)"/>
          <path class="cls-46" d="M1173.77,59l.18.08a.22.22,0,0,1,.12.28.23.23,0,0,1-.28.11l-.18-.09a.21.21,0,0,1-.16-.25.21.21,0,0,1,.25-.16Z" transform="translate(0 13.64)"/>
          <path class="cls-46" d="M1181.52,67.31l.15.13c.21.17-.05.51-.25.33l-.16-.12C1181.06,67.47,1181.31,67.14,1181.52,67.31Z" transform="translate(0 13.64)"/>
          <path class="cls-46" d="M1182.7,68h0a.21.21,0,1,1-.25.33h0C1182.24,68.14,1182.5,67.8,1182.7,68Z" transform="translate(0 13.64)"/>
          <path class="cls-46" d="M1183.73,68.83l.11.1a.21.21,0,1,1-.25.33l-.11-.09C1183.27,69,1183.52,68.66,1183.73,68.83Z" transform="translate(0 13.64)"/>
          <path class="cls-46" d="M1186.16,60.26l.15.13a.21.21,0,1,1-.25.33l-.15-.12C1185.7,60.42,1186,60.09,1186.16,60.26Z" transform="translate(0 13.64)"/>
          <path class="cls-47" d="M1195.39,45.49a14.55,14.55,0,0,1,2,20.48c-.06.07-.11.14-.17.2a14.86,14.86,0,0,1-9.52,5.11,14.61,14.61,0,0,0,9-5A14.39,14.39,0,0,0,1195.08,46l-.19-.16a14.82,14.82,0,0,0-20.7,1.76c.09-.11.18-.23.28-.34A15,15,0,0,1,1195.39,45.49Z" transform="translate(0 13.64)"/>
          <path class="cls-48" d="M1186.9,55c4.7,3.71,7,9.24,5.87,14.65A15,15,0,0,1,1176.25,68a14.56,14.56,0,0,1-4.68-15.39C1176.65,50.45,1182.3,51.41,1186.9,55Z" transform="translate(0 13.64)"/>
          <path class="cls-49" d="M1177.16,67.89c4.21,3,10.24,2.85,12.9-.74s-.58-6-4.76-9.9c-3.43-3.16-8.87-5.45-11.52-1.86S1172.94,64.89,1177.16,67.89Z" transform="translate(0 13.64)"/>
          <path class="cls-50" d="M1202.75,72.3a14.13,14.13,0,0,1-1.77-.59,36.53,36.53,0,0,1-4.55-2.29c-.53-.31-1.08-.64-1.65-1l.24-.17q.78.5,1.53.93a34.41,34.41,0,0,0,4.49,2.28,14.39,14.39,0,0,0,1.72.56c2.12.48,2.71-.35,1.88-2.23a11.42,11.42,0,0,0-.87-1.57,34.48,34.48,0,0,0-3.08-3.94c-.43-.47-.88-1-1.36-1.46q-1.47-1.56-3.24-3.24c-1.75-1.66-3.71-3.41-5.82-5.21s-4.38-3.65-6.79-5.47c-1.92-1.47-3.94-2.93-6-4.29-.53-.35-1.07-.69-1.61-1a34.89,34.89,0,0,0-4.18-2.23,11.36,11.36,0,0,0-2.19-.76,3.94,3.94,0,0,0-1.08-.12c-1.23,0-1.21,1.12-.75,2.24a12.58,12.58,0,0,0,1.11,2,36.17,36.17,0,0,0,2.89,3.74c.37.42.75.84,1.13,1.25l-.14.26c-.4-.45-.81-.9-1.2-1.36s-1-1.21-1.52-1.84a15.83,15.83,0,0,1-1.4-1.94,13.48,13.48,0,0,1-1.15-2.07c-.55-1.33-.5-2.56,1-2.62a4.6,4.6,0,0,1,1.17.11,13.19,13.19,0,0,1,2.28.74c.74.3,1.47.65,2.19,1s1.42.74,2.11,1.14,1.28.74,1.91,1.12c2.08,1.27,4.07,2.63,6,4,2.47,1.8,4.78,3.64,6.9,5.47s4.06,3.64,5.77,5.37c1.08,1.08,2.08,2.14,3,3.14.54.6,1,1.18,1.51,1.75a35.07,35.07,0,0,1,3,4.08,12.74,12.74,0,0,1,.87,1.63C1205.94,72,1204.91,72.8,1202.75,72.3Z" transform="translate(0 13.64)"/>
        </g>
        <path class="cls-51" d="M116.3,222.88c.73.7-21.46,24.28-22.75,25.57s-2.92,1.79-3.64,1.08-.27-2.32,1-3.62S115.58,222.18,116.3,222.88Z" transform="translate(0 13.64)"/>
        <path class="cls-51" d="M355.66,121.73c.73.7-21.46,24.27-22.75,25.57s-2.92,1.79-3.64,1.08-.27-2.32,1-3.62S354.94,121,355.66,121.73Z" transform="translate(0 13.64)"/>
        <path class="cls-51" d="M422.22,300c.73.7-21.46,24.27-22.75,25.57s-2.92,1.78-3.64,1.08-.27-2.32,1-3.62S421.5,299.31,422.22,300Z" transform="translate(0 13.64)"/>
        <path class="cls-51" d="M618.06,133.11c.73.7-21.46,24.27-22.75,25.57s-2.92,1.79-3.64,1.08-.27-2.32,1-3.62S617.34,132.41,618.06,133.11Z" transform="translate(0 13.64)"/>
        <path class="cls-51" d="M783.18,230.47c.73.7-21.46,24.27-22.75,25.57s-2.92,1.78-3.64,1.08-.27-2.32,1-3.62S782.46,229.77,783.18,230.47Z" transform="translate(0 13.64)"/>
        <path class="cls-51" d="M883,106.56c.73.7-21.46,24.27-22.75,25.57s-2.92,1.78-3.64,1.08-.27-2.32,1-3.62S882.3,105.86,883,106.56Z" transform="translate(0 13.64)"/>
        <path class="cls-51" d="M998.22,252c.73.71-21.46,24.28-22.75,25.58s-2.92,1.78-3.64,1.08-.27-2.33,1-3.63S997.5,251.26,998.22,252Z" transform="translate(0 13.64)"/>
        <path class="cls-51" d="M1086.54,58.51c.73.7-21.46,24.28-22.75,25.57s-2.92,1.79-3.64,1.08-.27-2.32,1-3.62S1085.82,57.81,1086.54,58.51Z" transform="translate(0 13.64)"/>
        <path class="cls-51" d="M1251.66,29.43c.73.7-21.46,24.27-22.75,25.57s-2.92,1.79-3.64,1.08-.27-2.32,1-3.62S1250.94,28.73,1251.66,29.43Z" transform="translate(0 13.64)"/>
        <path class="cls-51" d="M1287.5,136.9c.73.71-21.46,24.28-22.75,25.58s-2.92,1.78-3.64,1.08-.27-2.33,1-3.63S1286.78,136.2,1287.5,136.9Z" transform="translate(0 13.64)"/>
        <path class="cls-51" d="M1533.26,18.05c.73.7-21.46,24.27-22.75,25.57s-2.92,1.79-3.64,1.08-.27-2.32,1-3.62S1532.54,17.35,1533.26,18.05Z" transform="translate(0 13.64)"/>
        <path class="cls-51" d="M1526.86,215.3c.73.7-21.46,24.27-22.75,25.57s-2.92,1.78-3.64,1.08-.27-2.33,1-3.62S1526.14,214.59,1526.86,215.3Z" transform="translate(0 13.64)"/>
        <path class="cls-51" d="M208.46,348.06c.73.7-21.46,24.27-22.75,25.57s-2.92,1.78-3.64,1.08-.27-2.32,1-3.62S207.74,347.35,208.46,348.06Z" transform="translate(0 13.64)"/>
      </g>
    </g>
  </g>
</svg>
