<svg id="Layer_1" data-name="Layer 1" xmlns="http://www.w3.org/2000/svg" xmlns:xlink="http://www.w3.org/1999/xlink" width="6433.63" height="913.29" viewBox="0 0 6433.63 913.29">
  <defs>
    <style>
      .cls-1 {
        fill: none;
      }

      .cls-2 {
        clip-path: url(#clip-path);
      }

      .cls-3 {
        fill: #181c3e;
      }

      .cls-4 {
        fill: #121233;
      }

      .cls-25, .cls-30, .cls-31, .cls-32, .cls-36, .cls-4, .cls-43, .cls-44, .cls-5, .cls-6, .cls-63, .cls-67, .cls-68, .cls-69, .cls-70, .cls-72, .cls-73, .cls-75, .cls-76, .cls-79, .cls-80, .cls-81 {
        isolation: isolate;
      }

      .cls-4, .cls-5, .cls-6, .cls-7 {
        opacity: 0.3;
      }

      .cls-5, .cls-8 {
        fill: #101423;
      }

      .cls-6 {
        fill: #0f1833;
      }

      .cls-9 {
        fill: #101334;
      }

      .cls-10 {
        fill: #131234;
      }

      .cls-11 {
        fill: #111222;
      }

      .cls-12 {
        fill: #141234;
      }

      .cls-13, .cls-68 {
        opacity: 0.7;
      }

      .cls-14 {
        fill: #51b9d9;
      }

      .cls-15 {
        fill: #51a9cc;
      }

      .cls-16 {
        fill: #3faeb3;
      }

      .cls-17 {
        fill: #1f9690;
      }

      .cls-18 {
        fill: #85c441;
      }

      .cls-19 {
        fill: #5764ae;
      }

      .cls-20 {
        fill: #4ab749;
      }

      .cls-21 {
        fill: #24b34b;
      }

      .cls-22 {
        fill: #8dc85b;
      }

      .cls-23 {
        fill: #7abd43;
      }

      .cls-24 {
        fill: #6bbe45;
      }

      .cls-25 {
        fill: #3e8f42;
      }

      .cls-25, .cls-33, .cls-44, .cls-75 {
        opacity: 0.5;
      }

      .cls-26 {
        fill: #78c143;
      }

      .cls-27 {
        fill: #77c043;
      }

      .cls-28 {
        fill: #69b044;
      }

      .cls-29 {
        fill: #8497cc;
      }

      .cls-30, .cls-31 {
        fill: #fff;
      }

      .cls-30 {
        opacity: 0.15;
      }

      .cls-31 {
        opacity: 0.24;
      }

      .cls-32, .cls-51 {
        opacity: 0.57;
      }

      .cls-32 {
        fill: url(#radial-gradient);
      }

      .cls-34 {
        fill: #4766b0;
      }

      .cls-35 {
        fill: #2364b0;
      }

      .cls-36 {
        fill: #2a6597;
        opacity: 0.69;
      }

      .cls-37 {
        fill: #fef8e7;
      }

      .cls-38 {
        fill: #325baa;
      }

      .cls-39 {
        fill: #075999;
      }

      .cls-40 {
        fill: #1965b0;
      }

      .cls-41 {
        fill: #3960ac;
      }

      .cls-42 {
        fill: #5089c8;
      }

      .cls-43 {
        opacity: 0.39;
        fill: url(#radial-gradient-2);
      }

      .cls-44 {
        fill: #c8c0e0;
      }

      .cls-45 {
        opacity: 0.8;
      }

      .cls-46 {
        opacity: 0.88;
      }

      .cls-47 {
        fill: #f4ecf5;
      }

      .cls-48 {
        fill: #faf0bd;
      }

      .cls-49 {
        fill: #a6def2;
      }

      .cls-50 {
        opacity: 0.81;
      }

      .cls-52 {
        opacity: 0.79;
      }

      .cls-53 {
        fill: #f8e8a9;
      }

      .cls-54 {
        opacity: 0.77;
      }

      .cls-55 {
        opacity: 0.76;
      }

      .cls-56 {
        opacity: 0.78;
      }

      .cls-57 {
        opacity: 0.92;
      }

      .cls-58 {
        fill: #bbe5f1;
      }

      .cls-59 {
        opacity: 0.9;
      }

      .cls-60 {
        opacity: 0.89;
      }

      .cls-61, .cls-73 {
        opacity: 0.61;
      }

      .cls-62 {
        fill: url(#radial-gradient-3);
      }

      .cls-63 {
        fill: #f7ef75;
        opacity: 0.34;
      }

      .cls-64 {
        fill: #a74f25;
      }

      .cls-65 {
        fill: #7a3a19;
      }

      .cls-66 {
        fill: #8e241c;
      }

      .cls-67 {
        fill: #bc2025;
      }

      .cls-67, .cls-79 {
        opacity: 0.17;
      }

      .cls-68 {
        fill: url(#linear-gradient);
      }

      .cls-69 {
        fill: #fcf6b7;
      }

      .cls-69, .cls-80 {
        opacity: 0.12;
      }

      .cls-70 {
        fill: #f9ee4e;
        opacity: 0.43;
      }

      .cls-71 {
        fill: #d7812d;
      }

      .cls-72 {
        opacity: 0.27;
        fill: url(#radial-gradient-4);
      }

      .cls-73 {
        fill: #fffcfd;
      }

      .cls-74 {
        fill: url(#radial-gradient-5);
      }

      .cls-75 {
        fill: #846484;
      }

      .cls-76 {
        fill: #1a101a;
        opacity: 0.73;
      }

      .cls-77, .cls-79 {
        fill: #010101;
      }

      .cls-78 {
        fill: #251324;
      }

      .cls-80 {
        fill: #c4b2d7;
      }

      .cls-81 {
        fill: #d1a4cc;
        opacity: 0.31;
      }
    </style>
    <clipPath id="clip-path" transform="translate(33.63)">
      <rect class="cls-1" width="1600" height="900"/>
    </clipPath>
    <radialGradient id="radial-gradient" cx="1928.77" cy="2812.82" r="3.66" gradientTransform="matrix(1.25, -2.23, -2.58, -0.78, 4925.54, 7139.97)" gradientUnits="userSpaceOnUse">
      <stop offset="0.23" stop-color="#fff"/>
      <stop offset="0.67" stop-color="#f6eac1"/>
      <stop offset="1" stop-color="#f3faf8"/>
    </radialGradient>
    <radialGradient id="radial-gradient-2" cx="3177.01" cy="2384.28" r="5.55" gradientTransform="matrix(0.08, -2.59, -2.7, 0.47, 7530.87, 7781.98)" gradientUnits="userSpaceOnUse">
      <stop offset="0.23" stop-color="#fff"/>
      <stop offset="1" stop-color="#f3faf8"/>
    </radialGradient>
    <radialGradient id="radial-gradient-3" cx="5109.72" cy="1056.73" r="6.22" gradientTransform="matrix(-2.91, 0.54, -0.55, -2.88, 16104.73, 938.44)" gradientUnits="userSpaceOnUse">
      <stop offset="0" stop-color="#fdb814"/>
      <stop offset="0.21" stop-color="#f9ab19"/>
      <stop offset="0.59" stop-color="#ed8826"/>
      <stop offset="1" stop-color="#de5c37"/>
    </radialGradient>
    <linearGradient id="linear-gradient" x1="4503.63" y1="1681.6" x2="4523.72" y2="1681.6" gradientTransform="translate(5402.05 155.85) rotate(153.43) scale(1.01)" gradientUnits="userSpaceOnUse">
      <stop offset="0" stop-color="#f6851f"/>
      <stop offset="1" stop-color="#e95024"/>
    </linearGradient>
    <radialGradient id="radial-gradient-4" cx="5321.05" cy="987.4" r="0.99" gradientTransform="matrix(-2.81, 0.29, -0.3, -2.81, 15848.04, 1881.45)" gradientUnits="userSpaceOnUse">
      <stop offset="0" stop-color="#e8efe5"/>
      <stop offset="1" stop-color="#c4b88d"/>
    </radialGradient>
    <radialGradient id="radial-gradient-5" cx="240.58" cy="758.68" r="7.84" gradientTransform="matrix(2.96, 0, 0, -2.93, 345.27, 2814.63)" gradientUnits="userSpaceOnUse">
      <stop offset="0" stop-color="#854c9a"/>
      <stop offset="1" stop-color="#36254f"/>
    </radialGradient>
  </defs>
  <g class="cls-2">
    <g>
      <rect class="cls-3" x="33.63" width="1600" height="900"/>
      <g>
        <path class="cls-4" d="M-30.72,615.17c13.39-9.84-.46-102.83,16.21-103.68,82.78-4.21,123.22,3,145.92,11,47.79,16.86,91.45,41.64,97.44,44.5a56.77,56.77,0,0,1,29.08,32.89c9.38,28.33-4.49,62.22,11.18,87.69,7.73,12.56,21.36,20.4,35.08,26.11s28.22,9.9,40.85,17.68c22.09,13.62,36.46,37.36,42.77,62.33,3.74,14.76,4.94,30.12,9.52,44.65,14,44.24,62,75.3,108.67,70.21-24.34,1.39-49.12-.57-72.14-8.49s-44.22-22.09-58-41.94c-17.67-25.39-23.3-59.5-47.77-78.61-20.27-15.83-48-17-73.64-20.31s-54-11.64-65.71-34.41c-4.11-8-5.89-17.43-12.19-23.89-10.5-10.77-28.18-8.63-43-5.68,0,0-70.37,13.87-88.69-59.39C39.25,613.49-30.72,615.17-30.72,615.17Z" transform="translate(33.63)"/>
        <path class="cls-5" d="M-28.16,611.8c-.31-12.87-9-65.3-3.84-77.13s64.14-5.61,128-1.26c37.12,2.53,103.82,41.21,110.73,47s11.93,13.45,16,21.44a124.17,124.17,0,0,1,13.34,53.84c.14,8.64-.62,17.41,1.4,25.82a41.05,41.05,0,0,0,20,26.08c8.67,4.72,18.73,6.19,28,9.63a68.15,68.15,0,0,1,30.09,22.17c5.17,6.72,9.12,15.64,5.93,23.47-8.2-20.65-30.39-35-52.83-34.22-6.37.23-12.66,1.55-19,1.72-18.19.49-36.31-9.23-45.8-24.57-5.49-8.87-8.45-19.63-16.45-26.39-7.54-6.38-12.31-7-22.24-6.92-9.31.08-19.51,7.8-28,11.69-13,6-62.69,1.13-83.41-47.09C39.68,604.21-28.16,611.8-28.16,611.8Z" transform="translate(33.63)"/>
      </g>
      <g>
        <path class="cls-6" d="M566.8,539.32c-3.07,3.79-1.45,9.83,2.33,12.94s9,3.9,13.89,4c11.72.13,23.47-3.2,35-1.32,3.49.56,7,1.67,9.6,4.07,4.83,4.47,4.93,11.85,5.07,18.39.21,10,1.34,20.11,5.48,29.2s11.67,17.06,21.35,19.86c15.09,4.38,30.58-4.32,43.83-12.69s28.65-17.15,43.79-12.93c16.91,4.72,27.82,24.51,45.38,24.87,13.55.28,24.16-11.5,30.36-23.4,3.32-6.37,6-13.93,3.23-20.55-2.23-5.33-7.43-8.71-11.9-12.4a65.34,65.34,0,0,1-17.92-23.42c-3.51-7.78-5.67-16.54-11.82-22.52-4.69-4.55-11.11-6.87-17.42-8.67a162.21,162.21,0,0,0-69.77-4.16c-14.55,2.32-28.91,6.65-43.65,6.5-9.69-.11-19.28-2.15-29-2.56a86.59,86.59,0,0,0-54.51,16.59" transform="translate(33.63)"/>
        <path class="cls-5" d="M630.68,542c5.82,3.35,13.16,3.72,16.12,9.7s3.11,12.9,2.83,19.55-.92,13.41.65,19.88,5.89,12.76,12.35,14.63c5.43,1.57,11.27-.21,16.39-2.59s10-5.4,15.58-6.49c7.29-1.44,14.76.59,22.18.92a48.51,48.51,0,0,0,24.59-5.48c8.68-4.56,17.19-12,26.85-10.26,5.22,1,9.55,4.54,14.58,6.23a21,21,0,0,0,15.12-.72c2.77-1.24,5.47-3.45,5.72-6.44.4-4.57-4.75-7.44-9.07-9.1l-23.39-9c-5.69-2.18-11.57-4.4-17.67-4.24-10.8.28-19.91,7.8-30.28,10.77a37.1,37.1,0,0,1-21.66-.44c-5.14-1.69-10.28-5-11.61-10.23-.9-3.49.09-7.2-.32-10.78C689,542,684.42,537,679.1,534.18s-11.4-3.93-17.36-5l-19.36-3.39a14.11,14.11,0,0,0-1.59-.08C619.52,524.45,618,534.63,630.68,542Z" transform="translate(33.63)"/>
      </g>
      <g class="cls-7">
        <path class="cls-8" d="M887.61,828a75.5,75.5,0,0,1,5.21-7.34,135.87,135.87,0,0,1,37.9-32.93c4.51-2.63,9.38-5.07,14.62-5.22,1.93,0,4,.29,5.34,1.71,2.55,2.77.4,7.44,2,10.83,1.91,4,7.61,4,12,3.32a233.45,233.45,0,0,0,53.39-15.4c13.2-5.58,30.41-14.27,32.08-30.52a8.32,8.32,0,0,0-.68-4.82c-1.39-2.59-4.59-3.63-7.53-4-14.26-1.84-29.17,7.62-33.4,21.2,5.36,2.72,11.21-2.36,17-3.9,1.06-.29,2.38-.37,3.09.46,1,1.16-.08,2.87-1.16,3.92a34.73,34.73,0,0,1-13.73,8.2c-5.27,1.66-11.94,1.64-15.3-2.7s-1.5-11,1.43-15.79a49.81,49.81,0,0,1,42.87-23.31c6.58.15,13.31,1.72,18.55,5.65,8.72,6.52,11.75,18.76,9.09,29.24-9.22,36.3-58.32,38.44-88.51,43.72-24.19,4.23-49.38,10.87-66.7,28.07-9.76,9.7-16.3,22.1-21.68,34.71-1.26,2.92-2.5,5.95-4.72,8.25s-5.69,3.72-8.71,2.64c-7.66-2.76-.23-15.54,2.09-19.6,3.43-6,3.83-5.13,1.79-11.5-1.62-5-2.19-9.74-.81-14.94A37.46,37.46,0,0,1,887.61,828Z" transform="translate(33.63)"/>
      </g>
      <g class="cls-7">
        <path class="cls-9" d="M1195.63,550.45a119.36,119.36,0,0,0-48.88-24.34c-8.79-2.07-18.51-3-26.47,1.22-5.57,3-9.6,8.17-14.85,11.67a29.39,29.39,0,0,1-24.74,3.5c-15.07-4.77-23.31-20.43-35.56-30.34-8.62-7-19.23-11-29.64-15-3.43-1.31-7.12-2.63-10.7-1.82s-6.66,4.76-5.11,8.05C1013,516,1020.31,534.77,1036.23,544a5.64,5.64,0,0,0,2.88,1,11.17,11.17,0,0,0,2.84-.77c5.35-1.48,9.78,3.87,13.69,7.77,9.91,9.89,24.69,12.81,38.51,15.48s28.62,6.11,37.91,16.56c4.25,4.79,7,10.77,11.67,15.18,5.68,5.41,13.53,7.93,21.22,9.69a154.72,154.72,0,0,0,28.18,3.77,15,15,0,0,0,6.7-.8c2.08-.92,3.77-3.07,3.42-5.29-.28-1.73-1.66-3-3-4.23q-7.83-7-16-13.63a76.62,76.62,0,0,0-8.16-6.32c-1.53-.94-5.33-3-4.67-5.31.27-.92,1.52-1.09,2.47-.92,5.06.88,10.66,5.4,14.61,8.49,6.21,4.84,12.21,10.35,19.73,12.76a3.72,3.72,0,0,0,2.26.2c1.39-.45,1.81-2.16,2-3.59,1.26-12.27-1.57-25.81-9.12-35.81A47.47,47.47,0,0,0,1195.63,550.45Z" transform="translate(33.63)"/>
      </g>
      <g>
        <g class="cls-7">
          <path class="cls-10" d="M1435.39,475.48c-17.2,4.54-35,7.27-51.46,13.91s-32.06,18-38.59,34.36c-1.11,2.79-1.93,6-.6,8.72a8.46,8.46,0,0,0,3.08,3.26,14,14,0,0,0,13.24.95,13.6,13.6,0,0,0,7.69-10.69,3.74,3.74,0,0,0-.74-3.11,3.55,3.55,0,0,0-3.08-.64,8.27,8.27,0,0,0-6.55,6.57,2.77,2.77,0,0,0,3.8-.5c-1.59,2.14-5.29,1.81-7-.27s-1.46-5.2-.11-7.49a14.79,14.79,0,0,1,6-5.14c4.8-2.56,11.22-3.83,15.38-.34,2.74,2.3,3.72,6.2,3.16,9.71a21,21,0,0,1-4.69,9.48c-7.37,9.28-19,15.34-31,15.15s-23.77-7-29.06-17.56a21.85,21.85,0,0,1-2.5-10.93c.51-8.38,7-15.17,13.86-20.17s14.55-9.21,19.53-16c1.09-1.49,2-3.67.75-5a3.25,3.25,0,0,0-1.77-.91c-4.67-1-8.8,3.09-13.45,4.16-6.63,1.52-13.49-4-14.86-10.58s1.72-13.46,6.43-18.32c10-10.34,25.73-12.49,40.16-14l53.34-5.77c12-1.29,24-2.58,36-1.3,9.34,1,33.92,11,23.46,23.72C1467.12,467.27,1448.13,472.13,1435.39,475.48Z" transform="translate(33.63)"/>
        </g>
        <g class="cls-7">
          <path class="cls-11" d="M1379.47,481.89a17.93,17.93,0,0,1-6.74,1.35c-2.3-.13-4.69-1.3-5.6-3.4-.62-1.45-.47-3.1-.69-4.66a9.85,9.85,0,0,0-5.37-7.33c-6-2.92-13.16.71-19.8-.1a14.84,14.84,0,0,1-11.89-9.33,4.32,4.32,0,0,1-.22-3.16,4.87,4.87,0,0,1,2.48-2.17,60.63,60.63,0,0,1,10.7-3.83c14-4,28-8.08,42.36-10.32,8-1.24,16.08-1.91,24-3.36,5.15-.94,10.34-2.21,15.56-1.74s10.61,3.12,12.66,7.88c4.53,10.52-13.29,18.31-20,22.44A190.1,190.1,0,0,1,1379.47,481.89Z" transform="translate(33.63)"/>
        </g>
      </g>
      <g class="cls-7">
        <path class="cls-12" d="M1647.09,727c-17.21,10.34-30,26.62-46.43,38.06-8.71,6.06-19.42,10.84-29.79,8.44s-17.87-11.3-27.67-15.37c-6.3-2.62-13.31-3.11-20.13-2.8a90.88,90.88,0,0,0-56.25,23.12c-1.89-3.72.94-8,3.86-11.05a134.71,134.71,0,0,1,14.74-12.67c25-19.2,52-36.12,81.34-47.84s61.15-18.14,92.74-16.09c8.18.53,44,2.59,33.59,18.33-4,6-14.21,5.67-20.57,7.38A100.05,100.05,0,0,0,1647.09,727Z" transform="translate(33.63)"/>
      </g>
      <g>
        <g class="cls-13">
          <ellipse class="cls-14" cx="127.78" cy="651.31" rx="9.82" ry="9.7"/>
          <path class="cls-15" d="M90.51,642.31a8.14,8.14,0,0,1,10.34,4.17,8,8,0,0,1-4,10.57h0a8.15,8.15,0,0,1-10.72-4,8,8,0,0,1,3.7-10.4,9.62,9.62,0,0,0-4.57,12.64,9.89,9.89,0,0,0,13,4.86,9.65,9.65,0,0,0,5-12.7.61.61,0,0,0,0-.12A9.87,9.87,0,0,0,90.51,642.31Z" transform="translate(33.63)"/>
          <path class="cls-16" d="M103.38,648c0-.06,0,0-.07-.09a10.1,10.1,0,0,1-6.72,10.3A10.31,10.31,0,0,1,85,654.8a9.67,9.67,0,0,0,4.61,5.1l.27.13.12.06a10,10,0,0,0,7.45.35,9.67,9.67,0,0,0,6-12.28Z" transform="translate(33.63)"/>
          <path class="cls-17" d="M93.41,659.47a.21.21,0,0,1,.19,0l.2-.08a4,4,0,0,0,1.32-.88,2.68,2.68,0,0,0-.73-2.54,1.35,1.35,0,0,0-.74-.4.7.7,0,0,0-.73.35.47.47,0,0,0,.24.61l.11,0a2.34,2.34,0,0,1-2.56-.11c-.15,0-.2.24-.18.4a1,1,0,0,1,0,.48.48.48,0,0,1-.6.18,1.41,1.41,0,0,1-.51-.46,1.91,1.91,0,0,1-1,2h.14a2,2,0,0,0,1,.24.25.25,0,0,1,.27.23v0l.24.05a.24.24,0,0,1,.28,0A4.1,4.1,0,0,0,93.41,659.47Z" transform="translate(33.63)"/>
          <path class="cls-18" d="M100.92,645.12a2.26,2.26,0,0,0-1-.56.71.71,0,0,0-.76.11.55.55,0,0,0,.09.7,2.3,2.3,0,0,0,.63.44,3.26,3.26,0,0,1,1.53,2.2.77.77,0,0,0,.3.67.6.6,0,0,0,.75-.41,1.59,1.59,0,0,0-.21-.95A6.36,6.36,0,0,0,100.92,645.12Z" transform="translate(33.63)"/>
          <path class="cls-17" d="M99.73,645.82a3.07,3.07,0,0,1,1.42,1.47,4.13,4.13,0,0,1,.14.7,1.26,1.26,0,0,0,.27.64.62.62,0,0,0,.65.2.38.38,0,0,0,.23-.5l0-.07c-.17.22-.54.13-.71-.09a1.93,1.93,0,0,1-.28-.77,3.11,3.11,0,0,0-2.2-2.22C99.22,645.46,99.49,645.67,99.73,645.82Z" transform="translate(33.63)"/>
          <ellipse class="cls-19" cx="94.16" cy="649.23" rx="4.98" ry="3.88" transform="translate(4.5 4.9) rotate(-2.58)"/>
          <path class="cls-17" d="M96.77,646.49a.87.87,0,0,1,.68-.25,1.87,1.87,0,0,0,.74-.1.47.47,0,0,0,.28-.6.86.86,0,0,1-.48,1.37,4.66,4.66,0,0,0-.64.08c-.21.08-.42.25-.37.45s.08.16.13.24a.89.89,0,0,1-.16.83.63.63,0,0,0,0,.81.83.83,0,0,1-.45-.93v-.67C96.61,647.26,96.46,646.85,96.77,646.49Z" transform="translate(33.63)"/>
          <path class="cls-17" d="M96.67,656.49c.23-.09.45.12.67.22.6.27,1.27-.16,1.78-.57l1.78-1.43a.21.21,0,1,1,.3.3h0a4.8,4.8,0,0,1-2.13,1.56.81.81,0,0,0-.35.25c-.3.42.18.76.55.68h0a.28.28,0,0,1,.34.18.27.27,0,0,1,0,.2l-.08.17a7.06,7.06,0,0,0,1.93-1.26.28.28,0,0,1,.4,0,.29.29,0,0,1,0,.38,7.67,7.67,0,0,1-.89,1,8,8,0,0,1-2.7,1.78,4.39,4.39,0,0,1-3.19,0,3,3,0,0,1-1.85-2.47,1.67,1.67,0,0,1,.54-1.43,1.06,1.06,0,0,1,1.44.05c.15.18.22.41.35.6a.53.53,0,0,0,.61.25C96.38,656.84,96.45,656.56,96.67,656.49Z" transform="translate(33.63)"/>
          <path class="cls-17" d="M87.48,649a4.69,4.69,0,0,0,.06,4.15c.33.62.81,1.28.62,2a1.57,1.57,0,0,0-.14.64.87.87,0,0,0,.39.47,2.12,2.12,0,0,0,1.77.62,3.6,3.6,0,0,1,.78-.27c.38,0,.77.34,1.1.11a.5.5,0,0,0,.18-.34c0-.41-.26-.74-.27-1.13a1.06,1.06,0,0,1,.59-.92,2,2,0,0,1,.4-.17.48.48,0,0,0,.32-.6.44.44,0,0,0-.15-.23A1.85,1.85,0,0,0,92,653c-.42,0-.89.17-1.22-.16a.74.74,0,0,1-.14-.8,1.62,1.62,0,0,1,1.15-.88,8.88,8.88,0,0,1-2.3-.27,2.6,2.6,0,0,1-1.63-1.25C87.73,649.22,87.76,649.19,87.48,649Z" transform="translate(33.63)"/>
          <path class="cls-17" d="M99.55,653.05a2.54,2.54,0,0,1-1.71-.58,9.61,9.61,0,0,0-3.91-1.61,4,4,0,0,0-3.78,1.46,3.92,3.92,0,0,1,3.47-1.84,6.72,6.72,0,0,1,3.7,1.21,3.77,3.77,0,0,0,1.8.83,1.74,1.74,0,0,0,1.25-.64,3.14,3.14,0,0,0,.61-1.29,4.77,4.77,0,0,1-.31,1.49A1.65,1.65,0,0,1,99.55,653.05Z" transform="translate(33.63)"/>
          <path class="cls-20" d="M93.05,655.8Z" transform="translate(33.63)"/>
          <path class="cls-21" d="M88,656.17A6.58,6.58,0,0,0,87,655c-.24,0-.28-.38-.16-.59s.33-.34.45-.54.13-.53-.09-.61a.49.49,0,0,0-.48.16,1.1,1.1,0,0,1-.42.32.55.55,0,0,1-.56-.31,1.18,1.18,0,0,1-.07-.67,2.58,2.58,0,0,0,0-.68,1.08,1.08,0,0,0-.56-.77,1.49,1.49,0,0,0-.81.07,9.72,9.72,0,0,0,2.57,6.45l.06.06.21.22.26.24.07.07.39.33a2.27,2.27,0,0,0,.54-1A2.46,2.46,0,0,0,88,656.17Z" transform="translate(33.63)"/>
          <path class="cls-21" d="M90.54,643.91a1.75,1.75,0,0,0-.47.43.57.57,0,0,0,.05.6c.09.12-.07.25-.2.34a.38.38,0,0,1-.43,0,7,7,0,0,0-.12,9.9,7.4,7.4,0,0,0,1.39,1.1c.12.07.34.33.65.17a.24.24,0,0,1-.13-.31.83.83,0,0,1,.2-.32,2.22,2.22,0,0,0,.35-.64.63.63,0,0,0,.06-.27.31.31,0,0,0-.14-.23.48.48,0,0,0-.4.09c-.13.07-.3.19-.4.09a.45.45,0,0,1-.45-.39.45.45,0,0,1,.34-.48.72.72,0,0,0,.41-.08.34.34,0,0,0,0-.48.86.86,0,0,0-.5-.23.56.56,0,0,1-.41-.51,1.17,1.17,0,0,1,.22-.67,3.68,3.68,0,0,1,3.17-1.54,7,7,0,0,1,3.47,1.14,9.94,9.94,0,0,0,1.35.76c.48.19,1.07.39,1.48.08a2.76,2.76,0,0,0,1.1-2.65A2.32,2.32,0,0,0,99,647.93a1.3,1.3,0,0,0-.93.29c-.23.21-.35.51-.56.74s-.61.35-.81.11a.61.61,0,0,1,0-.64,1.11,1.11,0,0,0,.16-.64,1.66,1.66,0,0,0-.19-.43.43.43,0,0,1,0-.46c.11-.12.3-.1.47-.11a1.44,1.44,0,0,0,1.3-1,.88.88,0,0,0-.06-.74c-.24-.4-.81-.42-1.28-.47a4.54,4.54,0,0,1-3.73-3,10.16,10.16,0,0,0-2.26.44A1.71,1.71,0,0,1,90.54,643.91Z" transform="translate(33.63)"/>
          <path class="cls-20" d="M93,655.72Z" transform="translate(33.63)"/>
          <path class="cls-20" d="M103.48,648.29l-.3.17a.71.71,0,0,0-.35.39c-.07.29.23.52.41.75.5.64.25,1.67.72,2.29A9.56,9.56,0,0,0,103.48,648.29Z" transform="translate(33.63)"/>
          <path class="cls-21" d="M88.73,659.39a8.78,8.78,0,0,0,.94.54,9.9,9.9,0,0,0,10.87-1.24,1,1,0,0,0-.13-.16.84.84,0,0,0-.83-.19l-.45.21a.67.67,0,0,1-.48.06.31.31,0,0,1-.21-.38h0c-.42-.34-.87-.8-1.29-1.13a.91.91,0,0,0-.46-.23c-.4,0-.73.51-1.17.1a1,1,0,0,1-.27-.44,1.28,1.28,0,0,0-1.07-.78,2.62,2.62,0,0,0-.56,0,.39.39,0,0,0-.35.44v0h0c0,.18-.12.39-.31.37s-.29,0-.46,0a1.56,1.56,0,0,0-.52-.15,1.15,1.15,0,0,0-.51.14l-.43.22c-.2,0-.17.06-.19.25s0,.41-.2.51a.44.44,0,0,1-.49-.07,1.3,1.3,0,0,0-.54-.32.29.29,0,0,0-.33.17c-.05.16.08.3.16.44a1.12,1.12,0,0,1-.3,1.22Z" transform="translate(33.63)"/>
          <path class="cls-19" d="M98.49,653.6a1.11,1.11,0,0,0-1-.13L94.9,654c-.31.06-.7.19-.73.51a.64.64,0,0,0,.33.54,2.94,2.94,0,0,0,3.69-.1,1.35,1.35,0,0,0,.45-.6A.67.67,0,0,0,98.49,653.6Z" transform="translate(33.63)"/>
          <path class="cls-22" d="M89.77,652.79a2,2,0,0,1,1.1-1.71c-.19-.21-.55-.12-.79.06s-.58.63-1.11.49a.16.16,0,0,1-.1-.08c-.19-.36,0-.51.27-.59a5.19,5.19,0,0,1,1.57-.17,1.91,1.91,0,0,0,1.43-.57,6.82,6.82,0,0,1-1.91.2,2.33,2.33,0,0,1-1.68-.83,1.39,1.39,0,0,0-.37-.43.36.36,0,0,0-.35,0c-.17.1-.17.48-.18.6a8.17,8.17,0,0,0,.75,3.4,2.74,2.74,0,0,0,2,1.91.15.15,0,1,0,.09-.29h0C89.58,654.28,89.87,652.56,89.77,652.79Z" transform="translate(33.63)"/>
          <path class="cls-18" d="M95.77,650.14a.9.9,0,0,0-.32.09.31.31,0,0,0-.2.24,6.79,6.79,0,0,1,2.27,1,.58.58,0,0,0,.18.08.14.14,0,0,0,.15-.09.21.21,0,0,0-.08-.16c-.24-.24-.55-.4-.81-.62a1,1,0,0,1-.41-.88,1,1,0,0,0,.07-.34c0-.12-.15-.23-.25-.17A.84.84,0,0,1,95.77,650.14Z" transform="translate(33.63)"/>
          <path class="cls-23" d="M84.72,652.51c.41.11.52.61.64,1,.45,1.42,1.83,2.35,2.5,3.68.08.16.15.36,0,.49a.32.32,0,0,1-.37.07.92.92,0,0,1-.31-.24,14.88,14.88,0,0,1-2.48-4C84.58,653.17,84.45,652.74,84.72,652.51Z" transform="translate(33.63)"/>
          <path class="cls-24" d="M97.35,658.12c-.68-.73-2.14,0-2.84-.75-.21-.21-.32-.54-.6-.63a.71.71,0,0,0-.71.24c-.18.18-.32.41-.52.58a2.19,2.19,0,0,1-1.1.42,3,3,0,0,0-1.13.35.88.88,0,0,0-.41,1,10.5,10.5,0,0,0,5.68,1,2.56,2.56,0,0,0,1.52-.68A1.17,1.17,0,0,0,97.35,658.12Z" transform="translate(33.63)"/>
          <path class="cls-25" d="M88.72,659.41c.3.19.61.37.94.54a9.92,9.92,0,0,0,10.73-1.13.84.84,0,0,0-.74-.36,5.05,5.05,0,0,1-.56.12.69.69,0,0,1-.45,0,.35.35,0,0,1-.23-.28,2.71,2.71,0,0,0-1.51.26,9.61,9.61,0,0,1-7.38-.59,1.32,1.32,0,0,1-.38,1A6,6,0,0,1,88.72,659.41Z" transform="translate(33.63)"/>
          <path class="cls-19" d="M99.15,655.2A3.31,3.31,0,0,0,101,654a6.82,6.82,0,0,0,1-2c.09-.26.17-.52.25-.79s.1-.44-.06-.57a.38.38,0,0,0-.47,0,1.16,1.16,0,0,0-.29.68,3.41,3.41,0,0,1-1.66,2.16,1.64,1.64,0,0,0-.66.74v.07a3,3,0,0,0-.32.47.37.37,0,0,0,.16.47A.34.34,0,0,0,99.15,655.2Z" transform="translate(33.63)"/>
          <path class="cls-26" d="M99.23,650.12a2.43,2.43,0,0,0,.07-1.31.51.51,0,0,0-.14-.26.34.34,0,0,0-.46.13,1.54,1.54,0,0,0-.16.5.62.62,0,0,1-.28.44c-.12.06-.29,0-.39.15a.29.29,0,0,0,0,.35,1,1,0,0,0,.26.27.85.85,0,0,0,.69.24A.69.69,0,0,0,99.23,650.12Z" transform="translate(33.63)"/>
          <path class="cls-27" d="M88,652a3.11,3.11,0,0,0,.21.9,2.56,2.56,0,0,0,.84.92c.11.07.26.14.36.06a.24.24,0,0,0,0-.23.53.53,0,0,0-.16-.2,2.78,2.78,0,0,1-.77-1.58,5.4,5.4,0,0,0-.07-1.06,1.27,1.27,0,0,0-.5-.91.91.91,0,0,0-.11.7Z" transform="translate(33.63)"/>
          <path class="cls-28" d="M94.11,658.67l.15.18a.85.85,0,0,1-.5,0l-2.39-.32a3.18,3.18,0,0,0,1.3-.47,2.55,2.55,0,0,1,.72-.49.69.69,0,0,1,.72,1.1Z" transform="translate(33.63)"/>
          <path class="cls-17" d="M93,652.56a2.6,2.6,0,0,1-1.11,0c-.16,0-.38-.12-.34-.29s.13-.14.22-.18h.08c.75-.3-.12-.27-.13-.34a3.53,3.53,0,0,1,3.14-.36,1.34,1.34,0,0,1,.84.57,4.33,4.33,0,0,0-2.18-.46,1.75,1.75,0,0,0-.55.12l-.12.08a.18.18,0,0,0,0,.25A.18.18,0,0,0,93,652c.48,0,1.48-.25,1.44,0s.87.25-.06.21A2.09,2.09,0,0,0,93,652.56Z" transform="translate(33.63)"/>
          <path class="cls-17" d="M102.49,649.09a1.19,1.19,0,0,1-1-.19h-.09s.08.14.16.17a.34.34,0,0,1,.2.15c0,.08,0,.19,0,.3,0,.27.33.46.3.73l.15-.66a.35.35,0,0,1,.12-.23l.19-.07A.15.15,0,0,0,102.49,649.09Z" transform="translate(33.63)"/>
          <path class="cls-29" d="M87.28,645.54a7.71,7.71,0,0,1,.52-.75.12.12,0,0,0,0-.15.14.14,0,0,0-.11,0,9.82,9.82,0,0,0-1.84,2.41,3.12,3.12,0,0,0-.37.93.19.19,0,0,0,.18.21.2.2,0,0,0,.19-.09,12.94,12.94,0,0,1,1-1.63,6.38,6.38,0,0,0-.52,5.34,17.69,17.69,0,0,1,1-5.09,7.34,7.34,0,0,1,2.63-3.37.08.08,0,1,0-.08-.14A5.19,5.19,0,0,0,87.28,645.54Z" transform="translate(33.63)"/>
          <path class="cls-25" d="M87.88,658.79a1.56,1.56,0,0,0,.42-.56,1.69,1.69,0,0,0,0-.45,2.25,2.25,0,0,0-.57-1.14c-.29-.33-.62-.61-.93-.92a6.34,6.34,0,0,1-1.72-3.61,3.55,3.55,0,0,0-.12-.65l-.1-.15a1.12,1.12,0,0,0-.54.09A9.41,9.41,0,0,0,87.88,658.79Z" transform="translate(33.63)"/>
          <path class="cls-22" d="M91,646.84a3.72,3.72,0,0,0,.33-.45.44.44,0,0,0,0-.52.48.48,0,0,0-.58,0,3.12,3.12,0,0,0-.44.45c-.45.46-1.22.65-1.45,1.25a.94.94,0,0,0,.61,1.18h0c.49.12,1-.18,1.48-.25a1.53,1.53,0,0,0,.36-.07.31.31,0,0,0,.22-.27c0-.26-.42-.32-.59-.52A.71.71,0,0,1,91,646.84Z" transform="translate(33.63)"/>
          <path class="cls-22" d="M94.07,647.21a1.45,1.45,0,0,1,.72-.28,1.78,1.78,0,0,0,.74-.23.59.59,0,0,0,.26-.67.71.71,0,0,0-.39-.33,2.07,2.07,0,0,0-1.15-.16c-.32.05-.63.18-1,.23a1,1,0,0,1-.9-.22,1.93,1.93,0,0,0-.31-.33c-.13-.08-.35,0-.34.13a1.16,1.16,0,0,1-.09,1.24,2.59,2.59,0,0,0-.32.42.33.33,0,0,0,.13.45h0a.78.78,0,0,1,.3-.39c.16-.08.39,0,.42.14a.49.49,0,0,1,0,.24,1.12,1.12,0,0,0,.16,1,.77.77,0,0,0,.59.32c.34,0,.58-.35.7-.67A2,2,0,0,1,94.07,647.21Z" transform="translate(33.63)"/>
          <path class="cls-30" d="M85.42,646.87a9.48,9.48,0,0,0-1.08,4,10.57,10.57,0,0,0,17-6.21,9.9,9.9,0,0,0-15.89,2.2Z" transform="translate(33.63)"/>
          <path class="cls-31" d="M85.9,656.54c-.06-.08-.11-.16-.16-.24a9.72,9.72,0,0,0,3.92,3.63,9.88,9.88,0,0,0,13.23-4.18,9.64,9.64,0,0,0-4.12-13l-.13-.07a9.78,9.78,0,0,0-3.34-1,9.71,9.71,0,0,1,6.57,4,9.43,9.43,0,0,1-2.19,13.14l-.25.17A9.84,9.84,0,0,1,85.9,656.54Z" transform="translate(33.63)"/>
          <path class="cls-32" d="M91.47,642.63c3.29-1,7,.41,7.89,3.23s-1.69,3.64-5.14,5.16c-2.84,1.24-6.74,1.51-7.61-1.31S88.18,643.6,91.47,642.63Z" transform="translate(33.63)"/>
        </g>
        <g class="cls-33">
          <ellipse class="cls-34" cx="1399.3" cy="685.38" rx="15.18" ry="14.99"/>
          <path class="cls-35" d="M1354.23,675.56a12.64,12.64,0,0,1,17.18-1.5,12.26,12.26,0,0,1,2.15,17.2l-.15.19a12.65,12.65,0,0,1-17.6,2,12.26,12.26,0,0,1-2.36-16.87,14.85,14.85,0,0,0,2.78,20.55,15.32,15.32,0,0,0,21.33-2.4,14.86,14.86,0,0,0-2.19-20.91l-.2-.16A15.31,15.31,0,0,0,1354.23,675.56Z" transform="translate(33.63)"/>
          <path class="cls-36" d="M1374,693.2a15.89,15.89,0,0,1-18.55,3.28,15.35,15.35,0,0,0,21.3-.85,14.89,14.89,0,0,0-.55-21l-.18-.17c-.07-.06-.09,0-.16-.06A15.47,15.47,0,0,1,1374,693.2Z" transform="translate(33.63)"/>
          <path class="cls-37" d="M1378.75,683.6h-.06a.1.1,0,0,0-.06.13.09.09,0,0,0,.06.06h.06a.1.1,0,0,0,.06-.13A.09.09,0,0,0,1378.75,683.6Z" transform="translate(33.63)"/>
          <path class="cls-38" d="M1363.8,672.56a6.55,6.55,0,0,0,1.14-2.15,15.16,15.16,0,0,0-12.54,7.7A14.43,14.43,0,0,0,1363.8,672.56Z" transform="translate(33.63)"/>
          <path class="cls-39" d="M1365.15,698.44a12.11,12.11,0,0,0-3.43,1.41,15.28,15.28,0,0,0,17-6.78,14.67,14.67,0,0,1-6.2,3.88C1370.12,697.7,1367.57,697.82,1365.15,698.44Z" transform="translate(33.63)"/>
          <path class="cls-39" d="M1374.31,691.7c-2.87,1.29-6.1,2.26-8.45,4.34-1,.88-2.52.71-3.85.61a23.21,23.21,0,0,0-6,.33,15.74,15.74,0,0,0,2.49,1.64,39.82,39.82,0,0,0,6-1.38,48.06,48.06,0,0,0,8.74-4.26l6.64-3.82.49-.28c.08-.33.14-.67.2-1A23.63,23.63,0,0,1,1374.31,691.7Z" transform="translate(33.63)"/>
          <path class="cls-38" d="M1357,681.61c1.19-.71,2.24-1.66,3.48-2.29,1.09-.55,2.3-.84,3.39-1.39a8.14,8.14,0,0,0,4.51-5.62.16.16,0,0,0-.14-.16.17.17,0,0,0-.12.05c-1.63,2-3.94,3.15-5.64,5.13a2.5,2.5,0,0,1-1.92.63,4.84,4.84,0,0,0-2,.25.84.84,0,0,0-.49.55,6.54,6.54,0,0,0,.13.75,1.26,1.26,0,0,1-1.12,1.27,2.91,2.91,0,0,1-1.65-.47c-.44-.18-.91.31-1.12.64a1,1,0,0,1-.54.39c-.74.18-.9-.77-1.48-1a1.2,1.2,0,0,0-.87.1,16,16,0,0,0-.72,3.06A16.05,16.05,0,0,0,1357,681.61Z" transform="translate(33.63)"/>
          <path class="cls-40" d="M1354.77,693.37c1.23-.46,2.35-1.19,3.62-1.55a9.2,9.2,0,0,0,1.62-.5c.81-.12,1.61-.24,2.41-.4a34.21,34.21,0,0,0,11.51-5.06.78.78,0,0,0,.54.52c.48.1.89-.33,1.13-.76s.45-.92.9-1.1,1.29.15,1.79-.19.44-.71.61-1.09a5,5,0,0,1,1.41-1.6h0a14.87,14.87,0,0,0-1.24-3.14c-1.7,2.79-5.1,4.28-7.36,6.73a18.38,18.38,0,0,1-2.37,2.54,9.63,9.63,0,0,1-4.71,1.53,73.13,73.13,0,0,0-7.8,1.08c-.47.11-.94.23-1.4.38a8.6,8.6,0,0,0-3.94.13,14.74,14.74,0,0,0,1.54,2.91A6.16,6.16,0,0,0,1354.77,693.37Z" transform="translate(33.63)"/>
          <path class="cls-41" d="M1357.68,686.34a15.76,15.76,0,0,1-6.79,2.45c.06.25.13.5.2.75a18.07,18.07,0,0,0,5.66-1.34c2.48-1,4.82-2.26,7.29-3.25,3-1.21,6.27-2,9.09-3.62a10.91,10.91,0,0,0,4.64-5,14.11,14.11,0,0,0-2.23-2.34,12.46,12.46,0,0,1-6.94,7.27c-2.23.91-4.71,1.16-6.85,2.27A49,49,0,0,0,1357.68,686.34Z" transform="translate(33.63)"/>
          <path class="cls-38" d="M1353,686.72c.93-.24,1.93,0,2.85-.33a5.42,5.42,0,0,0,2-1.45l1-1a.33.33,0,0,0,0-.47.34.34,0,0,0-.38-.08,74.29,74.29,0,0,1-8.12,2.57,14,14,0,0,0,.2,1.94A10.43,10.43,0,0,1,1353,686.72Z" transform="translate(33.63)"/>
          <path class="cls-39" d="M1380.44,681.93a1.61,1.61,0,0,0-.72,1,11.87,11.87,0,0,1-7.18,6.72,46.12,46.12,0,0,1-6.39,1.2,10.77,10.77,0,0,0-4.81,2,.52.52,0,0,0,.36.92c2.17-.09,4.27-1.21,6.35-2,2.47-1,5.09-1.47,7.54-2.45a11.78,11.78,0,0,0,5.25-3.79h0A15.58,15.58,0,0,0,1380.44,681.93Z" transform="translate(33.63)"/>
          <path class="cls-38" d="M1367.55,679.68a4.39,4.39,0,0,0,1.51-1.33,14,14,0,0,1,1.28-1.58,4.66,4.66,0,0,0,.83-.83,1,1,0,0,0,.08-1.1.94.94,0,0,0-1.11-.24,2,2,0,0,0-.88.82,8.38,8.38,0,0,1-.68,1,9.42,9.42,0,0,1-1.93,1.26,1.21,1.21,0,1,0,0,2.42,1.23,1.23,0,0,0,.93-.42Z" transform="translate(33.63)"/>
          <g>
            <path class="cls-42" d="M1380.14,680.85l-.18.36-.22.4c-.08.14-.15.28-.24.43l-.28.45c-.09.15-.19.31-.3.46l-.33.48c-.24.31-.48.65-.75,1s-.55.62-.84.94a10.44,10.44,0,0,1-.91.86c-.31.27-.64.52-.95.77l-.47.34-.47.32-.44.28-.44.25-.39.23-.37.18c-.24.12.17-.07,0,0a11.82,11.82,0,0,0-1.43,1l.39-.17.59-.17a2.37,2.37,0,0,0,.66-.23l.4-.15.43-.2.47-.22.49-.26c.17-.09.34-.2.51-.31l.52-.33a10.37,10.37,0,0,0,1-.78c.31-.29.66-.58,1-.89a6.5,6.5,0,0,0,.89-1c.27-.37.53-.69.77-1s.22-.34.33-.51a4.4,4.4,0,0,0,.29-.51,9.11,9.11,0,0,0,.47-1l.06-.14C1380.32,681.45,1380.24,681.15,1380.14,680.85Z" transform="translate(33.63)"/>
            <path class="cls-42" d="M1363.72,682.2l-.93.28c-.31.11-.6.19-.88.31l-.41.16-.39.18c-.26.12-.49.26-.72.38a5,5,0,0,0-.61.41,6.06,6.06,0,0,0-.89.79l-.29.34-.18.26-.15.23.3.2.17-.18.2-.22.3-.28c.11-.1.25-.2.4-.31l.49-.33c.18-.12.38-.21.59-.33a4.69,4.69,0,0,1,.68-.31l.37-.15.4-.15.85-.27.91-.26,1-.29a20.13,20.13,0,0,0,2-.77c.33-.15.67-.28,1-.46l.49-.24.49-.26c.33-.16.63-.37,1-.56.16-.09.31-.2.46-.3a4.6,4.6,0,0,0,.45-.32c.14-.12.58-.44.83-.69l.4-.36.37-.37a8.19,8.19,0,0,0,.68-.76,8.9,8.9,0,0,0,.58-.79,11.92,11.92,0,0,0,.87-1.56,8.8,8.8,0,0,0,.54-1.4,1.72,1.72,0,0,0,.07-.21l-.29-.23-.15.3c-.21.43-.44.86-.69,1.27-.14.23-.27.47-.44.7s-.32.48-.51.72c-.36.49-.74,1-1.18,1.49l-.34.37-.35.36c-.24.25-.51.47-.76.71l-.82.66c-.3.2-.58.42-.89.6l-.46.27-.48.24a9.4,9.4,0,0,1-1,.39c-.67.19-1.37.36-2,.49Z" transform="translate(33.63)"/>
            <path class="cls-42" d="M1350.49,685.4h1l.89-.12a8.56,8.56,0,0,0,1-.24,8.94,8.94,0,0,0,1-.32l1-.41,1-.5c.33-.16.63-.35.93-.52s.59-.33.86-.5l.75-.46c.24-.14.45-.28.63-.41l.48-.32.41-.28-.46.19-.53.23q-.3.13-.69.27l-.81.31c-.29.12-.61.2-.93.3s-.66.2-1,.28l-1,.28c-.34.08-.69.16-1,.26l-1,.27-.47.14-.45.14-.81.27-.69.27v.88Z" transform="translate(33.63)"/>
          </g>
          <path class="cls-39" d="M1359.2,694.45a12.08,12.08,0,0,0-5.38.29,15.4,15.4,0,0,0,2.73,2.62,14.1,14.1,0,0,1,3.45-1.61,25.68,25.68,0,0,1,2.76-.23,3.31,3.31,0,0,0,2.4-1.19A14.26,14.26,0,0,1,1359.2,694.45Z" transform="translate(33.63)"/>
          <path class="cls-42" d="M1372.64,691a19.9,19.9,0,0,0-2.41,1.4,3.14,3.14,0,0,1-2.68.4C1368.92,691.62,1370.83,691.29,1372.64,691Z" transform="translate(33.63)"/>
          <path class="cls-30" d="M1350.49,685.38a14.75,14.75,0,0,0,1.38,6.24c5.39,1.35,10.89-.42,15-4.7,4.23-4.44,5.76-10.4,3.75-15.72a15.58,15.58,0,0,0-4.93-.81,15.1,15.1,0,0,0-15.2,15Z" transform="translate(33.63)"/>
          <path class="cls-43" d="M1355.29,675.32c3.83-3.63,9.94-4.34,13.15-1.09s.29,6.19-3.37,10.68c-3,3.69-8.17,6.78-11.38,3.53S1351.46,679,1355.29,675.32Z" transform="translate(33.63)"/>
          <path class="cls-31" d="M1359.16,698.94a15.56,15.56,0,0,0,6.51,1.43,15,15,0,1,0-3.89-29.48,15.15,15.15,0,0,1,10.53,1.32,14.67,14.67,0,0,1,6.27,19.78l-.12.22A15.3,15.3,0,0,1,1359.16,698.94Z" transform="translate(33.63)"/>
        </g>
        <path class="cls-44" d="M339.19,609.91c.73.7-21.47,24.28-22.75,25.57s-2.92,1.79-3.65,1.08-.27-2.32,1-3.62S338.46,609.21,339.19,609.91Z" transform="translate(33.63)"/>
        <path class="cls-44" d="M211.19,768c.73.7-21.47,24.27-22.75,25.57s-2.92,1.79-3.65,1.08-.27-2.32,1-3.62S210.46,767.26,211.19,768Z" transform="translate(33.63)"/>
        <path class="cls-44" d="M559.35,723.71c.73.7-21.47,24.27-22.75,25.57s-2.92,1.78-3.65,1.08-.27-2.32,1-3.62S558.62,723,559.35,723.71Z" transform="translate(33.63)"/>
        <path class="cls-44" d="M771,589.84c.73.71-21.46,24.28-22.75,25.58s-2.92,1.78-3.64,1.08-.28-2.33,1-3.63S770.31,589.14,771,589.84Z" transform="translate(33.63)"/>
        <path class="cls-44" d="M979.67,515.25c.73.7-21.46,24.27-22.75,25.57s-2.92,1.78-3.64,1.08-.28-2.33,1-3.62S979,514.54,979.67,515.25Z" transform="translate(33.63)"/>
        <path class="cls-44" d="M804.31,753c.73.7-21.46,24.27-22.75,25.57s-2.92,1.79-3.64,1.08-.28-2.32,1-3.62S803.59,752.25,804.31,753Z" transform="translate(33.63)"/>
        <path class="cls-44" d="M1219,689.73c.73.7-21.46,24.28-22.75,25.57s-2.92,1.79-3.64,1.08-.28-2.32,1-3.62S1218.31,689,1219,689.73Z" transform="translate(33.63)"/>
        <path class="cls-44" d="M1443,449.5c.73.7-21.46,24.27-22.75,25.57s-2.92,1.78-3.64,1.08-.28-2.32,1-3.62S1442.31,448.8,1443,449.5Z" transform="translate(33.63)"/>
        <path class="cls-44" d="M1416.15,573.41c.73.7-21.46,24.27-22.75,25.57s-2.92,1.78-3.64,1.08-.28-2.32,1-3.62S1415.43,572.71,1416.15,573.41Z" transform="translate(33.63)"/>
        <path class="cls-44" d="M353.27,835c.73.71-21.47,24.28-22.75,25.58s-2.92,1.78-3.65,1.08-.27-2.33,1-3.63S352.54,834.27,353.27,835Z" transform="translate(33.63)"/>
      </g>
      <g class="cls-33">
        <g>
          <g class="cls-45">
            <g class="cls-46">
              <path class="cls-47" d="M93.33,631.81l.31,6.55a2,2,0,0,0,1.11,1.9l4.43,1.5-4.54.45a1.74,1.74,0,0,0-1.31,1.62l-1,6.39L92,643.67a2,2,0,0,0-1.12-1.9l-4.42-1.5,4.53-.45a1.75,1.75,0,0,0,1.32-1.62Z" transform="translate(33.63)"/>
            </g>
            <path class="cls-48" d="M72.74,61.3l1.32,6c.19.85.73,1.42,1.35,1.41l4.37-.06-4.17,1.92a2.09,2.09,0,0,0-1,1.94v6.33l-1.33-6c-.18-.84-.73-1.42-1.35-1.41l-4.37.06,4.17-1.92a2.09,2.09,0,0,0,1-1.94Z" transform="translate(33.63)"/>
            <path class="cls-47" d="M75.76,236.57l-3.51,6.76a3.69,3.69,0,0,0,0,3.21l3.43,6.83L71,248.3a1.43,1.43,0,0,0-2-.21,1,1,0,0,0-.21.21l-4.73,5,3.51-6.76a3.69,3.69,0,0,0,0-3.21l-3.43-6.83,4.67,5.07a1.43,1.43,0,0,0,2,.21,1,1,0,0,0,.21-.21Z" transform="translate(33.63)"/>
            <path class="cls-47" d="M110.15,12.15l-1.21,6.07a2.49,2.49,0,0,0,.57,2.25l3.66,3.47L109,22.18c-.59-.24-1.22.1-1.56.84L105,28.3l1.22-6.07a2.53,2.53,0,0,0-.58-2.25L102,16.51l4.2,1.76c.59.24,1.22-.09,1.56-.84Z" transform="translate(33.63)"/>
          </g>
          <g class="cls-13">
            <path class="cls-47" d="M30.85,356.67c0,1.11-.62,2-1.39,2s-1.38-.9-1.38-2,.62-2,1.38-2S30.85,355.57,30.85,356.67Z" transform="translate(33.63)"/>
            <path class="cls-47" d="M37.92,675.27c0,1.11-.62,2-1.39,2s-1.38-.89-1.38-2,.62-2,1.38-2S37.92,674.16,37.92,675.27Z" transform="translate(33.63)"/>
            <path class="cls-47" d="M65.16,819.78c0,1.11-.62,2-1.38,2s-1.39-.9-1.39-2,.62-2,1.39-2S65.16,818.68,65.16,819.78Z" transform="translate(33.63)"/>
            <path class="cls-47" d="M96.57,433.44c0,1.11-.62,2-1.39,2s-1.39-.89-1.39-2,.62-2,1.39-2S96.57,432.33,96.57,433.44Z" transform="translate(33.63)"/>
            <path class="cls-47" d="M87.08,142c0,1.11-.62,2-1.38,2s-1.39-.9-1.39-2,.62-2,1.39-2S87.08,140.89,87.08,142Z" transform="translate(33.63)"/>
            <path class="cls-49" d="M59,517.16c0,1.11-.63,2-1.39,2s-1.39-.9-1.39-2,.62-2,1.39-2S59,516.06,59,517.16Z" transform="translate(33.63)"/>
          </g>
        </g>
        <g>
          <g class="cls-45">
            <g class="cls-50">
              <path class="cls-47" d="M1588.93,758.07l-.12,6.32a2.1,2.1,0,0,0,1,2l4.14,2-4.37-.18c-.62,0-1.17.54-1.37,1.38l-1.4,6,.12-6.32a2.15,2.15,0,0,0-1-2l-4.14-2,4.37.17a1.55,1.55,0,0,0,1.36-1.37Z" transform="translate(33.63)"/>
            </g>
            <g class="cls-51">
              <path class="cls-47" d="M1522.85,37.37l-.14,7.56a2.55,2.55,0,0,0,1.13,2.36l5,2.43-5.23-.21a1.86,1.86,0,0,0-1.63,1.64l-1.68,7.17.14-7.56a2.57,2.57,0,0,0-1.13-2.36l-5-2.43,5.23.21a1.86,1.86,0,0,0,1.63-1.64Z" transform="translate(33.63)"/>
            </g>
            <g class="cls-52">
              <path class="cls-47" d="M1505.62,407.68l.72,6.24a1.79,1.79,0,0,0,1.19,1.67l4.33.85-4.31,1a1.83,1.83,0,0,0-1.16,1.73l-.59,6.26-.71-6.24a1.79,1.79,0,0,0-1.19-1.67l-4.34-.85,4.32-1a1.87,1.87,0,0,0,1.16-1.73Z" transform="translate(33.63)"/>
            </g>
            <path class="cls-47" d="M1513.87,693.71l3.17,12.44c.44,1.74,1.62,2.87,2.91,2.77l9.16-.72-8.61,4.58a4.57,4.57,0,0,0-1.91,4.21l.49,13.24-3.17-12.44c-.44-1.75-1.62-2.87-2.91-2.77l-9.16.72,8.61-4.58a4.57,4.57,0,0,0,1.91-4.21Z" transform="translate(33.63)"/>
            <path class="cls-47" d="M1511.74,561.17l-.12,6.31a2.15,2.15,0,0,0,1,2l4.14,2-4.37-.17a1.55,1.55,0,0,0-1.36,1.37l-1.41,6,.12-6.32a2.1,2.1,0,0,0-1-2l-4.14-2,4.37.18c.62,0,1.17-.54,1.37-1.38Z" transform="translate(33.63)"/>
            <path class="cls-47" d="M1575.53,895.77l-.12,6.32a2.1,2.1,0,0,0,.95,2l4.14,2-4.37-.17c-.62,0-1.17.53-1.37,1.37l-1.4,6,.12-6.32a2.1,2.1,0,0,0-1-2l-4.14-2,4.37.17a1.55,1.55,0,0,0,1.36-1.37Z" transform="translate(33.63)"/>
          </g>
          <g class="cls-13">
            <ellipse class="cls-47" cx="1344.66" cy="47.93" rx="1.39" ry="2"/>
            <path class="cls-47" d="M1406.66,79.57c0,1.11-.62,2-1.39,2s-1.39-.9-1.39-2,.62-2,1.39-2S1406.66,78.47,1406.66,79.57Z" transform="translate(33.63)"/>
            <path class="cls-47" d="M1322.1,188.25c0,1.11-.62,2-1.39,2s-1.39-.9-1.39-2,.62-2,1.39-2S1322.1,187.15,1322.1,188.25Z" transform="translate(33.63)"/>
            <path class="cls-47" d="M1446.47,212.87c0,1.11-.62,2-1.39,2s-1.39-.9-1.39-2,.62-2,1.39-2S1446.47,211.76,1446.47,212.87Z" transform="translate(33.63)"/>
            <path class="cls-49" d="M1386.16,298.87c0,1.1-.62,2-1.39,2s-1.39-.9-1.39-2,.63-2,1.39-2S1386.16,297.76,1386.16,298.87Z" transform="translate(33.63)"/>
            <path class="cls-47" d="M1302.39,393.74c0,1.11-.62,2-1.39,2s-1.38-.9-1.38-2,.62-2,1.38-2S1302.39,392.64,1302.39,393.74Z" transform="translate(33.63)"/>
            <path class="cls-47" d="M1368.17,471.66c0,1.1-.62,2-1.38,2s-1.39-.9-1.39-2,.62-2,1.39-2S1368.17,470.55,1368.17,471.66Z" transform="translate(33.63)"/>
            <path class="cls-53" d="M1461.24,505.68c0,1.11-.62,2-1.38,2s-1.39-.89-1.39-2,.62-2,1.39-2S1461.24,504.57,1461.24,505.68Z" transform="translate(33.63)"/>
            <path class="cls-47" d="M1485.45,364.32c0,1.11-.62,2-1.39,2s-1.38-.9-1.38-2,.62-2,1.38-2S1485.45,363.21,1485.45,364.32Z" transform="translate(33.63)"/>
            <path class="cls-47" d="M1597.93,340.47c0,1.11-.62,2-1.38,2s-1.39-.9-1.39-2,.62-2,1.39-2S1597.93,339.37,1597.93,340.47Z" transform="translate(33.63)"/>
            <path class="cls-47" d="M1576.6,615.3c0,1.1-.62,2-1.38,2s-1.39-.9-1.39-2,.62-2,1.39-2S1576.6,614.19,1576.6,615.3Z" transform="translate(33.63)"/>
            <path class="cls-47" d="M1415.21,769.21c0,1.11-.62,2-1.38,2s-1.39-.9-1.39-2,.62-2,1.39-2S1415.21,768.1,1415.21,769.21Z" transform="translate(33.63)"/>
            <path class="cls-47" d="M1393.35,671.86c0,1.11-.62,2-1.39,2s-1.39-.9-1.39-2,.62-2,1.39-2S1393.35,670.75,1393.35,671.86Z" transform="translate(33.63)"/>
            <path class="cls-47" d="M1343.33,594.76c0,1.11-.62,2-1.38,2s-1.39-.89-1.39-2,.62-2,1.39-2S1343.33,593.65,1343.33,594.76Z" transform="translate(33.63)"/>
            <path class="cls-47" d="M1309.32,602.59c0,1.11-.63,2-1.39,2s-1.39-.89-1.39-2,.62-2,1.39-2S1309.32,601.48,1309.32,602.59Z" transform="translate(33.63)"/>
            <ellipse class="cls-47" cx="1328.29" cy="654.99" rx="1.39" ry="2"/>
            <path class="cls-53" d="M1312.71,755.7c0,1.11-.62,2-1.38,2s-1.39-.9-1.39-2,.62-2,1.39-2S1312.71,754.6,1312.71,755.7Z" transform="translate(33.63)"/>
            <path class="cls-47" d="M1383.88,851.94c0,1.11-.62,2-1.39,2s-1.38-.9-1.38-2,.62-2,1.38-2S1383.88,850.84,1383.88,851.94Z" transform="translate(33.63)"/>
            <path class="cls-47" d="M1484.74,836.07c0,1.11-.62,2-1.39,2s-1.39-.9-1.39-2,.62-2,1.39-2S1484.74,835,1484.74,836.07Z" transform="translate(33.63)"/>
            <path class="cls-47" d="M1567.41,767.12c0,1.1-.62,2-1.39,2s-1.38-.9-1.38-2,.62-2,1.38-2S1567.41,766,1567.41,767.12Z" transform="translate(33.63)"/>
            <path class="cls-47" d="M1248.61,119.41c0,1.1-.62,2-1.39,2s-1.38-.9-1.38-2,.62-2,1.38-2S1248.61,118.3,1248.61,119.41Z" transform="translate(33.63)"/>
            <path class="cls-49" d="M1255.43,752.16c0,1.11-.62,2-1.39,2s-1.38-.9-1.38-2,.62-2,1.38-2S1255.43,751.05,1255.43,752.16Z" transform="translate(33.63)"/>
            <ellipse class="cls-49" cx="1632.55" cy="427.73" rx="1.39" ry="2"/>
          </g>
        </g>
        <g>
          <g class="cls-45">
            <g class="cls-54">
              <path class="cls-47" d="M678.33,460.91l.12,6.32a2.12,2.12,0,0,1-1,2l-4.14,2,4.37-.17c.62,0,1.17.53,1.37,1.37l1.4,6-.12-6.32a2.1,2.1,0,0,1,1-2l4.14-2-4.37.17a1.55,1.55,0,0,1-1.36-1.37Z" transform="translate(33.63)"/>
            </g>
            <path class="cls-47" d="M825.72,390.38l-.79,6.22a1.8,1.8,0,0,1-1.22,1.65l-4.34.74,4.3,1.14a1.87,1.87,0,0,1,1.14,1.75l.51,6.28.79-6.22a1.75,1.75,0,0,1,1.22-1.64l4.34-.75-4.3-1.14a1.87,1.87,0,0,1-1.14-1.75Z" transform="translate(33.63)"/>
            <g class="cls-55">
              <path class="cls-47" d="M520.17,199.09l-.43,6.33a1.91,1.91,0,0,1-1.12,1.79l-4.32,1.27,4.38.62a1.77,1.77,0,0,1,1.25,1.62l.87,6.23.43-6.33a2,2,0,0,1,1.12-1.79l4.32-1.27-4.38-.62a1.74,1.74,0,0,1-1.24-1.62Z" transform="translate(33.63)"/>
            </g>
            <path class="cls-47" d="M375,438.47l.12,6.32a2.1,2.1,0,0,1-.95,2l-4.14,2,4.37-.17a1.55,1.55,0,0,1,1.36,1.37l1.41,6-.12-6.32a2.1,2.1,0,0,1,.95-2l4.14-2-4.37.17c-.62,0-1.17-.53-1.37-1.37Z" transform="translate(33.63)"/>
            <g class="cls-50">
              <path class="cls-47" d="M909.2,758.07l.12,6.32a2.14,2.14,0,0,1-1,2l-4.15,2,4.38-.18c.61,0,1.16.54,1.36,1.38l1.4,6-.12-6.32a2.17,2.17,0,0,1,1-2l4.15-2-4.38.17c-.61,0-1.16-.53-1.36-1.37Z" transform="translate(33.63)"/>
            </g>
            <path class="cls-47" d="M1109.24,604.05l-3,4.64a1.12,1.12,0,0,1-1.51.52l-.13-.07-3.94-2.73,3.21,4.29a2.71,2.71,0,0,1,.31,2.36l-1.89,5.7,3-4.65a1.12,1.12,0,0,1,1.49-.53l.14.08,3.95,2.74-3.21-4.29a2.74,2.74,0,0,1-.32-2.36Z" transform="translate(33.63)"/>
            <path class="cls-48" d="M1148.29,159l4.29,9.68a5,5,0,0,1-.2,4.36l-5.14,8.77,6.7-6.2a2,2,0,0,1,2.83.08l.17.21,6.07,7.43-4.29-9.68a5,5,0,0,1,.2-4.36l5.13-8.77-6.69,6.19a2,2,0,0,1-2.83-.08l-.17-.21Z" transform="translate(33.63)"/>
            <path class="cls-47" d="M1205.08,300.13l.78,6.22a2.37,2.37,0,0,1-.74,2.16l-3.88,2.91,4.3-1.13c.61-.16,1.21.27,1.5,1.06l2,5.61-.78-6.22a2.38,2.38,0,0,1,.73-2.15l3.89-2.91-4.31,1.13c-.6.15-1.21-.28-1.49-1.06Z" transform="translate(33.63)"/>
            <g class="cls-51">
              <path class="cls-47" d="M975.27,37.37l.15,7.56a2.52,2.52,0,0,1-1.14,2.36l-5,2.43,5.23-.21c.74,0,1.4.64,1.64,1.64l1.67,7.17-.14-7.56a2.52,2.52,0,0,1,1.14-2.36l5-2.43-5.24.21c-.73,0-1.39-.64-1.63-1.64Z" transform="translate(33.63)"/>
            </g>
            <path class="cls-47" d="M216.9,245.94l1.62,5.87a2.64,2.64,0,0,1-.43,2.32l-3.4,4,4.06-2.34a1.16,1.16,0,0,1,1.56.5.54.54,0,0,1,.05.11l2.74,4.92-1.62-5.87a2.64,2.64,0,0,1,.43-2.32l3.4-4-4.06,2.34a1.16,1.16,0,0,1-1.56-.5.54.54,0,0,1-.05-.11Z" transform="translate(33.63)"/>
            <path class="cls-47" d="M362.24,64.46l.76,9.21a3.37,3.37,0,0,1-1.21,3.07l-5.87,3.76,6.37-1.09c.9-.16,1.76.55,2.13,1.74l2.6,8.48-.76-9.21a3.32,3.32,0,0,1,1.21-3.07l5.87-3.76L367,74.69c-.89.15-1.75-.56-2.12-1.75Z" transform="translate(33.63)"/>
            <g class="cls-46">
              <path class="cls-47" d="M121.2,631.81l-.31,6.55a2,2,0,0,1-1.12,1.9l-4.42,1.5,4.53.45a1.76,1.76,0,0,1,1.32,1.62l1,6.39.31-6.55a2,2,0,0,1,1.12-1.9l4.43-1.5-4.54-.45a1.74,1.74,0,0,1-1.31-1.62Z" transform="translate(33.63)"/>
            </g>
            <path class="cls-48" d="M141.79,61.3l-1.33,6c-.18.85-.73,1.42-1.34,1.41l-4.38-.06,4.17,1.92a2.09,2.09,0,0,1,1,1.94v6.33l1.32-6c.19-.84.74-1.42,1.35-1.41l4.37.06-4.17-1.92a2.09,2.09,0,0,1-1-1.94Z" transform="translate(33.63)"/>
            <path class="cls-47" d="M798.56,860.1l.2,10.18a3.46,3.46,0,0,1-1.53,3.18l-6.68,3.26,7-.27c1,0,1.89.85,2.2,2.21l2.26,9.65-.19-10.18a3.41,3.41,0,0,1,1.53-3.18l6.68-3.27-7,.32c-1,0-1.88-.86-2.2-2.21Z" transform="translate(33.63)"/>
            <g class="cls-54">
              <path class="cls-47" d="M1169.49,841l-.18,6.31a2,2,0,0,1-1,1.88l-4.22,1.62,4.37.25c.61,0,1.14.64,1.29,1.5l1.12,6.11.18-6.31a2,2,0,0,1,1-1.88l4.23-1.62-4.37-.25c-.62,0-1.14-.65-1.3-1.5Z" transform="translate(33.63)"/>
            </g>
            <path class="cls-48" d="M241.58,843.52l1.14,6.11a2.49,2.49,0,0,1-.6,2.23l-3.7,3.38,4.22-1.65c.6-.23,1.22.12,1.55.87l2.34,5.34-1.14-6.1a2.48,2.48,0,0,1,.6-2.24l3.7-3.37-4.23,1.65c-.59.23-1.22-.12-1.54-.87Z" transform="translate(33.63)"/>
            <path class="cls-47" d="M346.92,649.65,343.21,663c-.52,1.87-1.82,3-3.22,2.86l-9.9-1.2,9.22,5.37c1.3.75,2.1,2.64,2,4.65L340.46,689l3.72-13.34c.52-1.87,1.82-3,3.21-2.86l9.91,1.2-9.22-5.37c-1.3-.75-2.1-2.64-2-4.65Z" transform="translate(33.63)"/>
            <g class="cls-52">
              <path class="cls-47" d="M992.5,407.68l-.71,6.24a1.8,1.8,0,0,1-1.2,1.67l-4.33.85,4.31,1a1.83,1.83,0,0,1,1.16,1.73l.59,6.26.72-6.24a1.79,1.79,0,0,1,1.19-1.67l4.33-.85-4.31-1a1.83,1.83,0,0,1-1.16-1.73Z" transform="translate(33.63)"/>
            </g>
            <path class="cls-47" d="M822.83,161.33l.34,6.3a2.26,2.26,0,0,1-.88,2L818.22,172l4.36-.49c.61-.06,1.18.45,1.41,1.28l1.61,5.88-.34-6.31a2.19,2.19,0,0,1,.88-2l4.07-2.33-4.36.49c-.62.07-1.19-.45-1.41-1.27Z" transform="translate(33.63)"/>
            <path class="cls-47" d="M290.51,513.21l.12,6.32a2.1,2.1,0,0,1-.95,2l-4.14,2,4.37-.17a1.55,1.55,0,0,1,1.36,1.37l1.4,6-.11-6.32a2.1,2.1,0,0,1,.95-2l4.14-2-4.37.17c-.62,0-1.17-.53-1.37-1.37Z" transform="translate(33.63)"/>
            <g class="cls-45">
              <path class="cls-47" d="M1239.93,533.16l.21,10.94a3.68,3.68,0,0,1-1.65,3.41l-7.17,3.51,7.57-.3c1.06,0,2,.92,2.36,2.38l2.43,10.36-.21-10.93a3.7,3.7,0,0,1,1.65-3.42l7.17-3.5-7.57.3c-1.06,0-2-.93-2.36-2.38Z" transform="translate(33.63)"/>
            </g>
            <path class="cls-47" d="M138.76,236.57l3.51,6.76a3.69,3.69,0,0,1,0,3.21l-3.44,6.83,4.68-5.07a1.43,1.43,0,0,1,2-.21,1,1,0,0,1,.21.21l4.73,5L147,246.48a3.69,3.69,0,0,1,0-3.21l3.44-6.83-4.68,5.07a1.43,1.43,0,0,1-2,.21,1,1,0,0,1-.21-.21Z" transform="translate(33.63)"/>
            <g class="cls-56">
              <path class="cls-47" d="M354.92,334.67l-1.27,7.18c-.18,1-.79,1.73-1.51,1.78L347,344l5,1.84a2.34,2.34,0,0,1,1.23,2.19l.25,7.4,1.27-7.18c.18-1,.79-1.73,1.51-1.78l5.13-.36-5-1.84a2.31,2.31,0,0,1-1.23-2.18Z" transform="translate(33.63)"/>
            </g>
            <path class="cls-47" d="M282.6,381.32l1.76,5.78a2.69,2.69,0,0,1-.36,2.35l-3.31,4.14,4-2.55a1.13,1.13,0,0,1,1.55.38,1.09,1.09,0,0,1,.08.15l2.86,4.77-1.76-5.78a2.69,2.69,0,0,1,.36-2.35l3.31-4.14-4,2.55a1.14,1.14,0,0,1-1.56-.39.83.83,0,0,1-.07-.13Z" transform="translate(33.63)"/>
            <path class="cls-49" d="M559,533.33l1.62,5.87a2.64,2.64,0,0,1-.43,2.32l-3.4,4,4.06-2.34a1.16,1.16,0,0,1,1.56.5.54.54,0,0,1,.05.11l2.74,4.92-1.62-5.87a2.66,2.66,0,0,1,.43-2.33l3.4-4-4.06,2.34a1.16,1.16,0,0,1-1.56-.5.54.54,0,0,1,0-.11Z" transform="translate(33.63)"/>
            <path class="cls-47" d="M863,520.56l-1.09,6.13a1.64,1.64,0,0,1-1.29,1.51l-4.37.31,4.24,1.57a2,2,0,0,1,1,1.86l.21,6.31,1.09-6.12c.15-.86.67-1.48,1.28-1.52l4.37-.3-4.23-1.57a2,2,0,0,1-1-1.86Z" transform="translate(33.63)"/>
            <g class="cls-57">
              <path class="cls-58" d="M811.89,582l.12,6.31a2.15,2.15,0,0,1-1,2l-4.14,2,4.37-.17a1.55,1.55,0,0,1,1.36,1.37l1.4,6-.12-6.32a2.12,2.12,0,0,1,1-2l4.14-2-4.37.18c-.62,0-1.17-.54-1.37-1.38Z" transform="translate(33.63)"/>
            </g>
            <path class="cls-47" d="M984.26,693.71l-3.17,12.44c-.45,1.74-1.63,2.87-2.92,2.77L969,708.2l8.6,4.58a4.56,4.56,0,0,1,1.92,4.21l-.5,13.24,3.17-12.44c.45-1.75,1.63-2.87,2.92-2.77l9.15.72-8.6-4.58a4.56,4.56,0,0,1-1.92-4.21Z" transform="translate(33.63)"/>
            <path class="cls-47" d="M986.39,561.17l.12,6.31a2.17,2.17,0,0,1-1,2l-4.15,2,4.37-.17c.62,0,1.17.53,1.37,1.37l1.4,6-.12-6.32a2.1,2.1,0,0,1,1-2l4.14-2-4.37.18c-.61,0-1.16-.54-1.36-1.38Z" transform="translate(33.63)"/>
            <g class="cls-59">
              <path class="cls-47" d="M1036.66,758.54v6.32a2.1,2.1,0,0,1-1,1.95l-4.16,1.93,4.37-.07c.61,0,1.16.56,1.35,1.4l1.34,6-.06-6.32a2.1,2.1,0,0,1,1-2l4.16-1.93-4.37.07c-.62,0-1.17-.56-1.35-1.4Z" transform="translate(33.63)"/>
            </g>
            <path class="cls-47" d="M922.6,895.77l.12,6.32a2.14,2.14,0,0,1-1,2l-4.15,2,4.38-.17c.61,0,1.16.53,1.36,1.37l1.4,6-.12-6.32a2.14,2.14,0,0,1,1-2l4.15-2-4.38.17c-.61,0-1.16-.53-1.36-1.37Z" transform="translate(33.63)"/>
            <g class="cls-60">
              <path class="cls-47" d="M575,625.59,574,634a2.4,2.4,0,0,1-1.62,2.25l-5.88,1.08,5.84,1.47a2.49,2.49,0,0,1,1.55,2.35l.75,8.48,1-8.42A2.43,2.43,0,0,1,577.3,639l5.87-1.08-5.83-1.47a2.49,2.49,0,0,1-1.55-2.35Z" transform="translate(33.63)"/>
            </g>
            <path class="cls-47" d="M307.73,225.53l-1,6.15a1.67,1.67,0,0,1-1.27,1.56l-4.36.45,4.26,1.43a1.94,1.94,0,0,1,1.08,1.83l.31,6.3,1-6.15a1.7,1.7,0,0,1,1.26-1.57l4.37-.44-4.26-1.43a1.94,1.94,0,0,1-1.08-1.83Z" transform="translate(33.63)"/>
            <path class="cls-47" d="M104.37,12.15l1.22,6.07a2.5,2.5,0,0,1-.58,2.25l-3.66,3.47,4.21-1.76c.59-.24,1.22.1,1.56.84l2.39,5.28-1.21-6.07a2.5,2.5,0,0,1,.58-2.25l3.65-3.47-4.2,1.76c-.59.24-1.22-.09-1.56-.84Z" transform="translate(33.63)"/>
          </g>
          <g class="cls-13">
            <ellipse class="cls-47" cx="1220.73" cy="47.93" rx="1.39" ry="2"/>
            <path class="cls-47" d="M1091.47,79.57c0,1.11.62,2,1.39,2s1.38-.9,1.38-2-.62-2-1.38-2S1091.47,78.47,1091.47,79.57Z" transform="translate(33.63)"/>
            <path class="cls-47" d="M1176,188.25c0,1.11.62,2,1.38,2s1.39-.9,1.39-2-.62-2-1.39-2S1176,187.15,1176,188.25Z" transform="translate(33.63)"/>
            <path class="cls-47" d="M1051.66,212.87c0,1.11.62,2,1.39,2s1.38-.9,1.38-2-.62-2-1.38-2S1051.66,211.76,1051.66,212.87Z" transform="translate(33.63)"/>
            <path class="cls-49" d="M1112,298.87c0,1.1.62,2,1.38,2s1.39-.9,1.39-2-.62-2-1.39-2S1112,297.76,1112,298.87Z" transform="translate(33.63)"/>
            <path class="cls-47" d="M1195.73,393.74c0,1.11.62,2,1.39,2s1.39-.9,1.39-2-.62-2-1.39-2S1195.73,392.64,1195.73,393.74Z" transform="translate(33.63)"/>
            <path class="cls-47" d="M1130,471.66c0,1.1.62,2,1.39,2s1.38-.9,1.38-2-.62-2-1.38-2S1130,470.55,1130,471.66Z" transform="translate(33.63)"/>
            <path class="cls-53" d="M1036.88,505.68c0,1.11.62,2,1.39,2s1.39-.89,1.39-2-.63-2-1.39-2S1036.88,504.57,1036.88,505.68Z" transform="translate(33.63)"/>
            <path class="cls-47" d="M1012.67,364.32c0,1.11.62,2,1.39,2s1.39-.9,1.39-2-.62-2-1.39-2S1012.67,363.21,1012.67,364.32Z" transform="translate(33.63)"/>
            <path class="cls-47" d="M900.19,340.47c0,1.11.62,2,1.39,2s1.39-.9,1.39-2-.63-2-1.39-2S900.19,339.37,900.19,340.47Z" transform="translate(33.63)"/>
            <path class="cls-47" d="M821.26,250.17c0,1.11.62,2,1.38,2s1.39-.9,1.39-2-.62-2-1.39-2S821.26,249.06,821.26,250.17Z" transform="translate(33.63)"/>
            <path class="cls-47" d="M848.61,139.37c0,1.11.62,2,1.38,2s1.39-.89,1.39-2-.62-2-1.39-2S848.61,138.26,848.61,139.37Z" transform="translate(33.63)"/>
            <path class="cls-47" d="M758.73,392.64c0,1.11.63,2,1.39,2s1.39-.9,1.39-2-.62-2-1.39-2S758.73,391.53,758.73,392.64Z" transform="translate(33.63)"/>
            <path class="cls-47" d="M718.82,301c0,1.11.62,2,1.39,2s1.38-.9,1.38-2-.62-2-1.38-2S718.82,299.91,718.82,301Z" transform="translate(33.63)"/>
            <path class="cls-53" d="M734.5,149.5c0,1.11.62,2,1.39,2s1.39-.9,1.39-2-.63-2-1.39-2S734.5,148.4,734.5,149.5Z" transform="translate(33.63)"/>
            <path class="cls-47" d="M599.57,80.64c0,1.1.62,2,1.39,2s1.39-.9,1.39-2-.63-2-1.39-2S599.57,79.53,599.57,80.64Z" transform="translate(33.63)"/>
            <path class="cls-47" d="M451.09,193.72c0,1.1.62,2,1.39,2s1.38-.9,1.38-2-.62-2-1.38-2S451.09,192.61,451.09,193.72Z" transform="translate(33.63)"/>
            <path class="cls-47" d="M582.24,332.79c0,1.1.62,2,1.39,2s1.38-.9,1.38-2-.62-2-1.38-2S582.24,331.68,582.24,332.79Z" transform="translate(33.63)"/>
            <path class="cls-47" d="M479.19,393.86c0,1.11.62,2,1.38,2s1.39-.9,1.39-2-.62-2-1.39-2S479.19,392.76,479.19,393.86Z" transform="translate(33.63)"/>
            <path class="cls-47" d="M406.38,400.63c0,1.11.62,2,1.38,2s1.39-.9,1.39-2-.62-2-1.39-2S406.38,399.53,406.38,400.63Z" transform="translate(33.63)"/>
            <path class="cls-47" d="M414.17,233.47c0,1.11.62,2,1.39,2s1.38-.9,1.38-2-.62-2-1.38-2S414.17,232.37,414.17,233.47Z" transform="translate(33.63)"/>
            <path class="cls-47" d="M342.47,99.94c0,1.11.62,2,1.38,2s1.39-.89,1.39-2-.62-2-1.39-2S342.47,98.83,342.47,99.94Z" transform="translate(33.63)"/>
            <path class="cls-47" d="M253.4,125.94c0,1.11.62,2,1.39,2s1.39-.89,1.39-2-.62-2-1.39-2S253.4,124.83,253.4,125.94Z" transform="translate(33.63)"/>
            <path class="cls-47" d="M229.85,194c0,1.1.62,2,1.39,2s1.39-.9,1.39-2-.62-2-1.39-2S229.85,192.86,229.85,194Z" transform="translate(33.63)"/>
            <path class="cls-47" d="M226.81,302.4c0,1.11.62,2,1.38,2s1.39-.89,1.39-2-.62-2-1.39-2S226.81,301.29,226.81,302.4Z" transform="translate(33.63)"/>
            <path class="cls-47" d="M183.67,356.67c0,1.11.62,2,1.39,2s1.39-.9,1.39-2-.62-2-1.39-2S183.67,355.57,183.67,356.67Z" transform="translate(33.63)"/>
            <path class="cls-53" d="M258,520.44c0,1.1.62,2,1.39,2s1.39-.9,1.39-2-.62-2-1.39-2S258,519.33,258,520.44Z" transform="translate(33.63)"/>
            <path class="cls-47" d="M346.27,548.77c0,1.1.62,2,1.38,2s1.39-.9,1.39-2-.62-2-1.39-2S346.27,547.66,346.27,548.77Z" transform="translate(33.63)"/>
            <path class="cls-49" d="M504.91,746.55c0,1.11.62,2,1.39,2s1.39-.89,1.39-2-.62-2-1.39-2S504.91,745.44,504.91,746.55Z" transform="translate(33.63)"/>
            <path class="cls-47" d="M629,651.6c0,1.1.62,2,1.39,2s1.39-.9,1.39-2-.63-2-1.39-2S629,650.49,629,651.6Z" transform="translate(33.63)"/>
            <ellipse class="cls-47" cx="703.77" cy="541.82" rx="1.39" ry="2"/>
            <path class="cls-47" d="M733,524.84c0,1.11.62,2,1.38,2s1.39-.9,1.39-2-.62-2-1.39-2S733,523.73,733,524.84Z" transform="translate(33.63)"/>
            <path class="cls-47" d="M751.59,651.6c0,1.11.63,2,1.39,2s1.39-.9,1.39-2-.62-2-1.39-2S751.59,650.49,751.59,651.6Z" transform="translate(33.63)"/>
            <path class="cls-47" d="M832.83,662.82c0,1.11.62,2,1.39,2s1.39-.9,1.39-2-.63-2-1.39-2S832.83,661.71,832.83,662.82Z" transform="translate(33.63)"/>
            <path class="cls-47" d="M885.24,609.51c0,1.1.62,2,1.39,2s1.38-.9,1.38-2-.62-2-1.38-2S885.24,608.4,885.24,609.51Z" transform="translate(33.63)"/>
            <path class="cls-47" d="M921.52,615.3c0,1.1.62,2,1.39,2s1.39-.9,1.39-2-.63-2-1.39-2S921.52,614.19,921.52,615.3Z" transform="translate(33.63)"/>
            <path class="cls-47" d="M1082.91,769.21c0,1.11.62,2,1.39,2s1.39-.9,1.39-2-.63-2-1.39-2S1082.91,768.1,1082.91,769.21Z" transform="translate(33.63)"/>
            <path class="cls-47" d="M1104.78,671.86c0,1.11.62,2,1.39,2s1.38-.9,1.38-2-.62-2-1.38-2S1104.78,670.75,1104.78,671.86Z" transform="translate(33.63)"/>
            <path class="cls-47" d="M1154.79,594.76c0,1.11.62,2,1.39,2s1.39-.89,1.39-2-.62-2-1.39-2S1154.79,593.65,1154.79,594.76Z" transform="translate(33.63)"/>
            <path class="cls-47" d="M1188.81,602.59c0,1.11.62,2,1.39,2s1.38-.89,1.38-2-.62-2-1.38-2S1188.81,601.48,1188.81,602.59Z" transform="translate(33.63)"/>
            <ellipse class="cls-47" cx="1237.09" cy="654.99" rx="1.39" ry="2"/>
            <path class="cls-53" d="M1185.41,755.7c0,1.11.62,2,1.39,2s1.38-.9,1.38-2-.62-2-1.38-2S1185.41,754.6,1185.41,755.7Z" transform="translate(33.63)"/>
            <path class="cls-47" d="M1114.24,851.94c0,1.11.62,2,1.39,2s1.39-.9,1.39-2-.62-2-1.39-2S1114.24,850.84,1114.24,851.94Z" transform="translate(33.63)"/>
            <path class="cls-47" d="M1013.39,836.07c0,1.11.62,2,1.38,2s1.39-.9,1.39-2-.62-2-1.39-2S1013.39,835,1013.39,836.07Z" transform="translate(33.63)"/>
            <path class="cls-47" d="M930.71,767.12c0,1.1.62,2,1.39,2s1.39-.9,1.39-2-.62-2-1.39-2S930.71,766,930.71,767.12Z" transform="translate(33.63)"/>
            <path class="cls-47" d="M871.29,715.14c0,1.11.62,2,1.38,2s1.39-.9,1.39-2-.62-2-1.39-2S871.29,714,871.29,715.14Z" transform="translate(33.63)"/>
            <path class="cls-47" d="M796.17,769.44c0,1.1.62,2,1.38,2s1.39-.9,1.39-2-.62-2-1.39-2S796.17,768.33,796.17,769.44Z" transform="translate(33.63)"/>
            <path class="cls-47" d="M726.66,830.47c0,1.1.62,2,1.39,2s1.39-.9,1.39-2-.63-2-1.39-2S726.66,829.36,726.66,830.47Z" transform="translate(33.63)"/>
            <path class="cls-47" d="M626.7,802c0,1.11.62,2,1.38,2s1.39-.89,1.39-2-.62-2-1.39-2S626.7,800.88,626.7,802Z" transform="translate(33.63)"/>
            <path class="cls-53" d="M468.25,825.85c0,1.11.62,2,1.39,2s1.38-.9,1.38-2-.62-2-1.38-2S468.25,824.75,468.25,825.85Z" transform="translate(33.63)"/>
            <path class="cls-49" d="M429.68,831.47c0,1.11.62,2,1.38,2s1.39-.9,1.39-2-.62-2-1.39-2S429.68,830.37,429.68,831.47Z" transform="translate(33.63)"/>
            <path class="cls-47" d="M286.23,799.67c0,1.1.62,2,1.39,2s1.38-.9,1.38-2-.62-2-1.38-2S286.23,798.56,286.23,799.67Z" transform="translate(33.63)"/>
            <path class="cls-47" d="M240.87,667.4c0,1.11.62,2,1.39,2s1.38-.89,1.38-2-.62-2-1.38-2S240.87,666.29,240.87,667.4Z" transform="translate(33.63)"/>
            <path class="cls-47" d="M176.6,675.27c0,1.11.63,2,1.39,2s1.39-.89,1.39-2-.62-2-1.39-2S176.6,674.16,176.6,675.27Z" transform="translate(33.63)"/>
            <path class="cls-47" d="M149.36,819.78c0,1.11.62,2,1.39,2s1.38-.9,1.38-2-.62-2-1.38-2S149.36,818.68,149.36,819.78Z" transform="translate(33.63)"/>
            <path class="cls-47" d="M477.53,639.13c0,1.11.62,2,1.39,2s1.39-.9,1.39-2-.62-2-1.39-2S477.53,638,477.53,639.13Z" transform="translate(33.63)"/>
            <path class="cls-47" d="M434.58,543.07c0,1.11.62,2,1.38,2s1.39-.9,1.39-2-.62-2-1.39-2S434.58,542,434.58,543.07Z" transform="translate(33.63)"/>
            <path class="cls-47" d="M1249.51,119.41c0,1.1.63,2,1.39,2s1.39-.9,1.39-2-.62-2-1.39-2S1249.51,118.3,1249.51,119.41Z" transform="translate(33.63)"/>
            <path class="cls-49" d="M1242.69,752.16c0,1.11.62,2,1.39,2s1.39-.9,1.39-2-.62-2-1.39-2S1242.69,751.05,1242.69,752.16Z" transform="translate(33.63)"/>
            <path class="cls-47" d="M118,433.44c0,1.11.62,2,1.38,2s1.39-.89,1.39-2-.62-2-1.39-2S118,432.33,118,433.44Z" transform="translate(33.63)"/>
            <path class="cls-53" d="M201,17.56c0,1.1.62,2,1.39,2s1.38-.9,1.38-2-.62-2-1.38-2S201,16.45,201,17.56Z" transform="translate(33.63)"/>
            <path class="cls-47" d="M890.82,51.22c0,1.1.62,2,1.39,2s1.38-.9,1.38-2-.62-2-1.38-2S890.82,50.11,890.82,51.22Z" transform="translate(33.63)"/>
            <ellipse class="cls-47" cx="646.87" cy="890.39" rx="1.39" ry="2"/>
            <path class="cls-47" d="M872.78,897.19c0,1.1.63,2,1.39,2s1.39-.9,1.39-2-.62-2-1.39-2S872.78,896.08,872.78,897.19Z" transform="translate(33.63)"/>
            <path class="cls-47" d="M227.66,900.25c0,1.1.62,2,1.39,2s1.39-.9,1.39-2-.63-2-1.39-2S227.66,899.14,227.66,900.25Z" transform="translate(33.63)"/>
            <path class="cls-47" d="M127.44,142c0,1.11.62,2,1.39,2s1.39-.9,1.39-2-.62-2-1.39-2S127.44,140.89,127.44,142Z" transform="translate(33.63)"/>
            <path class="cls-47" d="M489.25,58c0,1.1.62,2,1.39,2s1.39-.9,1.39-2-.62-2-1.39-2S489.25,56.89,489.25,58Z" transform="translate(33.63)"/>
            <path class="cls-49" d="M545.57,117c0,1.1.62,2,1.38,2s1.39-.9,1.39-2-.62-2-1.39-2S545.57,115.86,545.57,117Z" transform="translate(33.63)"/>
            <ellipse class="cls-49" cx="932.84" cy="427.73" rx="1.39" ry="2"/>
            <path class="cls-49" d="M155.55,517.16c0,1.11.62,2,1.39,2s1.38-.9,1.38-2-.62-2-1.38-2S155.55,516.06,155.55,517.16Z" transform="translate(33.63)"/>
          </g>
        </g>
      </g>
      <g class="cls-61">
        <ellipse class="cls-62" cx="639.76" cy="656.35" rx="12.23" ry="12.08"/>
        <g>
          <g>
            <path class="cls-63" d="M600.23,664a1.24,1.24,0,0,1,.63.16c.19.16.46.27.53.42s.35.26-.08.36-.46.16-.77,0-.45-.14-.58-.33S599.61,664.08,600.23,664Z" transform="translate(33.63)"/>
            <path class="cls-63" d="M600.91,654.42a.45.45,0,0,1,.55.13c.18.29,0,.62.08.79s-.19.35-.47.26a.72.72,0,0,1-.5-.46A.61.61,0,0,1,600.91,654.42Z" transform="translate(33.63)"/>
            <path class="cls-63" d="M599.45,656a.61.61,0,0,1,.61.17,2.29,2.29,0,0,1,.37.9,4.81,4.81,0,0,1,.13,1c0,.41-.32.45-.91.48a1.78,1.78,0,0,1-1.2-.2,1.24,1.24,0,0,1-.38-1.09C598.15,656.87,598.5,656.36,599.45,656Z" transform="translate(33.63)"/>
            <path class="cls-64" d="M598.45,657.09s.58-1.08,1.33-.56.63,1.64.12,1.83C599.13,658.66,598.14,658.29,598.45,657.09Z" transform="translate(33.63)"/>
            <path class="cls-63" d="M612.34,651.6a2.82,2.82,0,0,1,.82.08c.21.09.78.34.88.57s-.38.75-.56.85a3.3,3.3,0,0,1-1,.48c-.31.06-.69-.29-.88-.45a.57.57,0,0,1-.12-.74C611.69,652.06,611.9,651.63,612.34,651.6Z" transform="translate(33.63)"/>
            <path class="cls-64" d="M611.75,652.45a1.1,1.1,0,0,1,.72-.61c.47-.06,1.27.39,1,.82s-.77.77-1.12.64S611.54,652.92,611.75,652.45Z" transform="translate(33.63)"/>
            <path class="cls-63" d="M609.42,651.18s.4.13.4.27.49.46.25.72a1.44,1.44,0,0,1-1,.44.75.75,0,0,1-.68-.69C608.26,651.45,608.86,651.16,609.42,651.18Z" transform="translate(33.63)"/>
            <path class="cls-64" d="M609,651.73s.36-.41.72-.19.15.68-.2.77S608.65,652.13,609,651.73Z" transform="translate(33.63)"/>
            <path class="cls-63" d="M598.32,651.14s.58-.14.84.16.77.68.56.85-.42.23-.63.42a1,1,0,0,1-1,.24c-.56-.08-.61-.38-.71-.67S597.64,651.39,598.32,651.14Z" transform="translate(33.63)"/>
            <path class="cls-64" d="M598.08,651.55a.7.7,0,0,1,1,.05h0c.44.54-.06.62-.1.75a.51.51,0,0,1-.58.41l-.12,0a.64.64,0,0,1-.48-.78A.65.65,0,0,1,598.08,651.55Z" transform="translate(33.63)"/>
            <path class="cls-63" d="M611.44,646.31a1.63,1.63,0,0,1,.64-.19,1.25,1.25,0,0,1,.78.33c.23.15.46.36,0,.67s-.27.57-.67.61-.59-.29-.79-.47S610.93,646.56,611.44,646.31Z" transform="translate(33.63)"/>
            <path class="cls-64" d="M611.61,646.48a.73.73,0,0,1,.85-.11c.52.24.51.5.3.64s-.37.51-.66.43S611.14,647.1,611.61,646.48Z" transform="translate(33.63)"/>
            <path class="cls-64" d="M609.89,656.49s.49-.26.63,0,.08.32-.34.39S609.56,657,609.89,656.49Z" transform="translate(33.63)"/>
            <path class="cls-63" d="M604,657.86a1.53,1.53,0,0,1,1-.1c.41.19.86.64.77.8a1.52,1.52,0,0,1-.94.43,1.14,1.14,0,0,1-.83-.35C604,658.54,603.61,658.1,604,657.86Z" transform="translate(33.63)"/>
            <path class="cls-64" d="M604.36,658.21s.48-.51.93-.12.07.75-.3.76S604,658.74,604.36,658.21Z" transform="translate(33.63)"/>
            <path class="cls-63" d="M604.24,660.36s.45,0,.43.28.09.48,0,.62-.1.25-.46.32a1,1,0,0,1-.89-.14c-.31-.21-.47-.34-.16-.66S603.73,660.21,604.24,660.36Z" transform="translate(33.63)"/>
            <path class="cls-64" d="M603.78,660.65s.77-.32.75.25a.54.54,0,0,1-.84.52C603.33,661.21,603.21,661,603.78,660.65Z" transform="translate(33.63)"/>
            <path class="cls-63" d="M600.11,661.5s.56-.2.82.1.87.48.59.73a5.59,5.59,0,0,1-1.06.74c-.38.18-.4.08-.79-.19S599.08,661.86,600.11,661.5Z" transform="translate(33.63)"/>
            <path class="cls-64" d="M599.75,662.08s.23-.54.94-.21,0,.75-.38.93S599.43,662.62,599.75,662.08Z" transform="translate(33.63)"/>
            <path class="cls-64" d="M597.21,660.36s.4-.39.62,0a.45.45,0,0,1-.14.62.44.44,0,0,1-.37,0C597,660.92,596.89,660.63,597.21,660.36Z" transform="translate(33.63)"/>
            <path class="cls-64" d="M600.84,654.72s.31-.29.47,0,.23.75-.07.7S600.63,655.24,600.84,654.72Z" transform="translate(33.63)"/>
            <path class="cls-63" d="M615.91,651s.62-.38.94,0a5.51,5.51,0,0,1,.61,1.15,1.24,1.24,0,0,1,.18,1.12c-.17.36-.42,1-1,.68a2.31,2.31,0,0,1-1-1.35C615.41,652,615.22,651.3,615.91,651Z" transform="translate(33.63)"/>
            <path class="cls-64" d="M615.91,651.44s.44-.69,1.05.19.55,1.76.06,1.87S615.47,652.27,615.91,651.44Z" transform="translate(33.63)"/>
            <path class="cls-63" d="M617,655.79s.22,0,.5.39a1.54,1.54,0,0,1,.1,1.55c-.27.41-.68.16-1,0s-.45-.1-.57-.64-.21-.6,0-1S617,655.79,617,655.79Z" transform="translate(33.63)"/>
            <path class="cls-64" d="M616.74,656.13s.51-.28.67.65-.73,1-1,.72a.81.81,0,0,1,.33-1.37Z" transform="translate(33.63)"/>
            <path class="cls-65" d="M598.45,657.09s.58-1.08,1.33-.56a1.27,1.27,0,0,1,.52,1.2c-.14-.35-.41-.89-.8-.94a.84.84,0,0,0-1,.68s0,0,0,.06a1.26,1.26,0,0,0,.2.73A1,1,0,0,1,598.45,657.09Z" transform="translate(33.63)"/>
            <path class="cls-65" d="M598.08,651.55a.7.7,0,0,1,1,.05h0a.6.6,0,0,1,.18.42,1,1,0,0,0-.68-.43.61.61,0,0,0-.62.6v0a.62.62,0,0,0,.32.48.64.64,0,0,1-.48-.78A.65.65,0,0,1,598.08,651.55Z" transform="translate(33.63)"/>
            <path class="cls-63" d="M603.6,648.48h.94c.3,0,.74,0,.67.39a1.67,1.67,0,0,1-.61,1,1.39,1.39,0,0,1-2.12.11c-.23-.13-.72-.43-.43-.72A2,2,0,0,1,603.6,648.48Z" transform="translate(33.63)"/>
            <path class="cls-64" d="M603.35,648.91s1.31-.57,1.55,0-.82,1.31-1.25,1.32a1.37,1.37,0,0,1-1-.55C602.52,649.47,602.23,649.22,603.35,648.91Z" transform="translate(33.63)"/>
            <path class="cls-63" d="M608.12,647.14s.44-.14.51.09a1,1,0,0,1,0,.77c-.15.17-.52.16-.89.22s-.5-.06-.49-.35S607.65,647.32,608.12,647.14Z" transform="translate(33.63)"/>
            <path class="cls-64" d="M607.82,647.41s.62-.26.68.1-.09.52-.64.55S607.4,647.62,607.82,647.41Z" transform="translate(33.63)"/>
            <path class="cls-63" d="M602.05,645s1.11-.38,1.37-.22.48.24.22.43a6.83,6.83,0,0,1-.82.49,2.66,2.66,0,0,1-.86.38c-.45.1-1.2.11-1.66.2s-.88.12-.34-.27A8.58,8.58,0,0,1,602.05,645Z" transform="translate(33.63)"/>
            <path class="cls-64" d="M600.42,645.94a5.58,5.58,0,0,1,2.39-.94c1.15-.1-.19.88-1,1S600.1,646.18,600.42,645.94Z" transform="translate(33.63)"/>
            <path class="cls-63" d="M610.39,659.25s1.17-.1,1.23.17a6.05,6.05,0,0,1-.08,1.2c0,.39-.79.84-1.44.86s-1.26-.08-1.48-.56-.22-.59.21-.95A4.93,4.93,0,0,1,610.39,659.25Z" transform="translate(33.63)"/>
            <path class="cls-64" d="M609.8,659.79s1.18-.43,1.41-.11-.38,1.68-1.15,1.59S608.21,660.6,609.8,659.79Z" transform="translate(33.63)"/>
            <path class="cls-63" d="M606.32,665.93a1.63,1.63,0,0,1,1-.12c.4.15.52.53.69.77s.22.56-.46.57a6.19,6.19,0,0,1-1.29-.2C605.89,666.93,605.33,666.23,606.32,665.93Z" transform="translate(33.63)"/>
            <path class="cls-64" d="M606.58,666.21a.82.82,0,0,1,1.16.08v0c.47.63-.15.5-.61.53S605.81,666.74,606.58,666.21Z" transform="translate(33.63)"/>
            <path class="cls-63" d="M612.51,664.16s.52-.15.58.34a2.46,2.46,0,0,1-.18,1c0,.26-.17.29-.67.53a1.57,1.57,0,0,1-1.37,0c-.3-.19-.19-.48.09-.83A4.2,4.2,0,0,1,612.51,664.16Z" transform="translate(33.63)"/>
            <path class="cls-64" d="M611.86,664.67s1.07-.72,1.07.3-1.17,1.09-1.63,1S610.86,665.29,611.86,664.67Z" transform="translate(33.63)"/>
            <path class="cls-63" d="M615.78,661s.81-.4.72.08-.23.46-.31.64-.26.59-.52.6-.45-.4-.53-.55S615.12,661.22,615.78,661Z" transform="translate(33.63)"/>
            <path class="cls-64" d="M616,661.1s.3-.11.17.27-.3.82-.56.55S615.28,661.49,616,661.1Z" transform="translate(33.63)"/>
            <path class="cls-64" d="M600.6,664.31s.88.16.45.49-.51.17-.72,0S599.82,664.26,600.6,664.31Z" transform="translate(33.63)"/>
            <path class="cls-64" d="M594.77,655.84s.18-.44.47.13,0,1.2-.36.88A.62.62,0,0,1,594.77,655.84Z" transform="translate(33.63)"/>
            <path class="cls-65" d="M601,655.38c-.21-.08-.34-.27-.18-.66,0,0,.31-.29.47,0v.06a.22.22,0,0,0-.3-.06.46.46,0,0,0,0,.62Z" transform="translate(33.63)"/>
            <path class="cls-65" d="M600.42,645.94a5.58,5.58,0,0,1,2.39-.94c.53,0,.53.14.29.36a1.45,1.45,0,0,0-.92,0c-.61.19-1.23.48-1.27.68C600.48,646.1,600.22,646.09,600.42,645.94Z" transform="translate(33.63)"/>
            <path class="cls-65" d="M603.35,648.91s1.31-.57,1.55,0a.38.38,0,0,1,0,.21,1,1,0,0,0-.59-.18,1.56,1.56,0,0,0-.92.37,2.21,2.21,0,0,0-.8.39h0C602.52,649.47,602.23,649.22,603.35,648.91Z" transform="translate(33.63)"/>
            <path class="cls-65" d="M611.61,646.48a.73.73,0,0,1,.85-.11c.45.21.5.43.38.57a.65.65,0,0,0-.34-.27c-.38-.15-.59-.14-.76.15a.39.39,0,0,0,0,.5C611.52,647.18,611.27,646.93,611.61,646.48Z" transform="translate(33.63)"/>
            <path class="cls-65" d="M612.17,653.22c-.3-.14-.6-.38-.42-.77a1.1,1.1,0,0,1,.72-.61c.39-.05,1,.24,1,.58a.71.71,0,0,0-.67-.24c-.54.06-.6.09-.73.24a.5.5,0,0,0-.07.59Z" transform="translate(33.63)"/>
            <path class="cls-65" d="M607.82,647.41s.62-.26.68.1v.09a.68.68,0,0,0-.54-.05c-.22.12-.18.12-.27.29a.28.28,0,0,0,0,.22C607.34,648,607.44,647.6,607.82,647.41Z" transform="translate(33.63)"/>
            <path class="cls-66" d="M613.18,647.49s.22-.21.17.14-.37.57-.45.41S612.75,647.8,613.18,647.49Z" transform="translate(33.63)"/>
            <path class="cls-66" d="M613.54,653.55s.22-.09.2.13-.27.23-.27.23S613.22,653.8,613.54,653.55Z" transform="translate(33.63)"/>
            <path class="cls-66" d="M605.89,653.51s.24-.11.25,0,0,.21-.16.2S605.73,653.6,605.89,653.51Z" transform="translate(33.63)"/>
            <path class="cls-66" d="M601.42,652.74s.29-.12.22.07a.24.24,0,0,1-.28.15S601.29,652.89,601.42,652.74Z" transform="translate(33.63)"/>
            <path class="cls-65" d="M609.8,659.79s1.18-.43,1.41-.11c.1.12.06.42-.08.72,0-.23-.15-.52-.68-.4-.82.2-1,.51-.87.76a1.76,1.76,0,0,0,.37.49C609.2,661.11,608.29,660.56,609.8,659.79Z" transform="translate(33.63)"/>
            <path class="cls-65" d="M615.91,651.44s.44-.69,1.05.19c.07.11.14.22.2.33a1.54,1.54,0,0,0-.67-.35c-.35-.05-.53.21-.46.6s.13.53.21.79A1.56,1.56,0,0,1,615.91,651.44Z" transform="translate(33.63)"/>
            <path class="cls-65" d="M616.74,656.13s.51-.28.67.65c0,0-.47-.6-.73-.27a1,1,0,0,0-.24,1,.81.81,0,0,1,.3-1.38Z" transform="translate(33.63)"/>
            <path class="cls-65" d="M611.3,666a.29.29,0,0,1-.27-.2,1.71,1.71,0,0,0,.84,0c.25-.1.37-.18.66-.65s0-.72,0-.72h0c.21,0,.38.14.38.55C612.93,666,611.76,666.06,611.3,666Z" transform="translate(33.63)"/>
            <path class="cls-66" d="M615.25,656.5s.3.16.08.32-.29.06-.32,0S614.89,656.29,615.25,656.5Z" transform="translate(33.63)"/>
            <path class="cls-66" d="M618.08,653s-.52.25-.33.35S618.28,653.31,618.08,653Z" transform="translate(33.63)"/>
            <path class="cls-66" d="M600.26,659.1s.28,0,.2.21-.08.29-.22.14S600,659.1,600.26,659.1Z" transform="translate(33.63)"/>
            <path class="cls-66" d="M596.91,662.2s.37-.32.47.1.63,1,.37,1S597.45,662.22,596.91,662.2Z" transform="translate(33.63)"/>
            <path class="cls-66" d="M605.48,661.42s.15-.21.13.13a.26.26,0,0,1-.32.27Z" transform="translate(33.63)"/>
            <path class="cls-65" d="M604.92,658.18a.69.69,0,0,0-.61.46c-.07-.1-.07-.24.05-.43,0,0,.48-.51.93-.12.21.18.24.35.18.48A.5.5,0,0,0,604.92,658.18Z" transform="translate(33.63)"/>
            <path class="cls-65" d="M609.13,652.29a.32.32,0,0,1-.26-.39.32.32,0,0,1,.09-.17s.36-.41.72-.19a.36.36,0,0,1,.19.32.68.68,0,0,0-.55-.15c-.29.09-.43.26-.28.47Z" transform="translate(33.63)"/>
            <path class="cls-65" d="M606.58,666.21a.82.82,0,0,1,1.16.08v0l.09.14c-.23-.15-.64-.4-.86-.29s-.14.54-.45.63C606.25,666.71,606.12,666.53,606.58,666.21Z" transform="translate(33.63)"/>
            <path class="cls-65" d="M600,662.84c-.27-.07-.46-.37-.23-.76,0,0,.23-.54.94-.21.19.09.28.18.29.28a.71.71,0,0,0-.59-.24c-.33.08-.41.37-.52.49s0,.33.11.43Z" transform="translate(33.63)"/>
            <path class="cls-65" d="M603.78,660.65s.77-.32.75.25V661c-.14-.14-.4-.35-.59-.24s-.35.46-.42.54h0C603.31,661.11,603.33,660.92,603.78,660.65Z" transform="translate(33.63)"/>
            <path class="cls-65" d="M600.6,664.31s.63.12.56.35c-.1-.09-.25-.2-.38-.17a3,3,0,0,1-.52,0,.25.25,0,0,0-.06.16C600,664.5,600,664.27,600.6,664.31Z" transform="translate(33.63)"/>
            <path class="cls-66" d="M610.57,645.51s.72.09.46.25S610.41,645.85,610.57,645.51Z" transform="translate(33.63)"/>
            <path class="cls-66" d="M608.59,648.65s1.09-.13,1.22.28-.09.34-.37.15A2.28,2.28,0,0,0,608.59,648.65Z" transform="translate(33.63)"/>
            <path class="cls-66" d="M606.16,644.93h.25c.4,0,1.14.09.79.21S606.5,645,606.16,644.93Z" transform="translate(33.63)"/>
            <path class="cls-66" d="M605.65,649.37s.19.08.09.17S605.43,649.59,605.65,649.37Z" transform="translate(33.63)"/>
            <path class="cls-66" d="M599,647.46s1-.36.91-.11a.7.7,0,0,1-.6.29C599.17,647.64,599,647.64,599,647.46Z" transform="translate(33.63)"/>
            <path class="cls-66" d="M608.9,661.55s1,.18.76.4S609,661.57,608.9,661.55Z" transform="translate(33.63)"/>
            <path class="cls-66" d="M602.87,665.11s1.16-.28,1,0-.27.35-.38.36S603.31,665.11,602.87,665.11Z" transform="translate(33.63)"/>
            <path class="cls-66" d="M595,658.13s.76-.19.68.18-.23-.11-.44,0-.2.87-.2.87S594.82,658.36,595,658.13Z" transform="translate(33.63)"/>
            <path class="cls-66" d="M595.11,653.27s.63-.23.51.12-.32.41-.43.25S595.17,653.46,595.11,653.27Z" transform="translate(33.63)"/>
          </g>
          <path class="cls-67" d="M601.49,666.53a12.85,12.85,0,0,1-5.58-4.92c3.65,3.06,7.36,2.14,11.42-.5,4.84-3.15,6.64-6.7,7.14-10.05.28-1.9.59-2.29,1.29-2.49a10.23,10.23,0,0,1,1.58,2.53c1.83,3.62.79,7.12.2,9.25,0,.21-2.58,4.64-5.08,5.87A11.94,11.94,0,0,1,601.49,666.53Z" transform="translate(33.63)"/>
          <path class="cls-68" d="M617.23,650.79c1.49,3.78,1.69,6.48.15,9.71a12.24,12.24,0,0,1-5.29,5.79,12,12,0,0,1-9.07,1A13.36,13.36,0,0,0,615.73,661a9.93,9.93,0,0,0,.35-11.24" transform="translate(33.63)"/>
          <path class="cls-69" d="M596.9,649.7a12.42,12.42,0,0,1,5.13-4.2c3.29-1.37,7.08-1,9.41,1.09s-2,3.9-5.47,5.32-3.83,4.8-6.67,7.08-3.46,2.07-4.24-.65S595.81,651.11,596.9,649.7Z" transform="translate(33.63)"/>
          <path class="cls-70" d="M598.69,648.42s2.7-3,6-2.55-4.37,3.55-6,4.74S596.4,650.25,598.69,648.42Z" transform="translate(33.63)"/>
          <path class="cls-70" d="M596.68,651.7s.66-.2.43.48-.23,2.59-.88,2.72S595.26,652.58,596.68,651.7Z" transform="translate(33.63)"/>
        </g>
        <g>
          <path class="cls-71" d="M594.17,653.8c-6.43-.91-10.7-.85-11,.33s4.14,3.45,10.93,5.67c3.17,1,6.85,2.07,10.81,3s7.7,1.68,11,2.19c7.06,1.08,12,1.12,12.29-.13s-4-3.35-10.27-5.46c-.09.35-.19.62-.31,1,0,0-.08.21-.08.23,2.68,1,4.64,1.93,4.52,2.47s-2.09.63-5.15.29a101.7,101.7,0,0,1-11.63-2.15A102.78,102.78,0,0,1,594,657.9c-2.88-1.08-4.6-2-4.47-2.59s1.64-.59,4.49-.29" transform="translate(33.63)"/>
          <path class="cls-72" d="M617.12,664s-1.76-.21-3.91-.58-3.88-.71-3.87-.76,1.76.21,3.9.58S617.13,664,617.12,664Z" transform="translate(33.63)"/>
          <path class="cls-73" d="M621.32,665.34c.69,0,1.37.06,2.06.06h1a6.67,6.67,0,0,0,1-.13,3.18,3.18,0,0,0,.51-.13,1.71,1.71,0,0,0,.47-.23.9.9,0,0,0,.19-.2.31.31,0,0,0,.06-.13h0v-.07a.86.86,0,0,0-.05-.27,1,1,0,0,0-.14-.24,2.11,2.11,0,0,0-.35-.38c-.13-.12-.27-.23-.4-.33s-.58-.38-.87-.55c-.6-.35-1.22-.64-1.84-.93s-1.26-.54-1.9-.8c-1-.39-2-.75-3-1.1h0c.37.12.73.26,1.09.39.64.24,1.28.48,1.92.74s1.26.53,1.88.82,1.23.59,1.82.94c.29.17.58.35.86.55s.27.21.39.32.23.24.34.37a.82.82,0,0,1,.16.45v0h0v.1a1.37,1.37,0,0,1-.17.17,1.78,1.78,0,0,1-.44.21l-.49.13a8.27,8.27,0,0,1-1,.12h-1a18.62,18.62,0,0,1-2-.07c-.63-.07-1.36-.1-2-.17s-1.36-.15-2-.24c-1.36-.18-2.71-.4-4.06-.63-2.67-.48-5.33-1-8-1.67s-5.31-1.33-7.93-2.12c-1.31-.39-2.61-.81-3.91-1.25l-1.93-.7c-.64-.24-1.28-.49-1.91-.75s-1.25-.54-1.86-.85a13.52,13.52,0,0,1-1.78-1l-.4-.31a3,3,0,0,1-.36-.35,1.1,1.1,0,0,1-.24-.42v-.17h0a.82.82,0,0,1,.12-.2,1.33,1.33,0,0,1,.41-.25,2.77,2.77,0,0,1,.49-.15,5.62,5.62,0,0,1,1-.15c.68,0,1.37,0,2.05,0s1.36.06,2,.11,1.37.12,2,.19a8.13,8.13,0,0,1,1.09.14h0c-1.07-.15-2.06-.27-3.13-.36-.68-.06-1.37-.11-2-.13s-1.37,0-2.06,0a6.69,6.69,0,0,0-1,.14,4.13,4.13,0,0,0-.5.15,1.37,1.37,0,0,0-.44.28.61.61,0,0,0-.15.24h0v.07a.33.33,0,0,0,0,.14,1.07,1.07,0,0,0,.25.47,2.22,2.22,0,0,0,.38.37l.41.32a14.76,14.76,0,0,0,1.78,1c.61.31,1.24.59,1.87.86,1.26.54,2.55,1,3.84,1.47s2.6.87,3.91,1.27c2.62.79,5.27,1.49,7.93,2.13s5.35,1.19,8,1.66c1.35.23,2.7.44,4.06.62S620,665.26,621.32,665.34Z" transform="translate(33.63)"/>
          <path class="cls-73" d="M594,654.73a4.68,4.68,0,0,1-.54-.07c-.57-.06-1.13-.12-1.7-.15s-1.13,0-1.69,0a8.12,8.12,0,0,0-.85.07,2.13,2.13,0,0,0-.42.1,1,1,0,0,0-.39.21.35.35,0,0,0-.12.21.49.49,0,0,0,0,.24,1.54,1.54,0,0,0,.27.36,4.4,4.4,0,0,0,.69.51,16.73,16.73,0,0,0,1.51.8c.51.23,1,.45,1.56.66,1,.42,2.12.8,3.2,1.16s2.15.69,3.24,1q3.25,1,6.56,1.74c2.21.53,4.42,1,6.65,1.4,1.11.2,2.23.39,3.35.55s2.25.3,3.37.39c.57.05,1.14.08,1.7.1a10.7,10.7,0,0,0,1.7-.07,3.21,3.21,0,0,0,.43-.07,2.86,2.86,0,0,0,.41-.15.59.59,0,0,0,.18-.13.36.36,0,0,0,.06-.46.76.76,0,0,0-.12-.19,2.27,2.27,0,0,0-.32-.3c-.11-.09-.23-.17-.35-.25l-.73-.43c-.51-.26-1-.49-1.55-.71s-1-.43-1.58-.62l-.55-.21v.05l.54.2c.53.21,1.06.42,1.57.64s1,.47,1.53.74a7.74,7.74,0,0,1,.73.43,2.62,2.62,0,0,1,.34.24,2.06,2.06,0,0,1,.3.29.59.59,0,0,1,.1.17.25.25,0,0,1,0,.17.38.38,0,0,1-.24.27,1.74,1.74,0,0,1-.38.14l-.41.07a13.47,13.47,0,0,1-1.68,0c-.57,0-1.13-.06-1.69-.11a66.2,66.2,0,0,1-6.71-1c-2.22-.44-4.43-.88-6.63-1.41s-4.39-1.09-6.56-1.72-4.33-1.33-6.44-2.14l-1.56-.66a14.14,14.14,0,0,1-1.5-.77,4,4,0,0,1-.67-.5,1.07,1.07,0,0,1-.25-.31.54.54,0,0,1,0-.18.29.29,0,0,1,.09-.15.8.8,0,0,1,.35-.19l.4-.1a6,6,0,0,1,.84-.08,22.05,22.05,0,0,1,3.38.13l.54.06" transform="translate(33.63)"/>
          <path class="cls-73" d="M622.33,664.81a10.72,10.72,0,0,0,1.88-.07,2.43,2.43,0,0,0,.47-.08,1.5,1.5,0,0,0,.46-.17.5.5,0,0,0,.2-.15.42.42,0,0,0,.12-.25.58.58,0,0,0-.05-.26,1.64,1.64,0,0,0-.14-.22,2.81,2.81,0,0,0-.35-.34c-.12-.1-.26-.19-.39-.28a8.45,8.45,0,0,0-.82-.49q-.84-.43-1.71-.81c-.58-.25-1.16-.48-1.75-.71l-.62-.23h0c.2.08.41.15.61.24l1.74.72c.57.26,1.14.53,1.69.84q.42.23.81.48l.38.28a2.57,2.57,0,0,1,.33.33.76.76,0,0,1,.12.19.67.67,0,0,1,0,.2.42.42,0,0,1-.26.3,1.69,1.69,0,0,1-.43.15,3.54,3.54,0,0,1-.45.08,14.59,14.59,0,0,1-1.87,0c-.62,0-1.25-.06-1.87-.12-2.49-.24-5-.65-7.44-1.11s-4.92-1-7.36-1.62-4.86-1.24-7.27-2-4.8-1.51-7.14-2.44c-.58-.24-1.16-.48-1.73-.75a13.3,13.3,0,0,1-1.67-.88,4.58,4.58,0,0,1-.75-.56,1.36,1.36,0,0,1-.27-.36.67.67,0,0,1,0-.2.37.37,0,0,1,.1-.17,1,1,0,0,1,.38-.21,2.46,2.46,0,0,1,.45-.11,7.34,7.34,0,0,1,.93-.1h1.87c.62,0,1.25.09,1.88.15l.82.09h0l-.81-.1c-.62-.07-1.25-.13-1.87-.17a11.93,11.93,0,0,0-1.89,0,7.47,7.47,0,0,0-.94.09,2.36,2.36,0,0,0-.46.1,1.26,1.26,0,0,0-.44.24.47.47,0,0,0-.13.24.61.61,0,0,0,0,.27,1.17,1.17,0,0,0,.3.4,4.83,4.83,0,0,0,.76.59,16.88,16.88,0,0,0,1.68.9c.57.27,1.15.52,1.73.76,1.17.48,2.35.91,3.55,1.32s2.39.79,3.6,1.15c2.41.73,4.83,1.39,7.28,2s4.9,1.13,7.37,1.6c1.23.23,2.47.44,3.71.63s2.49.34,3.75.45A11.39,11.39,0,0,0,622.33,664.81Z" transform="translate(33.63)"/>
        </g>
      </g>
      <g>
        <ellipse class="cls-74" cx="1057.69" cy="597.53" rx="15.41" ry="15.22"/>
        <g>
          <g>
            <path class="cls-75" d="M1037.06,597.13s-.34.41-.25.74,0,.64.08.82,0,.52.43.15.47-.36.56-.73a1.16,1.16,0,0,0,0-.82C1037.82,597,1037.55,596.54,1037.06,597.13Z" transform="translate(33.63)"/>
            <path class="cls-75" d="M1026.7,591.44s-.41.25-.23.63.61.44.76.61.49.05.58-.3a.86.86,0,0,0-.14-.8A.75.75,0,0,0,1026.7,591.44Z" transform="translate(33.63)"/>
            <path class="cls-75" d="M1029.29,591a.68.68,0,0,0-.22.72,2.38,2.38,0,0,0,.68,1,5.83,5.83,0,0,0,.93.78c.39.32.68,0,1.1-.59s.65-.91.59-1.35a1.5,1.5,0,0,0-.87-1.1A2.41,2.41,0,0,0,1029.29,591Z" transform="translate(33.63)"/>
            <path class="cls-76" d="M1031.09,590.74s-1.5-.14-1.46,1,1.27,1.73,1.81,1.35C1032.26,592.46,1032.54,591.22,1031.09,590.74Z" transform="translate(33.63)"/>
            <path class="cls-75" d="M1016.19,601.08a3.24,3.24,0,0,0-.47.88c0,.28-.16,1,0,1.26s1,.13,1.25,0a4,4,0,0,0,1.13-.63c.26-.29.16-.9.11-1.19a.73.73,0,0,0-.68-.62C1017.1,600.74,1016.51,600.65,1016.19,601.08Z" transform="translate(33.63)"/>
            <path class="cls-76" d="M1017.45,601.06a1.34,1.34,0,0,0-1.1.31c-.38.44-.44,1.54.18,1.56s1.31-.26,1.4-.71S1018.08,601.15,1017.45,601.06Z" transform="translate(33.63)"/>
            <path class="cls-75" d="M1017.69,597.86s-.13.49,0,.59.15.8.58.73a1.74,1.74,0,0,0,1.14-.76.89.89,0,0,0-.26-1.14C1018.75,596.88,1018.05,597.28,1017.69,597.86Z" transform="translate(33.63)"/>
            <path class="cls-76" d="M1018.57,597.76s-.66.1-.68.6.61.6.93.31S1019.19,597.72,1018.57,597.76Z" transform="translate(33.63)"/>
            <path class="cls-75" d="M1025,586.65s-.52.49-.38,1,.18,1.23.5,1.13.56-.25.85-.36a1.19,1.19,0,0,0,.9-.82.92.92,0,0,0-.23-1.16C1026.43,586.1,1025.74,586.12,1025,586.65Z" transform="translate(33.63)"/>
            <path class="cls-76" d="M1025.61,586.67a.84.84,0,0,0-.61,1v0c.27.8.68.35.85.39a.61.61,0,0,0,.8-.32.65.65,0,0,0,0-.13.8.8,0,0,0-1.09-1Z" transform="translate(33.63)"/>
            <path class="cls-75" d="M1011.32,596.66a1.94,1.94,0,0,0-.62.52,1.46,1.46,0,0,0-.18,1c0,.33.06.7.71.42s.77.1,1.08-.28.09-.79,0-1.11S1011.92,596.31,1011.32,596.66Z" transform="translate(33.63)"/>
            <path class="cls-76" d="M1011.38,597a.86.86,0,0,0-.68.78c-.09.69.18.85.47.72s.77,0,.88-.37S1012.34,596.88,1011.38,597Z" transform="translate(33.63)"/>
            <path class="cls-76" d="M1022.87,601.87s-.6.31-.4.65.29.3.63-.08S1023.63,601.88,1022.87,601.87Z" transform="translate(33.63)"/>
            <path class="cls-75" d="M1028.18,596.86s-.73.46-.8,1,.09,1.29.31,1.3a1.71,1.71,0,0,0,1.07-.66,1.33,1.33,0,0,0,.19-1.06C1028.94,597.24,1028.7,596.6,1028.18,596.86Z" transform="translate(33.63)"/>
            <path class="cls-76" d="M1028.32,597.43s-.85.14-.74.86.73.56,1,.21S1029.08,597.45,1028.32,597.43Z" transform="translate(33.63)"/>
            <path class="cls-75" d="M1030.61,598.74s-.26.47,0,.62.44.41.67.38.31.07.63-.25a1.2,1.2,0,0,0,.45-1c0-.45,0-.7-.58-.59S1030.81,598.13,1030.61,598.74Z" transform="translate(33.63)"/>
            <path class="cls-76" d="M1031.23,598.47s-.85.56-.25.92a.67.67,0,0,0,1.1-.5C1032.1,598.39,1032,598.12,1031.23,598.47Z" transform="translate(33.63)"/>
            <path class="cls-75" d="M1034.54,595.33s-.58.43-.44.9-.08,1.19.36,1.08a6.43,6.43,0,0,0,1.47-.58c.45-.26.35-.34.33-.93S1035.6,594.54,1034.54,595.33Z" transform="translate(33.63)"/>
            <path class="cls-76" d="M1035.38,595.35s-.71-.12-.84.81.77.51,1.22.24S1036.16,595.39,1035.38,595.35Z" transform="translate(33.63)"/>
            <path class="cls-76" d="M1035.29,591.65s-.66.14-.41.63a.56.56,0,0,0,.77.2.61.61,0,0,0,.23-.27C1036,591.8,1035.78,591.51,1035.29,591.65Z" transform="translate(33.63)"/>
            <path class="cls-76" d="M1027.05,591.56s-.51.12-.29.49.62.73.78.4S1027.73,591.7,1027.05,591.56Z" transform="translate(33.63)"/>
            <path class="cls-75" d="M1013.16,604.26s-.81.38-.69.91a6.75,6.75,0,0,0,.79,1.38,1.53,1.53,0,0,0,1,.92c.49.07,1.35.27,1.39-.58a2.81,2.81,0,0,0-.7-1.94C1014.6,604.47,1014,603.79,1013.16,604.26Z" transform="translate(33.63)"/>
            <path class="cls-76" d="M1013.65,604.58s-1,0-.5,1.19,1.45,1.71,1.89,1.29S1014.79,604.68,1013.65,604.58Z" transform="translate(33.63)"/>
            <path class="cls-75" d="M1017.45,608.52s-.17.2.07.76a1.94,1.94,0,0,0,1.54,1.13c.61,0,.62-.58.71-1s.2-.53-.28-1-.49-.61-1-.68S1017.45,608.52,1017.45,608.52Z" transform="translate(33.63)"/>
            <path class="cls-76" d="M1018,608.53s-.63.32.22,1.11,1.52-.07,1.39-.51a1,1,0,0,0-1.16-.8A1,1,0,0,0,1018,608.53Z" transform="translate(33.63)"/>
            <path class="cls-77" d="M1031.09,590.74s-1.5-.14-1.46,1a1.55,1.55,0,0,0,.9,1.33c-.28-.37-.65-1-.45-1.44a1,1,0,0,1,1.32-.51l.08,0a1.5,1.5,0,0,1,.63.69C1032.08,591.38,1031.78,591,1031.09,590.74Z" transform="translate(33.63)"/>
            <path class="cls-77" d="M1025.61,586.67a.84.84,0,0,0-.61,1v0a.69.69,0,0,0,.31.45,1.1,1.1,0,0,1,0-1,.76.76,0,0,1,1-.23l0,0a.78.78,0,0,1,.29.65.8.8,0,0,0-.54-1A.83.83,0,0,0,1025.61,586.67Z" transform="translate(33.63)"/>
            <path class="cls-75" d="M1018.77,590.19s-.44.65-.62,1-.48.75,0,.93a2,2,0,0,0,1.48.08,2.52,2.52,0,0,0,1.32-.76c.3-.39.19-1,.21-1.3s0-1-.46-.91A2.46,2.46,0,0,0,1018.77,590.19Z" transform="translate(33.63)"/>
            <path class="cls-76" d="M1019.38,590.23s-1.46.94-1,1.55,1.89.05,2.19-.38a1.66,1.66,0,0,0,.12-1.41C1020.51,589.77,1020.44,589.31,1019.38,590.23Z" transform="translate(33.63)"/>
            <path class="cls-75" d="M1014.39,593.87s-.44.35-.26.57a1.19,1.19,0,0,0,.83.46c.28,0,.52-.42.82-.76s.28-.54,0-.71S1014.88,593.51,1014.39,593.87Z" transform="translate(33.63)"/>
            <path class="cls-76" d="M1014.87,593.74s-.69.45-.36.76.6.25,1-.28S1015.35,593.46,1014.87,593.74Z" transform="translate(33.63)"/>
            <path class="cls-75" d="M1016.2,586.32s-1.13.86-1.14,1.24-.07.64.3.5a7.18,7.18,0,0,0,1-.5,3.53,3.53,0,0,0,1-.61c.4-.39.92-1.14,1.31-1.55s.71-.8,0-.52A10.17,10.17,0,0,0,1016.2,586.32Z" transform="translate(33.63)"/>
            <path class="cls-76" d="M1018.26,585.3a7,7,0,0,0-2.56,1.79c-.86,1.1,1,.39,1.68-.38S1018.72,585.14,1018.26,585.3Z" transform="translate(33.63)"/>
            <path class="cls-75" d="M1025.38,604.21s-.88,1.11-.64,1.35a7.38,7.38,0,0,0,1.29.71c.43.23,1.4-.24,1.85-.88s.76-1.33.41-1.86-.46-.61-1.12-.42A5.69,5.69,0,0,0,1025.38,604.21Z" transform="translate(33.63)"/>
            <path class="cls-76" d="M1026.34,604s-1.23.91-1.06,1.36,2,.73,2.41-.11S1028.23,602.91,1026.34,604Z" transform="translate(33.63)"/>
            <path class="cls-75" d="M1035,604.54a2,2,0,0,0-.79.92,1.86,1.86,0,0,0,.34,1.21c.13.33.44.59.89-.08a7.42,7.42,0,0,0,.66-1.43C1036.31,604.77,1036,603.74,1035,604.54Z" transform="translate(33.63)"/>
            <path class="cls-76" d="M1035.11,605s-1,.33-.68,1.23.62.19,1-.25S1036.17,604.57,1035.11,605Z" transform="translate(33.63)"/>
            <path class="cls-75" d="M1029.05,609.6a.5.5,0,0,0,0,.81,3,3,0,0,0,1.2.51c.3.12.41,0,1-.33a1.76,1.76,0,0,0,.88-1.39c0-.43-.37-.51-.91-.46A5.19,5.19,0,0,0,1029.05,609.6Z" transform="translate(33.63)"/>
            <path class="cls-76" d="M1030,609.29s-1.46.6-.4,1.28,1.9-.46,2.16-1S1031.31,608.68,1030,609.29Z" transform="translate(33.63)"/>
            <path class="cls-75" d="M1023.56,610.76s-.95.55-.39.79.63.07.86.11.79.13,1-.12-.11-.73-.21-.9S1024.28,610.28,1023.56,610.76Z" transform="translate(33.63)"/>
            <path class="cls-76" d="M1023.57,611.09s-.31.23.16.35,1,.24.94-.2S1024.45,610.62,1023.57,611.09Z" transform="translate(33.63)"/>
            <path class="cls-76" d="M1037.12,597.7s-.42,1,.21.77.52-.4.48-.72S1037.59,596.88,1037.12,597.7Z" transform="translate(33.63)"/>
            <path class="cls-76" d="M1032.24,586.2s-.57-.12-.17.55,1.26.76,1.14.23S1032.92,586.15,1032.24,586.2Z" transform="translate(33.63)"/>
            <path class="cls-77" d="M1027.62,592.18c.05-.26-.06-.52-.57-.62,0,0-.51.12-.29.49a.09.09,0,0,1,0,.07.27.27,0,0,1,.14-.34h0c.32-.12.59.2.66.37Z" transform="translate(33.63)"/>
            <path class="cls-77" d="M1018.26,585.3a7,7,0,0,0-2.56,1.79c-.4.51-.21.63.18.54a1.61,1.61,0,0,1,.63-.92c.6-.49,1.32-.92,1.55-.82C1018.38,585.48,1018.55,585.2,1018.26,585.3Z" transform="translate(33.63)"/>
            <path class="cls-77" d="M1019.38,590.23s-1.46.94-1,1.55a.52.52,0,0,0,.19.17,1.2,1.2,0,0,1,.2-.71c.34-.54.81-.55,1-.68a2.44,2.44,0,0,1,.93-.55h0C1020.51,589.77,1020.44,589.31,1019.38,590.23Z" transform="translate(33.63)"/>
            <path class="cls-77" d="M1011.38,597a.86.86,0,0,0-.68.78c-.08.59.11.79.34.76a.65.65,0,0,1,0-.51c.09-.5.24-.7.66-.68a.5.5,0,0,1,.49.39C1012.17,597.32,1012.07,596.9,1011.38,597Z" transform="translate(33.63)"/>
            <path class="cls-77" d="M1018,602c.06-.4,0-.86-.52-.93a1.34,1.34,0,0,0-1.1.31,1.25,1.25,0,0,0-.1,1.45.87.87,0,0,1,.19-.84c.43-.5.5-.54.74-.57a.65.65,0,0,1,.66.32A2.1,2.1,0,0,1,1018,602Z" transform="translate(33.63)"/>
            <path class="cls-77" d="M1014.87,593.74s-.69.45-.36.76l.09.07a.74.74,0,0,1,.31-.58.65.65,0,0,1,.48-.08.27.27,0,0,1,.19.18C1015.8,593.66,1015.31,593.48,1014.87,593.74Z" transform="translate(33.63)"/>
            <path class="cls-78" d="M1011.38,599.2s-.36.08,0,.26.83,0,.72-.17S1012,599,1011.38,599.2Z" transform="translate(33.63)"/>
            <path class="cls-78" d="M1017.4,603.6s-.23.15,0,.27a.34.34,0,0,0,.41-.12S1017.88,603.44,1017.4,603.6Z" transform="translate(33.63)"/>
            <path class="cls-78" d="M1022.44,595.85s-.26.17-.19.23.24.1.31,0S1022.64,595.75,1022.44,595.85Z" transform="translate(33.63)"/>
            <path class="cls-78" d="M1024.62,590.84s-.32.21-.07.26a.29.29,0,0,0,.34-.18S1024.86,590.8,1024.62,590.84Z" transform="translate(33.63)"/>
            <path class="cls-77" d="M1026.34,604s-1.23.91-1.06,1.36c.07.18.4.33.8.39-.22-.17-.44-.5.05-1,.74-.69,1.16-.62,1.36-.37a2.17,2.17,0,0,1,.25.7C1028.1,604.24,1028.14,603,1026.34,604Z" transform="translate(33.63)"/>
            <path class="cls-77" d="M1013.65,604.58s-1,0-.5,1.19c.06.14.13.28.2.41a1.87,1.87,0,0,1,.09-.91c.18-.39.56-.39.92-.06a6.4,6.4,0,0,1,.68.73A1.88,1.88,0,0,0,1013.65,604.58Z" transform="translate(33.63)"/>
            <path class="cls-77" d="M1018,608.53s-.63.32.22,1.11c0,0-.31-.87.2-.92a1.24,1.24,0,0,1,1.19.41,1,1,0,0,0-1.16-.8A1,1,0,0,0,1018,608.53Z" transform="translate(33.63)"/>
            <path class="cls-77" d="M1031.77,609.61a.36.36,0,0,0,0-.4,2,2,0,0,1-.57.83c-.28.19-.43.25-1.12.24s-.75-.45-.75-.45h0c-.13.21-.12.47.31.75C1030.67,611.25,1031.51,610.11,1031.77,609.61Z" transform="translate(33.63)"/>
            <path class="cls-78" d="M1019.32,607.27s0,.41.28.3.25-.25.2-.33S1019.34,606.77,1019.32,607.27Z" transform="translate(33.63)"/>
            <path class="cls-78" d="M1013.85,607.83s.62-.36.59-.1a.31.31,0,0,1-.59.1Z" transform="translate(33.63)"/>
            <path class="cls-78" d="M1010.54,602a1.27,1.27,0,0,0,0,.86c.17.35.24.46.24.1S1010.77,601.81,1010.54,602Z" transform="translate(33.63)"/>
            <path class="cls-78" d="M1032,593.89s-.15.3.09.34.35.11.28-.13S1032.11,593.67,1032,593.89Z" transform="translate(33.63)"/>
            <path class="cls-78" d="M1037.4,592.58s-.59.16-.22.54.57,1.26.74,1S1037.05,593.13,1037.4,592.58Z" transform="translate(33.63)"/>
            <path class="cls-78" d="M1030.89,600.7s-.32,0,.06.21.48-.14.48-.14Z" transform="translate(33.63)"/>
            <path class="cls-77" d="M1027.91,598a.89.89,0,0,1,.88-.3c-.06-.14-.19-.23-.47-.24,0,0-.85.14-.74.86a.46.46,0,0,0,.38.5A.6.6,0,0,1,1027.91,598Z" transform="translate(33.63)"/>
            <path class="cls-77" d="M1019,598.3a.4.4,0,0,0-.25-.52.34.34,0,0,0-.22,0s-.66.1-.68.6a.41.41,0,0,0,.2.4.83.83,0,0,1,.22-.64c.28-.23.56-.26.66,0A1.34,1.34,0,0,0,1019,598.3Z" transform="translate(33.63)"/>
            <path class="cls-77" d="M1035.11,605s-1,.33-.68,1.23a.72.72,0,0,0,.09.2c0-.33,0-.91.28-1.06s.64.22.94,0C1035.84,605,1035.75,604.74,1035.11,605Z" transform="translate(33.63)"/>
            <path class="cls-77" d="M1036,596.1c.11-.32-.07-.72-.63-.75,0,0-.71-.12-.84.81a.54.54,0,0,0,.1.49.83.83,0,0,1,.14-.76c.3-.28.65-.16.85-.2s.32.25.37.39Z" transform="translate(33.63)"/>
            <path class="cls-77" d="M1031.23,598.47s-.85.56-.25.92l.1.05c0-.23-.09-.63.15-.75a1.6,1.6,0,0,1,.84-.07h0C1032,598.3,1031.8,598.19,1031.23,598.47Z" transform="translate(33.63)"/>
            <path class="cls-77" d="M1037.12,597.7s-.3.71,0,.79a.59.59,0,0,1,.08-.5c.19-.19.25-.46.36-.5a.37.37,0,0,1,.21,0C1037.68,597.26,1037.49,597,1037.12,597.7Z" transform="translate(33.63)"/>
            <path class="cls-78" d="M1011.07,595.26s-.38.77,0,.63S1011.53,595.32,1011.07,595.26Z" transform="translate(33.63)"/>
            <path class="cls-78" d="M1015.63,595.35s-.86,1-.52,1.41.41.13.4-.28A2.7,2.7,0,0,1,1015.63,595.35Z" transform="translate(33.63)"/>
            <path class="cls-78" d="M1013.41,590.43l-.15.25c-.25.43-.67,1.22-.31.94S1013.2,590.78,1013.41,590.43Z" transform="translate(33.63)"/>
            <path class="cls-78" d="M1018.33,592.86s0,.25.12.2S1018.7,592.78,1018.33,592.86Z" transform="translate(33.63)"/>
            <path class="cls-78" d="M1020.77,584.9s-1.07.81-.72.84a.81.81,0,0,0,.7-.41C1020.85,585.18,1021,585,1020.77,584.9Z" transform="translate(33.63)"/>
            <path class="cls-78" d="M1028.75,604.23s-.47,1.11-.09,1S1028.74,604.29,1028.75,604.23Z" transform="translate(33.63)"/>
            <path class="cls-78" d="M1036.44,600.51s-1.06,1-.66,1,.55,0,.63-.13S1036.14,601,1036.44,600.51Z" transform="translate(33.63)"/>
            <path class="cls-78" d="M1034.45,587.94s-.7.64-.27.81,0-.31.3-.45,1,.38,1,.38S1034.82,587.92,1034.45,587.94Z" transform="translate(33.63)"/>
            <path class="cls-78" d="M1029.36,584.83s-.65.47-.21.58.63,0,.54-.26S1029.52,585,1029.36,584.83Z" transform="translate(33.63)"/>
          </g>
          <path class="cls-79" d="M1038.82,600.06c.37-2.72.55-6.38-.89-9,.73,5.72-3.17,9-8.59,11.32-6.46,2.79-11.33,2.25-15.12.52-2.16-1-3.4-.53-4.07,0a11.11,11.11,0,0,0,1.28,3.18,12.18,12.18,0,0,0,10.28,6.31c2.93.24,6.57.21,9.5-1.49C1035.76,608.28,1038.18,604.75,1038.82,600.06Z" transform="translate(33.63)"/>
          <path class="cls-80" d="M1023.26,582.53a15.2,15.2,0,0,0-7.74,2.38c-3.61,2.41-5.71,6.49-5.13,10.21s5.35.59,9.14-2,7.5-.66,11.74-2,4.44-2.12,2.15-4.71S1025.45,582.37,1023.26,582.53Z" transform="translate(33.63)"/>
          <path class="cls-81" d="M1022,585.21s-4.94.7-6.61,4.32,6.58-2.06,8.9-2.92S1025.39,584.11,1022,585.21Z" transform="translate(33.63)"/>
        </g>
      </g>
      <rect class="cls-1" x="33.63" width="6400" height="900"/>
    </g>
  </g>
</svg>
